M48
; DRILL file {KiCad 5.1.5-52549c5~86~ubuntu18.04.1} date mar 02 jun 2020 01:28:11 -05
; FORMAT={-:-/ absolute / metric / decimal}
; #@! TF.CreationDate,2020-06-02T01:28:11-05:00
; #@! TF.GenerationSoftware,Kicad,Pcbnew,5.1.5-52549c5~86~ubuntu18.04.1
; #@! TF.FileFunction,Plated,1,2,PTH
FMAT,2
METRIC
T1C0.400
T2C1.000
%
G90
G05
T1
X92.075Y-48.555
X92.075Y-62.23
X92.075Y-63.555
X92.075Y-77.23
X92.075Y-78.555
X92.075Y-92.23
X92.075Y-93.555
X92.075Y-107.23
X92.075Y-108.555
X92.075Y-122.23
X92.075Y-123.555
X92.075Y-137.23
X95.25Y-60.96
X95.25Y-75.96
X95.25Y-90.96
X95.25Y-105.96
X95.25Y-120.96
X95.25Y-135.96
X95.885Y-48.895
X95.885Y-63.895
X95.885Y-78.895
X95.885Y-93.895
X95.885Y-108.895
X95.885Y-123.895
X97.79Y-48.895
X97.79Y-59.69
X97.79Y-63.895
X97.79Y-74.69
X97.79Y-78.895
X97.79Y-89.69
X97.79Y-93.895
X97.79Y-104.69
X97.79Y-108.895
X97.79Y-119.69
X97.79Y-123.895
X97.79Y-134.69
X99.695Y-50.165
X99.695Y-58.42
X99.695Y-65.165
X99.695Y-73.42
X99.695Y-80.165
X99.695Y-88.42
X99.695Y-95.165
X99.695Y-103.42
X99.695Y-110.165
X99.695Y-118.42
X99.695Y-125.165
X99.695Y-133.42
X122.075Y-48.555
X122.075Y-62.23
X122.075Y-63.555
X122.075Y-77.23
X122.075Y-78.555
X122.075Y-92.23
X122.075Y-93.555
X122.075Y-107.23
X122.075Y-108.555
X122.075Y-122.23
X122.075Y-123.555
X122.075Y-137.23
X125.25Y-60.96
X125.25Y-75.96
X125.25Y-90.96
X125.25Y-105.96
X125.25Y-120.96
X125.25Y-135.96
X125.885Y-48.895
X125.885Y-63.895
X125.885Y-78.895
X125.885Y-93.895
X125.885Y-108.895
X125.885Y-123.895
X127.79Y-48.895
X127.79Y-59.69
X127.79Y-63.895
X127.79Y-74.69
X127.79Y-78.895
X127.79Y-89.69
X127.79Y-93.895
X127.79Y-104.69
X127.79Y-108.895
X127.79Y-119.69
X127.79Y-123.895
X127.79Y-134.69
X129.695Y-50.165
X129.695Y-58.42
X129.695Y-65.165
X129.695Y-73.42
X129.695Y-80.165
X129.695Y-88.42
X129.695Y-95.165
X129.695Y-103.42
X129.695Y-110.165
X129.695Y-118.42
X129.695Y-125.165
X129.695Y-133.42
X152.075Y-48.555
X152.075Y-62.23
X152.075Y-63.555
X152.075Y-77.23
X152.075Y-78.555
X152.075Y-92.23
X152.075Y-93.555
X152.075Y-107.23
X152.075Y-108.555
X152.075Y-122.23
X152.075Y-123.555
X152.075Y-137.23
X155.25Y-60.96
X155.25Y-75.96
X155.25Y-90.96
X155.25Y-105.96
X155.25Y-120.96
X155.25Y-135.96
X155.885Y-48.895
X155.885Y-63.895
X155.885Y-78.895
X155.885Y-93.895
X155.885Y-108.895
X155.885Y-123.895
X157.79Y-48.895
X157.79Y-59.69
X157.79Y-63.895
X157.79Y-74.69
X157.79Y-78.895
X157.79Y-89.69
X157.79Y-93.895
X157.79Y-104.69
X157.79Y-108.895
X157.79Y-119.69
X157.79Y-123.895
X157.79Y-134.69
X159.695Y-50.165
X159.695Y-58.42
X159.695Y-65.165
X159.695Y-73.42
X159.695Y-80.165
X159.695Y-88.42
X159.695Y-95.165
X159.695Y-103.42
X159.695Y-110.165
X159.695Y-118.42
X159.695Y-125.165
X159.695Y-133.42
T2
X76.835Y-68.34
X76.835Y-70.88
X79.375Y-68.34
X79.375Y-70.88
X81.915Y-68.34
X81.915Y-70.88
X84.455Y-68.34
X84.455Y-70.88
X86.995Y-68.34
X86.995Y-70.88
X136.835Y-98.34
X136.835Y-100.88
X139.375Y-98.34
X139.375Y-100.88
X141.915Y-98.34
X141.915Y-100.88
X144.455Y-98.34
X144.455Y-100.88
X146.995Y-98.34
X146.995Y-100.88
X76.835Y-83.34
X76.835Y-85.88
X79.375Y-83.34
X79.375Y-85.88
X81.915Y-83.34
X81.915Y-85.88
X84.455Y-83.34
X84.455Y-85.88
X86.995Y-83.34
X86.995Y-85.88
X106.835Y-53.34
X106.835Y-55.88
X109.375Y-53.34
X109.375Y-55.88
X111.915Y-53.34
X111.915Y-55.88
X114.455Y-53.34
X114.455Y-55.88
X116.995Y-53.34
X116.995Y-55.88
X106.835Y-83.34
X106.835Y-85.88
X109.375Y-83.34
X109.375Y-85.88
X111.915Y-83.34
X111.915Y-85.88
X114.455Y-83.34
X114.455Y-85.88
X116.995Y-83.34
X116.995Y-85.88
X136.835Y-68.34
X136.835Y-70.88
X139.375Y-68.34
X139.375Y-70.88
X141.915Y-68.34
X141.915Y-70.88
X144.455Y-68.34
X144.455Y-70.88
X146.995Y-68.34
X146.995Y-70.88
X106.835Y-113.34
X106.835Y-115.88
X109.375Y-113.34
X109.375Y-115.88
X111.915Y-113.34
X111.915Y-115.88
X114.455Y-113.34
X114.455Y-115.88
X116.995Y-113.34
X116.995Y-115.88
X76.835Y-98.34
X76.835Y-100.88
X79.375Y-98.34
X79.375Y-100.88
X81.915Y-98.34
X81.915Y-100.88
X84.455Y-98.34
X84.455Y-100.88
X86.995Y-98.34
X86.995Y-100.88
X136.835Y-128.34
X136.835Y-130.88
X139.375Y-128.34
X139.375Y-130.88
X141.915Y-128.34
X141.915Y-130.88
X144.455Y-128.34
X144.455Y-130.88
X146.995Y-128.34
X146.995Y-130.88
X106.835Y-128.34
X106.835Y-130.88
X109.375Y-128.34
X109.375Y-130.88
X111.915Y-128.34
X111.915Y-130.88
X114.455Y-128.34
X114.455Y-130.88
X116.995Y-128.34
X116.995Y-130.88
X136.835Y-53.34
X136.835Y-55.88
X139.375Y-53.34
X139.375Y-55.88
X141.915Y-53.34
X141.915Y-55.88
X144.455Y-53.34
X144.455Y-55.88
X146.995Y-53.34
X146.995Y-55.88
X136.835Y-113.34
X136.835Y-115.88
X139.375Y-113.34
X139.375Y-115.88
X141.915Y-113.34
X141.915Y-115.88
X144.455Y-113.34
X144.455Y-115.88
X146.995Y-113.34
X146.995Y-115.88
X76.835Y-128.34
X76.835Y-130.88
X79.375Y-128.34
X79.375Y-130.88
X81.915Y-128.34
X81.915Y-130.88
X84.455Y-128.34
X84.455Y-130.88
X86.995Y-128.34
X86.995Y-130.88
X136.835Y-83.34
X136.835Y-85.88
X139.375Y-83.34
X139.375Y-85.88
X141.915Y-83.34
X141.915Y-85.88
X144.455Y-83.34
X144.455Y-85.88
X146.995Y-83.34
X146.995Y-85.88
X76.835Y-53.34
X76.835Y-55.88
X79.375Y-53.34
X79.375Y-55.88
X81.915Y-53.34
X81.915Y-55.88
X84.455Y-53.34
X84.455Y-55.88
X86.995Y-53.34
X86.995Y-55.88
X106.835Y-98.34
X106.835Y-100.88
X109.375Y-98.34
X109.375Y-100.88
X111.915Y-98.34
X111.915Y-100.88
X114.455Y-98.34
X114.455Y-100.88
X116.995Y-98.34
X116.995Y-100.88
X76.835Y-113.34
X76.835Y-115.88
X79.375Y-113.34
X79.375Y-115.88
X81.915Y-113.34
X81.915Y-115.88
X84.455Y-113.34
X84.455Y-115.88
X86.995Y-113.34
X86.995Y-115.88
X106.835Y-68.34
X106.835Y-70.88
X109.375Y-68.34
X109.375Y-70.88
X111.915Y-68.34
X111.915Y-70.88
X114.455Y-68.34
X114.455Y-70.88
X116.995Y-68.34
X116.995Y-70.88
T0
M30
