G04 #@! TF.GenerationSoftware,KiCad,Pcbnew,5.1.5-52549c5~86~ubuntu18.04.1*
G04 #@! TF.CreationDate,2020-06-02T01:28:18-05:00*
G04 #@! TF.ProjectId,adap_127_254_panel,61646170-5f31-4323-975f-3235345f7061,rev?*
G04 #@! TF.SameCoordinates,Original*
G04 #@! TF.FileFunction,Copper,L2,Bot*
G04 #@! TF.FilePolarity,Positive*
%FSLAX46Y46*%
G04 Gerber Fmt 4.6, Leading zero omitted, Abs format (unit mm)*
G04 Created by KiCad (PCBNEW 5.1.5-52549c5~86~ubuntu18.04.1) date 2020-06-02 01:28:18*
%MOMM*%
%LPD*%
G04 APERTURE LIST*
%ADD10C,0.010000*%
%ADD11R,1.700000X1.700000*%
%ADD12O,1.700000X1.700000*%
%ADD13C,0.800000*%
%ADD14C,0.500000*%
G04 APERTURE END LIST*
D10*
G36*
X100304148Y-53110473D02*
G01*
X100269319Y-53110616D01*
X100235801Y-53110883D01*
X100204370Y-53111273D01*
X100175807Y-53111790D01*
X100150890Y-53112431D01*
X100130398Y-53113198D01*
X100115110Y-53114089D01*
X100105804Y-53115106D01*
X100103352Y-53115819D01*
X100101718Y-53118038D01*
X100099788Y-53122790D01*
X100097461Y-53130558D01*
X100094634Y-53141821D01*
X100091204Y-53157061D01*
X100087070Y-53176757D01*
X100082130Y-53201392D01*
X100076282Y-53231444D01*
X100069424Y-53267396D01*
X100061453Y-53309727D01*
X100056141Y-53338133D01*
X100048829Y-53377079D01*
X100041805Y-53414040D01*
X100035195Y-53448375D01*
X100029127Y-53479442D01*
X100023729Y-53506598D01*
X100019129Y-53529203D01*
X100015454Y-53546614D01*
X100012832Y-53558189D01*
X100011389Y-53563288D01*
X100011364Y-53563338D01*
X100006260Y-53570180D01*
X100002529Y-53572988D01*
X99942683Y-53597601D01*
X99889471Y-53619403D01*
X99842842Y-53638413D01*
X99802747Y-53654653D01*
X99769136Y-53668141D01*
X99741957Y-53678899D01*
X99721161Y-53686947D01*
X99706698Y-53692304D01*
X99698517Y-53694990D01*
X99696741Y-53695338D01*
X99695085Y-53695353D01*
X99693425Y-53695201D01*
X99691320Y-53694594D01*
X99688328Y-53693241D01*
X99684008Y-53690852D01*
X99677919Y-53687137D01*
X99669620Y-53681804D01*
X99658668Y-53674565D01*
X99644624Y-53665128D01*
X99627046Y-53653204D01*
X99605492Y-53638502D01*
X99579521Y-53620731D01*
X99548692Y-53599602D01*
X99512563Y-53574825D01*
X99489746Y-53559174D01*
X99459149Y-53538212D01*
X99430174Y-53518407D01*
X99403407Y-53500155D01*
X99379433Y-53483855D01*
X99358839Y-53469903D01*
X99342210Y-53458697D01*
X99330131Y-53450634D01*
X99323189Y-53446110D01*
X99321909Y-53445342D01*
X99314131Y-53442964D01*
X99305815Y-53445305D01*
X99303761Y-53446347D01*
X99299417Y-53449837D01*
X99290451Y-53458011D01*
X99277351Y-53470394D01*
X99260604Y-53486511D01*
X99240699Y-53505890D01*
X99218122Y-53528055D01*
X99193360Y-53552533D01*
X99166901Y-53578850D01*
X99144026Y-53601725D01*
X99112139Y-53633723D01*
X99085037Y-53661018D01*
X99062343Y-53684012D01*
X99043682Y-53703109D01*
X99028680Y-53718713D01*
X99016960Y-53731227D01*
X99008149Y-53741054D01*
X99001870Y-53748598D01*
X98997748Y-53754262D01*
X98995409Y-53758449D01*
X98994476Y-53761563D01*
X98994413Y-53762588D01*
X98995493Y-53766540D01*
X98998833Y-53773435D01*
X99004665Y-53783628D01*
X99013218Y-53797476D01*
X99024723Y-53815333D01*
X99039411Y-53837555D01*
X99057512Y-53864499D01*
X99079256Y-53896520D01*
X99104875Y-53933973D01*
X99115844Y-53949950D01*
X99137892Y-53982139D01*
X99158728Y-54012748D01*
X99177981Y-54041221D01*
X99195282Y-54067001D01*
X99210260Y-54089533D01*
X99222544Y-54108258D01*
X99231764Y-54122621D01*
X99237551Y-54132064D01*
X99239510Y-54135871D01*
X99239446Y-54139698D01*
X99237863Y-54146463D01*
X99234570Y-54156654D01*
X99229379Y-54170756D01*
X99222100Y-54189258D01*
X99212544Y-54212646D01*
X99200521Y-54241406D01*
X99185842Y-54276026D01*
X99175988Y-54299094D01*
X99161759Y-54332095D01*
X99148349Y-54362731D01*
X99136054Y-54390354D01*
X99125172Y-54414316D01*
X99115999Y-54433969D01*
X99108832Y-54448665D01*
X99103968Y-54457756D01*
X99102119Y-54460413D01*
X99096828Y-54463795D01*
X99087810Y-54467168D01*
X99074157Y-54470778D01*
X99054963Y-54474871D01*
X99034230Y-54478799D01*
X98974363Y-54489774D01*
X98919060Y-54499976D01*
X98868592Y-54509354D01*
X98823228Y-54517858D01*
X98783238Y-54525434D01*
X98748893Y-54532031D01*
X98720461Y-54537598D01*
X98698213Y-54542084D01*
X98682418Y-54545435D01*
X98673347Y-54547601D01*
X98671284Y-54548289D01*
X98664738Y-54554015D01*
X98662622Y-54557566D01*
X98662219Y-54562163D01*
X98661839Y-54573368D01*
X98661489Y-54590531D01*
X98661175Y-54613000D01*
X98660904Y-54640125D01*
X98660683Y-54671255D01*
X98660517Y-54705739D01*
X98660414Y-54742926D01*
X98660380Y-54780629D01*
X98660378Y-54826578D01*
X98660400Y-54865812D01*
X98660486Y-54898874D01*
X98660677Y-54926306D01*
X98661014Y-54948653D01*
X98661538Y-54966458D01*
X98662289Y-54980265D01*
X98663308Y-54990616D01*
X98664636Y-54998056D01*
X98666314Y-55003128D01*
X98668382Y-55006375D01*
X98670882Y-55008340D01*
X98673853Y-55009568D01*
X98677338Y-55010601D01*
X98677642Y-55010692D01*
X98682308Y-55011691D01*
X98693446Y-55013877D01*
X98710392Y-55017123D01*
X98732478Y-55021304D01*
X98759038Y-55026296D01*
X98789405Y-55031972D01*
X98822914Y-55038207D01*
X98858898Y-55044876D01*
X98883601Y-55049441D01*
X98927976Y-55057664D01*
X98965718Y-55064741D01*
X98997345Y-55070784D01*
X99023371Y-55075901D01*
X99044316Y-55080203D01*
X99060696Y-55083799D01*
X99073027Y-55086800D01*
X99081826Y-55089315D01*
X99087611Y-55091454D01*
X99090898Y-55093328D01*
X99091213Y-55093598D01*
X99094293Y-55098544D01*
X99099627Y-55109456D01*
X99106886Y-55125517D01*
X99115744Y-55145908D01*
X99125870Y-55169813D01*
X99136937Y-55196414D01*
X99148616Y-55224892D01*
X99160579Y-55254430D01*
X99172497Y-55284210D01*
X99184043Y-55313415D01*
X99194886Y-55341226D01*
X99204700Y-55366827D01*
X99213156Y-55389398D01*
X99219925Y-55408123D01*
X99224679Y-55422184D01*
X99227090Y-55430762D01*
X99227324Y-55432511D01*
X99226499Y-55436238D01*
X99223845Y-55442251D01*
X99219095Y-55450966D01*
X99211982Y-55462799D01*
X99202237Y-55478165D01*
X99189595Y-55497479D01*
X99173787Y-55521157D01*
X99154547Y-55549615D01*
X99131607Y-55583268D01*
X99110815Y-55613622D01*
X99082214Y-55655457D01*
X99057781Y-55691520D01*
X99037438Y-55721931D01*
X99021108Y-55746806D01*
X99008715Y-55766264D01*
X99000182Y-55780424D01*
X98995432Y-55789403D01*
X98994304Y-55792898D01*
X98995181Y-55795801D01*
X98998035Y-55800387D01*
X99003206Y-55807013D01*
X99011030Y-55816038D01*
X99021846Y-55827820D01*
X99035991Y-55842718D01*
X99053803Y-55861090D01*
X99075620Y-55883295D01*
X99101780Y-55909690D01*
X99132620Y-55940633D01*
X99149486Y-55957508D01*
X99185483Y-55993400D01*
X99216619Y-56024228D01*
X99243067Y-56050160D01*
X99265003Y-56071361D01*
X99282599Y-56087996D01*
X99296030Y-56100231D01*
X99305471Y-56108232D01*
X99311095Y-56112165D01*
X99312543Y-56112658D01*
X99314363Y-56112543D01*
X99316565Y-56112011D01*
X99319577Y-56110778D01*
X99323830Y-56108561D01*
X99329751Y-56105077D01*
X99337771Y-56100044D01*
X99348319Y-56093178D01*
X99361823Y-56084197D01*
X99378714Y-56072816D01*
X99399420Y-56058755D01*
X99424371Y-56041728D01*
X99453996Y-56021455D01*
X99488724Y-55997650D01*
X99528984Y-55970033D01*
X99531156Y-55968542D01*
X99558516Y-55949883D01*
X99584220Y-55932568D01*
X99607612Y-55917024D01*
X99628040Y-55903676D01*
X99644849Y-55892947D01*
X99657384Y-55885263D01*
X99664993Y-55881049D01*
X99666893Y-55880363D01*
X99672055Y-55882015D01*
X99682598Y-55886647D01*
X99697521Y-55893776D01*
X99715826Y-55902917D01*
X99736515Y-55913586D01*
X99748889Y-55920111D01*
X99770415Y-55931515D01*
X99790015Y-55941828D01*
X99806708Y-55950538D01*
X99819515Y-55957137D01*
X99827455Y-55961114D01*
X99829423Y-55962011D01*
X99836213Y-55961439D01*
X99842698Y-55957651D01*
X99845069Y-55953479D01*
X99849955Y-55943121D01*
X99857134Y-55927111D01*
X99866384Y-55905986D01*
X99877482Y-55880282D01*
X99890205Y-55850535D01*
X99904331Y-55817280D01*
X99919637Y-55781054D01*
X99935902Y-55742392D01*
X99952901Y-55701831D01*
X99970414Y-55659906D01*
X99988217Y-55617153D01*
X100006088Y-55574109D01*
X100023804Y-55531309D01*
X100041143Y-55489289D01*
X100057882Y-55448585D01*
X100073799Y-55409734D01*
X100088672Y-55373270D01*
X100102277Y-55339731D01*
X100114392Y-55309651D01*
X100124795Y-55283567D01*
X100133263Y-55262015D01*
X100139574Y-55245531D01*
X100143505Y-55234651D01*
X100144835Y-55229929D01*
X100144209Y-55223195D01*
X100141622Y-55217681D01*
X100135852Y-55212031D01*
X100125678Y-55204892D01*
X100117668Y-55199779D01*
X100066034Y-55164544D01*
X100021107Y-55127898D01*
X99982393Y-55089326D01*
X99949397Y-55048315D01*
X99921622Y-55004354D01*
X99912691Y-54987479D01*
X99890771Y-54936154D01*
X99875229Y-54882371D01*
X99866126Y-54827045D01*
X99863518Y-54771092D01*
X99867465Y-54715426D01*
X99878024Y-54660962D01*
X99889515Y-54623670D01*
X99912094Y-54571195D01*
X99940712Y-54522096D01*
X99974850Y-54476949D01*
X100013990Y-54436326D01*
X100057612Y-54400802D01*
X100105199Y-54370951D01*
X100128482Y-54359187D01*
X100181723Y-54338047D01*
X100235957Y-54323751D01*
X100290635Y-54316113D01*
X100345209Y-54314949D01*
X100399128Y-54320074D01*
X100451846Y-54331304D01*
X100502811Y-54348453D01*
X100551477Y-54371339D01*
X100597293Y-54399774D01*
X100639711Y-54433576D01*
X100678181Y-54472560D01*
X100712155Y-54516540D01*
X100741018Y-54565202D01*
X100761530Y-54609711D01*
X100776415Y-54653039D01*
X100786139Y-54697152D01*
X100791168Y-54744012D01*
X100792144Y-54780591D01*
X100790109Y-54829623D01*
X100783864Y-54874464D01*
X100772940Y-54917147D01*
X100756868Y-54959702D01*
X100744813Y-54985508D01*
X100720255Y-55028998D01*
X100691148Y-55069431D01*
X100656905Y-55107415D01*
X100616940Y-55143558D01*
X100570669Y-55178470D01*
X100538703Y-55199671D01*
X100525559Y-55208285D01*
X100517491Y-55214626D01*
X100513281Y-55220041D01*
X100511713Y-55225878D01*
X100511536Y-55229759D01*
X100512893Y-55234196D01*
X100516833Y-55244793D01*
X100523135Y-55261016D01*
X100531578Y-55282328D01*
X100541940Y-55308195D01*
X100554002Y-55338081D01*
X100567541Y-55371450D01*
X100582336Y-55407768D01*
X100598168Y-55446498D01*
X100614814Y-55487106D01*
X100632054Y-55529055D01*
X100649666Y-55571812D01*
X100667430Y-55614840D01*
X100685124Y-55657603D01*
X100702527Y-55699568D01*
X100719420Y-55740197D01*
X100735579Y-55778957D01*
X100750785Y-55815311D01*
X100764816Y-55848723D01*
X100777452Y-55878660D01*
X100788471Y-55904585D01*
X100797652Y-55925963D01*
X100804774Y-55942258D01*
X100809617Y-55952936D01*
X100811959Y-55957460D01*
X100811985Y-55957492D01*
X100817791Y-55962518D01*
X100821202Y-55963844D01*
X100825316Y-55962207D01*
X100834910Y-55957607D01*
X100849065Y-55950508D01*
X100866863Y-55941376D01*
X100887385Y-55930676D01*
X100903632Y-55922103D01*
X100925791Y-55910506D01*
X100946133Y-55900147D01*
X100963687Y-55891497D01*
X100977486Y-55885027D01*
X100986559Y-55881207D01*
X100989601Y-55880363D01*
X100993864Y-55882369D01*
X101003532Y-55888142D01*
X101018044Y-55897311D01*
X101036838Y-55909509D01*
X101059354Y-55924364D01*
X101085031Y-55941508D01*
X101113307Y-55960571D01*
X101143621Y-55981185D01*
X101166004Y-55996510D01*
X101201540Y-56020810D01*
X101234052Y-56042842D01*
X101263135Y-56062340D01*
X101288386Y-56079041D01*
X101309400Y-56092679D01*
X101325771Y-56102990D01*
X101337097Y-56109709D01*
X101342971Y-56112571D01*
X101343463Y-56112658D01*
X101346834Y-56111147D01*
X101353124Y-56106451D01*
X101362596Y-56098320D01*
X101375511Y-56086508D01*
X101392129Y-56070764D01*
X101412712Y-56050843D01*
X101437522Y-56026494D01*
X101466820Y-55997471D01*
X101500867Y-55963525D01*
X101506917Y-55957476D01*
X101539985Y-55924351D01*
X101568222Y-55895946D01*
X101591972Y-55871892D01*
X101611582Y-55851822D01*
X101627398Y-55835368D01*
X101639766Y-55822162D01*
X101649033Y-55811837D01*
X101655544Y-55804025D01*
X101659645Y-55798357D01*
X101661683Y-55794467D01*
X101662067Y-55792598D01*
X101660452Y-55787914D01*
X101655521Y-55778741D01*
X101647147Y-55764881D01*
X101635199Y-55746137D01*
X101619551Y-55722310D01*
X101600072Y-55693202D01*
X101576635Y-55658615D01*
X101549111Y-55618351D01*
X101545556Y-55613171D01*
X101519389Y-55574967D01*
X101497144Y-55542292D01*
X101478562Y-55514743D01*
X101463381Y-55491915D01*
X101451341Y-55473405D01*
X101442183Y-55458808D01*
X101435645Y-55447720D01*
X101431469Y-55439738D01*
X101429393Y-55434458D01*
X101429046Y-55432329D01*
X101430396Y-55426284D01*
X101434225Y-55414414D01*
X101440206Y-55397538D01*
X101448008Y-55376474D01*
X101457305Y-55352040D01*
X101467767Y-55325053D01*
X101479066Y-55296332D01*
X101490873Y-55266694D01*
X101502859Y-55236959D01*
X101514696Y-55207943D01*
X101526055Y-55180465D01*
X101536608Y-55155342D01*
X101546027Y-55133393D01*
X101553981Y-55115436D01*
X101560143Y-55102289D01*
X101564185Y-55094770D01*
X101565157Y-55093499D01*
X101568011Y-55091670D01*
X101573144Y-55089613D01*
X101581074Y-55087217D01*
X101592320Y-55084372D01*
X101607398Y-55080968D01*
X101626826Y-55076894D01*
X101651122Y-55072039D01*
X101680802Y-55066293D01*
X101716385Y-55059545D01*
X101758388Y-55051685D01*
X101777397Y-55048150D01*
X101824151Y-55039418D01*
X101864152Y-55031835D01*
X101897799Y-55025318D01*
X101925493Y-55019781D01*
X101947632Y-55015142D01*
X101964618Y-55011316D01*
X101976849Y-55008219D01*
X101984727Y-55005766D01*
X101988650Y-55003875D01*
X101988821Y-55003731D01*
X101990312Y-55002194D01*
X101991580Y-55000122D01*
X101992644Y-54996956D01*
X101993521Y-54992136D01*
X101994230Y-54985106D01*
X101994789Y-54975306D01*
X101995215Y-54962178D01*
X101995526Y-54945164D01*
X101995741Y-54923704D01*
X101995877Y-54897242D01*
X101995952Y-54865217D01*
X101995984Y-54827073D01*
X101995990Y-54782250D01*
X101995990Y-54780326D01*
X101995954Y-54741181D01*
X101995848Y-54704113D01*
X101995680Y-54669775D01*
X101995457Y-54638817D01*
X101995184Y-54611890D01*
X101994868Y-54589646D01*
X101994516Y-54572737D01*
X101994135Y-54561813D01*
X101993749Y-54557566D01*
X101988744Y-54550896D01*
X101985245Y-54548373D01*
X101980610Y-54547112D01*
X101969490Y-54544669D01*
X101952538Y-54541174D01*
X101930407Y-54536753D01*
X101903753Y-54531536D01*
X101873229Y-54525650D01*
X101839488Y-54519225D01*
X101803186Y-54512387D01*
X101772432Y-54506649D01*
X101724011Y-54497595D01*
X101682430Y-54489690D01*
X101647371Y-54482868D01*
X101618518Y-54477062D01*
X101595553Y-54472207D01*
X101578159Y-54468235D01*
X101566018Y-54465081D01*
X101558815Y-54462679D01*
X101556808Y-54461629D01*
X101553139Y-54456667D01*
X101547136Y-54445822D01*
X101539154Y-54429917D01*
X101529548Y-54409777D01*
X101518673Y-54386226D01*
X101506884Y-54360088D01*
X101494538Y-54332186D01*
X101481988Y-54303345D01*
X101469591Y-54274388D01*
X101457701Y-54246141D01*
X101446674Y-54219425D01*
X101436865Y-54195067D01*
X101428630Y-54173888D01*
X101422323Y-54156715D01*
X101418300Y-54144370D01*
X101416915Y-54137677D01*
X101416952Y-54137243D01*
X101419283Y-54132501D01*
X101425384Y-54122353D01*
X101434886Y-54107356D01*
X101447420Y-54088068D01*
X101462618Y-54065048D01*
X101480112Y-54038854D01*
X101499535Y-54010043D01*
X101520516Y-53979174D01*
X101540275Y-53950318D01*
X101567478Y-53910634D01*
X101590717Y-53876520D01*
X101610225Y-53847621D01*
X101626229Y-53823580D01*
X101638963Y-53804044D01*
X101648654Y-53788656D01*
X101655535Y-53777061D01*
X101659835Y-53768903D01*
X101661784Y-53763828D01*
X101661958Y-53762587D01*
X101661479Y-53759800D01*
X101659747Y-53756099D01*
X101656387Y-53751084D01*
X101651027Y-53744354D01*
X101643294Y-53735508D01*
X101632816Y-53724146D01*
X101619218Y-53709867D01*
X101602129Y-53692270D01*
X101581175Y-53670954D01*
X101555984Y-53645520D01*
X101526183Y-53615565D01*
X101510530Y-53599864D01*
X101482941Y-53572284D01*
X101456699Y-53546207D01*
X101432280Y-53522098D01*
X101410162Y-53500419D01*
X101390819Y-53481632D01*
X101374728Y-53466201D01*
X101362366Y-53454587D01*
X101354208Y-53447254D01*
X101350859Y-53444699D01*
X101342242Y-53442969D01*
X101337211Y-53443585D01*
X101333303Y-53445969D01*
X101323948Y-53452106D01*
X101309682Y-53461634D01*
X101291038Y-53474193D01*
X101268550Y-53489419D01*
X101242753Y-53506952D01*
X101214180Y-53526430D01*
X101183366Y-53547491D01*
X101150845Y-53569773D01*
X101149757Y-53570520D01*
X101114266Y-53594777D01*
X101081329Y-53617110D01*
X101051390Y-53637227D01*
X101024890Y-53654837D01*
X101002273Y-53669650D01*
X100983980Y-53681376D01*
X100970455Y-53689723D01*
X100962139Y-53694401D01*
X100959690Y-53695338D01*
X100955080Y-53694011D01*
X100944602Y-53690256D01*
X100929101Y-53684412D01*
X100909420Y-53676817D01*
X100886405Y-53667810D01*
X100860897Y-53657730D01*
X100833743Y-53646916D01*
X100805785Y-53635707D01*
X100777867Y-53624441D01*
X100750834Y-53613457D01*
X100725529Y-53603094D01*
X100702797Y-53593691D01*
X100683481Y-53585586D01*
X100668425Y-53579119D01*
X100658474Y-53574628D01*
X100656242Y-53573528D01*
X100648293Y-53567771D01*
X100643911Y-53562085D01*
X100642768Y-53557438D01*
X100640425Y-53546291D01*
X100637004Y-53529279D01*
X100632630Y-53507041D01*
X100627425Y-53480212D01*
X100621514Y-53449429D01*
X100615020Y-53415329D01*
X100608065Y-53378549D01*
X100600775Y-53339725D01*
X100600488Y-53338192D01*
X100591806Y-53291955D01*
X100584302Y-53252377D01*
X100577871Y-53218972D01*
X100572410Y-53191254D01*
X100567815Y-53168737D01*
X100563983Y-53150934D01*
X100560810Y-53137359D01*
X100558191Y-53127527D01*
X100556025Y-53120951D01*
X100554207Y-53117144D01*
X100553100Y-53115878D01*
X100548015Y-53114780D01*
X100536450Y-53113806D01*
X100519185Y-53112955D01*
X100496999Y-53112228D01*
X100470670Y-53111625D01*
X100440978Y-53111146D01*
X100408700Y-53110792D01*
X100374617Y-53110562D01*
X100339506Y-53110455D01*
X100304148Y-53110473D01*
G37*
X100304148Y-53110473D02*
X100269319Y-53110616D01*
X100235801Y-53110883D01*
X100204370Y-53111273D01*
X100175807Y-53111790D01*
X100150890Y-53112431D01*
X100130398Y-53113198D01*
X100115110Y-53114089D01*
X100105804Y-53115106D01*
X100103352Y-53115819D01*
X100101718Y-53118038D01*
X100099788Y-53122790D01*
X100097461Y-53130558D01*
X100094634Y-53141821D01*
X100091204Y-53157061D01*
X100087070Y-53176757D01*
X100082130Y-53201392D01*
X100076282Y-53231444D01*
X100069424Y-53267396D01*
X100061453Y-53309727D01*
X100056141Y-53338133D01*
X100048829Y-53377079D01*
X100041805Y-53414040D01*
X100035195Y-53448375D01*
X100029127Y-53479442D01*
X100023729Y-53506598D01*
X100019129Y-53529203D01*
X100015454Y-53546614D01*
X100012832Y-53558189D01*
X100011389Y-53563288D01*
X100011364Y-53563338D01*
X100006260Y-53570180D01*
X100002529Y-53572988D01*
X99942683Y-53597601D01*
X99889471Y-53619403D01*
X99842842Y-53638413D01*
X99802747Y-53654653D01*
X99769136Y-53668141D01*
X99741957Y-53678899D01*
X99721161Y-53686947D01*
X99706698Y-53692304D01*
X99698517Y-53694990D01*
X99696741Y-53695338D01*
X99695085Y-53695353D01*
X99693425Y-53695201D01*
X99691320Y-53694594D01*
X99688328Y-53693241D01*
X99684008Y-53690852D01*
X99677919Y-53687137D01*
X99669620Y-53681804D01*
X99658668Y-53674565D01*
X99644624Y-53665128D01*
X99627046Y-53653204D01*
X99605492Y-53638502D01*
X99579521Y-53620731D01*
X99548692Y-53599602D01*
X99512563Y-53574825D01*
X99489746Y-53559174D01*
X99459149Y-53538212D01*
X99430174Y-53518407D01*
X99403407Y-53500155D01*
X99379433Y-53483855D01*
X99358839Y-53469903D01*
X99342210Y-53458697D01*
X99330131Y-53450634D01*
X99323189Y-53446110D01*
X99321909Y-53445342D01*
X99314131Y-53442964D01*
X99305815Y-53445305D01*
X99303761Y-53446347D01*
X99299417Y-53449837D01*
X99290451Y-53458011D01*
X99277351Y-53470394D01*
X99260604Y-53486511D01*
X99240699Y-53505890D01*
X99218122Y-53528055D01*
X99193360Y-53552533D01*
X99166901Y-53578850D01*
X99144026Y-53601725D01*
X99112139Y-53633723D01*
X99085037Y-53661018D01*
X99062343Y-53684012D01*
X99043682Y-53703109D01*
X99028680Y-53718713D01*
X99016960Y-53731227D01*
X99008149Y-53741054D01*
X99001870Y-53748598D01*
X98997748Y-53754262D01*
X98995409Y-53758449D01*
X98994476Y-53761563D01*
X98994413Y-53762588D01*
X98995493Y-53766540D01*
X98998833Y-53773435D01*
X99004665Y-53783628D01*
X99013218Y-53797476D01*
X99024723Y-53815333D01*
X99039411Y-53837555D01*
X99057512Y-53864499D01*
X99079256Y-53896520D01*
X99104875Y-53933973D01*
X99115844Y-53949950D01*
X99137892Y-53982139D01*
X99158728Y-54012748D01*
X99177981Y-54041221D01*
X99195282Y-54067001D01*
X99210260Y-54089533D01*
X99222544Y-54108258D01*
X99231764Y-54122621D01*
X99237551Y-54132064D01*
X99239510Y-54135871D01*
X99239446Y-54139698D01*
X99237863Y-54146463D01*
X99234570Y-54156654D01*
X99229379Y-54170756D01*
X99222100Y-54189258D01*
X99212544Y-54212646D01*
X99200521Y-54241406D01*
X99185842Y-54276026D01*
X99175988Y-54299094D01*
X99161759Y-54332095D01*
X99148349Y-54362731D01*
X99136054Y-54390354D01*
X99125172Y-54414316D01*
X99115999Y-54433969D01*
X99108832Y-54448665D01*
X99103968Y-54457756D01*
X99102119Y-54460413D01*
X99096828Y-54463795D01*
X99087810Y-54467168D01*
X99074157Y-54470778D01*
X99054963Y-54474871D01*
X99034230Y-54478799D01*
X98974363Y-54489774D01*
X98919060Y-54499976D01*
X98868592Y-54509354D01*
X98823228Y-54517858D01*
X98783238Y-54525434D01*
X98748893Y-54532031D01*
X98720461Y-54537598D01*
X98698213Y-54542084D01*
X98682418Y-54545435D01*
X98673347Y-54547601D01*
X98671284Y-54548289D01*
X98664738Y-54554015D01*
X98662622Y-54557566D01*
X98662219Y-54562163D01*
X98661839Y-54573368D01*
X98661489Y-54590531D01*
X98661175Y-54613000D01*
X98660904Y-54640125D01*
X98660683Y-54671255D01*
X98660517Y-54705739D01*
X98660414Y-54742926D01*
X98660380Y-54780629D01*
X98660378Y-54826578D01*
X98660400Y-54865812D01*
X98660486Y-54898874D01*
X98660677Y-54926306D01*
X98661014Y-54948653D01*
X98661538Y-54966458D01*
X98662289Y-54980265D01*
X98663308Y-54990616D01*
X98664636Y-54998056D01*
X98666314Y-55003128D01*
X98668382Y-55006375D01*
X98670882Y-55008340D01*
X98673853Y-55009568D01*
X98677338Y-55010601D01*
X98677642Y-55010692D01*
X98682308Y-55011691D01*
X98693446Y-55013877D01*
X98710392Y-55017123D01*
X98732478Y-55021304D01*
X98759038Y-55026296D01*
X98789405Y-55031972D01*
X98822914Y-55038207D01*
X98858898Y-55044876D01*
X98883601Y-55049441D01*
X98927976Y-55057664D01*
X98965718Y-55064741D01*
X98997345Y-55070784D01*
X99023371Y-55075901D01*
X99044316Y-55080203D01*
X99060696Y-55083799D01*
X99073027Y-55086800D01*
X99081826Y-55089315D01*
X99087611Y-55091454D01*
X99090898Y-55093328D01*
X99091213Y-55093598D01*
X99094293Y-55098544D01*
X99099627Y-55109456D01*
X99106886Y-55125517D01*
X99115744Y-55145908D01*
X99125870Y-55169813D01*
X99136937Y-55196414D01*
X99148616Y-55224892D01*
X99160579Y-55254430D01*
X99172497Y-55284210D01*
X99184043Y-55313415D01*
X99194886Y-55341226D01*
X99204700Y-55366827D01*
X99213156Y-55389398D01*
X99219925Y-55408123D01*
X99224679Y-55422184D01*
X99227090Y-55430762D01*
X99227324Y-55432511D01*
X99226499Y-55436238D01*
X99223845Y-55442251D01*
X99219095Y-55450966D01*
X99211982Y-55462799D01*
X99202237Y-55478165D01*
X99189595Y-55497479D01*
X99173787Y-55521157D01*
X99154547Y-55549615D01*
X99131607Y-55583268D01*
X99110815Y-55613622D01*
X99082214Y-55655457D01*
X99057781Y-55691520D01*
X99037438Y-55721931D01*
X99021108Y-55746806D01*
X99008715Y-55766264D01*
X99000182Y-55780424D01*
X98995432Y-55789403D01*
X98994304Y-55792898D01*
X98995181Y-55795801D01*
X98998035Y-55800387D01*
X99003206Y-55807013D01*
X99011030Y-55816038D01*
X99021846Y-55827820D01*
X99035991Y-55842718D01*
X99053803Y-55861090D01*
X99075620Y-55883295D01*
X99101780Y-55909690D01*
X99132620Y-55940633D01*
X99149486Y-55957508D01*
X99185483Y-55993400D01*
X99216619Y-56024228D01*
X99243067Y-56050160D01*
X99265003Y-56071361D01*
X99282599Y-56087996D01*
X99296030Y-56100231D01*
X99305471Y-56108232D01*
X99311095Y-56112165D01*
X99312543Y-56112658D01*
X99314363Y-56112543D01*
X99316565Y-56112011D01*
X99319577Y-56110778D01*
X99323830Y-56108561D01*
X99329751Y-56105077D01*
X99337771Y-56100044D01*
X99348319Y-56093178D01*
X99361823Y-56084197D01*
X99378714Y-56072816D01*
X99399420Y-56058755D01*
X99424371Y-56041728D01*
X99453996Y-56021455D01*
X99488724Y-55997650D01*
X99528984Y-55970033D01*
X99531156Y-55968542D01*
X99558516Y-55949883D01*
X99584220Y-55932568D01*
X99607612Y-55917024D01*
X99628040Y-55903676D01*
X99644849Y-55892947D01*
X99657384Y-55885263D01*
X99664993Y-55881049D01*
X99666893Y-55880363D01*
X99672055Y-55882015D01*
X99682598Y-55886647D01*
X99697521Y-55893776D01*
X99715826Y-55902917D01*
X99736515Y-55913586D01*
X99748889Y-55920111D01*
X99770415Y-55931515D01*
X99790015Y-55941828D01*
X99806708Y-55950538D01*
X99819515Y-55957137D01*
X99827455Y-55961114D01*
X99829423Y-55962011D01*
X99836213Y-55961439D01*
X99842698Y-55957651D01*
X99845069Y-55953479D01*
X99849955Y-55943121D01*
X99857134Y-55927111D01*
X99866384Y-55905986D01*
X99877482Y-55880282D01*
X99890205Y-55850535D01*
X99904331Y-55817280D01*
X99919637Y-55781054D01*
X99935902Y-55742392D01*
X99952901Y-55701831D01*
X99970414Y-55659906D01*
X99988217Y-55617153D01*
X100006088Y-55574109D01*
X100023804Y-55531309D01*
X100041143Y-55489289D01*
X100057882Y-55448585D01*
X100073799Y-55409734D01*
X100088672Y-55373270D01*
X100102277Y-55339731D01*
X100114392Y-55309651D01*
X100124795Y-55283567D01*
X100133263Y-55262015D01*
X100139574Y-55245531D01*
X100143505Y-55234651D01*
X100144835Y-55229929D01*
X100144209Y-55223195D01*
X100141622Y-55217681D01*
X100135852Y-55212031D01*
X100125678Y-55204892D01*
X100117668Y-55199779D01*
X100066034Y-55164544D01*
X100021107Y-55127898D01*
X99982393Y-55089326D01*
X99949397Y-55048315D01*
X99921622Y-55004354D01*
X99912691Y-54987479D01*
X99890771Y-54936154D01*
X99875229Y-54882371D01*
X99866126Y-54827045D01*
X99863518Y-54771092D01*
X99867465Y-54715426D01*
X99878024Y-54660962D01*
X99889515Y-54623670D01*
X99912094Y-54571195D01*
X99940712Y-54522096D01*
X99974850Y-54476949D01*
X100013990Y-54436326D01*
X100057612Y-54400802D01*
X100105199Y-54370951D01*
X100128482Y-54359187D01*
X100181723Y-54338047D01*
X100235957Y-54323751D01*
X100290635Y-54316113D01*
X100345209Y-54314949D01*
X100399128Y-54320074D01*
X100451846Y-54331304D01*
X100502811Y-54348453D01*
X100551477Y-54371339D01*
X100597293Y-54399774D01*
X100639711Y-54433576D01*
X100678181Y-54472560D01*
X100712155Y-54516540D01*
X100741018Y-54565202D01*
X100761530Y-54609711D01*
X100776415Y-54653039D01*
X100786139Y-54697152D01*
X100791168Y-54744012D01*
X100792144Y-54780591D01*
X100790109Y-54829623D01*
X100783864Y-54874464D01*
X100772940Y-54917147D01*
X100756868Y-54959702D01*
X100744813Y-54985508D01*
X100720255Y-55028998D01*
X100691148Y-55069431D01*
X100656905Y-55107415D01*
X100616940Y-55143558D01*
X100570669Y-55178470D01*
X100538703Y-55199671D01*
X100525559Y-55208285D01*
X100517491Y-55214626D01*
X100513281Y-55220041D01*
X100511713Y-55225878D01*
X100511536Y-55229759D01*
X100512893Y-55234196D01*
X100516833Y-55244793D01*
X100523135Y-55261016D01*
X100531578Y-55282328D01*
X100541940Y-55308195D01*
X100554002Y-55338081D01*
X100567541Y-55371450D01*
X100582336Y-55407768D01*
X100598168Y-55446498D01*
X100614814Y-55487106D01*
X100632054Y-55529055D01*
X100649666Y-55571812D01*
X100667430Y-55614840D01*
X100685124Y-55657603D01*
X100702527Y-55699568D01*
X100719420Y-55740197D01*
X100735579Y-55778957D01*
X100750785Y-55815311D01*
X100764816Y-55848723D01*
X100777452Y-55878660D01*
X100788471Y-55904585D01*
X100797652Y-55925963D01*
X100804774Y-55942258D01*
X100809617Y-55952936D01*
X100811959Y-55957460D01*
X100811985Y-55957492D01*
X100817791Y-55962518D01*
X100821202Y-55963844D01*
X100825316Y-55962207D01*
X100834910Y-55957607D01*
X100849065Y-55950508D01*
X100866863Y-55941376D01*
X100887385Y-55930676D01*
X100903632Y-55922103D01*
X100925791Y-55910506D01*
X100946133Y-55900147D01*
X100963687Y-55891497D01*
X100977486Y-55885027D01*
X100986559Y-55881207D01*
X100989601Y-55880363D01*
X100993864Y-55882369D01*
X101003532Y-55888142D01*
X101018044Y-55897311D01*
X101036838Y-55909509D01*
X101059354Y-55924364D01*
X101085031Y-55941508D01*
X101113307Y-55960571D01*
X101143621Y-55981185D01*
X101166004Y-55996510D01*
X101201540Y-56020810D01*
X101234052Y-56042842D01*
X101263135Y-56062340D01*
X101288386Y-56079041D01*
X101309400Y-56092679D01*
X101325771Y-56102990D01*
X101337097Y-56109709D01*
X101342971Y-56112571D01*
X101343463Y-56112658D01*
X101346834Y-56111147D01*
X101353124Y-56106451D01*
X101362596Y-56098320D01*
X101375511Y-56086508D01*
X101392129Y-56070764D01*
X101412712Y-56050843D01*
X101437522Y-56026494D01*
X101466820Y-55997471D01*
X101500867Y-55963525D01*
X101506917Y-55957476D01*
X101539985Y-55924351D01*
X101568222Y-55895946D01*
X101591972Y-55871892D01*
X101611582Y-55851822D01*
X101627398Y-55835368D01*
X101639766Y-55822162D01*
X101649033Y-55811837D01*
X101655544Y-55804025D01*
X101659645Y-55798357D01*
X101661683Y-55794467D01*
X101662067Y-55792598D01*
X101660452Y-55787914D01*
X101655521Y-55778741D01*
X101647147Y-55764881D01*
X101635199Y-55746137D01*
X101619551Y-55722310D01*
X101600072Y-55693202D01*
X101576635Y-55658615D01*
X101549111Y-55618351D01*
X101545556Y-55613171D01*
X101519389Y-55574967D01*
X101497144Y-55542292D01*
X101478562Y-55514743D01*
X101463381Y-55491915D01*
X101451341Y-55473405D01*
X101442183Y-55458808D01*
X101435645Y-55447720D01*
X101431469Y-55439738D01*
X101429393Y-55434458D01*
X101429046Y-55432329D01*
X101430396Y-55426284D01*
X101434225Y-55414414D01*
X101440206Y-55397538D01*
X101448008Y-55376474D01*
X101457305Y-55352040D01*
X101467767Y-55325053D01*
X101479066Y-55296332D01*
X101490873Y-55266694D01*
X101502859Y-55236959D01*
X101514696Y-55207943D01*
X101526055Y-55180465D01*
X101536608Y-55155342D01*
X101546027Y-55133393D01*
X101553981Y-55115436D01*
X101560143Y-55102289D01*
X101564185Y-55094770D01*
X101565157Y-55093499D01*
X101568011Y-55091670D01*
X101573144Y-55089613D01*
X101581074Y-55087217D01*
X101592320Y-55084372D01*
X101607398Y-55080968D01*
X101626826Y-55076894D01*
X101651122Y-55072039D01*
X101680802Y-55066293D01*
X101716385Y-55059545D01*
X101758388Y-55051685D01*
X101777397Y-55048150D01*
X101824151Y-55039418D01*
X101864152Y-55031835D01*
X101897799Y-55025318D01*
X101925493Y-55019781D01*
X101947632Y-55015142D01*
X101964618Y-55011316D01*
X101976849Y-55008219D01*
X101984727Y-55005766D01*
X101988650Y-55003875D01*
X101988821Y-55003731D01*
X101990312Y-55002194D01*
X101991580Y-55000122D01*
X101992644Y-54996956D01*
X101993521Y-54992136D01*
X101994230Y-54985106D01*
X101994789Y-54975306D01*
X101995215Y-54962178D01*
X101995526Y-54945164D01*
X101995741Y-54923704D01*
X101995877Y-54897242D01*
X101995952Y-54865217D01*
X101995984Y-54827073D01*
X101995990Y-54782250D01*
X101995990Y-54780326D01*
X101995954Y-54741181D01*
X101995848Y-54704113D01*
X101995680Y-54669775D01*
X101995457Y-54638817D01*
X101995184Y-54611890D01*
X101994868Y-54589646D01*
X101994516Y-54572737D01*
X101994135Y-54561813D01*
X101993749Y-54557566D01*
X101988744Y-54550896D01*
X101985245Y-54548373D01*
X101980610Y-54547112D01*
X101969490Y-54544669D01*
X101952538Y-54541174D01*
X101930407Y-54536753D01*
X101903753Y-54531536D01*
X101873229Y-54525650D01*
X101839488Y-54519225D01*
X101803186Y-54512387D01*
X101772432Y-54506649D01*
X101724011Y-54497595D01*
X101682430Y-54489690D01*
X101647371Y-54482868D01*
X101618518Y-54477062D01*
X101595553Y-54472207D01*
X101578159Y-54468235D01*
X101566018Y-54465081D01*
X101558815Y-54462679D01*
X101556808Y-54461629D01*
X101553139Y-54456667D01*
X101547136Y-54445822D01*
X101539154Y-54429917D01*
X101529548Y-54409777D01*
X101518673Y-54386226D01*
X101506884Y-54360088D01*
X101494538Y-54332186D01*
X101481988Y-54303345D01*
X101469591Y-54274388D01*
X101457701Y-54246141D01*
X101446674Y-54219425D01*
X101436865Y-54195067D01*
X101428630Y-54173888D01*
X101422323Y-54156715D01*
X101418300Y-54144370D01*
X101416915Y-54137677D01*
X101416952Y-54137243D01*
X101419283Y-54132501D01*
X101425384Y-54122353D01*
X101434886Y-54107356D01*
X101447420Y-54088068D01*
X101462618Y-54065048D01*
X101480112Y-54038854D01*
X101499535Y-54010043D01*
X101520516Y-53979174D01*
X101540275Y-53950318D01*
X101567478Y-53910634D01*
X101590717Y-53876520D01*
X101610225Y-53847621D01*
X101626229Y-53823580D01*
X101638963Y-53804044D01*
X101648654Y-53788656D01*
X101655535Y-53777061D01*
X101659835Y-53768903D01*
X101661784Y-53763828D01*
X101661958Y-53762587D01*
X101661479Y-53759800D01*
X101659747Y-53756099D01*
X101656387Y-53751084D01*
X101651027Y-53744354D01*
X101643294Y-53735508D01*
X101632816Y-53724146D01*
X101619218Y-53709867D01*
X101602129Y-53692270D01*
X101581175Y-53670954D01*
X101555984Y-53645520D01*
X101526183Y-53615565D01*
X101510530Y-53599864D01*
X101482941Y-53572284D01*
X101456699Y-53546207D01*
X101432280Y-53522098D01*
X101410162Y-53500419D01*
X101390819Y-53481632D01*
X101374728Y-53466201D01*
X101362366Y-53454587D01*
X101354208Y-53447254D01*
X101350859Y-53444699D01*
X101342242Y-53442969D01*
X101337211Y-53443585D01*
X101333303Y-53445969D01*
X101323948Y-53452106D01*
X101309682Y-53461634D01*
X101291038Y-53474193D01*
X101268550Y-53489419D01*
X101242753Y-53506952D01*
X101214180Y-53526430D01*
X101183366Y-53547491D01*
X101150845Y-53569773D01*
X101149757Y-53570520D01*
X101114266Y-53594777D01*
X101081329Y-53617110D01*
X101051390Y-53637227D01*
X101024890Y-53654837D01*
X101002273Y-53669650D01*
X100983980Y-53681376D01*
X100970455Y-53689723D01*
X100962139Y-53694401D01*
X100959690Y-53695338D01*
X100955080Y-53694011D01*
X100944602Y-53690256D01*
X100929101Y-53684412D01*
X100909420Y-53676817D01*
X100886405Y-53667810D01*
X100860897Y-53657730D01*
X100833743Y-53646916D01*
X100805785Y-53635707D01*
X100777867Y-53624441D01*
X100750834Y-53613457D01*
X100725529Y-53603094D01*
X100702797Y-53593691D01*
X100683481Y-53585586D01*
X100668425Y-53579119D01*
X100658474Y-53574628D01*
X100656242Y-53573528D01*
X100648293Y-53567771D01*
X100643911Y-53562085D01*
X100642768Y-53557438D01*
X100640425Y-53546291D01*
X100637004Y-53529279D01*
X100632630Y-53507041D01*
X100627425Y-53480212D01*
X100621514Y-53449429D01*
X100615020Y-53415329D01*
X100608065Y-53378549D01*
X100600775Y-53339725D01*
X100600488Y-53338192D01*
X100591806Y-53291955D01*
X100584302Y-53252377D01*
X100577871Y-53218972D01*
X100572410Y-53191254D01*
X100567815Y-53168737D01*
X100563983Y-53150934D01*
X100560810Y-53137359D01*
X100558191Y-53127527D01*
X100556025Y-53120951D01*
X100554207Y-53117144D01*
X100553100Y-53115878D01*
X100548015Y-53114780D01*
X100536450Y-53113806D01*
X100519185Y-53112955D01*
X100496999Y-53112228D01*
X100470670Y-53111625D01*
X100440978Y-53111146D01*
X100408700Y-53110792D01*
X100374617Y-53110562D01*
X100339506Y-53110455D01*
X100304148Y-53110473D01*
D11*
X136835000Y-130880000D03*
D12*
X136835000Y-128340000D03*
X139375000Y-130880000D03*
X139375000Y-128340000D03*
X141915000Y-130880000D03*
X141915000Y-128340000D03*
X144455000Y-130880000D03*
X144455000Y-128340000D03*
X146995000Y-130880000D03*
X146995000Y-128340000D03*
D11*
X106835000Y-130880000D03*
D12*
X106835000Y-128340000D03*
X109375000Y-130880000D03*
X109375000Y-128340000D03*
X111915000Y-130880000D03*
X111915000Y-128340000D03*
X114455000Y-130880000D03*
X114455000Y-128340000D03*
X116995000Y-130880000D03*
X116995000Y-128340000D03*
D11*
X76835000Y-130880000D03*
D12*
X76835000Y-128340000D03*
X79375000Y-130880000D03*
X79375000Y-128340000D03*
X81915000Y-130880000D03*
X81915000Y-128340000D03*
X84455000Y-130880000D03*
X84455000Y-128340000D03*
X86995000Y-130880000D03*
X86995000Y-128340000D03*
D11*
X136835000Y-115880000D03*
D12*
X136835000Y-113340000D03*
X139375000Y-115880000D03*
X139375000Y-113340000D03*
X141915000Y-115880000D03*
X141915000Y-113340000D03*
X144455000Y-115880000D03*
X144455000Y-113340000D03*
X146995000Y-115880000D03*
X146995000Y-113340000D03*
D11*
X106835000Y-115880000D03*
D12*
X106835000Y-113340000D03*
X109375000Y-115880000D03*
X109375000Y-113340000D03*
X111915000Y-115880000D03*
X111915000Y-113340000D03*
X114455000Y-115880000D03*
X114455000Y-113340000D03*
X116995000Y-115880000D03*
X116995000Y-113340000D03*
D11*
X76835000Y-115880000D03*
D12*
X76835000Y-113340000D03*
X79375000Y-115880000D03*
X79375000Y-113340000D03*
X81915000Y-115880000D03*
X81915000Y-113340000D03*
X84455000Y-115880000D03*
X84455000Y-113340000D03*
X86995000Y-115880000D03*
X86995000Y-113340000D03*
D11*
X136835000Y-100880000D03*
D12*
X136835000Y-98340000D03*
X139375000Y-100880000D03*
X139375000Y-98340000D03*
X141915000Y-100880000D03*
X141915000Y-98340000D03*
X144455000Y-100880000D03*
X144455000Y-98340000D03*
X146995000Y-100880000D03*
X146995000Y-98340000D03*
D11*
X106835000Y-100880000D03*
D12*
X106835000Y-98340000D03*
X109375000Y-100880000D03*
X109375000Y-98340000D03*
X111915000Y-100880000D03*
X111915000Y-98340000D03*
X114455000Y-100880000D03*
X114455000Y-98340000D03*
X116995000Y-100880000D03*
X116995000Y-98340000D03*
D11*
X76835000Y-100880000D03*
D12*
X76835000Y-98340000D03*
X79375000Y-100880000D03*
X79375000Y-98340000D03*
X81915000Y-100880000D03*
X81915000Y-98340000D03*
X84455000Y-100880000D03*
X84455000Y-98340000D03*
X86995000Y-100880000D03*
X86995000Y-98340000D03*
D11*
X136835000Y-85880000D03*
D12*
X136835000Y-83340000D03*
X139375000Y-85880000D03*
X139375000Y-83340000D03*
X141915000Y-85880000D03*
X141915000Y-83340000D03*
X144455000Y-85880000D03*
X144455000Y-83340000D03*
X146995000Y-85880000D03*
X146995000Y-83340000D03*
D11*
X106835000Y-85880000D03*
D12*
X106835000Y-83340000D03*
X109375000Y-85880000D03*
X109375000Y-83340000D03*
X111915000Y-85880000D03*
X111915000Y-83340000D03*
X114455000Y-85880000D03*
X114455000Y-83340000D03*
X116995000Y-85880000D03*
X116995000Y-83340000D03*
D11*
X76835000Y-85880000D03*
D12*
X76835000Y-83340000D03*
X79375000Y-85880000D03*
X79375000Y-83340000D03*
X81915000Y-85880000D03*
X81915000Y-83340000D03*
X84455000Y-85880000D03*
X84455000Y-83340000D03*
X86995000Y-85880000D03*
X86995000Y-83340000D03*
D11*
X136835000Y-70880000D03*
D12*
X136835000Y-68340000D03*
X139375000Y-70880000D03*
X139375000Y-68340000D03*
X141915000Y-70880000D03*
X141915000Y-68340000D03*
X144455000Y-70880000D03*
X144455000Y-68340000D03*
X146995000Y-70880000D03*
X146995000Y-68340000D03*
D11*
X106835000Y-70880000D03*
D12*
X106835000Y-68340000D03*
X109375000Y-70880000D03*
X109375000Y-68340000D03*
X111915000Y-70880000D03*
X111915000Y-68340000D03*
X114455000Y-70880000D03*
X114455000Y-68340000D03*
X116995000Y-70880000D03*
X116995000Y-68340000D03*
D11*
X76835000Y-70880000D03*
D12*
X76835000Y-68340000D03*
X79375000Y-70880000D03*
X79375000Y-68340000D03*
X81915000Y-70880000D03*
X81915000Y-68340000D03*
X84455000Y-70880000D03*
X84455000Y-68340000D03*
X86995000Y-70880000D03*
X86995000Y-68340000D03*
D11*
X136835000Y-55880000D03*
D12*
X136835000Y-53340000D03*
X139375000Y-55880000D03*
X139375000Y-53340000D03*
X141915000Y-55880000D03*
X141915000Y-53340000D03*
X144455000Y-55880000D03*
X144455000Y-53340000D03*
X146995000Y-55880000D03*
X146995000Y-53340000D03*
D11*
X106835000Y-55880000D03*
D12*
X106835000Y-53340000D03*
X109375000Y-55880000D03*
X109375000Y-53340000D03*
X111915000Y-55880000D03*
X111915000Y-53340000D03*
X114455000Y-55880000D03*
X114455000Y-53340000D03*
X116995000Y-55880000D03*
X116995000Y-53340000D03*
X86995000Y-53340000D03*
X86995000Y-55880000D03*
X84455000Y-53340000D03*
X84455000Y-55880000D03*
X81915000Y-53340000D03*
X81915000Y-55880000D03*
X79375000Y-53340000D03*
X79375000Y-55880000D03*
X76835000Y-53340000D03*
D11*
X76835000Y-55880000D03*
D13*
X99695000Y-50165000D03*
X129695000Y-50165000D03*
X159695000Y-50165000D03*
X99695000Y-65165000D03*
X129695000Y-65165000D03*
X159695000Y-65165000D03*
X99695000Y-80165000D03*
X129695000Y-80165000D03*
X159695000Y-80165000D03*
X99695000Y-95165000D03*
X129695000Y-95165000D03*
X159695000Y-95165000D03*
X99695000Y-110165000D03*
X129695000Y-110165000D03*
X159695000Y-110165000D03*
X99695000Y-125165000D03*
X129695000Y-125165000D03*
X159695000Y-125165000D03*
X99695000Y-58420000D03*
X129695000Y-58420000D03*
X159695000Y-58420000D03*
X99695000Y-73420000D03*
X129695000Y-73420000D03*
X159695000Y-73420000D03*
X99695000Y-88420000D03*
X129695000Y-88420000D03*
X159695000Y-88420000D03*
X99695000Y-103420000D03*
X129695000Y-103420000D03*
X159695000Y-103420000D03*
X99695000Y-118420000D03*
X129695000Y-118420000D03*
X159695000Y-118420000D03*
X99695000Y-133420000D03*
X129695000Y-133420000D03*
X159695000Y-133420000D03*
X97790000Y-48895000D03*
X127790000Y-48895000D03*
X157790000Y-48895000D03*
X97790000Y-63895000D03*
X127790000Y-63895000D03*
X157790000Y-63895000D03*
X97790000Y-78895000D03*
X127790000Y-78895000D03*
X157790000Y-78895000D03*
X97790000Y-93895000D03*
X127790000Y-93895000D03*
X157790000Y-93895000D03*
X97790000Y-108895000D03*
X127790000Y-108895000D03*
X157790000Y-108895000D03*
X97790000Y-123895000D03*
X127790000Y-123895000D03*
X157790000Y-123895000D03*
X97790000Y-59690000D03*
X127790000Y-59690000D03*
X157790000Y-59690000D03*
X97790000Y-74690000D03*
X127790000Y-74690000D03*
X157790000Y-74690000D03*
X97790000Y-89690000D03*
X127790000Y-89690000D03*
X157790000Y-89690000D03*
X97790000Y-104690000D03*
X127790000Y-104690000D03*
X157790000Y-104690000D03*
X97790000Y-119690000D03*
X127790000Y-119690000D03*
X157790000Y-119690000D03*
X97790000Y-134690000D03*
X127790000Y-134690000D03*
X157790000Y-134690000D03*
X95885000Y-48895000D03*
X125885000Y-48895000D03*
X155885000Y-48895000D03*
X95885000Y-63895000D03*
X125885000Y-63895000D03*
X155885000Y-63895000D03*
X95885000Y-78895000D03*
X125885000Y-78895000D03*
X155885000Y-78895000D03*
X95885000Y-93895000D03*
X125885000Y-93895000D03*
X155885000Y-93895000D03*
X95885000Y-108895000D03*
X125885000Y-108895000D03*
X155885000Y-108895000D03*
X95885000Y-123895000D03*
X125885000Y-123895000D03*
X155885000Y-123895000D03*
X95250000Y-60960000D03*
X125250000Y-60960000D03*
X155250000Y-60960000D03*
X95250000Y-75960000D03*
X125250000Y-75960000D03*
X155250000Y-75960000D03*
X95250000Y-90960000D03*
X125250000Y-90960000D03*
X155250000Y-90960000D03*
X95250000Y-105960000D03*
X125250000Y-105960000D03*
X155250000Y-105960000D03*
X95250000Y-120960000D03*
X125250000Y-120960000D03*
X155250000Y-120960000D03*
X95250000Y-135960000D03*
X125250000Y-135960000D03*
X155250000Y-135960000D03*
X92075000Y-48555000D03*
X122075000Y-48555000D03*
X152075000Y-48555000D03*
X92075000Y-63555000D03*
X122075000Y-63555000D03*
X152075000Y-63555000D03*
X92075000Y-78555000D03*
X122075000Y-78555000D03*
X152075000Y-78555000D03*
X92075000Y-93555000D03*
X122075000Y-93555000D03*
X152075000Y-93555000D03*
X92075000Y-108555000D03*
X122075000Y-108555000D03*
X152075000Y-108555000D03*
X92075000Y-123555000D03*
X122075000Y-123555000D03*
X152075000Y-123555000D03*
X92075000Y-62230000D03*
X122075000Y-62230000D03*
X152075000Y-62230000D03*
X92075000Y-77230000D03*
X122075000Y-77230000D03*
X152075000Y-77230000D03*
X92075000Y-92230000D03*
X122075000Y-92230000D03*
X152075000Y-92230000D03*
X92075000Y-107230000D03*
X122075000Y-107230000D03*
X152075000Y-107230000D03*
X92075000Y-122230000D03*
X122075000Y-122230000D03*
X152075000Y-122230000D03*
X92075000Y-137230000D03*
X122075000Y-137230000D03*
X152075000Y-137230000D03*
D14*
X98425000Y-50165000D02*
X99695000Y-50165000D01*
X97790000Y-50800000D02*
X98425000Y-50165000D01*
X95250000Y-50800000D02*
X97790000Y-50800000D01*
X93980000Y-52070000D02*
X95250000Y-50800000D01*
X87697919Y-52070000D02*
X93980000Y-52070000D01*
X86995000Y-52772919D02*
X87697919Y-52070000D01*
X86995000Y-53340000D02*
X86995000Y-52772919D01*
X116995000Y-53340000D02*
X116995000Y-52772919D01*
X146995000Y-53340000D02*
X146995000Y-52772919D01*
X86995000Y-68340000D02*
X86995000Y-67772919D01*
X116995000Y-68340000D02*
X116995000Y-67772919D01*
X146995000Y-68340000D02*
X146995000Y-67772919D01*
X86995000Y-83340000D02*
X86995000Y-82772919D01*
X116995000Y-83340000D02*
X116995000Y-82772919D01*
X146995000Y-83340000D02*
X146995000Y-82772919D01*
X86995000Y-98340000D02*
X86995000Y-97772919D01*
X116995000Y-98340000D02*
X116995000Y-97772919D01*
X146995000Y-98340000D02*
X146995000Y-97772919D01*
X86995000Y-113340000D02*
X86995000Y-112772919D01*
X116995000Y-113340000D02*
X116995000Y-112772919D01*
X146995000Y-113340000D02*
X146995000Y-112772919D01*
X86995000Y-128340000D02*
X86995000Y-127772919D01*
X116995000Y-128340000D02*
X116995000Y-127772919D01*
X146995000Y-128340000D02*
X146995000Y-127772919D01*
X117697919Y-52070000D02*
X123980000Y-52070000D01*
X147697919Y-52070000D02*
X153980000Y-52070000D01*
X87697919Y-67070000D02*
X93980000Y-67070000D01*
X117697919Y-67070000D02*
X123980000Y-67070000D01*
X147697919Y-67070000D02*
X153980000Y-67070000D01*
X87697919Y-82070000D02*
X93980000Y-82070000D01*
X117697919Y-82070000D02*
X123980000Y-82070000D01*
X147697919Y-82070000D02*
X153980000Y-82070000D01*
X87697919Y-97070000D02*
X93980000Y-97070000D01*
X117697919Y-97070000D02*
X123980000Y-97070000D01*
X147697919Y-97070000D02*
X153980000Y-97070000D01*
X87697919Y-112070000D02*
X93980000Y-112070000D01*
X117697919Y-112070000D02*
X123980000Y-112070000D01*
X147697919Y-112070000D02*
X153980000Y-112070000D01*
X87697919Y-127070000D02*
X93980000Y-127070000D01*
X117697919Y-127070000D02*
X123980000Y-127070000D01*
X147697919Y-127070000D02*
X153980000Y-127070000D01*
X116995000Y-52772919D02*
X117697919Y-52070000D01*
X146995000Y-52772919D02*
X147697919Y-52070000D01*
X86995000Y-67772919D02*
X87697919Y-67070000D01*
X116995000Y-67772919D02*
X117697919Y-67070000D01*
X146995000Y-67772919D02*
X147697919Y-67070000D01*
X86995000Y-82772919D02*
X87697919Y-82070000D01*
X116995000Y-82772919D02*
X117697919Y-82070000D01*
X146995000Y-82772919D02*
X147697919Y-82070000D01*
X86995000Y-97772919D02*
X87697919Y-97070000D01*
X116995000Y-97772919D02*
X117697919Y-97070000D01*
X146995000Y-97772919D02*
X147697919Y-97070000D01*
X86995000Y-112772919D02*
X87697919Y-112070000D01*
X116995000Y-112772919D02*
X117697919Y-112070000D01*
X146995000Y-112772919D02*
X147697919Y-112070000D01*
X86995000Y-127772919D02*
X87697919Y-127070000D01*
X116995000Y-127772919D02*
X117697919Y-127070000D01*
X146995000Y-127772919D02*
X147697919Y-127070000D01*
X123980000Y-52070000D02*
X125250000Y-50800000D01*
X153980000Y-52070000D02*
X155250000Y-50800000D01*
X93980000Y-67070000D02*
X95250000Y-65800000D01*
X123980000Y-67070000D02*
X125250000Y-65800000D01*
X153980000Y-67070000D02*
X155250000Y-65800000D01*
X93980000Y-82070000D02*
X95250000Y-80800000D01*
X123980000Y-82070000D02*
X125250000Y-80800000D01*
X153980000Y-82070000D02*
X155250000Y-80800000D01*
X93980000Y-97070000D02*
X95250000Y-95800000D01*
X123980000Y-97070000D02*
X125250000Y-95800000D01*
X153980000Y-97070000D02*
X155250000Y-95800000D01*
X93980000Y-112070000D02*
X95250000Y-110800000D01*
X123980000Y-112070000D02*
X125250000Y-110800000D01*
X153980000Y-112070000D02*
X155250000Y-110800000D01*
X93980000Y-127070000D02*
X95250000Y-125800000D01*
X123980000Y-127070000D02*
X125250000Y-125800000D01*
X153980000Y-127070000D02*
X155250000Y-125800000D01*
X128425000Y-50165000D02*
X129695000Y-50165000D01*
X158425000Y-50165000D02*
X159695000Y-50165000D01*
X98425000Y-65165000D02*
X99695000Y-65165000D01*
X128425000Y-65165000D02*
X129695000Y-65165000D01*
X158425000Y-65165000D02*
X159695000Y-65165000D01*
X98425000Y-80165000D02*
X99695000Y-80165000D01*
X128425000Y-80165000D02*
X129695000Y-80165000D01*
X158425000Y-80165000D02*
X159695000Y-80165000D01*
X98425000Y-95165000D02*
X99695000Y-95165000D01*
X128425000Y-95165000D02*
X129695000Y-95165000D01*
X158425000Y-95165000D02*
X159695000Y-95165000D01*
X98425000Y-110165000D02*
X99695000Y-110165000D01*
X128425000Y-110165000D02*
X129695000Y-110165000D01*
X158425000Y-110165000D02*
X159695000Y-110165000D01*
X98425000Y-125165000D02*
X99695000Y-125165000D01*
X128425000Y-125165000D02*
X129695000Y-125165000D01*
X158425000Y-125165000D02*
X159695000Y-125165000D01*
X125250000Y-50800000D02*
X127790000Y-50800000D01*
X155250000Y-50800000D02*
X157790000Y-50800000D01*
X95250000Y-65800000D02*
X97790000Y-65800000D01*
X125250000Y-65800000D02*
X127790000Y-65800000D01*
X155250000Y-65800000D02*
X157790000Y-65800000D01*
X95250000Y-80800000D02*
X97790000Y-80800000D01*
X125250000Y-80800000D02*
X127790000Y-80800000D01*
X155250000Y-80800000D02*
X157790000Y-80800000D01*
X95250000Y-95800000D02*
X97790000Y-95800000D01*
X125250000Y-95800000D02*
X127790000Y-95800000D01*
X155250000Y-95800000D02*
X157790000Y-95800000D01*
X95250000Y-110800000D02*
X97790000Y-110800000D01*
X125250000Y-110800000D02*
X127790000Y-110800000D01*
X155250000Y-110800000D02*
X157790000Y-110800000D01*
X95250000Y-125800000D02*
X97790000Y-125800000D01*
X125250000Y-125800000D02*
X127790000Y-125800000D01*
X155250000Y-125800000D02*
X157790000Y-125800000D01*
X127790000Y-50800000D02*
X128425000Y-50165000D01*
X157790000Y-50800000D02*
X158425000Y-50165000D01*
X97790000Y-65800000D02*
X98425000Y-65165000D01*
X127790000Y-65800000D02*
X128425000Y-65165000D01*
X157790000Y-65800000D02*
X158425000Y-65165000D01*
X97790000Y-80800000D02*
X98425000Y-80165000D01*
X127790000Y-80800000D02*
X128425000Y-80165000D01*
X157790000Y-80800000D02*
X158425000Y-80165000D01*
X97790000Y-95800000D02*
X98425000Y-95165000D01*
X127790000Y-95800000D02*
X128425000Y-95165000D01*
X157790000Y-95800000D02*
X158425000Y-95165000D01*
X97790000Y-110800000D02*
X98425000Y-110165000D01*
X127790000Y-110800000D02*
X128425000Y-110165000D01*
X157790000Y-110800000D02*
X158425000Y-110165000D01*
X97790000Y-125800000D02*
X98425000Y-125165000D01*
X127790000Y-125800000D02*
X128425000Y-125165000D01*
X157790000Y-125800000D02*
X158425000Y-125165000D01*
X99695000Y-58420000D02*
X87630000Y-58420000D01*
X86995000Y-57785000D02*
X86995000Y-55880000D01*
X87630000Y-58420000D02*
X86995000Y-57785000D01*
X129695000Y-58420000D02*
X117630000Y-58420000D01*
X159695000Y-58420000D02*
X147630000Y-58420000D01*
X99695000Y-73420000D02*
X87630000Y-73420000D01*
X129695000Y-73420000D02*
X117630000Y-73420000D01*
X159695000Y-73420000D02*
X147630000Y-73420000D01*
X99695000Y-88420000D02*
X87630000Y-88420000D01*
X129695000Y-88420000D02*
X117630000Y-88420000D01*
X159695000Y-88420000D02*
X147630000Y-88420000D01*
X99695000Y-103420000D02*
X87630000Y-103420000D01*
X129695000Y-103420000D02*
X117630000Y-103420000D01*
X159695000Y-103420000D02*
X147630000Y-103420000D01*
X99695000Y-118420000D02*
X87630000Y-118420000D01*
X129695000Y-118420000D02*
X117630000Y-118420000D01*
X159695000Y-118420000D02*
X147630000Y-118420000D01*
X99695000Y-133420000D02*
X87630000Y-133420000D01*
X129695000Y-133420000D02*
X117630000Y-133420000D01*
X159695000Y-133420000D02*
X147630000Y-133420000D01*
X116995000Y-57785000D02*
X116995000Y-55880000D01*
X146995000Y-57785000D02*
X146995000Y-55880000D01*
X86995000Y-72785000D02*
X86995000Y-70880000D01*
X116995000Y-72785000D02*
X116995000Y-70880000D01*
X146995000Y-72785000D02*
X146995000Y-70880000D01*
X86995000Y-87785000D02*
X86995000Y-85880000D01*
X116995000Y-87785000D02*
X116995000Y-85880000D01*
X146995000Y-87785000D02*
X146995000Y-85880000D01*
X86995000Y-102785000D02*
X86995000Y-100880000D01*
X116995000Y-102785000D02*
X116995000Y-100880000D01*
X146995000Y-102785000D02*
X146995000Y-100880000D01*
X86995000Y-117785000D02*
X86995000Y-115880000D01*
X116995000Y-117785000D02*
X116995000Y-115880000D01*
X146995000Y-117785000D02*
X146995000Y-115880000D01*
X86995000Y-132785000D02*
X86995000Y-130880000D01*
X116995000Y-132785000D02*
X116995000Y-130880000D01*
X146995000Y-132785000D02*
X146995000Y-130880000D01*
X117630000Y-58420000D02*
X116995000Y-57785000D01*
X147630000Y-58420000D02*
X146995000Y-57785000D01*
X87630000Y-73420000D02*
X86995000Y-72785000D01*
X117630000Y-73420000D02*
X116995000Y-72785000D01*
X147630000Y-73420000D02*
X146995000Y-72785000D01*
X87630000Y-88420000D02*
X86995000Y-87785000D01*
X117630000Y-88420000D02*
X116995000Y-87785000D01*
X147630000Y-88420000D02*
X146995000Y-87785000D01*
X87630000Y-103420000D02*
X86995000Y-102785000D01*
X117630000Y-103420000D02*
X116995000Y-102785000D01*
X147630000Y-103420000D02*
X146995000Y-102785000D01*
X87630000Y-118420000D02*
X86995000Y-117785000D01*
X117630000Y-118420000D02*
X116995000Y-117785000D01*
X147630000Y-118420000D02*
X146995000Y-117785000D01*
X87630000Y-133420000D02*
X86995000Y-132785000D01*
X117630000Y-133420000D02*
X116995000Y-132785000D01*
X147630000Y-133420000D02*
X146995000Y-132785000D01*
X96585011Y-50099989D02*
X97390001Y-49294999D01*
X93485017Y-50800000D02*
X94185028Y-50099989D01*
X97390001Y-49294999D02*
X97790000Y-48895000D01*
X84455000Y-53340000D02*
X86995000Y-50800000D01*
X94185028Y-50099989D02*
X96585011Y-50099989D01*
X86995000Y-50800000D02*
X93485017Y-50800000D01*
X123485017Y-50800000D02*
X124185028Y-50099989D01*
X153485017Y-50800000D02*
X154185028Y-50099989D01*
X93485017Y-65800000D02*
X94185028Y-65099989D01*
X123485017Y-65800000D02*
X124185028Y-65099989D01*
X153485017Y-65800000D02*
X154185028Y-65099989D01*
X93485017Y-80800000D02*
X94185028Y-80099989D01*
X123485017Y-80800000D02*
X124185028Y-80099989D01*
X153485017Y-80800000D02*
X154185028Y-80099989D01*
X93485017Y-95800000D02*
X94185028Y-95099989D01*
X123485017Y-95800000D02*
X124185028Y-95099989D01*
X153485017Y-95800000D02*
X154185028Y-95099989D01*
X93485017Y-110800000D02*
X94185028Y-110099989D01*
X123485017Y-110800000D02*
X124185028Y-110099989D01*
X153485017Y-110800000D02*
X154185028Y-110099989D01*
X93485017Y-125800000D02*
X94185028Y-125099989D01*
X123485017Y-125800000D02*
X124185028Y-125099989D01*
X153485017Y-125800000D02*
X154185028Y-125099989D01*
X114455000Y-53340000D02*
X116995000Y-50800000D01*
X144455000Y-53340000D02*
X146995000Y-50800000D01*
X84455000Y-68340000D02*
X86995000Y-65800000D01*
X114455000Y-68340000D02*
X116995000Y-65800000D01*
X144455000Y-68340000D02*
X146995000Y-65800000D01*
X84455000Y-83340000D02*
X86995000Y-80800000D01*
X114455000Y-83340000D02*
X116995000Y-80800000D01*
X144455000Y-83340000D02*
X146995000Y-80800000D01*
X84455000Y-98340000D02*
X86995000Y-95800000D01*
X114455000Y-98340000D02*
X116995000Y-95800000D01*
X144455000Y-98340000D02*
X146995000Y-95800000D01*
X84455000Y-113340000D02*
X86995000Y-110800000D01*
X114455000Y-113340000D02*
X116995000Y-110800000D01*
X144455000Y-113340000D02*
X146995000Y-110800000D01*
X84455000Y-128340000D02*
X86995000Y-125800000D01*
X114455000Y-128340000D02*
X116995000Y-125800000D01*
X144455000Y-128340000D02*
X146995000Y-125800000D01*
X127390001Y-49294999D02*
X127790000Y-48895000D01*
X157390001Y-49294999D02*
X157790000Y-48895000D01*
X97390001Y-64294999D02*
X97790000Y-63895000D01*
X127390001Y-64294999D02*
X127790000Y-63895000D01*
X157390001Y-64294999D02*
X157790000Y-63895000D01*
X97390001Y-79294999D02*
X97790000Y-78895000D01*
X127390001Y-79294999D02*
X127790000Y-78895000D01*
X157390001Y-79294999D02*
X157790000Y-78895000D01*
X97390001Y-94294999D02*
X97790000Y-93895000D01*
X127390001Y-94294999D02*
X127790000Y-93895000D01*
X157390001Y-94294999D02*
X157790000Y-93895000D01*
X97390001Y-109294999D02*
X97790000Y-108895000D01*
X127390001Y-109294999D02*
X127790000Y-108895000D01*
X157390001Y-109294999D02*
X157790000Y-108895000D01*
X97390001Y-124294999D02*
X97790000Y-123895000D01*
X127390001Y-124294999D02*
X127790000Y-123895000D01*
X157390001Y-124294999D02*
X157790000Y-123895000D01*
X124185028Y-50099989D02*
X126585011Y-50099989D01*
X154185028Y-50099989D02*
X156585011Y-50099989D01*
X94185028Y-65099989D02*
X96585011Y-65099989D01*
X124185028Y-65099989D02*
X126585011Y-65099989D01*
X154185028Y-65099989D02*
X156585011Y-65099989D01*
X94185028Y-80099989D02*
X96585011Y-80099989D01*
X124185028Y-80099989D02*
X126585011Y-80099989D01*
X154185028Y-80099989D02*
X156585011Y-80099989D01*
X94185028Y-95099989D02*
X96585011Y-95099989D01*
X124185028Y-95099989D02*
X126585011Y-95099989D01*
X154185028Y-95099989D02*
X156585011Y-95099989D01*
X94185028Y-110099989D02*
X96585011Y-110099989D01*
X124185028Y-110099989D02*
X126585011Y-110099989D01*
X154185028Y-110099989D02*
X156585011Y-110099989D01*
X94185028Y-125099989D02*
X96585011Y-125099989D01*
X124185028Y-125099989D02*
X126585011Y-125099989D01*
X154185028Y-125099989D02*
X156585011Y-125099989D01*
X126585011Y-50099989D02*
X127390001Y-49294999D01*
X156585011Y-50099989D02*
X157390001Y-49294999D01*
X96585011Y-65099989D02*
X97390001Y-64294999D01*
X126585011Y-65099989D02*
X127390001Y-64294999D01*
X156585011Y-65099989D02*
X157390001Y-64294999D01*
X96585011Y-80099989D02*
X97390001Y-79294999D01*
X126585011Y-80099989D02*
X127390001Y-79294999D01*
X156585011Y-80099989D02*
X157390001Y-79294999D01*
X96585011Y-95099989D02*
X97390001Y-94294999D01*
X126585011Y-95099989D02*
X127390001Y-94294999D01*
X156585011Y-95099989D02*
X157390001Y-94294999D01*
X96585011Y-110099989D02*
X97390001Y-109294999D01*
X126585011Y-110099989D02*
X127390001Y-109294999D01*
X156585011Y-110099989D02*
X157390001Y-109294999D01*
X96585011Y-125099989D02*
X97390001Y-124294999D01*
X126585011Y-125099989D02*
X127390001Y-124294999D01*
X156585011Y-125099989D02*
X157390001Y-124294999D01*
X116995000Y-50800000D02*
X123485017Y-50800000D01*
X146995000Y-50800000D02*
X153485017Y-50800000D01*
X86995000Y-65800000D02*
X93485017Y-65800000D01*
X116995000Y-65800000D02*
X123485017Y-65800000D01*
X146995000Y-65800000D02*
X153485017Y-65800000D01*
X86995000Y-80800000D02*
X93485017Y-80800000D01*
X116995000Y-80800000D02*
X123485017Y-80800000D01*
X146995000Y-80800000D02*
X153485017Y-80800000D01*
X86995000Y-95800000D02*
X93485017Y-95800000D01*
X116995000Y-95800000D02*
X123485017Y-95800000D01*
X146995000Y-95800000D02*
X153485017Y-95800000D01*
X86995000Y-110800000D02*
X93485017Y-110800000D01*
X116995000Y-110800000D02*
X123485017Y-110800000D01*
X146995000Y-110800000D02*
X153485017Y-110800000D01*
X86995000Y-125800000D02*
X93485017Y-125800000D01*
X116995000Y-125800000D02*
X123485017Y-125800000D01*
X146995000Y-125800000D02*
X153485017Y-125800000D01*
X84455000Y-55880000D02*
X84455000Y-57785000D01*
X84455000Y-57785000D02*
X86360000Y-59690000D01*
X86360000Y-59690000D02*
X97790000Y-59690000D01*
X116360000Y-59690000D02*
X127790000Y-59690000D01*
X146360000Y-59690000D02*
X157790000Y-59690000D01*
X86360000Y-74690000D02*
X97790000Y-74690000D01*
X116360000Y-74690000D02*
X127790000Y-74690000D01*
X146360000Y-74690000D02*
X157790000Y-74690000D01*
X86360000Y-89690000D02*
X97790000Y-89690000D01*
X116360000Y-89690000D02*
X127790000Y-89690000D01*
X146360000Y-89690000D02*
X157790000Y-89690000D01*
X86360000Y-104690000D02*
X97790000Y-104690000D01*
X116360000Y-104690000D02*
X127790000Y-104690000D01*
X146360000Y-104690000D02*
X157790000Y-104690000D01*
X86360000Y-119690000D02*
X97790000Y-119690000D01*
X116360000Y-119690000D02*
X127790000Y-119690000D01*
X146360000Y-119690000D02*
X157790000Y-119690000D01*
X86360000Y-134690000D02*
X97790000Y-134690000D01*
X116360000Y-134690000D02*
X127790000Y-134690000D01*
X146360000Y-134690000D02*
X157790000Y-134690000D01*
X114455000Y-55880000D02*
X114455000Y-57785000D01*
X144455000Y-55880000D02*
X144455000Y-57785000D01*
X84455000Y-70880000D02*
X84455000Y-72785000D01*
X114455000Y-70880000D02*
X114455000Y-72785000D01*
X144455000Y-70880000D02*
X144455000Y-72785000D01*
X84455000Y-85880000D02*
X84455000Y-87785000D01*
X114455000Y-85880000D02*
X114455000Y-87785000D01*
X144455000Y-85880000D02*
X144455000Y-87785000D01*
X84455000Y-100880000D02*
X84455000Y-102785000D01*
X114455000Y-100880000D02*
X114455000Y-102785000D01*
X144455000Y-100880000D02*
X144455000Y-102785000D01*
X84455000Y-115880000D02*
X84455000Y-117785000D01*
X114455000Y-115880000D02*
X114455000Y-117785000D01*
X144455000Y-115880000D02*
X144455000Y-117785000D01*
X84455000Y-130880000D02*
X84455000Y-132785000D01*
X114455000Y-130880000D02*
X114455000Y-132785000D01*
X144455000Y-130880000D02*
X144455000Y-132785000D01*
X114455000Y-57785000D02*
X116360000Y-59690000D01*
X144455000Y-57785000D02*
X146360000Y-59690000D01*
X84455000Y-72785000D02*
X86360000Y-74690000D01*
X114455000Y-72785000D02*
X116360000Y-74690000D01*
X144455000Y-72785000D02*
X146360000Y-74690000D01*
X84455000Y-87785000D02*
X86360000Y-89690000D01*
X114455000Y-87785000D02*
X116360000Y-89690000D01*
X144455000Y-87785000D02*
X146360000Y-89690000D01*
X84455000Y-102785000D02*
X86360000Y-104690000D01*
X114455000Y-102785000D02*
X116360000Y-104690000D01*
X144455000Y-102785000D02*
X146360000Y-104690000D01*
X84455000Y-117785000D02*
X86360000Y-119690000D01*
X114455000Y-117785000D02*
X116360000Y-119690000D01*
X144455000Y-117785000D02*
X146360000Y-119690000D01*
X84455000Y-132785000D02*
X86360000Y-134690000D01*
X114455000Y-132785000D02*
X116360000Y-134690000D01*
X144455000Y-132785000D02*
X146360000Y-134690000D01*
X81915000Y-51435000D02*
X81915000Y-53340000D01*
X83820000Y-49530000D02*
X81915000Y-51435000D01*
X93345000Y-49530000D02*
X83820000Y-49530000D01*
X95885000Y-48895000D02*
X93980000Y-48895000D01*
X93980000Y-48895000D02*
X93345000Y-49530000D01*
X123980000Y-48895000D02*
X123345000Y-49530000D01*
X153980000Y-48895000D02*
X153345000Y-49530000D01*
X93980000Y-63895000D02*
X93345000Y-64530000D01*
X123980000Y-63895000D02*
X123345000Y-64530000D01*
X153980000Y-63895000D02*
X153345000Y-64530000D01*
X93980000Y-78895000D02*
X93345000Y-79530000D01*
X123980000Y-78895000D02*
X123345000Y-79530000D01*
X153980000Y-78895000D02*
X153345000Y-79530000D01*
X93980000Y-93895000D02*
X93345000Y-94530000D01*
X123980000Y-93895000D02*
X123345000Y-94530000D01*
X153980000Y-93895000D02*
X153345000Y-94530000D01*
X93980000Y-108895000D02*
X93345000Y-109530000D01*
X123980000Y-108895000D02*
X123345000Y-109530000D01*
X153980000Y-108895000D02*
X153345000Y-109530000D01*
X93980000Y-123895000D02*
X93345000Y-124530000D01*
X123980000Y-123895000D02*
X123345000Y-124530000D01*
X153980000Y-123895000D02*
X153345000Y-124530000D01*
X111915000Y-51435000D02*
X111915000Y-53340000D01*
X141915000Y-51435000D02*
X141915000Y-53340000D01*
X81915000Y-66435000D02*
X81915000Y-68340000D01*
X111915000Y-66435000D02*
X111915000Y-68340000D01*
X141915000Y-66435000D02*
X141915000Y-68340000D01*
X81915000Y-81435000D02*
X81915000Y-83340000D01*
X111915000Y-81435000D02*
X111915000Y-83340000D01*
X141915000Y-81435000D02*
X141915000Y-83340000D01*
X81915000Y-96435000D02*
X81915000Y-98340000D01*
X111915000Y-96435000D02*
X111915000Y-98340000D01*
X141915000Y-96435000D02*
X141915000Y-98340000D01*
X81915000Y-111435000D02*
X81915000Y-113340000D01*
X111915000Y-111435000D02*
X111915000Y-113340000D01*
X141915000Y-111435000D02*
X141915000Y-113340000D01*
X81915000Y-126435000D02*
X81915000Y-128340000D01*
X111915000Y-126435000D02*
X111915000Y-128340000D01*
X141915000Y-126435000D02*
X141915000Y-128340000D01*
X125885000Y-48895000D02*
X123980000Y-48895000D01*
X155885000Y-48895000D02*
X153980000Y-48895000D01*
X95885000Y-63895000D02*
X93980000Y-63895000D01*
X125885000Y-63895000D02*
X123980000Y-63895000D01*
X155885000Y-63895000D02*
X153980000Y-63895000D01*
X95885000Y-78895000D02*
X93980000Y-78895000D01*
X125885000Y-78895000D02*
X123980000Y-78895000D01*
X155885000Y-78895000D02*
X153980000Y-78895000D01*
X95885000Y-93895000D02*
X93980000Y-93895000D01*
X125885000Y-93895000D02*
X123980000Y-93895000D01*
X155885000Y-93895000D02*
X153980000Y-93895000D01*
X95885000Y-108895000D02*
X93980000Y-108895000D01*
X125885000Y-108895000D02*
X123980000Y-108895000D01*
X155885000Y-108895000D02*
X153980000Y-108895000D01*
X95885000Y-123895000D02*
X93980000Y-123895000D01*
X125885000Y-123895000D02*
X123980000Y-123895000D01*
X155885000Y-123895000D02*
X153980000Y-123895000D01*
X123345000Y-49530000D02*
X113820000Y-49530000D01*
X153345000Y-49530000D02*
X143820000Y-49530000D01*
X93345000Y-64530000D02*
X83820000Y-64530000D01*
X123345000Y-64530000D02*
X113820000Y-64530000D01*
X153345000Y-64530000D02*
X143820000Y-64530000D01*
X93345000Y-79530000D02*
X83820000Y-79530000D01*
X123345000Y-79530000D02*
X113820000Y-79530000D01*
X153345000Y-79530000D02*
X143820000Y-79530000D01*
X93345000Y-94530000D02*
X83820000Y-94530000D01*
X123345000Y-94530000D02*
X113820000Y-94530000D01*
X153345000Y-94530000D02*
X143820000Y-94530000D01*
X93345000Y-109530000D02*
X83820000Y-109530000D01*
X123345000Y-109530000D02*
X113820000Y-109530000D01*
X153345000Y-109530000D02*
X143820000Y-109530000D01*
X93345000Y-124530000D02*
X83820000Y-124530000D01*
X123345000Y-124530000D02*
X113820000Y-124530000D01*
X153345000Y-124530000D02*
X143820000Y-124530000D01*
X113820000Y-49530000D02*
X111915000Y-51435000D01*
X143820000Y-49530000D02*
X141915000Y-51435000D01*
X83820000Y-64530000D02*
X81915000Y-66435000D01*
X113820000Y-64530000D02*
X111915000Y-66435000D01*
X143820000Y-64530000D02*
X141915000Y-66435000D01*
X83820000Y-79530000D02*
X81915000Y-81435000D01*
X113820000Y-79530000D02*
X111915000Y-81435000D01*
X143820000Y-79530000D02*
X141915000Y-81435000D01*
X83820000Y-94530000D02*
X81915000Y-96435000D01*
X113820000Y-94530000D02*
X111915000Y-96435000D01*
X143820000Y-94530000D02*
X141915000Y-96435000D01*
X83820000Y-109530000D02*
X81915000Y-111435000D01*
X113820000Y-109530000D02*
X111915000Y-111435000D01*
X143820000Y-109530000D02*
X141915000Y-111435000D01*
X83820000Y-124530000D02*
X81915000Y-126435000D01*
X113820000Y-124530000D02*
X111915000Y-126435000D01*
X143820000Y-124530000D02*
X141915000Y-126435000D01*
X84455000Y-60960000D02*
X95250000Y-60960000D01*
X81915000Y-55880000D02*
X81915000Y-58420000D01*
X81915000Y-58420000D02*
X84455000Y-60960000D01*
X111915000Y-58420000D02*
X114455000Y-60960000D01*
X141915000Y-58420000D02*
X144455000Y-60960000D01*
X81915000Y-73420000D02*
X84455000Y-75960000D01*
X111915000Y-73420000D02*
X114455000Y-75960000D01*
X141915000Y-73420000D02*
X144455000Y-75960000D01*
X81915000Y-88420000D02*
X84455000Y-90960000D01*
X111915000Y-88420000D02*
X114455000Y-90960000D01*
X141915000Y-88420000D02*
X144455000Y-90960000D01*
X81915000Y-103420000D02*
X84455000Y-105960000D01*
X111915000Y-103420000D02*
X114455000Y-105960000D01*
X141915000Y-103420000D02*
X144455000Y-105960000D01*
X81915000Y-118420000D02*
X84455000Y-120960000D01*
X111915000Y-118420000D02*
X114455000Y-120960000D01*
X141915000Y-118420000D02*
X144455000Y-120960000D01*
X81915000Y-133420000D02*
X84455000Y-135960000D01*
X111915000Y-133420000D02*
X114455000Y-135960000D01*
X141915000Y-133420000D02*
X144455000Y-135960000D01*
X111915000Y-55880000D02*
X111915000Y-58420000D01*
X141915000Y-55880000D02*
X141915000Y-58420000D01*
X81915000Y-70880000D02*
X81915000Y-73420000D01*
X111915000Y-70880000D02*
X111915000Y-73420000D01*
X141915000Y-70880000D02*
X141915000Y-73420000D01*
X81915000Y-85880000D02*
X81915000Y-88420000D01*
X111915000Y-85880000D02*
X111915000Y-88420000D01*
X141915000Y-85880000D02*
X141915000Y-88420000D01*
X81915000Y-100880000D02*
X81915000Y-103420000D01*
X111915000Y-100880000D02*
X111915000Y-103420000D01*
X141915000Y-100880000D02*
X141915000Y-103420000D01*
X81915000Y-115880000D02*
X81915000Y-118420000D01*
X111915000Y-115880000D02*
X111915000Y-118420000D01*
X141915000Y-115880000D02*
X141915000Y-118420000D01*
X81915000Y-130880000D02*
X81915000Y-133420000D01*
X111915000Y-130880000D02*
X111915000Y-133420000D01*
X141915000Y-130880000D02*
X141915000Y-133420000D01*
X114455000Y-60960000D02*
X125250000Y-60960000D01*
X144455000Y-60960000D02*
X155250000Y-60960000D01*
X84455000Y-75960000D02*
X95250000Y-75960000D01*
X114455000Y-75960000D02*
X125250000Y-75960000D01*
X144455000Y-75960000D02*
X155250000Y-75960000D01*
X84455000Y-90960000D02*
X95250000Y-90960000D01*
X114455000Y-90960000D02*
X125250000Y-90960000D01*
X144455000Y-90960000D02*
X155250000Y-90960000D01*
X84455000Y-105960000D02*
X95250000Y-105960000D01*
X114455000Y-105960000D02*
X125250000Y-105960000D01*
X144455000Y-105960000D02*
X155250000Y-105960000D01*
X84455000Y-120960000D02*
X95250000Y-120960000D01*
X114455000Y-120960000D02*
X125250000Y-120960000D01*
X144455000Y-120960000D02*
X155250000Y-120960000D01*
X84455000Y-135960000D02*
X95250000Y-135960000D01*
X114455000Y-135960000D02*
X125250000Y-135960000D01*
X144455000Y-135960000D02*
X155250000Y-135960000D01*
X92075000Y-48555000D02*
X80794990Y-48555000D01*
X79375000Y-49974990D02*
X79375000Y-53340000D01*
X80794990Y-48555000D02*
X79375000Y-49974990D01*
X110794990Y-48555000D02*
X109375000Y-49974990D01*
X140794990Y-48555000D02*
X139375000Y-49974990D01*
X80794990Y-63555000D02*
X79375000Y-64974990D01*
X110794990Y-63555000D02*
X109375000Y-64974990D01*
X140794990Y-63555000D02*
X139375000Y-64974990D01*
X80794990Y-78555000D02*
X79375000Y-79974990D01*
X110794990Y-78555000D02*
X109375000Y-79974990D01*
X140794990Y-78555000D02*
X139375000Y-79974990D01*
X80794990Y-93555000D02*
X79375000Y-94974990D01*
X110794990Y-93555000D02*
X109375000Y-94974990D01*
X140794990Y-93555000D02*
X139375000Y-94974990D01*
X80794990Y-108555000D02*
X79375000Y-109974990D01*
X110794990Y-108555000D02*
X109375000Y-109974990D01*
X140794990Y-108555000D02*
X139375000Y-109974990D01*
X80794990Y-123555000D02*
X79375000Y-124974990D01*
X110794990Y-123555000D02*
X109375000Y-124974990D01*
X140794990Y-123555000D02*
X139375000Y-124974990D01*
X109375000Y-49974990D02*
X109375000Y-53340000D01*
X139375000Y-49974990D02*
X139375000Y-53340000D01*
X79375000Y-64974990D02*
X79375000Y-68340000D01*
X109375000Y-64974990D02*
X109375000Y-68340000D01*
X139375000Y-64974990D02*
X139375000Y-68340000D01*
X79375000Y-79974990D02*
X79375000Y-83340000D01*
X109375000Y-79974990D02*
X109375000Y-83340000D01*
X139375000Y-79974990D02*
X139375000Y-83340000D01*
X79375000Y-94974990D02*
X79375000Y-98340000D01*
X109375000Y-94974990D02*
X109375000Y-98340000D01*
X139375000Y-94974990D02*
X139375000Y-98340000D01*
X79375000Y-109974990D02*
X79375000Y-113340000D01*
X109375000Y-109974990D02*
X109375000Y-113340000D01*
X139375000Y-109974990D02*
X139375000Y-113340000D01*
X79375000Y-124974990D02*
X79375000Y-128340000D01*
X109375000Y-124974990D02*
X109375000Y-128340000D01*
X139375000Y-124974990D02*
X139375000Y-128340000D01*
X122075000Y-48555000D02*
X110794990Y-48555000D01*
X152075000Y-48555000D02*
X140794990Y-48555000D01*
X92075000Y-63555000D02*
X80794990Y-63555000D01*
X122075000Y-63555000D02*
X110794990Y-63555000D01*
X152075000Y-63555000D02*
X140794990Y-63555000D01*
X92075000Y-78555000D02*
X80794990Y-78555000D01*
X122075000Y-78555000D02*
X110794990Y-78555000D01*
X152075000Y-78555000D02*
X140794990Y-78555000D01*
X92075000Y-93555000D02*
X80794990Y-93555000D01*
X122075000Y-93555000D02*
X110794990Y-93555000D01*
X152075000Y-93555000D02*
X140794990Y-93555000D01*
X92075000Y-108555000D02*
X80794990Y-108555000D01*
X122075000Y-108555000D02*
X110794990Y-108555000D01*
X152075000Y-108555000D02*
X140794990Y-108555000D01*
X92075000Y-123555000D02*
X80794990Y-123555000D01*
X122075000Y-123555000D02*
X110794990Y-123555000D01*
X152075000Y-123555000D02*
X140794990Y-123555000D01*
X79375000Y-59690000D02*
X79375000Y-55880000D01*
X92075000Y-62230000D02*
X81915000Y-62230000D01*
X81915000Y-62230000D02*
X79375000Y-59690000D01*
X109375000Y-59690000D02*
X109375000Y-55880000D01*
X139375000Y-59690000D02*
X139375000Y-55880000D01*
X79375000Y-74690000D02*
X79375000Y-70880000D01*
X109375000Y-74690000D02*
X109375000Y-70880000D01*
X139375000Y-74690000D02*
X139375000Y-70880000D01*
X79375000Y-89690000D02*
X79375000Y-85880000D01*
X109375000Y-89690000D02*
X109375000Y-85880000D01*
X139375000Y-89690000D02*
X139375000Y-85880000D01*
X79375000Y-104690000D02*
X79375000Y-100880000D01*
X109375000Y-104690000D02*
X109375000Y-100880000D01*
X139375000Y-104690000D02*
X139375000Y-100880000D01*
X79375000Y-119690000D02*
X79375000Y-115880000D01*
X109375000Y-119690000D02*
X109375000Y-115880000D01*
X139375000Y-119690000D02*
X139375000Y-115880000D01*
X79375000Y-134690000D02*
X79375000Y-130880000D01*
X109375000Y-134690000D02*
X109375000Y-130880000D01*
X139375000Y-134690000D02*
X139375000Y-130880000D01*
X122075000Y-62230000D02*
X111915000Y-62230000D01*
X152075000Y-62230000D02*
X141915000Y-62230000D01*
X92075000Y-77230000D02*
X81915000Y-77230000D01*
X122075000Y-77230000D02*
X111915000Y-77230000D01*
X152075000Y-77230000D02*
X141915000Y-77230000D01*
X92075000Y-92230000D02*
X81915000Y-92230000D01*
X122075000Y-92230000D02*
X111915000Y-92230000D01*
X152075000Y-92230000D02*
X141915000Y-92230000D01*
X92075000Y-107230000D02*
X81915000Y-107230000D01*
X122075000Y-107230000D02*
X111915000Y-107230000D01*
X152075000Y-107230000D02*
X141915000Y-107230000D01*
X92075000Y-122230000D02*
X81915000Y-122230000D01*
X122075000Y-122230000D02*
X111915000Y-122230000D01*
X152075000Y-122230000D02*
X141915000Y-122230000D01*
X92075000Y-137230000D02*
X81915000Y-137230000D01*
X122075000Y-137230000D02*
X111915000Y-137230000D01*
X152075000Y-137230000D02*
X141915000Y-137230000D01*
X111915000Y-62230000D02*
X109375000Y-59690000D01*
X141915000Y-62230000D02*
X139375000Y-59690000D01*
X81915000Y-77230000D02*
X79375000Y-74690000D01*
X111915000Y-77230000D02*
X109375000Y-74690000D01*
X141915000Y-77230000D02*
X139375000Y-74690000D01*
X81915000Y-92230000D02*
X79375000Y-89690000D01*
X111915000Y-92230000D02*
X109375000Y-89690000D01*
X141915000Y-92230000D02*
X139375000Y-89690000D01*
X81915000Y-107230000D02*
X79375000Y-104690000D01*
X111915000Y-107230000D02*
X109375000Y-104690000D01*
X141915000Y-107230000D02*
X139375000Y-104690000D01*
X81915000Y-122230000D02*
X79375000Y-119690000D01*
X111915000Y-122230000D02*
X109375000Y-119690000D01*
X141915000Y-122230000D02*
X139375000Y-119690000D01*
X81915000Y-137230000D02*
X79375000Y-134690000D01*
X111915000Y-137230000D02*
X109375000Y-134690000D01*
X141915000Y-137230000D02*
X139375000Y-134690000D01*
M02*
