G04 #@! TF.GenerationSoftware,KiCad,Pcbnew,5.1.5-52549c5~86~ubuntu18.04.1*
G04 #@! TF.CreationDate,2020-06-02T01:28:18-05:00*
G04 #@! TF.ProjectId,adap_127_254_panel,61646170-5f31-4323-975f-3235345f7061,rev?*
G04 #@! TF.SameCoordinates,Original*
G04 #@! TF.FileFunction,Soldermask,Top*
G04 #@! TF.FilePolarity,Negative*
%FSLAX46Y46*%
G04 Gerber Fmt 4.6, Leading zero omitted, Abs format (unit mm)*
G04 Created by KiCad (PCBNEW 5.1.5-52549c5~86~ubuntu18.04.1) date 2020-06-02 01:28:18*
%MOMM*%
%LPD*%
G04 APERTURE LIST*
%ADD10C,0.100000*%
G04 APERTURE END LIST*
D10*
G36*
X100116000Y-132811000D02*
G01*
X99274000Y-132811000D01*
X99274000Y-130309000D01*
X100116000Y-130309000D01*
X100116000Y-132811000D01*
G37*
G36*
X158846000Y-132811000D02*
G01*
X158004000Y-132811000D01*
X158004000Y-130309000D01*
X158846000Y-130309000D01*
X158846000Y-132811000D01*
G37*
G36*
X155036000Y-132811000D02*
G01*
X154194000Y-132811000D01*
X154194000Y-130309000D01*
X155036000Y-130309000D01*
X155036000Y-132811000D01*
G37*
G36*
X156306000Y-132811000D02*
G01*
X155464000Y-132811000D01*
X155464000Y-130309000D01*
X156306000Y-130309000D01*
X156306000Y-132811000D01*
G37*
G36*
X157576000Y-132811000D02*
G01*
X156734000Y-132811000D01*
X156734000Y-130309000D01*
X157576000Y-130309000D01*
X157576000Y-132811000D01*
G37*
G36*
X160116000Y-132811000D02*
G01*
X159274000Y-132811000D01*
X159274000Y-130309000D01*
X160116000Y-130309000D01*
X160116000Y-132811000D01*
G37*
G36*
X125036000Y-132811000D02*
G01*
X124194000Y-132811000D01*
X124194000Y-130309000D01*
X125036000Y-130309000D01*
X125036000Y-132811000D01*
G37*
G36*
X126306000Y-132811000D02*
G01*
X125464000Y-132811000D01*
X125464000Y-130309000D01*
X126306000Y-130309000D01*
X126306000Y-132811000D01*
G37*
G36*
X127576000Y-132811000D02*
G01*
X126734000Y-132811000D01*
X126734000Y-130309000D01*
X127576000Y-130309000D01*
X127576000Y-132811000D01*
G37*
G36*
X128846000Y-132811000D02*
G01*
X128004000Y-132811000D01*
X128004000Y-130309000D01*
X128846000Y-130309000D01*
X128846000Y-132811000D01*
G37*
G36*
X130116000Y-132811000D02*
G01*
X129274000Y-132811000D01*
X129274000Y-130309000D01*
X130116000Y-130309000D01*
X130116000Y-132811000D01*
G37*
G36*
X95036000Y-132811000D02*
G01*
X94194000Y-132811000D01*
X94194000Y-130309000D01*
X95036000Y-130309000D01*
X95036000Y-132811000D01*
G37*
G36*
X96306000Y-132811000D02*
G01*
X95464000Y-132811000D01*
X95464000Y-130309000D01*
X96306000Y-130309000D01*
X96306000Y-132811000D01*
G37*
G36*
X97576000Y-132811000D02*
G01*
X96734000Y-132811000D01*
X96734000Y-130309000D01*
X97576000Y-130309000D01*
X97576000Y-132811000D01*
G37*
G36*
X98846000Y-132811000D02*
G01*
X98004000Y-132811000D01*
X98004000Y-130309000D01*
X98846000Y-130309000D01*
X98846000Y-132811000D01*
G37*
G36*
X79488512Y-129983927D02*
G01*
X79637812Y-130013624D01*
X79801784Y-130081544D01*
X79949354Y-130180147D01*
X80074853Y-130305646D01*
X80173456Y-130453216D01*
X80241376Y-130617188D01*
X80276000Y-130791259D01*
X80276000Y-130968741D01*
X80241376Y-131142812D01*
X80173456Y-131306784D01*
X80074853Y-131454354D01*
X79949354Y-131579853D01*
X79801784Y-131678456D01*
X79637812Y-131746376D01*
X79488512Y-131776073D01*
X79463742Y-131781000D01*
X79286258Y-131781000D01*
X79261488Y-131776073D01*
X79112188Y-131746376D01*
X78948216Y-131678456D01*
X78800646Y-131579853D01*
X78675147Y-131454354D01*
X78576544Y-131306784D01*
X78508624Y-131142812D01*
X78474000Y-130968741D01*
X78474000Y-130791259D01*
X78508624Y-130617188D01*
X78576544Y-130453216D01*
X78675147Y-130305646D01*
X78800646Y-130180147D01*
X78948216Y-130081544D01*
X79112188Y-130013624D01*
X79261488Y-129983927D01*
X79286258Y-129979000D01*
X79463742Y-129979000D01*
X79488512Y-129983927D01*
G37*
G36*
X87108512Y-129983927D02*
G01*
X87257812Y-130013624D01*
X87421784Y-130081544D01*
X87569354Y-130180147D01*
X87694853Y-130305646D01*
X87793456Y-130453216D01*
X87861376Y-130617188D01*
X87896000Y-130791259D01*
X87896000Y-130968741D01*
X87861376Y-131142812D01*
X87793456Y-131306784D01*
X87694853Y-131454354D01*
X87569354Y-131579853D01*
X87421784Y-131678456D01*
X87257812Y-131746376D01*
X87108512Y-131776073D01*
X87083742Y-131781000D01*
X86906258Y-131781000D01*
X86881488Y-131776073D01*
X86732188Y-131746376D01*
X86568216Y-131678456D01*
X86420646Y-131579853D01*
X86295147Y-131454354D01*
X86196544Y-131306784D01*
X86128624Y-131142812D01*
X86094000Y-130968741D01*
X86094000Y-130791259D01*
X86128624Y-130617188D01*
X86196544Y-130453216D01*
X86295147Y-130305646D01*
X86420646Y-130180147D01*
X86568216Y-130081544D01*
X86732188Y-130013624D01*
X86881488Y-129983927D01*
X86906258Y-129979000D01*
X87083742Y-129979000D01*
X87108512Y-129983927D01*
G37*
G36*
X84568512Y-129983927D02*
G01*
X84717812Y-130013624D01*
X84881784Y-130081544D01*
X85029354Y-130180147D01*
X85154853Y-130305646D01*
X85253456Y-130453216D01*
X85321376Y-130617188D01*
X85356000Y-130791259D01*
X85356000Y-130968741D01*
X85321376Y-131142812D01*
X85253456Y-131306784D01*
X85154853Y-131454354D01*
X85029354Y-131579853D01*
X84881784Y-131678456D01*
X84717812Y-131746376D01*
X84568512Y-131776073D01*
X84543742Y-131781000D01*
X84366258Y-131781000D01*
X84341488Y-131776073D01*
X84192188Y-131746376D01*
X84028216Y-131678456D01*
X83880646Y-131579853D01*
X83755147Y-131454354D01*
X83656544Y-131306784D01*
X83588624Y-131142812D01*
X83554000Y-130968741D01*
X83554000Y-130791259D01*
X83588624Y-130617188D01*
X83656544Y-130453216D01*
X83755147Y-130305646D01*
X83880646Y-130180147D01*
X84028216Y-130081544D01*
X84192188Y-130013624D01*
X84341488Y-129983927D01*
X84366258Y-129979000D01*
X84543742Y-129979000D01*
X84568512Y-129983927D01*
G37*
G36*
X82028512Y-129983927D02*
G01*
X82177812Y-130013624D01*
X82341784Y-130081544D01*
X82489354Y-130180147D01*
X82614853Y-130305646D01*
X82713456Y-130453216D01*
X82781376Y-130617188D01*
X82816000Y-130791259D01*
X82816000Y-130968741D01*
X82781376Y-131142812D01*
X82713456Y-131306784D01*
X82614853Y-131454354D01*
X82489354Y-131579853D01*
X82341784Y-131678456D01*
X82177812Y-131746376D01*
X82028512Y-131776073D01*
X82003742Y-131781000D01*
X81826258Y-131781000D01*
X81801488Y-131776073D01*
X81652188Y-131746376D01*
X81488216Y-131678456D01*
X81340646Y-131579853D01*
X81215147Y-131454354D01*
X81116544Y-131306784D01*
X81048624Y-131142812D01*
X81014000Y-130968741D01*
X81014000Y-130791259D01*
X81048624Y-130617188D01*
X81116544Y-130453216D01*
X81215147Y-130305646D01*
X81340646Y-130180147D01*
X81488216Y-130081544D01*
X81652188Y-130013624D01*
X81801488Y-129983927D01*
X81826258Y-129979000D01*
X82003742Y-129979000D01*
X82028512Y-129983927D01*
G37*
G36*
X77736000Y-131781000D02*
G01*
X75934000Y-131781000D01*
X75934000Y-129979000D01*
X77736000Y-129979000D01*
X77736000Y-131781000D01*
G37*
G36*
X117108512Y-129983927D02*
G01*
X117257812Y-130013624D01*
X117421784Y-130081544D01*
X117569354Y-130180147D01*
X117694853Y-130305646D01*
X117793456Y-130453216D01*
X117861376Y-130617188D01*
X117896000Y-130791259D01*
X117896000Y-130968741D01*
X117861376Y-131142812D01*
X117793456Y-131306784D01*
X117694853Y-131454354D01*
X117569354Y-131579853D01*
X117421784Y-131678456D01*
X117257812Y-131746376D01*
X117108512Y-131776073D01*
X117083742Y-131781000D01*
X116906258Y-131781000D01*
X116881488Y-131776073D01*
X116732188Y-131746376D01*
X116568216Y-131678456D01*
X116420646Y-131579853D01*
X116295147Y-131454354D01*
X116196544Y-131306784D01*
X116128624Y-131142812D01*
X116094000Y-130968741D01*
X116094000Y-130791259D01*
X116128624Y-130617188D01*
X116196544Y-130453216D01*
X116295147Y-130305646D01*
X116420646Y-130180147D01*
X116568216Y-130081544D01*
X116732188Y-130013624D01*
X116881488Y-129983927D01*
X116906258Y-129979000D01*
X117083742Y-129979000D01*
X117108512Y-129983927D01*
G37*
G36*
X114568512Y-129983927D02*
G01*
X114717812Y-130013624D01*
X114881784Y-130081544D01*
X115029354Y-130180147D01*
X115154853Y-130305646D01*
X115253456Y-130453216D01*
X115321376Y-130617188D01*
X115356000Y-130791259D01*
X115356000Y-130968741D01*
X115321376Y-131142812D01*
X115253456Y-131306784D01*
X115154853Y-131454354D01*
X115029354Y-131579853D01*
X114881784Y-131678456D01*
X114717812Y-131746376D01*
X114568512Y-131776073D01*
X114543742Y-131781000D01*
X114366258Y-131781000D01*
X114341488Y-131776073D01*
X114192188Y-131746376D01*
X114028216Y-131678456D01*
X113880646Y-131579853D01*
X113755147Y-131454354D01*
X113656544Y-131306784D01*
X113588624Y-131142812D01*
X113554000Y-130968741D01*
X113554000Y-130791259D01*
X113588624Y-130617188D01*
X113656544Y-130453216D01*
X113755147Y-130305646D01*
X113880646Y-130180147D01*
X114028216Y-130081544D01*
X114192188Y-130013624D01*
X114341488Y-129983927D01*
X114366258Y-129979000D01*
X114543742Y-129979000D01*
X114568512Y-129983927D01*
G37*
G36*
X109488512Y-129983927D02*
G01*
X109637812Y-130013624D01*
X109801784Y-130081544D01*
X109949354Y-130180147D01*
X110074853Y-130305646D01*
X110173456Y-130453216D01*
X110241376Y-130617188D01*
X110276000Y-130791259D01*
X110276000Y-130968741D01*
X110241376Y-131142812D01*
X110173456Y-131306784D01*
X110074853Y-131454354D01*
X109949354Y-131579853D01*
X109801784Y-131678456D01*
X109637812Y-131746376D01*
X109488512Y-131776073D01*
X109463742Y-131781000D01*
X109286258Y-131781000D01*
X109261488Y-131776073D01*
X109112188Y-131746376D01*
X108948216Y-131678456D01*
X108800646Y-131579853D01*
X108675147Y-131454354D01*
X108576544Y-131306784D01*
X108508624Y-131142812D01*
X108474000Y-130968741D01*
X108474000Y-130791259D01*
X108508624Y-130617188D01*
X108576544Y-130453216D01*
X108675147Y-130305646D01*
X108800646Y-130180147D01*
X108948216Y-130081544D01*
X109112188Y-130013624D01*
X109261488Y-129983927D01*
X109286258Y-129979000D01*
X109463742Y-129979000D01*
X109488512Y-129983927D01*
G37*
G36*
X107736000Y-131781000D02*
G01*
X105934000Y-131781000D01*
X105934000Y-129979000D01*
X107736000Y-129979000D01*
X107736000Y-131781000D01*
G37*
G36*
X144568512Y-129983927D02*
G01*
X144717812Y-130013624D01*
X144881784Y-130081544D01*
X145029354Y-130180147D01*
X145154853Y-130305646D01*
X145253456Y-130453216D01*
X145321376Y-130617188D01*
X145356000Y-130791259D01*
X145356000Y-130968741D01*
X145321376Y-131142812D01*
X145253456Y-131306784D01*
X145154853Y-131454354D01*
X145029354Y-131579853D01*
X144881784Y-131678456D01*
X144717812Y-131746376D01*
X144568512Y-131776073D01*
X144543742Y-131781000D01*
X144366258Y-131781000D01*
X144341488Y-131776073D01*
X144192188Y-131746376D01*
X144028216Y-131678456D01*
X143880646Y-131579853D01*
X143755147Y-131454354D01*
X143656544Y-131306784D01*
X143588624Y-131142812D01*
X143554000Y-130968741D01*
X143554000Y-130791259D01*
X143588624Y-130617188D01*
X143656544Y-130453216D01*
X143755147Y-130305646D01*
X143880646Y-130180147D01*
X144028216Y-130081544D01*
X144192188Y-130013624D01*
X144341488Y-129983927D01*
X144366258Y-129979000D01*
X144543742Y-129979000D01*
X144568512Y-129983927D01*
G37*
G36*
X137736000Y-131781000D02*
G01*
X135934000Y-131781000D01*
X135934000Y-129979000D01*
X137736000Y-129979000D01*
X137736000Y-131781000D01*
G37*
G36*
X139488512Y-129983927D02*
G01*
X139637812Y-130013624D01*
X139801784Y-130081544D01*
X139949354Y-130180147D01*
X140074853Y-130305646D01*
X140173456Y-130453216D01*
X140241376Y-130617188D01*
X140276000Y-130791259D01*
X140276000Y-130968741D01*
X140241376Y-131142812D01*
X140173456Y-131306784D01*
X140074853Y-131454354D01*
X139949354Y-131579853D01*
X139801784Y-131678456D01*
X139637812Y-131746376D01*
X139488512Y-131776073D01*
X139463742Y-131781000D01*
X139286258Y-131781000D01*
X139261488Y-131776073D01*
X139112188Y-131746376D01*
X138948216Y-131678456D01*
X138800646Y-131579853D01*
X138675147Y-131454354D01*
X138576544Y-131306784D01*
X138508624Y-131142812D01*
X138474000Y-130968741D01*
X138474000Y-130791259D01*
X138508624Y-130617188D01*
X138576544Y-130453216D01*
X138675147Y-130305646D01*
X138800646Y-130180147D01*
X138948216Y-130081544D01*
X139112188Y-130013624D01*
X139261488Y-129983927D01*
X139286258Y-129979000D01*
X139463742Y-129979000D01*
X139488512Y-129983927D01*
G37*
G36*
X142028512Y-129983927D02*
G01*
X142177812Y-130013624D01*
X142341784Y-130081544D01*
X142489354Y-130180147D01*
X142614853Y-130305646D01*
X142713456Y-130453216D01*
X142781376Y-130617188D01*
X142816000Y-130791259D01*
X142816000Y-130968741D01*
X142781376Y-131142812D01*
X142713456Y-131306784D01*
X142614853Y-131454354D01*
X142489354Y-131579853D01*
X142341784Y-131678456D01*
X142177812Y-131746376D01*
X142028512Y-131776073D01*
X142003742Y-131781000D01*
X141826258Y-131781000D01*
X141801488Y-131776073D01*
X141652188Y-131746376D01*
X141488216Y-131678456D01*
X141340646Y-131579853D01*
X141215147Y-131454354D01*
X141116544Y-131306784D01*
X141048624Y-131142812D01*
X141014000Y-130968741D01*
X141014000Y-130791259D01*
X141048624Y-130617188D01*
X141116544Y-130453216D01*
X141215147Y-130305646D01*
X141340646Y-130180147D01*
X141488216Y-130081544D01*
X141652188Y-130013624D01*
X141801488Y-129983927D01*
X141826258Y-129979000D01*
X142003742Y-129979000D01*
X142028512Y-129983927D01*
G37*
G36*
X147108512Y-129983927D02*
G01*
X147257812Y-130013624D01*
X147421784Y-130081544D01*
X147569354Y-130180147D01*
X147694853Y-130305646D01*
X147793456Y-130453216D01*
X147861376Y-130617188D01*
X147896000Y-130791259D01*
X147896000Y-130968741D01*
X147861376Y-131142812D01*
X147793456Y-131306784D01*
X147694853Y-131454354D01*
X147569354Y-131579853D01*
X147421784Y-131678456D01*
X147257812Y-131746376D01*
X147108512Y-131776073D01*
X147083742Y-131781000D01*
X146906258Y-131781000D01*
X146881488Y-131776073D01*
X146732188Y-131746376D01*
X146568216Y-131678456D01*
X146420646Y-131579853D01*
X146295147Y-131454354D01*
X146196544Y-131306784D01*
X146128624Y-131142812D01*
X146094000Y-130968741D01*
X146094000Y-130791259D01*
X146128624Y-130617188D01*
X146196544Y-130453216D01*
X146295147Y-130305646D01*
X146420646Y-130180147D01*
X146568216Y-130081544D01*
X146732188Y-130013624D01*
X146881488Y-129983927D01*
X146906258Y-129979000D01*
X147083742Y-129979000D01*
X147108512Y-129983927D01*
G37*
G36*
X112028512Y-129983927D02*
G01*
X112177812Y-130013624D01*
X112341784Y-130081544D01*
X112489354Y-130180147D01*
X112614853Y-130305646D01*
X112713456Y-130453216D01*
X112781376Y-130617188D01*
X112816000Y-130791259D01*
X112816000Y-130968741D01*
X112781376Y-131142812D01*
X112713456Y-131306784D01*
X112614853Y-131454354D01*
X112489354Y-131579853D01*
X112341784Y-131678456D01*
X112177812Y-131746376D01*
X112028512Y-131776073D01*
X112003742Y-131781000D01*
X111826258Y-131781000D01*
X111801488Y-131776073D01*
X111652188Y-131746376D01*
X111488216Y-131678456D01*
X111340646Y-131579853D01*
X111215147Y-131454354D01*
X111116544Y-131306784D01*
X111048624Y-131142812D01*
X111014000Y-130968741D01*
X111014000Y-130791259D01*
X111048624Y-130617188D01*
X111116544Y-130453216D01*
X111215147Y-130305646D01*
X111340646Y-130180147D01*
X111488216Y-130081544D01*
X111652188Y-130013624D01*
X111801488Y-129983927D01*
X111826258Y-129979000D01*
X112003742Y-129979000D01*
X112028512Y-129983927D01*
G37*
G36*
X112028512Y-127443927D02*
G01*
X112177812Y-127473624D01*
X112341784Y-127541544D01*
X112489354Y-127640147D01*
X112614853Y-127765646D01*
X112713456Y-127913216D01*
X112781376Y-128077188D01*
X112816000Y-128251259D01*
X112816000Y-128428741D01*
X112781376Y-128602812D01*
X112713456Y-128766784D01*
X112614853Y-128914354D01*
X112489354Y-129039853D01*
X112341784Y-129138456D01*
X112177812Y-129206376D01*
X112028512Y-129236073D01*
X112003742Y-129241000D01*
X111826258Y-129241000D01*
X111801488Y-129236073D01*
X111652188Y-129206376D01*
X111488216Y-129138456D01*
X111340646Y-129039853D01*
X111215147Y-128914354D01*
X111116544Y-128766784D01*
X111048624Y-128602812D01*
X111014000Y-128428741D01*
X111014000Y-128251259D01*
X111048624Y-128077188D01*
X111116544Y-127913216D01*
X111215147Y-127765646D01*
X111340646Y-127640147D01*
X111488216Y-127541544D01*
X111652188Y-127473624D01*
X111801488Y-127443927D01*
X111826258Y-127439000D01*
X112003742Y-127439000D01*
X112028512Y-127443927D01*
G37*
G36*
X147108512Y-127443927D02*
G01*
X147257812Y-127473624D01*
X147421784Y-127541544D01*
X147569354Y-127640147D01*
X147694853Y-127765646D01*
X147793456Y-127913216D01*
X147861376Y-128077188D01*
X147896000Y-128251259D01*
X147896000Y-128428741D01*
X147861376Y-128602812D01*
X147793456Y-128766784D01*
X147694853Y-128914354D01*
X147569354Y-129039853D01*
X147421784Y-129138456D01*
X147257812Y-129206376D01*
X147108512Y-129236073D01*
X147083742Y-129241000D01*
X146906258Y-129241000D01*
X146881488Y-129236073D01*
X146732188Y-129206376D01*
X146568216Y-129138456D01*
X146420646Y-129039853D01*
X146295147Y-128914354D01*
X146196544Y-128766784D01*
X146128624Y-128602812D01*
X146094000Y-128428741D01*
X146094000Y-128251259D01*
X146128624Y-128077188D01*
X146196544Y-127913216D01*
X146295147Y-127765646D01*
X146420646Y-127640147D01*
X146568216Y-127541544D01*
X146732188Y-127473624D01*
X146881488Y-127443927D01*
X146906258Y-127439000D01*
X147083742Y-127439000D01*
X147108512Y-127443927D01*
G37*
G36*
X76948512Y-127443927D02*
G01*
X77097812Y-127473624D01*
X77261784Y-127541544D01*
X77409354Y-127640147D01*
X77534853Y-127765646D01*
X77633456Y-127913216D01*
X77701376Y-128077188D01*
X77736000Y-128251259D01*
X77736000Y-128428741D01*
X77701376Y-128602812D01*
X77633456Y-128766784D01*
X77534853Y-128914354D01*
X77409354Y-129039853D01*
X77261784Y-129138456D01*
X77097812Y-129206376D01*
X76948512Y-129236073D01*
X76923742Y-129241000D01*
X76746258Y-129241000D01*
X76721488Y-129236073D01*
X76572188Y-129206376D01*
X76408216Y-129138456D01*
X76260646Y-129039853D01*
X76135147Y-128914354D01*
X76036544Y-128766784D01*
X75968624Y-128602812D01*
X75934000Y-128428741D01*
X75934000Y-128251259D01*
X75968624Y-128077188D01*
X76036544Y-127913216D01*
X76135147Y-127765646D01*
X76260646Y-127640147D01*
X76408216Y-127541544D01*
X76572188Y-127473624D01*
X76721488Y-127443927D01*
X76746258Y-127439000D01*
X76923742Y-127439000D01*
X76948512Y-127443927D01*
G37*
G36*
X79488512Y-127443927D02*
G01*
X79637812Y-127473624D01*
X79801784Y-127541544D01*
X79949354Y-127640147D01*
X80074853Y-127765646D01*
X80173456Y-127913216D01*
X80241376Y-128077188D01*
X80276000Y-128251259D01*
X80276000Y-128428741D01*
X80241376Y-128602812D01*
X80173456Y-128766784D01*
X80074853Y-128914354D01*
X79949354Y-129039853D01*
X79801784Y-129138456D01*
X79637812Y-129206376D01*
X79488512Y-129236073D01*
X79463742Y-129241000D01*
X79286258Y-129241000D01*
X79261488Y-129236073D01*
X79112188Y-129206376D01*
X78948216Y-129138456D01*
X78800646Y-129039853D01*
X78675147Y-128914354D01*
X78576544Y-128766784D01*
X78508624Y-128602812D01*
X78474000Y-128428741D01*
X78474000Y-128251259D01*
X78508624Y-128077188D01*
X78576544Y-127913216D01*
X78675147Y-127765646D01*
X78800646Y-127640147D01*
X78948216Y-127541544D01*
X79112188Y-127473624D01*
X79261488Y-127443927D01*
X79286258Y-127439000D01*
X79463742Y-127439000D01*
X79488512Y-127443927D01*
G37*
G36*
X82028512Y-127443927D02*
G01*
X82177812Y-127473624D01*
X82341784Y-127541544D01*
X82489354Y-127640147D01*
X82614853Y-127765646D01*
X82713456Y-127913216D01*
X82781376Y-128077188D01*
X82816000Y-128251259D01*
X82816000Y-128428741D01*
X82781376Y-128602812D01*
X82713456Y-128766784D01*
X82614853Y-128914354D01*
X82489354Y-129039853D01*
X82341784Y-129138456D01*
X82177812Y-129206376D01*
X82028512Y-129236073D01*
X82003742Y-129241000D01*
X81826258Y-129241000D01*
X81801488Y-129236073D01*
X81652188Y-129206376D01*
X81488216Y-129138456D01*
X81340646Y-129039853D01*
X81215147Y-128914354D01*
X81116544Y-128766784D01*
X81048624Y-128602812D01*
X81014000Y-128428741D01*
X81014000Y-128251259D01*
X81048624Y-128077188D01*
X81116544Y-127913216D01*
X81215147Y-127765646D01*
X81340646Y-127640147D01*
X81488216Y-127541544D01*
X81652188Y-127473624D01*
X81801488Y-127443927D01*
X81826258Y-127439000D01*
X82003742Y-127439000D01*
X82028512Y-127443927D01*
G37*
G36*
X84568512Y-127443927D02*
G01*
X84717812Y-127473624D01*
X84881784Y-127541544D01*
X85029354Y-127640147D01*
X85154853Y-127765646D01*
X85253456Y-127913216D01*
X85321376Y-128077188D01*
X85356000Y-128251259D01*
X85356000Y-128428741D01*
X85321376Y-128602812D01*
X85253456Y-128766784D01*
X85154853Y-128914354D01*
X85029354Y-129039853D01*
X84881784Y-129138456D01*
X84717812Y-129206376D01*
X84568512Y-129236073D01*
X84543742Y-129241000D01*
X84366258Y-129241000D01*
X84341488Y-129236073D01*
X84192188Y-129206376D01*
X84028216Y-129138456D01*
X83880646Y-129039853D01*
X83755147Y-128914354D01*
X83656544Y-128766784D01*
X83588624Y-128602812D01*
X83554000Y-128428741D01*
X83554000Y-128251259D01*
X83588624Y-128077188D01*
X83656544Y-127913216D01*
X83755147Y-127765646D01*
X83880646Y-127640147D01*
X84028216Y-127541544D01*
X84192188Y-127473624D01*
X84341488Y-127443927D01*
X84366258Y-127439000D01*
X84543742Y-127439000D01*
X84568512Y-127443927D01*
G37*
G36*
X106948512Y-127443927D02*
G01*
X107097812Y-127473624D01*
X107261784Y-127541544D01*
X107409354Y-127640147D01*
X107534853Y-127765646D01*
X107633456Y-127913216D01*
X107701376Y-128077188D01*
X107736000Y-128251259D01*
X107736000Y-128428741D01*
X107701376Y-128602812D01*
X107633456Y-128766784D01*
X107534853Y-128914354D01*
X107409354Y-129039853D01*
X107261784Y-129138456D01*
X107097812Y-129206376D01*
X106948512Y-129236073D01*
X106923742Y-129241000D01*
X106746258Y-129241000D01*
X106721488Y-129236073D01*
X106572188Y-129206376D01*
X106408216Y-129138456D01*
X106260646Y-129039853D01*
X106135147Y-128914354D01*
X106036544Y-128766784D01*
X105968624Y-128602812D01*
X105934000Y-128428741D01*
X105934000Y-128251259D01*
X105968624Y-128077188D01*
X106036544Y-127913216D01*
X106135147Y-127765646D01*
X106260646Y-127640147D01*
X106408216Y-127541544D01*
X106572188Y-127473624D01*
X106721488Y-127443927D01*
X106746258Y-127439000D01*
X106923742Y-127439000D01*
X106948512Y-127443927D01*
G37*
G36*
X109488512Y-127443927D02*
G01*
X109637812Y-127473624D01*
X109801784Y-127541544D01*
X109949354Y-127640147D01*
X110074853Y-127765646D01*
X110173456Y-127913216D01*
X110241376Y-128077188D01*
X110276000Y-128251259D01*
X110276000Y-128428741D01*
X110241376Y-128602812D01*
X110173456Y-128766784D01*
X110074853Y-128914354D01*
X109949354Y-129039853D01*
X109801784Y-129138456D01*
X109637812Y-129206376D01*
X109488512Y-129236073D01*
X109463742Y-129241000D01*
X109286258Y-129241000D01*
X109261488Y-129236073D01*
X109112188Y-129206376D01*
X108948216Y-129138456D01*
X108800646Y-129039853D01*
X108675147Y-128914354D01*
X108576544Y-128766784D01*
X108508624Y-128602812D01*
X108474000Y-128428741D01*
X108474000Y-128251259D01*
X108508624Y-128077188D01*
X108576544Y-127913216D01*
X108675147Y-127765646D01*
X108800646Y-127640147D01*
X108948216Y-127541544D01*
X109112188Y-127473624D01*
X109261488Y-127443927D01*
X109286258Y-127439000D01*
X109463742Y-127439000D01*
X109488512Y-127443927D01*
G37*
G36*
X114568512Y-127443927D02*
G01*
X114717812Y-127473624D01*
X114881784Y-127541544D01*
X115029354Y-127640147D01*
X115154853Y-127765646D01*
X115253456Y-127913216D01*
X115321376Y-128077188D01*
X115356000Y-128251259D01*
X115356000Y-128428741D01*
X115321376Y-128602812D01*
X115253456Y-128766784D01*
X115154853Y-128914354D01*
X115029354Y-129039853D01*
X114881784Y-129138456D01*
X114717812Y-129206376D01*
X114568512Y-129236073D01*
X114543742Y-129241000D01*
X114366258Y-129241000D01*
X114341488Y-129236073D01*
X114192188Y-129206376D01*
X114028216Y-129138456D01*
X113880646Y-129039853D01*
X113755147Y-128914354D01*
X113656544Y-128766784D01*
X113588624Y-128602812D01*
X113554000Y-128428741D01*
X113554000Y-128251259D01*
X113588624Y-128077188D01*
X113656544Y-127913216D01*
X113755147Y-127765646D01*
X113880646Y-127640147D01*
X114028216Y-127541544D01*
X114192188Y-127473624D01*
X114341488Y-127443927D01*
X114366258Y-127439000D01*
X114543742Y-127439000D01*
X114568512Y-127443927D01*
G37*
G36*
X117108512Y-127443927D02*
G01*
X117257812Y-127473624D01*
X117421784Y-127541544D01*
X117569354Y-127640147D01*
X117694853Y-127765646D01*
X117793456Y-127913216D01*
X117861376Y-128077188D01*
X117896000Y-128251259D01*
X117896000Y-128428741D01*
X117861376Y-128602812D01*
X117793456Y-128766784D01*
X117694853Y-128914354D01*
X117569354Y-129039853D01*
X117421784Y-129138456D01*
X117257812Y-129206376D01*
X117108512Y-129236073D01*
X117083742Y-129241000D01*
X116906258Y-129241000D01*
X116881488Y-129236073D01*
X116732188Y-129206376D01*
X116568216Y-129138456D01*
X116420646Y-129039853D01*
X116295147Y-128914354D01*
X116196544Y-128766784D01*
X116128624Y-128602812D01*
X116094000Y-128428741D01*
X116094000Y-128251259D01*
X116128624Y-128077188D01*
X116196544Y-127913216D01*
X116295147Y-127765646D01*
X116420646Y-127640147D01*
X116568216Y-127541544D01*
X116732188Y-127473624D01*
X116881488Y-127443927D01*
X116906258Y-127439000D01*
X117083742Y-127439000D01*
X117108512Y-127443927D01*
G37*
G36*
X87108512Y-127443927D02*
G01*
X87257812Y-127473624D01*
X87421784Y-127541544D01*
X87569354Y-127640147D01*
X87694853Y-127765646D01*
X87793456Y-127913216D01*
X87861376Y-128077188D01*
X87896000Y-128251259D01*
X87896000Y-128428741D01*
X87861376Y-128602812D01*
X87793456Y-128766784D01*
X87694853Y-128914354D01*
X87569354Y-129039853D01*
X87421784Y-129138456D01*
X87257812Y-129206376D01*
X87108512Y-129236073D01*
X87083742Y-129241000D01*
X86906258Y-129241000D01*
X86881488Y-129236073D01*
X86732188Y-129206376D01*
X86568216Y-129138456D01*
X86420646Y-129039853D01*
X86295147Y-128914354D01*
X86196544Y-128766784D01*
X86128624Y-128602812D01*
X86094000Y-128428741D01*
X86094000Y-128251259D01*
X86128624Y-128077188D01*
X86196544Y-127913216D01*
X86295147Y-127765646D01*
X86420646Y-127640147D01*
X86568216Y-127541544D01*
X86732188Y-127473624D01*
X86881488Y-127443927D01*
X86906258Y-127439000D01*
X87083742Y-127439000D01*
X87108512Y-127443927D01*
G37*
G36*
X144568512Y-127443927D02*
G01*
X144717812Y-127473624D01*
X144881784Y-127541544D01*
X145029354Y-127640147D01*
X145154853Y-127765646D01*
X145253456Y-127913216D01*
X145321376Y-128077188D01*
X145356000Y-128251259D01*
X145356000Y-128428741D01*
X145321376Y-128602812D01*
X145253456Y-128766784D01*
X145154853Y-128914354D01*
X145029354Y-129039853D01*
X144881784Y-129138456D01*
X144717812Y-129206376D01*
X144568512Y-129236073D01*
X144543742Y-129241000D01*
X144366258Y-129241000D01*
X144341488Y-129236073D01*
X144192188Y-129206376D01*
X144028216Y-129138456D01*
X143880646Y-129039853D01*
X143755147Y-128914354D01*
X143656544Y-128766784D01*
X143588624Y-128602812D01*
X143554000Y-128428741D01*
X143554000Y-128251259D01*
X143588624Y-128077188D01*
X143656544Y-127913216D01*
X143755147Y-127765646D01*
X143880646Y-127640147D01*
X144028216Y-127541544D01*
X144192188Y-127473624D01*
X144341488Y-127443927D01*
X144366258Y-127439000D01*
X144543742Y-127439000D01*
X144568512Y-127443927D01*
G37*
G36*
X139488512Y-127443927D02*
G01*
X139637812Y-127473624D01*
X139801784Y-127541544D01*
X139949354Y-127640147D01*
X140074853Y-127765646D01*
X140173456Y-127913216D01*
X140241376Y-128077188D01*
X140276000Y-128251259D01*
X140276000Y-128428741D01*
X140241376Y-128602812D01*
X140173456Y-128766784D01*
X140074853Y-128914354D01*
X139949354Y-129039853D01*
X139801784Y-129138456D01*
X139637812Y-129206376D01*
X139488512Y-129236073D01*
X139463742Y-129241000D01*
X139286258Y-129241000D01*
X139261488Y-129236073D01*
X139112188Y-129206376D01*
X138948216Y-129138456D01*
X138800646Y-129039853D01*
X138675147Y-128914354D01*
X138576544Y-128766784D01*
X138508624Y-128602812D01*
X138474000Y-128428741D01*
X138474000Y-128251259D01*
X138508624Y-128077188D01*
X138576544Y-127913216D01*
X138675147Y-127765646D01*
X138800646Y-127640147D01*
X138948216Y-127541544D01*
X139112188Y-127473624D01*
X139261488Y-127443927D01*
X139286258Y-127439000D01*
X139463742Y-127439000D01*
X139488512Y-127443927D01*
G37*
G36*
X142028512Y-127443927D02*
G01*
X142177812Y-127473624D01*
X142341784Y-127541544D01*
X142489354Y-127640147D01*
X142614853Y-127765646D01*
X142713456Y-127913216D01*
X142781376Y-128077188D01*
X142816000Y-128251259D01*
X142816000Y-128428741D01*
X142781376Y-128602812D01*
X142713456Y-128766784D01*
X142614853Y-128914354D01*
X142489354Y-129039853D01*
X142341784Y-129138456D01*
X142177812Y-129206376D01*
X142028512Y-129236073D01*
X142003742Y-129241000D01*
X141826258Y-129241000D01*
X141801488Y-129236073D01*
X141652188Y-129206376D01*
X141488216Y-129138456D01*
X141340646Y-129039853D01*
X141215147Y-128914354D01*
X141116544Y-128766784D01*
X141048624Y-128602812D01*
X141014000Y-128428741D01*
X141014000Y-128251259D01*
X141048624Y-128077188D01*
X141116544Y-127913216D01*
X141215147Y-127765646D01*
X141340646Y-127640147D01*
X141488216Y-127541544D01*
X141652188Y-127473624D01*
X141801488Y-127443927D01*
X141826258Y-127439000D01*
X142003742Y-127439000D01*
X142028512Y-127443927D01*
G37*
G36*
X136948512Y-127443927D02*
G01*
X137097812Y-127473624D01*
X137261784Y-127541544D01*
X137409354Y-127640147D01*
X137534853Y-127765646D01*
X137633456Y-127913216D01*
X137701376Y-128077188D01*
X137736000Y-128251259D01*
X137736000Y-128428741D01*
X137701376Y-128602812D01*
X137633456Y-128766784D01*
X137534853Y-128914354D01*
X137409354Y-129039853D01*
X137261784Y-129138456D01*
X137097812Y-129206376D01*
X136948512Y-129236073D01*
X136923742Y-129241000D01*
X136746258Y-129241000D01*
X136721488Y-129236073D01*
X136572188Y-129206376D01*
X136408216Y-129138456D01*
X136260646Y-129039853D01*
X136135147Y-128914354D01*
X136036544Y-128766784D01*
X135968624Y-128602812D01*
X135934000Y-128428741D01*
X135934000Y-128251259D01*
X135968624Y-128077188D01*
X136036544Y-127913216D01*
X136135147Y-127765646D01*
X136260646Y-127640147D01*
X136408216Y-127541544D01*
X136572188Y-127473624D01*
X136721488Y-127443927D01*
X136746258Y-127439000D01*
X136923742Y-127439000D01*
X136948512Y-127443927D01*
G37*
G36*
X155036000Y-128911000D02*
G01*
X154194000Y-128911000D01*
X154194000Y-126409000D01*
X155036000Y-126409000D01*
X155036000Y-128911000D01*
G37*
G36*
X100116000Y-128911000D02*
G01*
X99274000Y-128911000D01*
X99274000Y-126409000D01*
X100116000Y-126409000D01*
X100116000Y-128911000D01*
G37*
G36*
X98846000Y-128911000D02*
G01*
X98004000Y-128911000D01*
X98004000Y-126409000D01*
X98846000Y-126409000D01*
X98846000Y-128911000D01*
G37*
G36*
X97576000Y-128911000D02*
G01*
X96734000Y-128911000D01*
X96734000Y-126409000D01*
X97576000Y-126409000D01*
X97576000Y-128911000D01*
G37*
G36*
X96306000Y-128911000D02*
G01*
X95464000Y-128911000D01*
X95464000Y-126409000D01*
X96306000Y-126409000D01*
X96306000Y-128911000D01*
G37*
G36*
X95036000Y-128911000D02*
G01*
X94194000Y-128911000D01*
X94194000Y-126409000D01*
X95036000Y-126409000D01*
X95036000Y-128911000D01*
G37*
G36*
X130116000Y-128911000D02*
G01*
X129274000Y-128911000D01*
X129274000Y-126409000D01*
X130116000Y-126409000D01*
X130116000Y-128911000D01*
G37*
G36*
X128846000Y-128911000D02*
G01*
X128004000Y-128911000D01*
X128004000Y-126409000D01*
X128846000Y-126409000D01*
X128846000Y-128911000D01*
G37*
G36*
X126306000Y-128911000D02*
G01*
X125464000Y-128911000D01*
X125464000Y-126409000D01*
X126306000Y-126409000D01*
X126306000Y-128911000D01*
G37*
G36*
X125036000Y-128911000D02*
G01*
X124194000Y-128911000D01*
X124194000Y-126409000D01*
X125036000Y-126409000D01*
X125036000Y-128911000D01*
G37*
G36*
X156306000Y-128911000D02*
G01*
X155464000Y-128911000D01*
X155464000Y-126409000D01*
X156306000Y-126409000D01*
X156306000Y-128911000D01*
G37*
G36*
X160116000Y-128911000D02*
G01*
X159274000Y-128911000D01*
X159274000Y-126409000D01*
X160116000Y-126409000D01*
X160116000Y-128911000D01*
G37*
G36*
X157576000Y-128911000D02*
G01*
X156734000Y-128911000D01*
X156734000Y-126409000D01*
X157576000Y-126409000D01*
X157576000Y-128911000D01*
G37*
G36*
X158846000Y-128911000D02*
G01*
X158004000Y-128911000D01*
X158004000Y-126409000D01*
X158846000Y-126409000D01*
X158846000Y-128911000D01*
G37*
G36*
X127576000Y-128911000D02*
G01*
X126734000Y-128911000D01*
X126734000Y-126409000D01*
X127576000Y-126409000D01*
X127576000Y-128911000D01*
G37*
G36*
X126306000Y-117811000D02*
G01*
X125464000Y-117811000D01*
X125464000Y-115309000D01*
X126306000Y-115309000D01*
X126306000Y-117811000D01*
G37*
G36*
X100116000Y-117811000D02*
G01*
X99274000Y-117811000D01*
X99274000Y-115309000D01*
X100116000Y-115309000D01*
X100116000Y-117811000D01*
G37*
G36*
X98846000Y-117811000D02*
G01*
X98004000Y-117811000D01*
X98004000Y-115309000D01*
X98846000Y-115309000D01*
X98846000Y-117811000D01*
G37*
G36*
X97576000Y-117811000D02*
G01*
X96734000Y-117811000D01*
X96734000Y-115309000D01*
X97576000Y-115309000D01*
X97576000Y-117811000D01*
G37*
G36*
X96306000Y-117811000D02*
G01*
X95464000Y-117811000D01*
X95464000Y-115309000D01*
X96306000Y-115309000D01*
X96306000Y-117811000D01*
G37*
G36*
X158846000Y-117811000D02*
G01*
X158004000Y-117811000D01*
X158004000Y-115309000D01*
X158846000Y-115309000D01*
X158846000Y-117811000D01*
G37*
G36*
X95036000Y-117811000D02*
G01*
X94194000Y-117811000D01*
X94194000Y-115309000D01*
X95036000Y-115309000D01*
X95036000Y-117811000D01*
G37*
G36*
X127576000Y-117811000D02*
G01*
X126734000Y-117811000D01*
X126734000Y-115309000D01*
X127576000Y-115309000D01*
X127576000Y-117811000D01*
G37*
G36*
X128846000Y-117811000D02*
G01*
X128004000Y-117811000D01*
X128004000Y-115309000D01*
X128846000Y-115309000D01*
X128846000Y-117811000D01*
G37*
G36*
X130116000Y-117811000D02*
G01*
X129274000Y-117811000D01*
X129274000Y-115309000D01*
X130116000Y-115309000D01*
X130116000Y-117811000D01*
G37*
G36*
X155036000Y-117811000D02*
G01*
X154194000Y-117811000D01*
X154194000Y-115309000D01*
X155036000Y-115309000D01*
X155036000Y-117811000D01*
G37*
G36*
X156306000Y-117811000D02*
G01*
X155464000Y-117811000D01*
X155464000Y-115309000D01*
X156306000Y-115309000D01*
X156306000Y-117811000D01*
G37*
G36*
X157576000Y-117811000D02*
G01*
X156734000Y-117811000D01*
X156734000Y-115309000D01*
X157576000Y-115309000D01*
X157576000Y-117811000D01*
G37*
G36*
X160116000Y-117811000D02*
G01*
X159274000Y-117811000D01*
X159274000Y-115309000D01*
X160116000Y-115309000D01*
X160116000Y-117811000D01*
G37*
G36*
X125036000Y-117811000D02*
G01*
X124194000Y-117811000D01*
X124194000Y-115309000D01*
X125036000Y-115309000D01*
X125036000Y-117811000D01*
G37*
G36*
X144568512Y-114983927D02*
G01*
X144717812Y-115013624D01*
X144881784Y-115081544D01*
X145029354Y-115180147D01*
X145154853Y-115305646D01*
X145253456Y-115453216D01*
X145321376Y-115617188D01*
X145356000Y-115791259D01*
X145356000Y-115968741D01*
X145321376Y-116142812D01*
X145253456Y-116306784D01*
X145154853Y-116454354D01*
X145029354Y-116579853D01*
X144881784Y-116678456D01*
X144717812Y-116746376D01*
X144568512Y-116776073D01*
X144543742Y-116781000D01*
X144366258Y-116781000D01*
X144341488Y-116776073D01*
X144192188Y-116746376D01*
X144028216Y-116678456D01*
X143880646Y-116579853D01*
X143755147Y-116454354D01*
X143656544Y-116306784D01*
X143588624Y-116142812D01*
X143554000Y-115968741D01*
X143554000Y-115791259D01*
X143588624Y-115617188D01*
X143656544Y-115453216D01*
X143755147Y-115305646D01*
X143880646Y-115180147D01*
X144028216Y-115081544D01*
X144192188Y-115013624D01*
X144341488Y-114983927D01*
X144366258Y-114979000D01*
X144543742Y-114979000D01*
X144568512Y-114983927D01*
G37*
G36*
X139488512Y-114983927D02*
G01*
X139637812Y-115013624D01*
X139801784Y-115081544D01*
X139949354Y-115180147D01*
X140074853Y-115305646D01*
X140173456Y-115453216D01*
X140241376Y-115617188D01*
X140276000Y-115791259D01*
X140276000Y-115968741D01*
X140241376Y-116142812D01*
X140173456Y-116306784D01*
X140074853Y-116454354D01*
X139949354Y-116579853D01*
X139801784Y-116678456D01*
X139637812Y-116746376D01*
X139488512Y-116776073D01*
X139463742Y-116781000D01*
X139286258Y-116781000D01*
X139261488Y-116776073D01*
X139112188Y-116746376D01*
X138948216Y-116678456D01*
X138800646Y-116579853D01*
X138675147Y-116454354D01*
X138576544Y-116306784D01*
X138508624Y-116142812D01*
X138474000Y-115968741D01*
X138474000Y-115791259D01*
X138508624Y-115617188D01*
X138576544Y-115453216D01*
X138675147Y-115305646D01*
X138800646Y-115180147D01*
X138948216Y-115081544D01*
X139112188Y-115013624D01*
X139261488Y-114983927D01*
X139286258Y-114979000D01*
X139463742Y-114979000D01*
X139488512Y-114983927D01*
G37*
G36*
X137736000Y-116781000D02*
G01*
X135934000Y-116781000D01*
X135934000Y-114979000D01*
X137736000Y-114979000D01*
X137736000Y-116781000D01*
G37*
G36*
X147108512Y-114983927D02*
G01*
X147257812Y-115013624D01*
X147421784Y-115081544D01*
X147569354Y-115180147D01*
X147694853Y-115305646D01*
X147793456Y-115453216D01*
X147861376Y-115617188D01*
X147896000Y-115791259D01*
X147896000Y-115968741D01*
X147861376Y-116142812D01*
X147793456Y-116306784D01*
X147694853Y-116454354D01*
X147569354Y-116579853D01*
X147421784Y-116678456D01*
X147257812Y-116746376D01*
X147108512Y-116776073D01*
X147083742Y-116781000D01*
X146906258Y-116781000D01*
X146881488Y-116776073D01*
X146732188Y-116746376D01*
X146568216Y-116678456D01*
X146420646Y-116579853D01*
X146295147Y-116454354D01*
X146196544Y-116306784D01*
X146128624Y-116142812D01*
X146094000Y-115968741D01*
X146094000Y-115791259D01*
X146128624Y-115617188D01*
X146196544Y-115453216D01*
X146295147Y-115305646D01*
X146420646Y-115180147D01*
X146568216Y-115081544D01*
X146732188Y-115013624D01*
X146881488Y-114983927D01*
X146906258Y-114979000D01*
X147083742Y-114979000D01*
X147108512Y-114983927D01*
G37*
G36*
X142028512Y-114983927D02*
G01*
X142177812Y-115013624D01*
X142341784Y-115081544D01*
X142489354Y-115180147D01*
X142614853Y-115305646D01*
X142713456Y-115453216D01*
X142781376Y-115617188D01*
X142816000Y-115791259D01*
X142816000Y-115968741D01*
X142781376Y-116142812D01*
X142713456Y-116306784D01*
X142614853Y-116454354D01*
X142489354Y-116579853D01*
X142341784Y-116678456D01*
X142177812Y-116746376D01*
X142028512Y-116776073D01*
X142003742Y-116781000D01*
X141826258Y-116781000D01*
X141801488Y-116776073D01*
X141652188Y-116746376D01*
X141488216Y-116678456D01*
X141340646Y-116579853D01*
X141215147Y-116454354D01*
X141116544Y-116306784D01*
X141048624Y-116142812D01*
X141014000Y-115968741D01*
X141014000Y-115791259D01*
X141048624Y-115617188D01*
X141116544Y-115453216D01*
X141215147Y-115305646D01*
X141340646Y-115180147D01*
X141488216Y-115081544D01*
X141652188Y-115013624D01*
X141801488Y-114983927D01*
X141826258Y-114979000D01*
X142003742Y-114979000D01*
X142028512Y-114983927D01*
G37*
G36*
X82028512Y-114983927D02*
G01*
X82177812Y-115013624D01*
X82341784Y-115081544D01*
X82489354Y-115180147D01*
X82614853Y-115305646D01*
X82713456Y-115453216D01*
X82781376Y-115617188D01*
X82816000Y-115791259D01*
X82816000Y-115968741D01*
X82781376Y-116142812D01*
X82713456Y-116306784D01*
X82614853Y-116454354D01*
X82489354Y-116579853D01*
X82341784Y-116678456D01*
X82177812Y-116746376D01*
X82028512Y-116776073D01*
X82003742Y-116781000D01*
X81826258Y-116781000D01*
X81801488Y-116776073D01*
X81652188Y-116746376D01*
X81488216Y-116678456D01*
X81340646Y-116579853D01*
X81215147Y-116454354D01*
X81116544Y-116306784D01*
X81048624Y-116142812D01*
X81014000Y-115968741D01*
X81014000Y-115791259D01*
X81048624Y-115617188D01*
X81116544Y-115453216D01*
X81215147Y-115305646D01*
X81340646Y-115180147D01*
X81488216Y-115081544D01*
X81652188Y-115013624D01*
X81801488Y-114983927D01*
X81826258Y-114979000D01*
X82003742Y-114979000D01*
X82028512Y-114983927D01*
G37*
G36*
X84568512Y-114983927D02*
G01*
X84717812Y-115013624D01*
X84881784Y-115081544D01*
X85029354Y-115180147D01*
X85154853Y-115305646D01*
X85253456Y-115453216D01*
X85321376Y-115617188D01*
X85356000Y-115791259D01*
X85356000Y-115968741D01*
X85321376Y-116142812D01*
X85253456Y-116306784D01*
X85154853Y-116454354D01*
X85029354Y-116579853D01*
X84881784Y-116678456D01*
X84717812Y-116746376D01*
X84568512Y-116776073D01*
X84543742Y-116781000D01*
X84366258Y-116781000D01*
X84341488Y-116776073D01*
X84192188Y-116746376D01*
X84028216Y-116678456D01*
X83880646Y-116579853D01*
X83755147Y-116454354D01*
X83656544Y-116306784D01*
X83588624Y-116142812D01*
X83554000Y-115968741D01*
X83554000Y-115791259D01*
X83588624Y-115617188D01*
X83656544Y-115453216D01*
X83755147Y-115305646D01*
X83880646Y-115180147D01*
X84028216Y-115081544D01*
X84192188Y-115013624D01*
X84341488Y-114983927D01*
X84366258Y-114979000D01*
X84543742Y-114979000D01*
X84568512Y-114983927D01*
G37*
G36*
X117108512Y-114983927D02*
G01*
X117257812Y-115013624D01*
X117421784Y-115081544D01*
X117569354Y-115180147D01*
X117694853Y-115305646D01*
X117793456Y-115453216D01*
X117861376Y-115617188D01*
X117896000Y-115791259D01*
X117896000Y-115968741D01*
X117861376Y-116142812D01*
X117793456Y-116306784D01*
X117694853Y-116454354D01*
X117569354Y-116579853D01*
X117421784Y-116678456D01*
X117257812Y-116746376D01*
X117108512Y-116776073D01*
X117083742Y-116781000D01*
X116906258Y-116781000D01*
X116881488Y-116776073D01*
X116732188Y-116746376D01*
X116568216Y-116678456D01*
X116420646Y-116579853D01*
X116295147Y-116454354D01*
X116196544Y-116306784D01*
X116128624Y-116142812D01*
X116094000Y-115968741D01*
X116094000Y-115791259D01*
X116128624Y-115617188D01*
X116196544Y-115453216D01*
X116295147Y-115305646D01*
X116420646Y-115180147D01*
X116568216Y-115081544D01*
X116732188Y-115013624D01*
X116881488Y-114983927D01*
X116906258Y-114979000D01*
X117083742Y-114979000D01*
X117108512Y-114983927D01*
G37*
G36*
X87108512Y-114983927D02*
G01*
X87257812Y-115013624D01*
X87421784Y-115081544D01*
X87569354Y-115180147D01*
X87694853Y-115305646D01*
X87793456Y-115453216D01*
X87861376Y-115617188D01*
X87896000Y-115791259D01*
X87896000Y-115968741D01*
X87861376Y-116142812D01*
X87793456Y-116306784D01*
X87694853Y-116454354D01*
X87569354Y-116579853D01*
X87421784Y-116678456D01*
X87257812Y-116746376D01*
X87108512Y-116776073D01*
X87083742Y-116781000D01*
X86906258Y-116781000D01*
X86881488Y-116776073D01*
X86732188Y-116746376D01*
X86568216Y-116678456D01*
X86420646Y-116579853D01*
X86295147Y-116454354D01*
X86196544Y-116306784D01*
X86128624Y-116142812D01*
X86094000Y-115968741D01*
X86094000Y-115791259D01*
X86128624Y-115617188D01*
X86196544Y-115453216D01*
X86295147Y-115305646D01*
X86420646Y-115180147D01*
X86568216Y-115081544D01*
X86732188Y-115013624D01*
X86881488Y-114983927D01*
X86906258Y-114979000D01*
X87083742Y-114979000D01*
X87108512Y-114983927D01*
G37*
G36*
X114568512Y-114983927D02*
G01*
X114717812Y-115013624D01*
X114881784Y-115081544D01*
X115029354Y-115180147D01*
X115154853Y-115305646D01*
X115253456Y-115453216D01*
X115321376Y-115617188D01*
X115356000Y-115791259D01*
X115356000Y-115968741D01*
X115321376Y-116142812D01*
X115253456Y-116306784D01*
X115154853Y-116454354D01*
X115029354Y-116579853D01*
X114881784Y-116678456D01*
X114717812Y-116746376D01*
X114568512Y-116776073D01*
X114543742Y-116781000D01*
X114366258Y-116781000D01*
X114341488Y-116776073D01*
X114192188Y-116746376D01*
X114028216Y-116678456D01*
X113880646Y-116579853D01*
X113755147Y-116454354D01*
X113656544Y-116306784D01*
X113588624Y-116142812D01*
X113554000Y-115968741D01*
X113554000Y-115791259D01*
X113588624Y-115617188D01*
X113656544Y-115453216D01*
X113755147Y-115305646D01*
X113880646Y-115180147D01*
X114028216Y-115081544D01*
X114192188Y-115013624D01*
X114341488Y-114983927D01*
X114366258Y-114979000D01*
X114543742Y-114979000D01*
X114568512Y-114983927D01*
G37*
G36*
X107736000Y-116781000D02*
G01*
X105934000Y-116781000D01*
X105934000Y-114979000D01*
X107736000Y-114979000D01*
X107736000Y-116781000D01*
G37*
G36*
X77736000Y-116781000D02*
G01*
X75934000Y-116781000D01*
X75934000Y-114979000D01*
X77736000Y-114979000D01*
X77736000Y-116781000D01*
G37*
G36*
X109488512Y-114983927D02*
G01*
X109637812Y-115013624D01*
X109801784Y-115081544D01*
X109949354Y-115180147D01*
X110074853Y-115305646D01*
X110173456Y-115453216D01*
X110241376Y-115617188D01*
X110276000Y-115791259D01*
X110276000Y-115968741D01*
X110241376Y-116142812D01*
X110173456Y-116306784D01*
X110074853Y-116454354D01*
X109949354Y-116579853D01*
X109801784Y-116678456D01*
X109637812Y-116746376D01*
X109488512Y-116776073D01*
X109463742Y-116781000D01*
X109286258Y-116781000D01*
X109261488Y-116776073D01*
X109112188Y-116746376D01*
X108948216Y-116678456D01*
X108800646Y-116579853D01*
X108675147Y-116454354D01*
X108576544Y-116306784D01*
X108508624Y-116142812D01*
X108474000Y-115968741D01*
X108474000Y-115791259D01*
X108508624Y-115617188D01*
X108576544Y-115453216D01*
X108675147Y-115305646D01*
X108800646Y-115180147D01*
X108948216Y-115081544D01*
X109112188Y-115013624D01*
X109261488Y-114983927D01*
X109286258Y-114979000D01*
X109463742Y-114979000D01*
X109488512Y-114983927D01*
G37*
G36*
X79488512Y-114983927D02*
G01*
X79637812Y-115013624D01*
X79801784Y-115081544D01*
X79949354Y-115180147D01*
X80074853Y-115305646D01*
X80173456Y-115453216D01*
X80241376Y-115617188D01*
X80276000Y-115791259D01*
X80276000Y-115968741D01*
X80241376Y-116142812D01*
X80173456Y-116306784D01*
X80074853Y-116454354D01*
X79949354Y-116579853D01*
X79801784Y-116678456D01*
X79637812Y-116746376D01*
X79488512Y-116776073D01*
X79463742Y-116781000D01*
X79286258Y-116781000D01*
X79261488Y-116776073D01*
X79112188Y-116746376D01*
X78948216Y-116678456D01*
X78800646Y-116579853D01*
X78675147Y-116454354D01*
X78576544Y-116306784D01*
X78508624Y-116142812D01*
X78474000Y-115968741D01*
X78474000Y-115791259D01*
X78508624Y-115617188D01*
X78576544Y-115453216D01*
X78675147Y-115305646D01*
X78800646Y-115180147D01*
X78948216Y-115081544D01*
X79112188Y-115013624D01*
X79261488Y-114983927D01*
X79286258Y-114979000D01*
X79463742Y-114979000D01*
X79488512Y-114983927D01*
G37*
G36*
X112028512Y-114983927D02*
G01*
X112177812Y-115013624D01*
X112341784Y-115081544D01*
X112489354Y-115180147D01*
X112614853Y-115305646D01*
X112713456Y-115453216D01*
X112781376Y-115617188D01*
X112816000Y-115791259D01*
X112816000Y-115968741D01*
X112781376Y-116142812D01*
X112713456Y-116306784D01*
X112614853Y-116454354D01*
X112489354Y-116579853D01*
X112341784Y-116678456D01*
X112177812Y-116746376D01*
X112028512Y-116776073D01*
X112003742Y-116781000D01*
X111826258Y-116781000D01*
X111801488Y-116776073D01*
X111652188Y-116746376D01*
X111488216Y-116678456D01*
X111340646Y-116579853D01*
X111215147Y-116454354D01*
X111116544Y-116306784D01*
X111048624Y-116142812D01*
X111014000Y-115968741D01*
X111014000Y-115791259D01*
X111048624Y-115617188D01*
X111116544Y-115453216D01*
X111215147Y-115305646D01*
X111340646Y-115180147D01*
X111488216Y-115081544D01*
X111652188Y-115013624D01*
X111801488Y-114983927D01*
X111826258Y-114979000D01*
X112003742Y-114979000D01*
X112028512Y-114983927D01*
G37*
G36*
X87108512Y-112443927D02*
G01*
X87257812Y-112473624D01*
X87421784Y-112541544D01*
X87569354Y-112640147D01*
X87694853Y-112765646D01*
X87793456Y-112913216D01*
X87861376Y-113077188D01*
X87896000Y-113251259D01*
X87896000Y-113428741D01*
X87861376Y-113602812D01*
X87793456Y-113766784D01*
X87694853Y-113914354D01*
X87569354Y-114039853D01*
X87421784Y-114138456D01*
X87257812Y-114206376D01*
X87108512Y-114236073D01*
X87083742Y-114241000D01*
X86906258Y-114241000D01*
X86881488Y-114236073D01*
X86732188Y-114206376D01*
X86568216Y-114138456D01*
X86420646Y-114039853D01*
X86295147Y-113914354D01*
X86196544Y-113766784D01*
X86128624Y-113602812D01*
X86094000Y-113428741D01*
X86094000Y-113251259D01*
X86128624Y-113077188D01*
X86196544Y-112913216D01*
X86295147Y-112765646D01*
X86420646Y-112640147D01*
X86568216Y-112541544D01*
X86732188Y-112473624D01*
X86881488Y-112443927D01*
X86906258Y-112439000D01*
X87083742Y-112439000D01*
X87108512Y-112443927D01*
G37*
G36*
X147108512Y-112443927D02*
G01*
X147257812Y-112473624D01*
X147421784Y-112541544D01*
X147569354Y-112640147D01*
X147694853Y-112765646D01*
X147793456Y-112913216D01*
X147861376Y-113077188D01*
X147896000Y-113251259D01*
X147896000Y-113428741D01*
X147861376Y-113602812D01*
X147793456Y-113766784D01*
X147694853Y-113914354D01*
X147569354Y-114039853D01*
X147421784Y-114138456D01*
X147257812Y-114206376D01*
X147108512Y-114236073D01*
X147083742Y-114241000D01*
X146906258Y-114241000D01*
X146881488Y-114236073D01*
X146732188Y-114206376D01*
X146568216Y-114138456D01*
X146420646Y-114039853D01*
X146295147Y-113914354D01*
X146196544Y-113766784D01*
X146128624Y-113602812D01*
X146094000Y-113428741D01*
X146094000Y-113251259D01*
X146128624Y-113077188D01*
X146196544Y-112913216D01*
X146295147Y-112765646D01*
X146420646Y-112640147D01*
X146568216Y-112541544D01*
X146732188Y-112473624D01*
X146881488Y-112443927D01*
X146906258Y-112439000D01*
X147083742Y-112439000D01*
X147108512Y-112443927D01*
G37*
G36*
X144568512Y-112443927D02*
G01*
X144717812Y-112473624D01*
X144881784Y-112541544D01*
X145029354Y-112640147D01*
X145154853Y-112765646D01*
X145253456Y-112913216D01*
X145321376Y-113077188D01*
X145356000Y-113251259D01*
X145356000Y-113428741D01*
X145321376Y-113602812D01*
X145253456Y-113766784D01*
X145154853Y-113914354D01*
X145029354Y-114039853D01*
X144881784Y-114138456D01*
X144717812Y-114206376D01*
X144568512Y-114236073D01*
X144543742Y-114241000D01*
X144366258Y-114241000D01*
X144341488Y-114236073D01*
X144192188Y-114206376D01*
X144028216Y-114138456D01*
X143880646Y-114039853D01*
X143755147Y-113914354D01*
X143656544Y-113766784D01*
X143588624Y-113602812D01*
X143554000Y-113428741D01*
X143554000Y-113251259D01*
X143588624Y-113077188D01*
X143656544Y-112913216D01*
X143755147Y-112765646D01*
X143880646Y-112640147D01*
X144028216Y-112541544D01*
X144192188Y-112473624D01*
X144341488Y-112443927D01*
X144366258Y-112439000D01*
X144543742Y-112439000D01*
X144568512Y-112443927D01*
G37*
G36*
X142028512Y-112443927D02*
G01*
X142177812Y-112473624D01*
X142341784Y-112541544D01*
X142489354Y-112640147D01*
X142614853Y-112765646D01*
X142713456Y-112913216D01*
X142781376Y-113077188D01*
X142816000Y-113251259D01*
X142816000Y-113428741D01*
X142781376Y-113602812D01*
X142713456Y-113766784D01*
X142614853Y-113914354D01*
X142489354Y-114039853D01*
X142341784Y-114138456D01*
X142177812Y-114206376D01*
X142028512Y-114236073D01*
X142003742Y-114241000D01*
X141826258Y-114241000D01*
X141801488Y-114236073D01*
X141652188Y-114206376D01*
X141488216Y-114138456D01*
X141340646Y-114039853D01*
X141215147Y-113914354D01*
X141116544Y-113766784D01*
X141048624Y-113602812D01*
X141014000Y-113428741D01*
X141014000Y-113251259D01*
X141048624Y-113077188D01*
X141116544Y-112913216D01*
X141215147Y-112765646D01*
X141340646Y-112640147D01*
X141488216Y-112541544D01*
X141652188Y-112473624D01*
X141801488Y-112443927D01*
X141826258Y-112439000D01*
X142003742Y-112439000D01*
X142028512Y-112443927D01*
G37*
G36*
X139488512Y-112443927D02*
G01*
X139637812Y-112473624D01*
X139801784Y-112541544D01*
X139949354Y-112640147D01*
X140074853Y-112765646D01*
X140173456Y-112913216D01*
X140241376Y-113077188D01*
X140276000Y-113251259D01*
X140276000Y-113428741D01*
X140241376Y-113602812D01*
X140173456Y-113766784D01*
X140074853Y-113914354D01*
X139949354Y-114039853D01*
X139801784Y-114138456D01*
X139637812Y-114206376D01*
X139488512Y-114236073D01*
X139463742Y-114241000D01*
X139286258Y-114241000D01*
X139261488Y-114236073D01*
X139112188Y-114206376D01*
X138948216Y-114138456D01*
X138800646Y-114039853D01*
X138675147Y-113914354D01*
X138576544Y-113766784D01*
X138508624Y-113602812D01*
X138474000Y-113428741D01*
X138474000Y-113251259D01*
X138508624Y-113077188D01*
X138576544Y-112913216D01*
X138675147Y-112765646D01*
X138800646Y-112640147D01*
X138948216Y-112541544D01*
X139112188Y-112473624D01*
X139261488Y-112443927D01*
X139286258Y-112439000D01*
X139463742Y-112439000D01*
X139488512Y-112443927D01*
G37*
G36*
X136948512Y-112443927D02*
G01*
X137097812Y-112473624D01*
X137261784Y-112541544D01*
X137409354Y-112640147D01*
X137534853Y-112765646D01*
X137633456Y-112913216D01*
X137701376Y-113077188D01*
X137736000Y-113251259D01*
X137736000Y-113428741D01*
X137701376Y-113602812D01*
X137633456Y-113766784D01*
X137534853Y-113914354D01*
X137409354Y-114039853D01*
X137261784Y-114138456D01*
X137097812Y-114206376D01*
X136948512Y-114236073D01*
X136923742Y-114241000D01*
X136746258Y-114241000D01*
X136721488Y-114236073D01*
X136572188Y-114206376D01*
X136408216Y-114138456D01*
X136260646Y-114039853D01*
X136135147Y-113914354D01*
X136036544Y-113766784D01*
X135968624Y-113602812D01*
X135934000Y-113428741D01*
X135934000Y-113251259D01*
X135968624Y-113077188D01*
X136036544Y-112913216D01*
X136135147Y-112765646D01*
X136260646Y-112640147D01*
X136408216Y-112541544D01*
X136572188Y-112473624D01*
X136721488Y-112443927D01*
X136746258Y-112439000D01*
X136923742Y-112439000D01*
X136948512Y-112443927D01*
G37*
G36*
X117108512Y-112443927D02*
G01*
X117257812Y-112473624D01*
X117421784Y-112541544D01*
X117569354Y-112640147D01*
X117694853Y-112765646D01*
X117793456Y-112913216D01*
X117861376Y-113077188D01*
X117896000Y-113251259D01*
X117896000Y-113428741D01*
X117861376Y-113602812D01*
X117793456Y-113766784D01*
X117694853Y-113914354D01*
X117569354Y-114039853D01*
X117421784Y-114138456D01*
X117257812Y-114206376D01*
X117108512Y-114236073D01*
X117083742Y-114241000D01*
X116906258Y-114241000D01*
X116881488Y-114236073D01*
X116732188Y-114206376D01*
X116568216Y-114138456D01*
X116420646Y-114039853D01*
X116295147Y-113914354D01*
X116196544Y-113766784D01*
X116128624Y-113602812D01*
X116094000Y-113428741D01*
X116094000Y-113251259D01*
X116128624Y-113077188D01*
X116196544Y-112913216D01*
X116295147Y-112765646D01*
X116420646Y-112640147D01*
X116568216Y-112541544D01*
X116732188Y-112473624D01*
X116881488Y-112443927D01*
X116906258Y-112439000D01*
X117083742Y-112439000D01*
X117108512Y-112443927D01*
G37*
G36*
X114568512Y-112443927D02*
G01*
X114717812Y-112473624D01*
X114881784Y-112541544D01*
X115029354Y-112640147D01*
X115154853Y-112765646D01*
X115253456Y-112913216D01*
X115321376Y-113077188D01*
X115356000Y-113251259D01*
X115356000Y-113428741D01*
X115321376Y-113602812D01*
X115253456Y-113766784D01*
X115154853Y-113914354D01*
X115029354Y-114039853D01*
X114881784Y-114138456D01*
X114717812Y-114206376D01*
X114568512Y-114236073D01*
X114543742Y-114241000D01*
X114366258Y-114241000D01*
X114341488Y-114236073D01*
X114192188Y-114206376D01*
X114028216Y-114138456D01*
X113880646Y-114039853D01*
X113755147Y-113914354D01*
X113656544Y-113766784D01*
X113588624Y-113602812D01*
X113554000Y-113428741D01*
X113554000Y-113251259D01*
X113588624Y-113077188D01*
X113656544Y-112913216D01*
X113755147Y-112765646D01*
X113880646Y-112640147D01*
X114028216Y-112541544D01*
X114192188Y-112473624D01*
X114341488Y-112443927D01*
X114366258Y-112439000D01*
X114543742Y-112439000D01*
X114568512Y-112443927D01*
G37*
G36*
X109488512Y-112443927D02*
G01*
X109637812Y-112473624D01*
X109801784Y-112541544D01*
X109949354Y-112640147D01*
X110074853Y-112765646D01*
X110173456Y-112913216D01*
X110241376Y-113077188D01*
X110276000Y-113251259D01*
X110276000Y-113428741D01*
X110241376Y-113602812D01*
X110173456Y-113766784D01*
X110074853Y-113914354D01*
X109949354Y-114039853D01*
X109801784Y-114138456D01*
X109637812Y-114206376D01*
X109488512Y-114236073D01*
X109463742Y-114241000D01*
X109286258Y-114241000D01*
X109261488Y-114236073D01*
X109112188Y-114206376D01*
X108948216Y-114138456D01*
X108800646Y-114039853D01*
X108675147Y-113914354D01*
X108576544Y-113766784D01*
X108508624Y-113602812D01*
X108474000Y-113428741D01*
X108474000Y-113251259D01*
X108508624Y-113077188D01*
X108576544Y-112913216D01*
X108675147Y-112765646D01*
X108800646Y-112640147D01*
X108948216Y-112541544D01*
X109112188Y-112473624D01*
X109261488Y-112443927D01*
X109286258Y-112439000D01*
X109463742Y-112439000D01*
X109488512Y-112443927D01*
G37*
G36*
X112028512Y-112443927D02*
G01*
X112177812Y-112473624D01*
X112341784Y-112541544D01*
X112489354Y-112640147D01*
X112614853Y-112765646D01*
X112713456Y-112913216D01*
X112781376Y-113077188D01*
X112816000Y-113251259D01*
X112816000Y-113428741D01*
X112781376Y-113602812D01*
X112713456Y-113766784D01*
X112614853Y-113914354D01*
X112489354Y-114039853D01*
X112341784Y-114138456D01*
X112177812Y-114206376D01*
X112028512Y-114236073D01*
X112003742Y-114241000D01*
X111826258Y-114241000D01*
X111801488Y-114236073D01*
X111652188Y-114206376D01*
X111488216Y-114138456D01*
X111340646Y-114039853D01*
X111215147Y-113914354D01*
X111116544Y-113766784D01*
X111048624Y-113602812D01*
X111014000Y-113428741D01*
X111014000Y-113251259D01*
X111048624Y-113077188D01*
X111116544Y-112913216D01*
X111215147Y-112765646D01*
X111340646Y-112640147D01*
X111488216Y-112541544D01*
X111652188Y-112473624D01*
X111801488Y-112443927D01*
X111826258Y-112439000D01*
X112003742Y-112439000D01*
X112028512Y-112443927D01*
G37*
G36*
X82028512Y-112443927D02*
G01*
X82177812Y-112473624D01*
X82341784Y-112541544D01*
X82489354Y-112640147D01*
X82614853Y-112765646D01*
X82713456Y-112913216D01*
X82781376Y-113077188D01*
X82816000Y-113251259D01*
X82816000Y-113428741D01*
X82781376Y-113602812D01*
X82713456Y-113766784D01*
X82614853Y-113914354D01*
X82489354Y-114039853D01*
X82341784Y-114138456D01*
X82177812Y-114206376D01*
X82028512Y-114236073D01*
X82003742Y-114241000D01*
X81826258Y-114241000D01*
X81801488Y-114236073D01*
X81652188Y-114206376D01*
X81488216Y-114138456D01*
X81340646Y-114039853D01*
X81215147Y-113914354D01*
X81116544Y-113766784D01*
X81048624Y-113602812D01*
X81014000Y-113428741D01*
X81014000Y-113251259D01*
X81048624Y-113077188D01*
X81116544Y-112913216D01*
X81215147Y-112765646D01*
X81340646Y-112640147D01*
X81488216Y-112541544D01*
X81652188Y-112473624D01*
X81801488Y-112443927D01*
X81826258Y-112439000D01*
X82003742Y-112439000D01*
X82028512Y-112443927D01*
G37*
G36*
X79488512Y-112443927D02*
G01*
X79637812Y-112473624D01*
X79801784Y-112541544D01*
X79949354Y-112640147D01*
X80074853Y-112765646D01*
X80173456Y-112913216D01*
X80241376Y-113077188D01*
X80276000Y-113251259D01*
X80276000Y-113428741D01*
X80241376Y-113602812D01*
X80173456Y-113766784D01*
X80074853Y-113914354D01*
X79949354Y-114039853D01*
X79801784Y-114138456D01*
X79637812Y-114206376D01*
X79488512Y-114236073D01*
X79463742Y-114241000D01*
X79286258Y-114241000D01*
X79261488Y-114236073D01*
X79112188Y-114206376D01*
X78948216Y-114138456D01*
X78800646Y-114039853D01*
X78675147Y-113914354D01*
X78576544Y-113766784D01*
X78508624Y-113602812D01*
X78474000Y-113428741D01*
X78474000Y-113251259D01*
X78508624Y-113077188D01*
X78576544Y-112913216D01*
X78675147Y-112765646D01*
X78800646Y-112640147D01*
X78948216Y-112541544D01*
X79112188Y-112473624D01*
X79261488Y-112443927D01*
X79286258Y-112439000D01*
X79463742Y-112439000D01*
X79488512Y-112443927D01*
G37*
G36*
X84568512Y-112443927D02*
G01*
X84717812Y-112473624D01*
X84881784Y-112541544D01*
X85029354Y-112640147D01*
X85154853Y-112765646D01*
X85253456Y-112913216D01*
X85321376Y-113077188D01*
X85356000Y-113251259D01*
X85356000Y-113428741D01*
X85321376Y-113602812D01*
X85253456Y-113766784D01*
X85154853Y-113914354D01*
X85029354Y-114039853D01*
X84881784Y-114138456D01*
X84717812Y-114206376D01*
X84568512Y-114236073D01*
X84543742Y-114241000D01*
X84366258Y-114241000D01*
X84341488Y-114236073D01*
X84192188Y-114206376D01*
X84028216Y-114138456D01*
X83880646Y-114039853D01*
X83755147Y-113914354D01*
X83656544Y-113766784D01*
X83588624Y-113602812D01*
X83554000Y-113428741D01*
X83554000Y-113251259D01*
X83588624Y-113077188D01*
X83656544Y-112913216D01*
X83755147Y-112765646D01*
X83880646Y-112640147D01*
X84028216Y-112541544D01*
X84192188Y-112473624D01*
X84341488Y-112443927D01*
X84366258Y-112439000D01*
X84543742Y-112439000D01*
X84568512Y-112443927D01*
G37*
G36*
X106948512Y-112443927D02*
G01*
X107097812Y-112473624D01*
X107261784Y-112541544D01*
X107409354Y-112640147D01*
X107534853Y-112765646D01*
X107633456Y-112913216D01*
X107701376Y-113077188D01*
X107736000Y-113251259D01*
X107736000Y-113428741D01*
X107701376Y-113602812D01*
X107633456Y-113766784D01*
X107534853Y-113914354D01*
X107409354Y-114039853D01*
X107261784Y-114138456D01*
X107097812Y-114206376D01*
X106948512Y-114236073D01*
X106923742Y-114241000D01*
X106746258Y-114241000D01*
X106721488Y-114236073D01*
X106572188Y-114206376D01*
X106408216Y-114138456D01*
X106260646Y-114039853D01*
X106135147Y-113914354D01*
X106036544Y-113766784D01*
X105968624Y-113602812D01*
X105934000Y-113428741D01*
X105934000Y-113251259D01*
X105968624Y-113077188D01*
X106036544Y-112913216D01*
X106135147Y-112765646D01*
X106260646Y-112640147D01*
X106408216Y-112541544D01*
X106572188Y-112473624D01*
X106721488Y-112443927D01*
X106746258Y-112439000D01*
X106923742Y-112439000D01*
X106948512Y-112443927D01*
G37*
G36*
X76948512Y-112443927D02*
G01*
X77097812Y-112473624D01*
X77261784Y-112541544D01*
X77409354Y-112640147D01*
X77534853Y-112765646D01*
X77633456Y-112913216D01*
X77701376Y-113077188D01*
X77736000Y-113251259D01*
X77736000Y-113428741D01*
X77701376Y-113602812D01*
X77633456Y-113766784D01*
X77534853Y-113914354D01*
X77409354Y-114039853D01*
X77261784Y-114138456D01*
X77097812Y-114206376D01*
X76948512Y-114236073D01*
X76923742Y-114241000D01*
X76746258Y-114241000D01*
X76721488Y-114236073D01*
X76572188Y-114206376D01*
X76408216Y-114138456D01*
X76260646Y-114039853D01*
X76135147Y-113914354D01*
X76036544Y-113766784D01*
X75968624Y-113602812D01*
X75934000Y-113428741D01*
X75934000Y-113251259D01*
X75968624Y-113077188D01*
X76036544Y-112913216D01*
X76135147Y-112765646D01*
X76260646Y-112640147D01*
X76408216Y-112541544D01*
X76572188Y-112473624D01*
X76721488Y-112443927D01*
X76746258Y-112439000D01*
X76923742Y-112439000D01*
X76948512Y-112443927D01*
G37*
G36*
X130116000Y-113911000D02*
G01*
X129274000Y-113911000D01*
X129274000Y-111409000D01*
X130116000Y-111409000D01*
X130116000Y-113911000D01*
G37*
G36*
X125036000Y-113911000D02*
G01*
X124194000Y-113911000D01*
X124194000Y-111409000D01*
X125036000Y-111409000D01*
X125036000Y-113911000D01*
G37*
G36*
X126306000Y-113911000D02*
G01*
X125464000Y-113911000D01*
X125464000Y-111409000D01*
X126306000Y-111409000D01*
X126306000Y-113911000D01*
G37*
G36*
X127576000Y-113911000D02*
G01*
X126734000Y-113911000D01*
X126734000Y-111409000D01*
X127576000Y-111409000D01*
X127576000Y-113911000D01*
G37*
G36*
X128846000Y-113911000D02*
G01*
X128004000Y-113911000D01*
X128004000Y-111409000D01*
X128846000Y-111409000D01*
X128846000Y-113911000D01*
G37*
G36*
X95036000Y-113911000D02*
G01*
X94194000Y-113911000D01*
X94194000Y-111409000D01*
X95036000Y-111409000D01*
X95036000Y-113911000D01*
G37*
G36*
X96306000Y-113911000D02*
G01*
X95464000Y-113911000D01*
X95464000Y-111409000D01*
X96306000Y-111409000D01*
X96306000Y-113911000D01*
G37*
G36*
X97576000Y-113911000D02*
G01*
X96734000Y-113911000D01*
X96734000Y-111409000D01*
X97576000Y-111409000D01*
X97576000Y-113911000D01*
G37*
G36*
X98846000Y-113911000D02*
G01*
X98004000Y-113911000D01*
X98004000Y-111409000D01*
X98846000Y-111409000D01*
X98846000Y-113911000D01*
G37*
G36*
X100116000Y-113911000D02*
G01*
X99274000Y-113911000D01*
X99274000Y-111409000D01*
X100116000Y-111409000D01*
X100116000Y-113911000D01*
G37*
G36*
X156306000Y-113911000D02*
G01*
X155464000Y-113911000D01*
X155464000Y-111409000D01*
X156306000Y-111409000D01*
X156306000Y-113911000D01*
G37*
G36*
X158846000Y-113911000D02*
G01*
X158004000Y-113911000D01*
X158004000Y-111409000D01*
X158846000Y-111409000D01*
X158846000Y-113911000D01*
G37*
G36*
X160116000Y-113911000D02*
G01*
X159274000Y-113911000D01*
X159274000Y-111409000D01*
X160116000Y-111409000D01*
X160116000Y-113911000D01*
G37*
G36*
X155036000Y-113911000D02*
G01*
X154194000Y-113911000D01*
X154194000Y-111409000D01*
X155036000Y-111409000D01*
X155036000Y-113911000D01*
G37*
G36*
X157576000Y-113911000D02*
G01*
X156734000Y-113911000D01*
X156734000Y-111409000D01*
X157576000Y-111409000D01*
X157576000Y-113911000D01*
G37*
G36*
X127576000Y-102811000D02*
G01*
X126734000Y-102811000D01*
X126734000Y-100309000D01*
X127576000Y-100309000D01*
X127576000Y-102811000D01*
G37*
G36*
X156306000Y-102811000D02*
G01*
X155464000Y-102811000D01*
X155464000Y-100309000D01*
X156306000Y-100309000D01*
X156306000Y-102811000D01*
G37*
G36*
X130116000Y-102811000D02*
G01*
X129274000Y-102811000D01*
X129274000Y-100309000D01*
X130116000Y-100309000D01*
X130116000Y-102811000D01*
G37*
G36*
X155036000Y-102811000D02*
G01*
X154194000Y-102811000D01*
X154194000Y-100309000D01*
X155036000Y-100309000D01*
X155036000Y-102811000D01*
G37*
G36*
X128846000Y-102811000D02*
G01*
X128004000Y-102811000D01*
X128004000Y-100309000D01*
X128846000Y-100309000D01*
X128846000Y-102811000D01*
G37*
G36*
X100116000Y-102811000D02*
G01*
X99274000Y-102811000D01*
X99274000Y-100309000D01*
X100116000Y-100309000D01*
X100116000Y-102811000D01*
G37*
G36*
X98846000Y-102811000D02*
G01*
X98004000Y-102811000D01*
X98004000Y-100309000D01*
X98846000Y-100309000D01*
X98846000Y-102811000D01*
G37*
G36*
X95036000Y-102811000D02*
G01*
X94194000Y-102811000D01*
X94194000Y-100309000D01*
X95036000Y-100309000D01*
X95036000Y-102811000D01*
G37*
G36*
X96306000Y-102811000D02*
G01*
X95464000Y-102811000D01*
X95464000Y-100309000D01*
X96306000Y-100309000D01*
X96306000Y-102811000D01*
G37*
G36*
X125036000Y-102811000D02*
G01*
X124194000Y-102811000D01*
X124194000Y-100309000D01*
X125036000Y-100309000D01*
X125036000Y-102811000D01*
G37*
G36*
X160116000Y-102811000D02*
G01*
X159274000Y-102811000D01*
X159274000Y-100309000D01*
X160116000Y-100309000D01*
X160116000Y-102811000D01*
G37*
G36*
X126306000Y-102811000D02*
G01*
X125464000Y-102811000D01*
X125464000Y-100309000D01*
X126306000Y-100309000D01*
X126306000Y-102811000D01*
G37*
G36*
X158846000Y-102811000D02*
G01*
X158004000Y-102811000D01*
X158004000Y-100309000D01*
X158846000Y-100309000D01*
X158846000Y-102811000D01*
G37*
G36*
X97576000Y-102811000D02*
G01*
X96734000Y-102811000D01*
X96734000Y-100309000D01*
X97576000Y-100309000D01*
X97576000Y-102811000D01*
G37*
G36*
X157576000Y-102811000D02*
G01*
X156734000Y-102811000D01*
X156734000Y-100309000D01*
X157576000Y-100309000D01*
X157576000Y-102811000D01*
G37*
G36*
X114568512Y-99983927D02*
G01*
X114717812Y-100013624D01*
X114881784Y-100081544D01*
X115029354Y-100180147D01*
X115154853Y-100305646D01*
X115253456Y-100453216D01*
X115321376Y-100617188D01*
X115356000Y-100791259D01*
X115356000Y-100968741D01*
X115321376Y-101142812D01*
X115253456Y-101306784D01*
X115154853Y-101454354D01*
X115029354Y-101579853D01*
X114881784Y-101678456D01*
X114717812Y-101746376D01*
X114568512Y-101776073D01*
X114543742Y-101781000D01*
X114366258Y-101781000D01*
X114341488Y-101776073D01*
X114192188Y-101746376D01*
X114028216Y-101678456D01*
X113880646Y-101579853D01*
X113755147Y-101454354D01*
X113656544Y-101306784D01*
X113588624Y-101142812D01*
X113554000Y-100968741D01*
X113554000Y-100791259D01*
X113588624Y-100617188D01*
X113656544Y-100453216D01*
X113755147Y-100305646D01*
X113880646Y-100180147D01*
X114028216Y-100081544D01*
X114192188Y-100013624D01*
X114341488Y-99983927D01*
X114366258Y-99979000D01*
X114543742Y-99979000D01*
X114568512Y-99983927D01*
G37*
G36*
X112028512Y-99983927D02*
G01*
X112177812Y-100013624D01*
X112341784Y-100081544D01*
X112489354Y-100180147D01*
X112614853Y-100305646D01*
X112713456Y-100453216D01*
X112781376Y-100617188D01*
X112816000Y-100791259D01*
X112816000Y-100968741D01*
X112781376Y-101142812D01*
X112713456Y-101306784D01*
X112614853Y-101454354D01*
X112489354Y-101579853D01*
X112341784Y-101678456D01*
X112177812Y-101746376D01*
X112028512Y-101776073D01*
X112003742Y-101781000D01*
X111826258Y-101781000D01*
X111801488Y-101776073D01*
X111652188Y-101746376D01*
X111488216Y-101678456D01*
X111340646Y-101579853D01*
X111215147Y-101454354D01*
X111116544Y-101306784D01*
X111048624Y-101142812D01*
X111014000Y-100968741D01*
X111014000Y-100791259D01*
X111048624Y-100617188D01*
X111116544Y-100453216D01*
X111215147Y-100305646D01*
X111340646Y-100180147D01*
X111488216Y-100081544D01*
X111652188Y-100013624D01*
X111801488Y-99983927D01*
X111826258Y-99979000D01*
X112003742Y-99979000D01*
X112028512Y-99983927D01*
G37*
G36*
X109488512Y-99983927D02*
G01*
X109637812Y-100013624D01*
X109801784Y-100081544D01*
X109949354Y-100180147D01*
X110074853Y-100305646D01*
X110173456Y-100453216D01*
X110241376Y-100617188D01*
X110276000Y-100791259D01*
X110276000Y-100968741D01*
X110241376Y-101142812D01*
X110173456Y-101306784D01*
X110074853Y-101454354D01*
X109949354Y-101579853D01*
X109801784Y-101678456D01*
X109637812Y-101746376D01*
X109488512Y-101776073D01*
X109463742Y-101781000D01*
X109286258Y-101781000D01*
X109261488Y-101776073D01*
X109112188Y-101746376D01*
X108948216Y-101678456D01*
X108800646Y-101579853D01*
X108675147Y-101454354D01*
X108576544Y-101306784D01*
X108508624Y-101142812D01*
X108474000Y-100968741D01*
X108474000Y-100791259D01*
X108508624Y-100617188D01*
X108576544Y-100453216D01*
X108675147Y-100305646D01*
X108800646Y-100180147D01*
X108948216Y-100081544D01*
X109112188Y-100013624D01*
X109261488Y-99983927D01*
X109286258Y-99979000D01*
X109463742Y-99979000D01*
X109488512Y-99983927D01*
G37*
G36*
X107736000Y-101781000D02*
G01*
X105934000Y-101781000D01*
X105934000Y-99979000D01*
X107736000Y-99979000D01*
X107736000Y-101781000D01*
G37*
G36*
X84568512Y-99983927D02*
G01*
X84717812Y-100013624D01*
X84881784Y-100081544D01*
X85029354Y-100180147D01*
X85154853Y-100305646D01*
X85253456Y-100453216D01*
X85321376Y-100617188D01*
X85356000Y-100791259D01*
X85356000Y-100968741D01*
X85321376Y-101142812D01*
X85253456Y-101306784D01*
X85154853Y-101454354D01*
X85029354Y-101579853D01*
X84881784Y-101678456D01*
X84717812Y-101746376D01*
X84568512Y-101776073D01*
X84543742Y-101781000D01*
X84366258Y-101781000D01*
X84341488Y-101776073D01*
X84192188Y-101746376D01*
X84028216Y-101678456D01*
X83880646Y-101579853D01*
X83755147Y-101454354D01*
X83656544Y-101306784D01*
X83588624Y-101142812D01*
X83554000Y-100968741D01*
X83554000Y-100791259D01*
X83588624Y-100617188D01*
X83656544Y-100453216D01*
X83755147Y-100305646D01*
X83880646Y-100180147D01*
X84028216Y-100081544D01*
X84192188Y-100013624D01*
X84341488Y-99983927D01*
X84366258Y-99979000D01*
X84543742Y-99979000D01*
X84568512Y-99983927D01*
G37*
G36*
X87108512Y-99983927D02*
G01*
X87257812Y-100013624D01*
X87421784Y-100081544D01*
X87569354Y-100180147D01*
X87694853Y-100305646D01*
X87793456Y-100453216D01*
X87861376Y-100617188D01*
X87896000Y-100791259D01*
X87896000Y-100968741D01*
X87861376Y-101142812D01*
X87793456Y-101306784D01*
X87694853Y-101454354D01*
X87569354Y-101579853D01*
X87421784Y-101678456D01*
X87257812Y-101746376D01*
X87108512Y-101776073D01*
X87083742Y-101781000D01*
X86906258Y-101781000D01*
X86881488Y-101776073D01*
X86732188Y-101746376D01*
X86568216Y-101678456D01*
X86420646Y-101579853D01*
X86295147Y-101454354D01*
X86196544Y-101306784D01*
X86128624Y-101142812D01*
X86094000Y-100968741D01*
X86094000Y-100791259D01*
X86128624Y-100617188D01*
X86196544Y-100453216D01*
X86295147Y-100305646D01*
X86420646Y-100180147D01*
X86568216Y-100081544D01*
X86732188Y-100013624D01*
X86881488Y-99983927D01*
X86906258Y-99979000D01*
X87083742Y-99979000D01*
X87108512Y-99983927D01*
G37*
G36*
X82028512Y-99983927D02*
G01*
X82177812Y-100013624D01*
X82341784Y-100081544D01*
X82489354Y-100180147D01*
X82614853Y-100305646D01*
X82713456Y-100453216D01*
X82781376Y-100617188D01*
X82816000Y-100791259D01*
X82816000Y-100968741D01*
X82781376Y-101142812D01*
X82713456Y-101306784D01*
X82614853Y-101454354D01*
X82489354Y-101579853D01*
X82341784Y-101678456D01*
X82177812Y-101746376D01*
X82028512Y-101776073D01*
X82003742Y-101781000D01*
X81826258Y-101781000D01*
X81801488Y-101776073D01*
X81652188Y-101746376D01*
X81488216Y-101678456D01*
X81340646Y-101579853D01*
X81215147Y-101454354D01*
X81116544Y-101306784D01*
X81048624Y-101142812D01*
X81014000Y-100968741D01*
X81014000Y-100791259D01*
X81048624Y-100617188D01*
X81116544Y-100453216D01*
X81215147Y-100305646D01*
X81340646Y-100180147D01*
X81488216Y-100081544D01*
X81652188Y-100013624D01*
X81801488Y-99983927D01*
X81826258Y-99979000D01*
X82003742Y-99979000D01*
X82028512Y-99983927D01*
G37*
G36*
X77736000Y-101781000D02*
G01*
X75934000Y-101781000D01*
X75934000Y-99979000D01*
X77736000Y-99979000D01*
X77736000Y-101781000D01*
G37*
G36*
X137736000Y-101781000D02*
G01*
X135934000Y-101781000D01*
X135934000Y-99979000D01*
X137736000Y-99979000D01*
X137736000Y-101781000D01*
G37*
G36*
X139488512Y-99983927D02*
G01*
X139637812Y-100013624D01*
X139801784Y-100081544D01*
X139949354Y-100180147D01*
X140074853Y-100305646D01*
X140173456Y-100453216D01*
X140241376Y-100617188D01*
X140276000Y-100791259D01*
X140276000Y-100968741D01*
X140241376Y-101142812D01*
X140173456Y-101306784D01*
X140074853Y-101454354D01*
X139949354Y-101579853D01*
X139801784Y-101678456D01*
X139637812Y-101746376D01*
X139488512Y-101776073D01*
X139463742Y-101781000D01*
X139286258Y-101781000D01*
X139261488Y-101776073D01*
X139112188Y-101746376D01*
X138948216Y-101678456D01*
X138800646Y-101579853D01*
X138675147Y-101454354D01*
X138576544Y-101306784D01*
X138508624Y-101142812D01*
X138474000Y-100968741D01*
X138474000Y-100791259D01*
X138508624Y-100617188D01*
X138576544Y-100453216D01*
X138675147Y-100305646D01*
X138800646Y-100180147D01*
X138948216Y-100081544D01*
X139112188Y-100013624D01*
X139261488Y-99983927D01*
X139286258Y-99979000D01*
X139463742Y-99979000D01*
X139488512Y-99983927D01*
G37*
G36*
X117108512Y-99983927D02*
G01*
X117257812Y-100013624D01*
X117421784Y-100081544D01*
X117569354Y-100180147D01*
X117694853Y-100305646D01*
X117793456Y-100453216D01*
X117861376Y-100617188D01*
X117896000Y-100791259D01*
X117896000Y-100968741D01*
X117861376Y-101142812D01*
X117793456Y-101306784D01*
X117694853Y-101454354D01*
X117569354Y-101579853D01*
X117421784Y-101678456D01*
X117257812Y-101746376D01*
X117108512Y-101776073D01*
X117083742Y-101781000D01*
X116906258Y-101781000D01*
X116881488Y-101776073D01*
X116732188Y-101746376D01*
X116568216Y-101678456D01*
X116420646Y-101579853D01*
X116295147Y-101454354D01*
X116196544Y-101306784D01*
X116128624Y-101142812D01*
X116094000Y-100968741D01*
X116094000Y-100791259D01*
X116128624Y-100617188D01*
X116196544Y-100453216D01*
X116295147Y-100305646D01*
X116420646Y-100180147D01*
X116568216Y-100081544D01*
X116732188Y-100013624D01*
X116881488Y-99983927D01*
X116906258Y-99979000D01*
X117083742Y-99979000D01*
X117108512Y-99983927D01*
G37*
G36*
X144568512Y-99983927D02*
G01*
X144717812Y-100013624D01*
X144881784Y-100081544D01*
X145029354Y-100180147D01*
X145154853Y-100305646D01*
X145253456Y-100453216D01*
X145321376Y-100617188D01*
X145356000Y-100791259D01*
X145356000Y-100968741D01*
X145321376Y-101142812D01*
X145253456Y-101306784D01*
X145154853Y-101454354D01*
X145029354Y-101579853D01*
X144881784Y-101678456D01*
X144717812Y-101746376D01*
X144568512Y-101776073D01*
X144543742Y-101781000D01*
X144366258Y-101781000D01*
X144341488Y-101776073D01*
X144192188Y-101746376D01*
X144028216Y-101678456D01*
X143880646Y-101579853D01*
X143755147Y-101454354D01*
X143656544Y-101306784D01*
X143588624Y-101142812D01*
X143554000Y-100968741D01*
X143554000Y-100791259D01*
X143588624Y-100617188D01*
X143656544Y-100453216D01*
X143755147Y-100305646D01*
X143880646Y-100180147D01*
X144028216Y-100081544D01*
X144192188Y-100013624D01*
X144341488Y-99983927D01*
X144366258Y-99979000D01*
X144543742Y-99979000D01*
X144568512Y-99983927D01*
G37*
G36*
X147108512Y-99983927D02*
G01*
X147257812Y-100013624D01*
X147421784Y-100081544D01*
X147569354Y-100180147D01*
X147694853Y-100305646D01*
X147793456Y-100453216D01*
X147861376Y-100617188D01*
X147896000Y-100791259D01*
X147896000Y-100968741D01*
X147861376Y-101142812D01*
X147793456Y-101306784D01*
X147694853Y-101454354D01*
X147569354Y-101579853D01*
X147421784Y-101678456D01*
X147257812Y-101746376D01*
X147108512Y-101776073D01*
X147083742Y-101781000D01*
X146906258Y-101781000D01*
X146881488Y-101776073D01*
X146732188Y-101746376D01*
X146568216Y-101678456D01*
X146420646Y-101579853D01*
X146295147Y-101454354D01*
X146196544Y-101306784D01*
X146128624Y-101142812D01*
X146094000Y-100968741D01*
X146094000Y-100791259D01*
X146128624Y-100617188D01*
X146196544Y-100453216D01*
X146295147Y-100305646D01*
X146420646Y-100180147D01*
X146568216Y-100081544D01*
X146732188Y-100013624D01*
X146881488Y-99983927D01*
X146906258Y-99979000D01*
X147083742Y-99979000D01*
X147108512Y-99983927D01*
G37*
G36*
X142028512Y-99983927D02*
G01*
X142177812Y-100013624D01*
X142341784Y-100081544D01*
X142489354Y-100180147D01*
X142614853Y-100305646D01*
X142713456Y-100453216D01*
X142781376Y-100617188D01*
X142816000Y-100791259D01*
X142816000Y-100968741D01*
X142781376Y-101142812D01*
X142713456Y-101306784D01*
X142614853Y-101454354D01*
X142489354Y-101579853D01*
X142341784Y-101678456D01*
X142177812Y-101746376D01*
X142028512Y-101776073D01*
X142003742Y-101781000D01*
X141826258Y-101781000D01*
X141801488Y-101776073D01*
X141652188Y-101746376D01*
X141488216Y-101678456D01*
X141340646Y-101579853D01*
X141215147Y-101454354D01*
X141116544Y-101306784D01*
X141048624Y-101142812D01*
X141014000Y-100968741D01*
X141014000Y-100791259D01*
X141048624Y-100617188D01*
X141116544Y-100453216D01*
X141215147Y-100305646D01*
X141340646Y-100180147D01*
X141488216Y-100081544D01*
X141652188Y-100013624D01*
X141801488Y-99983927D01*
X141826258Y-99979000D01*
X142003742Y-99979000D01*
X142028512Y-99983927D01*
G37*
G36*
X79488512Y-99983927D02*
G01*
X79637812Y-100013624D01*
X79801784Y-100081544D01*
X79949354Y-100180147D01*
X80074853Y-100305646D01*
X80173456Y-100453216D01*
X80241376Y-100617188D01*
X80276000Y-100791259D01*
X80276000Y-100968741D01*
X80241376Y-101142812D01*
X80173456Y-101306784D01*
X80074853Y-101454354D01*
X79949354Y-101579853D01*
X79801784Y-101678456D01*
X79637812Y-101746376D01*
X79488512Y-101776073D01*
X79463742Y-101781000D01*
X79286258Y-101781000D01*
X79261488Y-101776073D01*
X79112188Y-101746376D01*
X78948216Y-101678456D01*
X78800646Y-101579853D01*
X78675147Y-101454354D01*
X78576544Y-101306784D01*
X78508624Y-101142812D01*
X78474000Y-100968741D01*
X78474000Y-100791259D01*
X78508624Y-100617188D01*
X78576544Y-100453216D01*
X78675147Y-100305646D01*
X78800646Y-100180147D01*
X78948216Y-100081544D01*
X79112188Y-100013624D01*
X79261488Y-99983927D01*
X79286258Y-99979000D01*
X79463742Y-99979000D01*
X79488512Y-99983927D01*
G37*
G36*
X117108512Y-97443927D02*
G01*
X117257812Y-97473624D01*
X117421784Y-97541544D01*
X117569354Y-97640147D01*
X117694853Y-97765646D01*
X117793456Y-97913216D01*
X117861376Y-98077188D01*
X117896000Y-98251259D01*
X117896000Y-98428741D01*
X117861376Y-98602812D01*
X117793456Y-98766784D01*
X117694853Y-98914354D01*
X117569354Y-99039853D01*
X117421784Y-99138456D01*
X117257812Y-99206376D01*
X117108512Y-99236073D01*
X117083742Y-99241000D01*
X116906258Y-99241000D01*
X116881488Y-99236073D01*
X116732188Y-99206376D01*
X116568216Y-99138456D01*
X116420646Y-99039853D01*
X116295147Y-98914354D01*
X116196544Y-98766784D01*
X116128624Y-98602812D01*
X116094000Y-98428741D01*
X116094000Y-98251259D01*
X116128624Y-98077188D01*
X116196544Y-97913216D01*
X116295147Y-97765646D01*
X116420646Y-97640147D01*
X116568216Y-97541544D01*
X116732188Y-97473624D01*
X116881488Y-97443927D01*
X116906258Y-97439000D01*
X117083742Y-97439000D01*
X117108512Y-97443927D01*
G37*
G36*
X76948512Y-97443927D02*
G01*
X77097812Y-97473624D01*
X77261784Y-97541544D01*
X77409354Y-97640147D01*
X77534853Y-97765646D01*
X77633456Y-97913216D01*
X77701376Y-98077188D01*
X77736000Y-98251259D01*
X77736000Y-98428741D01*
X77701376Y-98602812D01*
X77633456Y-98766784D01*
X77534853Y-98914354D01*
X77409354Y-99039853D01*
X77261784Y-99138456D01*
X77097812Y-99206376D01*
X76948512Y-99236073D01*
X76923742Y-99241000D01*
X76746258Y-99241000D01*
X76721488Y-99236073D01*
X76572188Y-99206376D01*
X76408216Y-99138456D01*
X76260646Y-99039853D01*
X76135147Y-98914354D01*
X76036544Y-98766784D01*
X75968624Y-98602812D01*
X75934000Y-98428741D01*
X75934000Y-98251259D01*
X75968624Y-98077188D01*
X76036544Y-97913216D01*
X76135147Y-97765646D01*
X76260646Y-97640147D01*
X76408216Y-97541544D01*
X76572188Y-97473624D01*
X76721488Y-97443927D01*
X76746258Y-97439000D01*
X76923742Y-97439000D01*
X76948512Y-97443927D01*
G37*
G36*
X79488512Y-97443927D02*
G01*
X79637812Y-97473624D01*
X79801784Y-97541544D01*
X79949354Y-97640147D01*
X80074853Y-97765646D01*
X80173456Y-97913216D01*
X80241376Y-98077188D01*
X80276000Y-98251259D01*
X80276000Y-98428741D01*
X80241376Y-98602812D01*
X80173456Y-98766784D01*
X80074853Y-98914354D01*
X79949354Y-99039853D01*
X79801784Y-99138456D01*
X79637812Y-99206376D01*
X79488512Y-99236073D01*
X79463742Y-99241000D01*
X79286258Y-99241000D01*
X79261488Y-99236073D01*
X79112188Y-99206376D01*
X78948216Y-99138456D01*
X78800646Y-99039853D01*
X78675147Y-98914354D01*
X78576544Y-98766784D01*
X78508624Y-98602812D01*
X78474000Y-98428741D01*
X78474000Y-98251259D01*
X78508624Y-98077188D01*
X78576544Y-97913216D01*
X78675147Y-97765646D01*
X78800646Y-97640147D01*
X78948216Y-97541544D01*
X79112188Y-97473624D01*
X79261488Y-97443927D01*
X79286258Y-97439000D01*
X79463742Y-97439000D01*
X79488512Y-97443927D01*
G37*
G36*
X147108512Y-97443927D02*
G01*
X147257812Y-97473624D01*
X147421784Y-97541544D01*
X147569354Y-97640147D01*
X147694853Y-97765646D01*
X147793456Y-97913216D01*
X147861376Y-98077188D01*
X147896000Y-98251259D01*
X147896000Y-98428741D01*
X147861376Y-98602812D01*
X147793456Y-98766784D01*
X147694853Y-98914354D01*
X147569354Y-99039853D01*
X147421784Y-99138456D01*
X147257812Y-99206376D01*
X147108512Y-99236073D01*
X147083742Y-99241000D01*
X146906258Y-99241000D01*
X146881488Y-99236073D01*
X146732188Y-99206376D01*
X146568216Y-99138456D01*
X146420646Y-99039853D01*
X146295147Y-98914354D01*
X146196544Y-98766784D01*
X146128624Y-98602812D01*
X146094000Y-98428741D01*
X146094000Y-98251259D01*
X146128624Y-98077188D01*
X146196544Y-97913216D01*
X146295147Y-97765646D01*
X146420646Y-97640147D01*
X146568216Y-97541544D01*
X146732188Y-97473624D01*
X146881488Y-97443927D01*
X146906258Y-97439000D01*
X147083742Y-97439000D01*
X147108512Y-97443927D01*
G37*
G36*
X144568512Y-97443927D02*
G01*
X144717812Y-97473624D01*
X144881784Y-97541544D01*
X145029354Y-97640147D01*
X145154853Y-97765646D01*
X145253456Y-97913216D01*
X145321376Y-98077188D01*
X145356000Y-98251259D01*
X145356000Y-98428741D01*
X145321376Y-98602812D01*
X145253456Y-98766784D01*
X145154853Y-98914354D01*
X145029354Y-99039853D01*
X144881784Y-99138456D01*
X144717812Y-99206376D01*
X144568512Y-99236073D01*
X144543742Y-99241000D01*
X144366258Y-99241000D01*
X144341488Y-99236073D01*
X144192188Y-99206376D01*
X144028216Y-99138456D01*
X143880646Y-99039853D01*
X143755147Y-98914354D01*
X143656544Y-98766784D01*
X143588624Y-98602812D01*
X143554000Y-98428741D01*
X143554000Y-98251259D01*
X143588624Y-98077188D01*
X143656544Y-97913216D01*
X143755147Y-97765646D01*
X143880646Y-97640147D01*
X144028216Y-97541544D01*
X144192188Y-97473624D01*
X144341488Y-97443927D01*
X144366258Y-97439000D01*
X144543742Y-97439000D01*
X144568512Y-97443927D01*
G37*
G36*
X142028512Y-97443927D02*
G01*
X142177812Y-97473624D01*
X142341784Y-97541544D01*
X142489354Y-97640147D01*
X142614853Y-97765646D01*
X142713456Y-97913216D01*
X142781376Y-98077188D01*
X142816000Y-98251259D01*
X142816000Y-98428741D01*
X142781376Y-98602812D01*
X142713456Y-98766784D01*
X142614853Y-98914354D01*
X142489354Y-99039853D01*
X142341784Y-99138456D01*
X142177812Y-99206376D01*
X142028512Y-99236073D01*
X142003742Y-99241000D01*
X141826258Y-99241000D01*
X141801488Y-99236073D01*
X141652188Y-99206376D01*
X141488216Y-99138456D01*
X141340646Y-99039853D01*
X141215147Y-98914354D01*
X141116544Y-98766784D01*
X141048624Y-98602812D01*
X141014000Y-98428741D01*
X141014000Y-98251259D01*
X141048624Y-98077188D01*
X141116544Y-97913216D01*
X141215147Y-97765646D01*
X141340646Y-97640147D01*
X141488216Y-97541544D01*
X141652188Y-97473624D01*
X141801488Y-97443927D01*
X141826258Y-97439000D01*
X142003742Y-97439000D01*
X142028512Y-97443927D01*
G37*
G36*
X139488512Y-97443927D02*
G01*
X139637812Y-97473624D01*
X139801784Y-97541544D01*
X139949354Y-97640147D01*
X140074853Y-97765646D01*
X140173456Y-97913216D01*
X140241376Y-98077188D01*
X140276000Y-98251259D01*
X140276000Y-98428741D01*
X140241376Y-98602812D01*
X140173456Y-98766784D01*
X140074853Y-98914354D01*
X139949354Y-99039853D01*
X139801784Y-99138456D01*
X139637812Y-99206376D01*
X139488512Y-99236073D01*
X139463742Y-99241000D01*
X139286258Y-99241000D01*
X139261488Y-99236073D01*
X139112188Y-99206376D01*
X138948216Y-99138456D01*
X138800646Y-99039853D01*
X138675147Y-98914354D01*
X138576544Y-98766784D01*
X138508624Y-98602812D01*
X138474000Y-98428741D01*
X138474000Y-98251259D01*
X138508624Y-98077188D01*
X138576544Y-97913216D01*
X138675147Y-97765646D01*
X138800646Y-97640147D01*
X138948216Y-97541544D01*
X139112188Y-97473624D01*
X139261488Y-97443927D01*
X139286258Y-97439000D01*
X139463742Y-97439000D01*
X139488512Y-97443927D01*
G37*
G36*
X136948512Y-97443927D02*
G01*
X137097812Y-97473624D01*
X137261784Y-97541544D01*
X137409354Y-97640147D01*
X137534853Y-97765646D01*
X137633456Y-97913216D01*
X137701376Y-98077188D01*
X137736000Y-98251259D01*
X137736000Y-98428741D01*
X137701376Y-98602812D01*
X137633456Y-98766784D01*
X137534853Y-98914354D01*
X137409354Y-99039853D01*
X137261784Y-99138456D01*
X137097812Y-99206376D01*
X136948512Y-99236073D01*
X136923742Y-99241000D01*
X136746258Y-99241000D01*
X136721488Y-99236073D01*
X136572188Y-99206376D01*
X136408216Y-99138456D01*
X136260646Y-99039853D01*
X136135147Y-98914354D01*
X136036544Y-98766784D01*
X135968624Y-98602812D01*
X135934000Y-98428741D01*
X135934000Y-98251259D01*
X135968624Y-98077188D01*
X136036544Y-97913216D01*
X136135147Y-97765646D01*
X136260646Y-97640147D01*
X136408216Y-97541544D01*
X136572188Y-97473624D01*
X136721488Y-97443927D01*
X136746258Y-97439000D01*
X136923742Y-97439000D01*
X136948512Y-97443927D01*
G37*
G36*
X114568512Y-97443927D02*
G01*
X114717812Y-97473624D01*
X114881784Y-97541544D01*
X115029354Y-97640147D01*
X115154853Y-97765646D01*
X115253456Y-97913216D01*
X115321376Y-98077188D01*
X115356000Y-98251259D01*
X115356000Y-98428741D01*
X115321376Y-98602812D01*
X115253456Y-98766784D01*
X115154853Y-98914354D01*
X115029354Y-99039853D01*
X114881784Y-99138456D01*
X114717812Y-99206376D01*
X114568512Y-99236073D01*
X114543742Y-99241000D01*
X114366258Y-99241000D01*
X114341488Y-99236073D01*
X114192188Y-99206376D01*
X114028216Y-99138456D01*
X113880646Y-99039853D01*
X113755147Y-98914354D01*
X113656544Y-98766784D01*
X113588624Y-98602812D01*
X113554000Y-98428741D01*
X113554000Y-98251259D01*
X113588624Y-98077188D01*
X113656544Y-97913216D01*
X113755147Y-97765646D01*
X113880646Y-97640147D01*
X114028216Y-97541544D01*
X114192188Y-97473624D01*
X114341488Y-97443927D01*
X114366258Y-97439000D01*
X114543742Y-97439000D01*
X114568512Y-97443927D01*
G37*
G36*
X112028512Y-97443927D02*
G01*
X112177812Y-97473624D01*
X112341784Y-97541544D01*
X112489354Y-97640147D01*
X112614853Y-97765646D01*
X112713456Y-97913216D01*
X112781376Y-98077188D01*
X112816000Y-98251259D01*
X112816000Y-98428741D01*
X112781376Y-98602812D01*
X112713456Y-98766784D01*
X112614853Y-98914354D01*
X112489354Y-99039853D01*
X112341784Y-99138456D01*
X112177812Y-99206376D01*
X112028512Y-99236073D01*
X112003742Y-99241000D01*
X111826258Y-99241000D01*
X111801488Y-99236073D01*
X111652188Y-99206376D01*
X111488216Y-99138456D01*
X111340646Y-99039853D01*
X111215147Y-98914354D01*
X111116544Y-98766784D01*
X111048624Y-98602812D01*
X111014000Y-98428741D01*
X111014000Y-98251259D01*
X111048624Y-98077188D01*
X111116544Y-97913216D01*
X111215147Y-97765646D01*
X111340646Y-97640147D01*
X111488216Y-97541544D01*
X111652188Y-97473624D01*
X111801488Y-97443927D01*
X111826258Y-97439000D01*
X112003742Y-97439000D01*
X112028512Y-97443927D01*
G37*
G36*
X109488512Y-97443927D02*
G01*
X109637812Y-97473624D01*
X109801784Y-97541544D01*
X109949354Y-97640147D01*
X110074853Y-97765646D01*
X110173456Y-97913216D01*
X110241376Y-98077188D01*
X110276000Y-98251259D01*
X110276000Y-98428741D01*
X110241376Y-98602812D01*
X110173456Y-98766784D01*
X110074853Y-98914354D01*
X109949354Y-99039853D01*
X109801784Y-99138456D01*
X109637812Y-99206376D01*
X109488512Y-99236073D01*
X109463742Y-99241000D01*
X109286258Y-99241000D01*
X109261488Y-99236073D01*
X109112188Y-99206376D01*
X108948216Y-99138456D01*
X108800646Y-99039853D01*
X108675147Y-98914354D01*
X108576544Y-98766784D01*
X108508624Y-98602812D01*
X108474000Y-98428741D01*
X108474000Y-98251259D01*
X108508624Y-98077188D01*
X108576544Y-97913216D01*
X108675147Y-97765646D01*
X108800646Y-97640147D01*
X108948216Y-97541544D01*
X109112188Y-97473624D01*
X109261488Y-97443927D01*
X109286258Y-97439000D01*
X109463742Y-97439000D01*
X109488512Y-97443927D01*
G37*
G36*
X106948512Y-97443927D02*
G01*
X107097812Y-97473624D01*
X107261784Y-97541544D01*
X107409354Y-97640147D01*
X107534853Y-97765646D01*
X107633456Y-97913216D01*
X107701376Y-98077188D01*
X107736000Y-98251259D01*
X107736000Y-98428741D01*
X107701376Y-98602812D01*
X107633456Y-98766784D01*
X107534853Y-98914354D01*
X107409354Y-99039853D01*
X107261784Y-99138456D01*
X107097812Y-99206376D01*
X106948512Y-99236073D01*
X106923742Y-99241000D01*
X106746258Y-99241000D01*
X106721488Y-99236073D01*
X106572188Y-99206376D01*
X106408216Y-99138456D01*
X106260646Y-99039853D01*
X106135147Y-98914354D01*
X106036544Y-98766784D01*
X105968624Y-98602812D01*
X105934000Y-98428741D01*
X105934000Y-98251259D01*
X105968624Y-98077188D01*
X106036544Y-97913216D01*
X106135147Y-97765646D01*
X106260646Y-97640147D01*
X106408216Y-97541544D01*
X106572188Y-97473624D01*
X106721488Y-97443927D01*
X106746258Y-97439000D01*
X106923742Y-97439000D01*
X106948512Y-97443927D01*
G37*
G36*
X87108512Y-97443927D02*
G01*
X87257812Y-97473624D01*
X87421784Y-97541544D01*
X87569354Y-97640147D01*
X87694853Y-97765646D01*
X87793456Y-97913216D01*
X87861376Y-98077188D01*
X87896000Y-98251259D01*
X87896000Y-98428741D01*
X87861376Y-98602812D01*
X87793456Y-98766784D01*
X87694853Y-98914354D01*
X87569354Y-99039853D01*
X87421784Y-99138456D01*
X87257812Y-99206376D01*
X87108512Y-99236073D01*
X87083742Y-99241000D01*
X86906258Y-99241000D01*
X86881488Y-99236073D01*
X86732188Y-99206376D01*
X86568216Y-99138456D01*
X86420646Y-99039853D01*
X86295147Y-98914354D01*
X86196544Y-98766784D01*
X86128624Y-98602812D01*
X86094000Y-98428741D01*
X86094000Y-98251259D01*
X86128624Y-98077188D01*
X86196544Y-97913216D01*
X86295147Y-97765646D01*
X86420646Y-97640147D01*
X86568216Y-97541544D01*
X86732188Y-97473624D01*
X86881488Y-97443927D01*
X86906258Y-97439000D01*
X87083742Y-97439000D01*
X87108512Y-97443927D01*
G37*
G36*
X84568512Y-97443927D02*
G01*
X84717812Y-97473624D01*
X84881784Y-97541544D01*
X85029354Y-97640147D01*
X85154853Y-97765646D01*
X85253456Y-97913216D01*
X85321376Y-98077188D01*
X85356000Y-98251259D01*
X85356000Y-98428741D01*
X85321376Y-98602812D01*
X85253456Y-98766784D01*
X85154853Y-98914354D01*
X85029354Y-99039853D01*
X84881784Y-99138456D01*
X84717812Y-99206376D01*
X84568512Y-99236073D01*
X84543742Y-99241000D01*
X84366258Y-99241000D01*
X84341488Y-99236073D01*
X84192188Y-99206376D01*
X84028216Y-99138456D01*
X83880646Y-99039853D01*
X83755147Y-98914354D01*
X83656544Y-98766784D01*
X83588624Y-98602812D01*
X83554000Y-98428741D01*
X83554000Y-98251259D01*
X83588624Y-98077188D01*
X83656544Y-97913216D01*
X83755147Y-97765646D01*
X83880646Y-97640147D01*
X84028216Y-97541544D01*
X84192188Y-97473624D01*
X84341488Y-97443927D01*
X84366258Y-97439000D01*
X84543742Y-97439000D01*
X84568512Y-97443927D01*
G37*
G36*
X82028512Y-97443927D02*
G01*
X82177812Y-97473624D01*
X82341784Y-97541544D01*
X82489354Y-97640147D01*
X82614853Y-97765646D01*
X82713456Y-97913216D01*
X82781376Y-98077188D01*
X82816000Y-98251259D01*
X82816000Y-98428741D01*
X82781376Y-98602812D01*
X82713456Y-98766784D01*
X82614853Y-98914354D01*
X82489354Y-99039853D01*
X82341784Y-99138456D01*
X82177812Y-99206376D01*
X82028512Y-99236073D01*
X82003742Y-99241000D01*
X81826258Y-99241000D01*
X81801488Y-99236073D01*
X81652188Y-99206376D01*
X81488216Y-99138456D01*
X81340646Y-99039853D01*
X81215147Y-98914354D01*
X81116544Y-98766784D01*
X81048624Y-98602812D01*
X81014000Y-98428741D01*
X81014000Y-98251259D01*
X81048624Y-98077188D01*
X81116544Y-97913216D01*
X81215147Y-97765646D01*
X81340646Y-97640147D01*
X81488216Y-97541544D01*
X81652188Y-97473624D01*
X81801488Y-97443927D01*
X81826258Y-97439000D01*
X82003742Y-97439000D01*
X82028512Y-97443927D01*
G37*
G36*
X98846000Y-98911000D02*
G01*
X98004000Y-98911000D01*
X98004000Y-96409000D01*
X98846000Y-96409000D01*
X98846000Y-98911000D01*
G37*
G36*
X97576000Y-98911000D02*
G01*
X96734000Y-98911000D01*
X96734000Y-96409000D01*
X97576000Y-96409000D01*
X97576000Y-98911000D01*
G37*
G36*
X96306000Y-98911000D02*
G01*
X95464000Y-98911000D01*
X95464000Y-96409000D01*
X96306000Y-96409000D01*
X96306000Y-98911000D01*
G37*
G36*
X95036000Y-98911000D02*
G01*
X94194000Y-98911000D01*
X94194000Y-96409000D01*
X95036000Y-96409000D01*
X95036000Y-98911000D01*
G37*
G36*
X160116000Y-98911000D02*
G01*
X159274000Y-98911000D01*
X159274000Y-96409000D01*
X160116000Y-96409000D01*
X160116000Y-98911000D01*
G37*
G36*
X158846000Y-98911000D02*
G01*
X158004000Y-98911000D01*
X158004000Y-96409000D01*
X158846000Y-96409000D01*
X158846000Y-98911000D01*
G37*
G36*
X157576000Y-98911000D02*
G01*
X156734000Y-98911000D01*
X156734000Y-96409000D01*
X157576000Y-96409000D01*
X157576000Y-98911000D01*
G37*
G36*
X156306000Y-98911000D02*
G01*
X155464000Y-98911000D01*
X155464000Y-96409000D01*
X156306000Y-96409000D01*
X156306000Y-98911000D01*
G37*
G36*
X155036000Y-98911000D02*
G01*
X154194000Y-98911000D01*
X154194000Y-96409000D01*
X155036000Y-96409000D01*
X155036000Y-98911000D01*
G37*
G36*
X130116000Y-98911000D02*
G01*
X129274000Y-98911000D01*
X129274000Y-96409000D01*
X130116000Y-96409000D01*
X130116000Y-98911000D01*
G37*
G36*
X128846000Y-98911000D02*
G01*
X128004000Y-98911000D01*
X128004000Y-96409000D01*
X128846000Y-96409000D01*
X128846000Y-98911000D01*
G37*
G36*
X127576000Y-98911000D02*
G01*
X126734000Y-98911000D01*
X126734000Y-96409000D01*
X127576000Y-96409000D01*
X127576000Y-98911000D01*
G37*
G36*
X126306000Y-98911000D02*
G01*
X125464000Y-98911000D01*
X125464000Y-96409000D01*
X126306000Y-96409000D01*
X126306000Y-98911000D01*
G37*
G36*
X125036000Y-98911000D02*
G01*
X124194000Y-98911000D01*
X124194000Y-96409000D01*
X125036000Y-96409000D01*
X125036000Y-98911000D01*
G37*
G36*
X100116000Y-98911000D02*
G01*
X99274000Y-98911000D01*
X99274000Y-96409000D01*
X100116000Y-96409000D01*
X100116000Y-98911000D01*
G37*
G36*
X127576000Y-87811000D02*
G01*
X126734000Y-87811000D01*
X126734000Y-85309000D01*
X127576000Y-85309000D01*
X127576000Y-87811000D01*
G37*
G36*
X160116000Y-87811000D02*
G01*
X159274000Y-87811000D01*
X159274000Y-85309000D01*
X160116000Y-85309000D01*
X160116000Y-87811000D01*
G37*
G36*
X158846000Y-87811000D02*
G01*
X158004000Y-87811000D01*
X158004000Y-85309000D01*
X158846000Y-85309000D01*
X158846000Y-87811000D01*
G37*
G36*
X157576000Y-87811000D02*
G01*
X156734000Y-87811000D01*
X156734000Y-85309000D01*
X157576000Y-85309000D01*
X157576000Y-87811000D01*
G37*
G36*
X156306000Y-87811000D02*
G01*
X155464000Y-87811000D01*
X155464000Y-85309000D01*
X156306000Y-85309000D01*
X156306000Y-87811000D01*
G37*
G36*
X96306000Y-87811000D02*
G01*
X95464000Y-87811000D01*
X95464000Y-85309000D01*
X96306000Y-85309000D01*
X96306000Y-87811000D01*
G37*
G36*
X97576000Y-87811000D02*
G01*
X96734000Y-87811000D01*
X96734000Y-85309000D01*
X97576000Y-85309000D01*
X97576000Y-87811000D01*
G37*
G36*
X98846000Y-87811000D02*
G01*
X98004000Y-87811000D01*
X98004000Y-85309000D01*
X98846000Y-85309000D01*
X98846000Y-87811000D01*
G37*
G36*
X125036000Y-87811000D02*
G01*
X124194000Y-87811000D01*
X124194000Y-85309000D01*
X125036000Y-85309000D01*
X125036000Y-87811000D01*
G37*
G36*
X126306000Y-87811000D02*
G01*
X125464000Y-87811000D01*
X125464000Y-85309000D01*
X126306000Y-85309000D01*
X126306000Y-87811000D01*
G37*
G36*
X155036000Y-87811000D02*
G01*
X154194000Y-87811000D01*
X154194000Y-85309000D01*
X155036000Y-85309000D01*
X155036000Y-87811000D01*
G37*
G36*
X95036000Y-87811000D02*
G01*
X94194000Y-87811000D01*
X94194000Y-85309000D01*
X95036000Y-85309000D01*
X95036000Y-87811000D01*
G37*
G36*
X130116000Y-87811000D02*
G01*
X129274000Y-87811000D01*
X129274000Y-85309000D01*
X130116000Y-85309000D01*
X130116000Y-87811000D01*
G37*
G36*
X128846000Y-87811000D02*
G01*
X128004000Y-87811000D01*
X128004000Y-85309000D01*
X128846000Y-85309000D01*
X128846000Y-87811000D01*
G37*
G36*
X100116000Y-87811000D02*
G01*
X99274000Y-87811000D01*
X99274000Y-85309000D01*
X100116000Y-85309000D01*
X100116000Y-87811000D01*
G37*
G36*
X109488512Y-84983927D02*
G01*
X109637812Y-85013624D01*
X109801784Y-85081544D01*
X109949354Y-85180147D01*
X110074853Y-85305646D01*
X110173456Y-85453216D01*
X110241376Y-85617188D01*
X110276000Y-85791259D01*
X110276000Y-85968741D01*
X110241376Y-86142812D01*
X110173456Y-86306784D01*
X110074853Y-86454354D01*
X109949354Y-86579853D01*
X109801784Y-86678456D01*
X109637812Y-86746376D01*
X109488512Y-86776073D01*
X109463742Y-86781000D01*
X109286258Y-86781000D01*
X109261488Y-86776073D01*
X109112188Y-86746376D01*
X108948216Y-86678456D01*
X108800646Y-86579853D01*
X108675147Y-86454354D01*
X108576544Y-86306784D01*
X108508624Y-86142812D01*
X108474000Y-85968741D01*
X108474000Y-85791259D01*
X108508624Y-85617188D01*
X108576544Y-85453216D01*
X108675147Y-85305646D01*
X108800646Y-85180147D01*
X108948216Y-85081544D01*
X109112188Y-85013624D01*
X109261488Y-84983927D01*
X109286258Y-84979000D01*
X109463742Y-84979000D01*
X109488512Y-84983927D01*
G37*
G36*
X82028512Y-84983927D02*
G01*
X82177812Y-85013624D01*
X82341784Y-85081544D01*
X82489354Y-85180147D01*
X82614853Y-85305646D01*
X82713456Y-85453216D01*
X82781376Y-85617188D01*
X82816000Y-85791259D01*
X82816000Y-85968741D01*
X82781376Y-86142812D01*
X82713456Y-86306784D01*
X82614853Y-86454354D01*
X82489354Y-86579853D01*
X82341784Y-86678456D01*
X82177812Y-86746376D01*
X82028512Y-86776073D01*
X82003742Y-86781000D01*
X81826258Y-86781000D01*
X81801488Y-86776073D01*
X81652188Y-86746376D01*
X81488216Y-86678456D01*
X81340646Y-86579853D01*
X81215147Y-86454354D01*
X81116544Y-86306784D01*
X81048624Y-86142812D01*
X81014000Y-85968741D01*
X81014000Y-85791259D01*
X81048624Y-85617188D01*
X81116544Y-85453216D01*
X81215147Y-85305646D01*
X81340646Y-85180147D01*
X81488216Y-85081544D01*
X81652188Y-85013624D01*
X81801488Y-84983927D01*
X81826258Y-84979000D01*
X82003742Y-84979000D01*
X82028512Y-84983927D01*
G37*
G36*
X79488512Y-84983927D02*
G01*
X79637812Y-85013624D01*
X79801784Y-85081544D01*
X79949354Y-85180147D01*
X80074853Y-85305646D01*
X80173456Y-85453216D01*
X80241376Y-85617188D01*
X80276000Y-85791259D01*
X80276000Y-85968741D01*
X80241376Y-86142812D01*
X80173456Y-86306784D01*
X80074853Y-86454354D01*
X79949354Y-86579853D01*
X79801784Y-86678456D01*
X79637812Y-86746376D01*
X79488512Y-86776073D01*
X79463742Y-86781000D01*
X79286258Y-86781000D01*
X79261488Y-86776073D01*
X79112188Y-86746376D01*
X78948216Y-86678456D01*
X78800646Y-86579853D01*
X78675147Y-86454354D01*
X78576544Y-86306784D01*
X78508624Y-86142812D01*
X78474000Y-85968741D01*
X78474000Y-85791259D01*
X78508624Y-85617188D01*
X78576544Y-85453216D01*
X78675147Y-85305646D01*
X78800646Y-85180147D01*
X78948216Y-85081544D01*
X79112188Y-85013624D01*
X79261488Y-84983927D01*
X79286258Y-84979000D01*
X79463742Y-84979000D01*
X79488512Y-84983927D01*
G37*
G36*
X77736000Y-86781000D02*
G01*
X75934000Y-86781000D01*
X75934000Y-84979000D01*
X77736000Y-84979000D01*
X77736000Y-86781000D01*
G37*
G36*
X117108512Y-84983927D02*
G01*
X117257812Y-85013624D01*
X117421784Y-85081544D01*
X117569354Y-85180147D01*
X117694853Y-85305646D01*
X117793456Y-85453216D01*
X117861376Y-85617188D01*
X117896000Y-85791259D01*
X117896000Y-85968741D01*
X117861376Y-86142812D01*
X117793456Y-86306784D01*
X117694853Y-86454354D01*
X117569354Y-86579853D01*
X117421784Y-86678456D01*
X117257812Y-86746376D01*
X117108512Y-86776073D01*
X117083742Y-86781000D01*
X116906258Y-86781000D01*
X116881488Y-86776073D01*
X116732188Y-86746376D01*
X116568216Y-86678456D01*
X116420646Y-86579853D01*
X116295147Y-86454354D01*
X116196544Y-86306784D01*
X116128624Y-86142812D01*
X116094000Y-85968741D01*
X116094000Y-85791259D01*
X116128624Y-85617188D01*
X116196544Y-85453216D01*
X116295147Y-85305646D01*
X116420646Y-85180147D01*
X116568216Y-85081544D01*
X116732188Y-85013624D01*
X116881488Y-84983927D01*
X116906258Y-84979000D01*
X117083742Y-84979000D01*
X117108512Y-84983927D01*
G37*
G36*
X114568512Y-84983927D02*
G01*
X114717812Y-85013624D01*
X114881784Y-85081544D01*
X115029354Y-85180147D01*
X115154853Y-85305646D01*
X115253456Y-85453216D01*
X115321376Y-85617188D01*
X115356000Y-85791259D01*
X115356000Y-85968741D01*
X115321376Y-86142812D01*
X115253456Y-86306784D01*
X115154853Y-86454354D01*
X115029354Y-86579853D01*
X114881784Y-86678456D01*
X114717812Y-86746376D01*
X114568512Y-86776073D01*
X114543742Y-86781000D01*
X114366258Y-86781000D01*
X114341488Y-86776073D01*
X114192188Y-86746376D01*
X114028216Y-86678456D01*
X113880646Y-86579853D01*
X113755147Y-86454354D01*
X113656544Y-86306784D01*
X113588624Y-86142812D01*
X113554000Y-85968741D01*
X113554000Y-85791259D01*
X113588624Y-85617188D01*
X113656544Y-85453216D01*
X113755147Y-85305646D01*
X113880646Y-85180147D01*
X114028216Y-85081544D01*
X114192188Y-85013624D01*
X114341488Y-84983927D01*
X114366258Y-84979000D01*
X114543742Y-84979000D01*
X114568512Y-84983927D01*
G37*
G36*
X112028512Y-84983927D02*
G01*
X112177812Y-85013624D01*
X112341784Y-85081544D01*
X112489354Y-85180147D01*
X112614853Y-85305646D01*
X112713456Y-85453216D01*
X112781376Y-85617188D01*
X112816000Y-85791259D01*
X112816000Y-85968741D01*
X112781376Y-86142812D01*
X112713456Y-86306784D01*
X112614853Y-86454354D01*
X112489354Y-86579853D01*
X112341784Y-86678456D01*
X112177812Y-86746376D01*
X112028512Y-86776073D01*
X112003742Y-86781000D01*
X111826258Y-86781000D01*
X111801488Y-86776073D01*
X111652188Y-86746376D01*
X111488216Y-86678456D01*
X111340646Y-86579853D01*
X111215147Y-86454354D01*
X111116544Y-86306784D01*
X111048624Y-86142812D01*
X111014000Y-85968741D01*
X111014000Y-85791259D01*
X111048624Y-85617188D01*
X111116544Y-85453216D01*
X111215147Y-85305646D01*
X111340646Y-85180147D01*
X111488216Y-85081544D01*
X111652188Y-85013624D01*
X111801488Y-84983927D01*
X111826258Y-84979000D01*
X112003742Y-84979000D01*
X112028512Y-84983927D01*
G37*
G36*
X147108512Y-84983927D02*
G01*
X147257812Y-85013624D01*
X147421784Y-85081544D01*
X147569354Y-85180147D01*
X147694853Y-85305646D01*
X147793456Y-85453216D01*
X147861376Y-85617188D01*
X147896000Y-85791259D01*
X147896000Y-85968741D01*
X147861376Y-86142812D01*
X147793456Y-86306784D01*
X147694853Y-86454354D01*
X147569354Y-86579853D01*
X147421784Y-86678456D01*
X147257812Y-86746376D01*
X147108512Y-86776073D01*
X147083742Y-86781000D01*
X146906258Y-86781000D01*
X146881488Y-86776073D01*
X146732188Y-86746376D01*
X146568216Y-86678456D01*
X146420646Y-86579853D01*
X146295147Y-86454354D01*
X146196544Y-86306784D01*
X146128624Y-86142812D01*
X146094000Y-85968741D01*
X146094000Y-85791259D01*
X146128624Y-85617188D01*
X146196544Y-85453216D01*
X146295147Y-85305646D01*
X146420646Y-85180147D01*
X146568216Y-85081544D01*
X146732188Y-85013624D01*
X146881488Y-84983927D01*
X146906258Y-84979000D01*
X147083742Y-84979000D01*
X147108512Y-84983927D01*
G37*
G36*
X144568512Y-84983927D02*
G01*
X144717812Y-85013624D01*
X144881784Y-85081544D01*
X145029354Y-85180147D01*
X145154853Y-85305646D01*
X145253456Y-85453216D01*
X145321376Y-85617188D01*
X145356000Y-85791259D01*
X145356000Y-85968741D01*
X145321376Y-86142812D01*
X145253456Y-86306784D01*
X145154853Y-86454354D01*
X145029354Y-86579853D01*
X144881784Y-86678456D01*
X144717812Y-86746376D01*
X144568512Y-86776073D01*
X144543742Y-86781000D01*
X144366258Y-86781000D01*
X144341488Y-86776073D01*
X144192188Y-86746376D01*
X144028216Y-86678456D01*
X143880646Y-86579853D01*
X143755147Y-86454354D01*
X143656544Y-86306784D01*
X143588624Y-86142812D01*
X143554000Y-85968741D01*
X143554000Y-85791259D01*
X143588624Y-85617188D01*
X143656544Y-85453216D01*
X143755147Y-85305646D01*
X143880646Y-85180147D01*
X144028216Y-85081544D01*
X144192188Y-85013624D01*
X144341488Y-84983927D01*
X144366258Y-84979000D01*
X144543742Y-84979000D01*
X144568512Y-84983927D01*
G37*
G36*
X142028512Y-84983927D02*
G01*
X142177812Y-85013624D01*
X142341784Y-85081544D01*
X142489354Y-85180147D01*
X142614853Y-85305646D01*
X142713456Y-85453216D01*
X142781376Y-85617188D01*
X142816000Y-85791259D01*
X142816000Y-85968741D01*
X142781376Y-86142812D01*
X142713456Y-86306784D01*
X142614853Y-86454354D01*
X142489354Y-86579853D01*
X142341784Y-86678456D01*
X142177812Y-86746376D01*
X142028512Y-86776073D01*
X142003742Y-86781000D01*
X141826258Y-86781000D01*
X141801488Y-86776073D01*
X141652188Y-86746376D01*
X141488216Y-86678456D01*
X141340646Y-86579853D01*
X141215147Y-86454354D01*
X141116544Y-86306784D01*
X141048624Y-86142812D01*
X141014000Y-85968741D01*
X141014000Y-85791259D01*
X141048624Y-85617188D01*
X141116544Y-85453216D01*
X141215147Y-85305646D01*
X141340646Y-85180147D01*
X141488216Y-85081544D01*
X141652188Y-85013624D01*
X141801488Y-84983927D01*
X141826258Y-84979000D01*
X142003742Y-84979000D01*
X142028512Y-84983927D01*
G37*
G36*
X107736000Y-86781000D02*
G01*
X105934000Y-86781000D01*
X105934000Y-84979000D01*
X107736000Y-84979000D01*
X107736000Y-86781000D01*
G37*
G36*
X137736000Y-86781000D02*
G01*
X135934000Y-86781000D01*
X135934000Y-84979000D01*
X137736000Y-84979000D01*
X137736000Y-86781000D01*
G37*
G36*
X84568512Y-84983927D02*
G01*
X84717812Y-85013624D01*
X84881784Y-85081544D01*
X85029354Y-85180147D01*
X85154853Y-85305646D01*
X85253456Y-85453216D01*
X85321376Y-85617188D01*
X85356000Y-85791259D01*
X85356000Y-85968741D01*
X85321376Y-86142812D01*
X85253456Y-86306784D01*
X85154853Y-86454354D01*
X85029354Y-86579853D01*
X84881784Y-86678456D01*
X84717812Y-86746376D01*
X84568512Y-86776073D01*
X84543742Y-86781000D01*
X84366258Y-86781000D01*
X84341488Y-86776073D01*
X84192188Y-86746376D01*
X84028216Y-86678456D01*
X83880646Y-86579853D01*
X83755147Y-86454354D01*
X83656544Y-86306784D01*
X83588624Y-86142812D01*
X83554000Y-85968741D01*
X83554000Y-85791259D01*
X83588624Y-85617188D01*
X83656544Y-85453216D01*
X83755147Y-85305646D01*
X83880646Y-85180147D01*
X84028216Y-85081544D01*
X84192188Y-85013624D01*
X84341488Y-84983927D01*
X84366258Y-84979000D01*
X84543742Y-84979000D01*
X84568512Y-84983927D01*
G37*
G36*
X87108512Y-84983927D02*
G01*
X87257812Y-85013624D01*
X87421784Y-85081544D01*
X87569354Y-85180147D01*
X87694853Y-85305646D01*
X87793456Y-85453216D01*
X87861376Y-85617188D01*
X87896000Y-85791259D01*
X87896000Y-85968741D01*
X87861376Y-86142812D01*
X87793456Y-86306784D01*
X87694853Y-86454354D01*
X87569354Y-86579853D01*
X87421784Y-86678456D01*
X87257812Y-86746376D01*
X87108512Y-86776073D01*
X87083742Y-86781000D01*
X86906258Y-86781000D01*
X86881488Y-86776073D01*
X86732188Y-86746376D01*
X86568216Y-86678456D01*
X86420646Y-86579853D01*
X86295147Y-86454354D01*
X86196544Y-86306784D01*
X86128624Y-86142812D01*
X86094000Y-85968741D01*
X86094000Y-85791259D01*
X86128624Y-85617188D01*
X86196544Y-85453216D01*
X86295147Y-85305646D01*
X86420646Y-85180147D01*
X86568216Y-85081544D01*
X86732188Y-85013624D01*
X86881488Y-84983927D01*
X86906258Y-84979000D01*
X87083742Y-84979000D01*
X87108512Y-84983927D01*
G37*
G36*
X139488512Y-84983927D02*
G01*
X139637812Y-85013624D01*
X139801784Y-85081544D01*
X139949354Y-85180147D01*
X140074853Y-85305646D01*
X140173456Y-85453216D01*
X140241376Y-85617188D01*
X140276000Y-85791259D01*
X140276000Y-85968741D01*
X140241376Y-86142812D01*
X140173456Y-86306784D01*
X140074853Y-86454354D01*
X139949354Y-86579853D01*
X139801784Y-86678456D01*
X139637812Y-86746376D01*
X139488512Y-86776073D01*
X139463742Y-86781000D01*
X139286258Y-86781000D01*
X139261488Y-86776073D01*
X139112188Y-86746376D01*
X138948216Y-86678456D01*
X138800646Y-86579853D01*
X138675147Y-86454354D01*
X138576544Y-86306784D01*
X138508624Y-86142812D01*
X138474000Y-85968741D01*
X138474000Y-85791259D01*
X138508624Y-85617188D01*
X138576544Y-85453216D01*
X138675147Y-85305646D01*
X138800646Y-85180147D01*
X138948216Y-85081544D01*
X139112188Y-85013624D01*
X139261488Y-84983927D01*
X139286258Y-84979000D01*
X139463742Y-84979000D01*
X139488512Y-84983927D01*
G37*
G36*
X109488512Y-82443927D02*
G01*
X109637812Y-82473624D01*
X109801784Y-82541544D01*
X109949354Y-82640147D01*
X110074853Y-82765646D01*
X110173456Y-82913216D01*
X110241376Y-83077188D01*
X110276000Y-83251259D01*
X110276000Y-83428741D01*
X110241376Y-83602812D01*
X110173456Y-83766784D01*
X110074853Y-83914354D01*
X109949354Y-84039853D01*
X109801784Y-84138456D01*
X109637812Y-84206376D01*
X109488512Y-84236073D01*
X109463742Y-84241000D01*
X109286258Y-84241000D01*
X109261488Y-84236073D01*
X109112188Y-84206376D01*
X108948216Y-84138456D01*
X108800646Y-84039853D01*
X108675147Y-83914354D01*
X108576544Y-83766784D01*
X108508624Y-83602812D01*
X108474000Y-83428741D01*
X108474000Y-83251259D01*
X108508624Y-83077188D01*
X108576544Y-82913216D01*
X108675147Y-82765646D01*
X108800646Y-82640147D01*
X108948216Y-82541544D01*
X109112188Y-82473624D01*
X109261488Y-82443927D01*
X109286258Y-82439000D01*
X109463742Y-82439000D01*
X109488512Y-82443927D01*
G37*
G36*
X139488512Y-82443927D02*
G01*
X139637812Y-82473624D01*
X139801784Y-82541544D01*
X139949354Y-82640147D01*
X140074853Y-82765646D01*
X140173456Y-82913216D01*
X140241376Y-83077188D01*
X140276000Y-83251259D01*
X140276000Y-83428741D01*
X140241376Y-83602812D01*
X140173456Y-83766784D01*
X140074853Y-83914354D01*
X139949354Y-84039853D01*
X139801784Y-84138456D01*
X139637812Y-84206376D01*
X139488512Y-84236073D01*
X139463742Y-84241000D01*
X139286258Y-84241000D01*
X139261488Y-84236073D01*
X139112188Y-84206376D01*
X138948216Y-84138456D01*
X138800646Y-84039853D01*
X138675147Y-83914354D01*
X138576544Y-83766784D01*
X138508624Y-83602812D01*
X138474000Y-83428741D01*
X138474000Y-83251259D01*
X138508624Y-83077188D01*
X138576544Y-82913216D01*
X138675147Y-82765646D01*
X138800646Y-82640147D01*
X138948216Y-82541544D01*
X139112188Y-82473624D01*
X139261488Y-82443927D01*
X139286258Y-82439000D01*
X139463742Y-82439000D01*
X139488512Y-82443927D01*
G37*
G36*
X84568512Y-82443927D02*
G01*
X84717812Y-82473624D01*
X84881784Y-82541544D01*
X85029354Y-82640147D01*
X85154853Y-82765646D01*
X85253456Y-82913216D01*
X85321376Y-83077188D01*
X85356000Y-83251259D01*
X85356000Y-83428741D01*
X85321376Y-83602812D01*
X85253456Y-83766784D01*
X85154853Y-83914354D01*
X85029354Y-84039853D01*
X84881784Y-84138456D01*
X84717812Y-84206376D01*
X84568512Y-84236073D01*
X84543742Y-84241000D01*
X84366258Y-84241000D01*
X84341488Y-84236073D01*
X84192188Y-84206376D01*
X84028216Y-84138456D01*
X83880646Y-84039853D01*
X83755147Y-83914354D01*
X83656544Y-83766784D01*
X83588624Y-83602812D01*
X83554000Y-83428741D01*
X83554000Y-83251259D01*
X83588624Y-83077188D01*
X83656544Y-82913216D01*
X83755147Y-82765646D01*
X83880646Y-82640147D01*
X84028216Y-82541544D01*
X84192188Y-82473624D01*
X84341488Y-82443927D01*
X84366258Y-82439000D01*
X84543742Y-82439000D01*
X84568512Y-82443927D01*
G37*
G36*
X136948512Y-82443927D02*
G01*
X137097812Y-82473624D01*
X137261784Y-82541544D01*
X137409354Y-82640147D01*
X137534853Y-82765646D01*
X137633456Y-82913216D01*
X137701376Y-83077188D01*
X137736000Y-83251259D01*
X137736000Y-83428741D01*
X137701376Y-83602812D01*
X137633456Y-83766784D01*
X137534853Y-83914354D01*
X137409354Y-84039853D01*
X137261784Y-84138456D01*
X137097812Y-84206376D01*
X136948512Y-84236073D01*
X136923742Y-84241000D01*
X136746258Y-84241000D01*
X136721488Y-84236073D01*
X136572188Y-84206376D01*
X136408216Y-84138456D01*
X136260646Y-84039853D01*
X136135147Y-83914354D01*
X136036544Y-83766784D01*
X135968624Y-83602812D01*
X135934000Y-83428741D01*
X135934000Y-83251259D01*
X135968624Y-83077188D01*
X136036544Y-82913216D01*
X136135147Y-82765646D01*
X136260646Y-82640147D01*
X136408216Y-82541544D01*
X136572188Y-82473624D01*
X136721488Y-82443927D01*
X136746258Y-82439000D01*
X136923742Y-82439000D01*
X136948512Y-82443927D01*
G37*
G36*
X82028512Y-82443927D02*
G01*
X82177812Y-82473624D01*
X82341784Y-82541544D01*
X82489354Y-82640147D01*
X82614853Y-82765646D01*
X82713456Y-82913216D01*
X82781376Y-83077188D01*
X82816000Y-83251259D01*
X82816000Y-83428741D01*
X82781376Y-83602812D01*
X82713456Y-83766784D01*
X82614853Y-83914354D01*
X82489354Y-84039853D01*
X82341784Y-84138456D01*
X82177812Y-84206376D01*
X82028512Y-84236073D01*
X82003742Y-84241000D01*
X81826258Y-84241000D01*
X81801488Y-84236073D01*
X81652188Y-84206376D01*
X81488216Y-84138456D01*
X81340646Y-84039853D01*
X81215147Y-83914354D01*
X81116544Y-83766784D01*
X81048624Y-83602812D01*
X81014000Y-83428741D01*
X81014000Y-83251259D01*
X81048624Y-83077188D01*
X81116544Y-82913216D01*
X81215147Y-82765646D01*
X81340646Y-82640147D01*
X81488216Y-82541544D01*
X81652188Y-82473624D01*
X81801488Y-82443927D01*
X81826258Y-82439000D01*
X82003742Y-82439000D01*
X82028512Y-82443927D01*
G37*
G36*
X79488512Y-82443927D02*
G01*
X79637812Y-82473624D01*
X79801784Y-82541544D01*
X79949354Y-82640147D01*
X80074853Y-82765646D01*
X80173456Y-82913216D01*
X80241376Y-83077188D01*
X80276000Y-83251259D01*
X80276000Y-83428741D01*
X80241376Y-83602812D01*
X80173456Y-83766784D01*
X80074853Y-83914354D01*
X79949354Y-84039853D01*
X79801784Y-84138456D01*
X79637812Y-84206376D01*
X79488512Y-84236073D01*
X79463742Y-84241000D01*
X79286258Y-84241000D01*
X79261488Y-84236073D01*
X79112188Y-84206376D01*
X78948216Y-84138456D01*
X78800646Y-84039853D01*
X78675147Y-83914354D01*
X78576544Y-83766784D01*
X78508624Y-83602812D01*
X78474000Y-83428741D01*
X78474000Y-83251259D01*
X78508624Y-83077188D01*
X78576544Y-82913216D01*
X78675147Y-82765646D01*
X78800646Y-82640147D01*
X78948216Y-82541544D01*
X79112188Y-82473624D01*
X79261488Y-82443927D01*
X79286258Y-82439000D01*
X79463742Y-82439000D01*
X79488512Y-82443927D01*
G37*
G36*
X76948512Y-82443927D02*
G01*
X77097812Y-82473624D01*
X77261784Y-82541544D01*
X77409354Y-82640147D01*
X77534853Y-82765646D01*
X77633456Y-82913216D01*
X77701376Y-83077188D01*
X77736000Y-83251259D01*
X77736000Y-83428741D01*
X77701376Y-83602812D01*
X77633456Y-83766784D01*
X77534853Y-83914354D01*
X77409354Y-84039853D01*
X77261784Y-84138456D01*
X77097812Y-84206376D01*
X76948512Y-84236073D01*
X76923742Y-84241000D01*
X76746258Y-84241000D01*
X76721488Y-84236073D01*
X76572188Y-84206376D01*
X76408216Y-84138456D01*
X76260646Y-84039853D01*
X76135147Y-83914354D01*
X76036544Y-83766784D01*
X75968624Y-83602812D01*
X75934000Y-83428741D01*
X75934000Y-83251259D01*
X75968624Y-83077188D01*
X76036544Y-82913216D01*
X76135147Y-82765646D01*
X76260646Y-82640147D01*
X76408216Y-82541544D01*
X76572188Y-82473624D01*
X76721488Y-82443927D01*
X76746258Y-82439000D01*
X76923742Y-82439000D01*
X76948512Y-82443927D01*
G37*
G36*
X117108512Y-82443927D02*
G01*
X117257812Y-82473624D01*
X117421784Y-82541544D01*
X117569354Y-82640147D01*
X117694853Y-82765646D01*
X117793456Y-82913216D01*
X117861376Y-83077188D01*
X117896000Y-83251259D01*
X117896000Y-83428741D01*
X117861376Y-83602812D01*
X117793456Y-83766784D01*
X117694853Y-83914354D01*
X117569354Y-84039853D01*
X117421784Y-84138456D01*
X117257812Y-84206376D01*
X117108512Y-84236073D01*
X117083742Y-84241000D01*
X116906258Y-84241000D01*
X116881488Y-84236073D01*
X116732188Y-84206376D01*
X116568216Y-84138456D01*
X116420646Y-84039853D01*
X116295147Y-83914354D01*
X116196544Y-83766784D01*
X116128624Y-83602812D01*
X116094000Y-83428741D01*
X116094000Y-83251259D01*
X116128624Y-83077188D01*
X116196544Y-82913216D01*
X116295147Y-82765646D01*
X116420646Y-82640147D01*
X116568216Y-82541544D01*
X116732188Y-82473624D01*
X116881488Y-82443927D01*
X116906258Y-82439000D01*
X117083742Y-82439000D01*
X117108512Y-82443927D01*
G37*
G36*
X114568512Y-82443927D02*
G01*
X114717812Y-82473624D01*
X114881784Y-82541544D01*
X115029354Y-82640147D01*
X115154853Y-82765646D01*
X115253456Y-82913216D01*
X115321376Y-83077188D01*
X115356000Y-83251259D01*
X115356000Y-83428741D01*
X115321376Y-83602812D01*
X115253456Y-83766784D01*
X115154853Y-83914354D01*
X115029354Y-84039853D01*
X114881784Y-84138456D01*
X114717812Y-84206376D01*
X114568512Y-84236073D01*
X114543742Y-84241000D01*
X114366258Y-84241000D01*
X114341488Y-84236073D01*
X114192188Y-84206376D01*
X114028216Y-84138456D01*
X113880646Y-84039853D01*
X113755147Y-83914354D01*
X113656544Y-83766784D01*
X113588624Y-83602812D01*
X113554000Y-83428741D01*
X113554000Y-83251259D01*
X113588624Y-83077188D01*
X113656544Y-82913216D01*
X113755147Y-82765646D01*
X113880646Y-82640147D01*
X114028216Y-82541544D01*
X114192188Y-82473624D01*
X114341488Y-82443927D01*
X114366258Y-82439000D01*
X114543742Y-82439000D01*
X114568512Y-82443927D01*
G37*
G36*
X112028512Y-82443927D02*
G01*
X112177812Y-82473624D01*
X112341784Y-82541544D01*
X112489354Y-82640147D01*
X112614853Y-82765646D01*
X112713456Y-82913216D01*
X112781376Y-83077188D01*
X112816000Y-83251259D01*
X112816000Y-83428741D01*
X112781376Y-83602812D01*
X112713456Y-83766784D01*
X112614853Y-83914354D01*
X112489354Y-84039853D01*
X112341784Y-84138456D01*
X112177812Y-84206376D01*
X112028512Y-84236073D01*
X112003742Y-84241000D01*
X111826258Y-84241000D01*
X111801488Y-84236073D01*
X111652188Y-84206376D01*
X111488216Y-84138456D01*
X111340646Y-84039853D01*
X111215147Y-83914354D01*
X111116544Y-83766784D01*
X111048624Y-83602812D01*
X111014000Y-83428741D01*
X111014000Y-83251259D01*
X111048624Y-83077188D01*
X111116544Y-82913216D01*
X111215147Y-82765646D01*
X111340646Y-82640147D01*
X111488216Y-82541544D01*
X111652188Y-82473624D01*
X111801488Y-82443927D01*
X111826258Y-82439000D01*
X112003742Y-82439000D01*
X112028512Y-82443927D01*
G37*
G36*
X87108512Y-82443927D02*
G01*
X87257812Y-82473624D01*
X87421784Y-82541544D01*
X87569354Y-82640147D01*
X87694853Y-82765646D01*
X87793456Y-82913216D01*
X87861376Y-83077188D01*
X87896000Y-83251259D01*
X87896000Y-83428741D01*
X87861376Y-83602812D01*
X87793456Y-83766784D01*
X87694853Y-83914354D01*
X87569354Y-84039853D01*
X87421784Y-84138456D01*
X87257812Y-84206376D01*
X87108512Y-84236073D01*
X87083742Y-84241000D01*
X86906258Y-84241000D01*
X86881488Y-84236073D01*
X86732188Y-84206376D01*
X86568216Y-84138456D01*
X86420646Y-84039853D01*
X86295147Y-83914354D01*
X86196544Y-83766784D01*
X86128624Y-83602812D01*
X86094000Y-83428741D01*
X86094000Y-83251259D01*
X86128624Y-83077188D01*
X86196544Y-82913216D01*
X86295147Y-82765646D01*
X86420646Y-82640147D01*
X86568216Y-82541544D01*
X86732188Y-82473624D01*
X86881488Y-82443927D01*
X86906258Y-82439000D01*
X87083742Y-82439000D01*
X87108512Y-82443927D01*
G37*
G36*
X106948512Y-82443927D02*
G01*
X107097812Y-82473624D01*
X107261784Y-82541544D01*
X107409354Y-82640147D01*
X107534853Y-82765646D01*
X107633456Y-82913216D01*
X107701376Y-83077188D01*
X107736000Y-83251259D01*
X107736000Y-83428741D01*
X107701376Y-83602812D01*
X107633456Y-83766784D01*
X107534853Y-83914354D01*
X107409354Y-84039853D01*
X107261784Y-84138456D01*
X107097812Y-84206376D01*
X106948512Y-84236073D01*
X106923742Y-84241000D01*
X106746258Y-84241000D01*
X106721488Y-84236073D01*
X106572188Y-84206376D01*
X106408216Y-84138456D01*
X106260646Y-84039853D01*
X106135147Y-83914354D01*
X106036544Y-83766784D01*
X105968624Y-83602812D01*
X105934000Y-83428741D01*
X105934000Y-83251259D01*
X105968624Y-83077188D01*
X106036544Y-82913216D01*
X106135147Y-82765646D01*
X106260646Y-82640147D01*
X106408216Y-82541544D01*
X106572188Y-82473624D01*
X106721488Y-82443927D01*
X106746258Y-82439000D01*
X106923742Y-82439000D01*
X106948512Y-82443927D01*
G37*
G36*
X147108512Y-82443927D02*
G01*
X147257812Y-82473624D01*
X147421784Y-82541544D01*
X147569354Y-82640147D01*
X147694853Y-82765646D01*
X147793456Y-82913216D01*
X147861376Y-83077188D01*
X147896000Y-83251259D01*
X147896000Y-83428741D01*
X147861376Y-83602812D01*
X147793456Y-83766784D01*
X147694853Y-83914354D01*
X147569354Y-84039853D01*
X147421784Y-84138456D01*
X147257812Y-84206376D01*
X147108512Y-84236073D01*
X147083742Y-84241000D01*
X146906258Y-84241000D01*
X146881488Y-84236073D01*
X146732188Y-84206376D01*
X146568216Y-84138456D01*
X146420646Y-84039853D01*
X146295147Y-83914354D01*
X146196544Y-83766784D01*
X146128624Y-83602812D01*
X146094000Y-83428741D01*
X146094000Y-83251259D01*
X146128624Y-83077188D01*
X146196544Y-82913216D01*
X146295147Y-82765646D01*
X146420646Y-82640147D01*
X146568216Y-82541544D01*
X146732188Y-82473624D01*
X146881488Y-82443927D01*
X146906258Y-82439000D01*
X147083742Y-82439000D01*
X147108512Y-82443927D01*
G37*
G36*
X144568512Y-82443927D02*
G01*
X144717812Y-82473624D01*
X144881784Y-82541544D01*
X145029354Y-82640147D01*
X145154853Y-82765646D01*
X145253456Y-82913216D01*
X145321376Y-83077188D01*
X145356000Y-83251259D01*
X145356000Y-83428741D01*
X145321376Y-83602812D01*
X145253456Y-83766784D01*
X145154853Y-83914354D01*
X145029354Y-84039853D01*
X144881784Y-84138456D01*
X144717812Y-84206376D01*
X144568512Y-84236073D01*
X144543742Y-84241000D01*
X144366258Y-84241000D01*
X144341488Y-84236073D01*
X144192188Y-84206376D01*
X144028216Y-84138456D01*
X143880646Y-84039853D01*
X143755147Y-83914354D01*
X143656544Y-83766784D01*
X143588624Y-83602812D01*
X143554000Y-83428741D01*
X143554000Y-83251259D01*
X143588624Y-83077188D01*
X143656544Y-82913216D01*
X143755147Y-82765646D01*
X143880646Y-82640147D01*
X144028216Y-82541544D01*
X144192188Y-82473624D01*
X144341488Y-82443927D01*
X144366258Y-82439000D01*
X144543742Y-82439000D01*
X144568512Y-82443927D01*
G37*
G36*
X142028512Y-82443927D02*
G01*
X142177812Y-82473624D01*
X142341784Y-82541544D01*
X142489354Y-82640147D01*
X142614853Y-82765646D01*
X142713456Y-82913216D01*
X142781376Y-83077188D01*
X142816000Y-83251259D01*
X142816000Y-83428741D01*
X142781376Y-83602812D01*
X142713456Y-83766784D01*
X142614853Y-83914354D01*
X142489354Y-84039853D01*
X142341784Y-84138456D01*
X142177812Y-84206376D01*
X142028512Y-84236073D01*
X142003742Y-84241000D01*
X141826258Y-84241000D01*
X141801488Y-84236073D01*
X141652188Y-84206376D01*
X141488216Y-84138456D01*
X141340646Y-84039853D01*
X141215147Y-83914354D01*
X141116544Y-83766784D01*
X141048624Y-83602812D01*
X141014000Y-83428741D01*
X141014000Y-83251259D01*
X141048624Y-83077188D01*
X141116544Y-82913216D01*
X141215147Y-82765646D01*
X141340646Y-82640147D01*
X141488216Y-82541544D01*
X141652188Y-82473624D01*
X141801488Y-82443927D01*
X141826258Y-82439000D01*
X142003742Y-82439000D01*
X142028512Y-82443927D01*
G37*
G36*
X95036000Y-83911000D02*
G01*
X94194000Y-83911000D01*
X94194000Y-81409000D01*
X95036000Y-81409000D01*
X95036000Y-83911000D01*
G37*
G36*
X156306000Y-83911000D02*
G01*
X155464000Y-83911000D01*
X155464000Y-81409000D01*
X156306000Y-81409000D01*
X156306000Y-83911000D01*
G37*
G36*
X157576000Y-83911000D02*
G01*
X156734000Y-83911000D01*
X156734000Y-81409000D01*
X157576000Y-81409000D01*
X157576000Y-83911000D01*
G37*
G36*
X155036000Y-83911000D02*
G01*
X154194000Y-83911000D01*
X154194000Y-81409000D01*
X155036000Y-81409000D01*
X155036000Y-83911000D01*
G37*
G36*
X160116000Y-83911000D02*
G01*
X159274000Y-83911000D01*
X159274000Y-81409000D01*
X160116000Y-81409000D01*
X160116000Y-83911000D01*
G37*
G36*
X158846000Y-83911000D02*
G01*
X158004000Y-83911000D01*
X158004000Y-81409000D01*
X158846000Y-81409000D01*
X158846000Y-83911000D01*
G37*
G36*
X128846000Y-83911000D02*
G01*
X128004000Y-83911000D01*
X128004000Y-81409000D01*
X128846000Y-81409000D01*
X128846000Y-83911000D01*
G37*
G36*
X96306000Y-83911000D02*
G01*
X95464000Y-83911000D01*
X95464000Y-81409000D01*
X96306000Y-81409000D01*
X96306000Y-83911000D01*
G37*
G36*
X125036000Y-83911000D02*
G01*
X124194000Y-83911000D01*
X124194000Y-81409000D01*
X125036000Y-81409000D01*
X125036000Y-83911000D01*
G37*
G36*
X126306000Y-83911000D02*
G01*
X125464000Y-83911000D01*
X125464000Y-81409000D01*
X126306000Y-81409000D01*
X126306000Y-83911000D01*
G37*
G36*
X130116000Y-83911000D02*
G01*
X129274000Y-83911000D01*
X129274000Y-81409000D01*
X130116000Y-81409000D01*
X130116000Y-83911000D01*
G37*
G36*
X127576000Y-83911000D02*
G01*
X126734000Y-83911000D01*
X126734000Y-81409000D01*
X127576000Y-81409000D01*
X127576000Y-83911000D01*
G37*
G36*
X98846000Y-83911000D02*
G01*
X98004000Y-83911000D01*
X98004000Y-81409000D01*
X98846000Y-81409000D01*
X98846000Y-83911000D01*
G37*
G36*
X97576000Y-83911000D02*
G01*
X96734000Y-83911000D01*
X96734000Y-81409000D01*
X97576000Y-81409000D01*
X97576000Y-83911000D01*
G37*
G36*
X100116000Y-83911000D02*
G01*
X99274000Y-83911000D01*
X99274000Y-81409000D01*
X100116000Y-81409000D01*
X100116000Y-83911000D01*
G37*
G36*
X155036000Y-72811000D02*
G01*
X154194000Y-72811000D01*
X154194000Y-70309000D01*
X155036000Y-70309000D01*
X155036000Y-72811000D01*
G37*
G36*
X160116000Y-72811000D02*
G01*
X159274000Y-72811000D01*
X159274000Y-70309000D01*
X160116000Y-70309000D01*
X160116000Y-72811000D01*
G37*
G36*
X158846000Y-72811000D02*
G01*
X158004000Y-72811000D01*
X158004000Y-70309000D01*
X158846000Y-70309000D01*
X158846000Y-72811000D01*
G37*
G36*
X157576000Y-72811000D02*
G01*
X156734000Y-72811000D01*
X156734000Y-70309000D01*
X157576000Y-70309000D01*
X157576000Y-72811000D01*
G37*
G36*
X156306000Y-72811000D02*
G01*
X155464000Y-72811000D01*
X155464000Y-70309000D01*
X156306000Y-70309000D01*
X156306000Y-72811000D01*
G37*
G36*
X128846000Y-72811000D02*
G01*
X128004000Y-72811000D01*
X128004000Y-70309000D01*
X128846000Y-70309000D01*
X128846000Y-72811000D01*
G37*
G36*
X127576000Y-72811000D02*
G01*
X126734000Y-72811000D01*
X126734000Y-70309000D01*
X127576000Y-70309000D01*
X127576000Y-72811000D01*
G37*
G36*
X126306000Y-72811000D02*
G01*
X125464000Y-72811000D01*
X125464000Y-70309000D01*
X126306000Y-70309000D01*
X126306000Y-72811000D01*
G37*
G36*
X125036000Y-72811000D02*
G01*
X124194000Y-72811000D01*
X124194000Y-70309000D01*
X125036000Y-70309000D01*
X125036000Y-72811000D01*
G37*
G36*
X95036000Y-72811000D02*
G01*
X94194000Y-72811000D01*
X94194000Y-70309000D01*
X95036000Y-70309000D01*
X95036000Y-72811000D01*
G37*
G36*
X96306000Y-72811000D02*
G01*
X95464000Y-72811000D01*
X95464000Y-70309000D01*
X96306000Y-70309000D01*
X96306000Y-72811000D01*
G37*
G36*
X97576000Y-72811000D02*
G01*
X96734000Y-72811000D01*
X96734000Y-70309000D01*
X97576000Y-70309000D01*
X97576000Y-72811000D01*
G37*
G36*
X98846000Y-72811000D02*
G01*
X98004000Y-72811000D01*
X98004000Y-70309000D01*
X98846000Y-70309000D01*
X98846000Y-72811000D01*
G37*
G36*
X130116000Y-72811000D02*
G01*
X129274000Y-72811000D01*
X129274000Y-70309000D01*
X130116000Y-70309000D01*
X130116000Y-72811000D01*
G37*
G36*
X100116000Y-72811000D02*
G01*
X99274000Y-72811000D01*
X99274000Y-70309000D01*
X100116000Y-70309000D01*
X100116000Y-72811000D01*
G37*
G36*
X112028512Y-69983927D02*
G01*
X112177812Y-70013624D01*
X112341784Y-70081544D01*
X112489354Y-70180147D01*
X112614853Y-70305646D01*
X112713456Y-70453216D01*
X112781376Y-70617188D01*
X112816000Y-70791259D01*
X112816000Y-70968741D01*
X112781376Y-71142812D01*
X112713456Y-71306784D01*
X112614853Y-71454354D01*
X112489354Y-71579853D01*
X112341784Y-71678456D01*
X112177812Y-71746376D01*
X112028512Y-71776073D01*
X112003742Y-71781000D01*
X111826258Y-71781000D01*
X111801488Y-71776073D01*
X111652188Y-71746376D01*
X111488216Y-71678456D01*
X111340646Y-71579853D01*
X111215147Y-71454354D01*
X111116544Y-71306784D01*
X111048624Y-71142812D01*
X111014000Y-70968741D01*
X111014000Y-70791259D01*
X111048624Y-70617188D01*
X111116544Y-70453216D01*
X111215147Y-70305646D01*
X111340646Y-70180147D01*
X111488216Y-70081544D01*
X111652188Y-70013624D01*
X111801488Y-69983927D01*
X111826258Y-69979000D01*
X112003742Y-69979000D01*
X112028512Y-69983927D01*
G37*
G36*
X139488512Y-69983927D02*
G01*
X139637812Y-70013624D01*
X139801784Y-70081544D01*
X139949354Y-70180147D01*
X140074853Y-70305646D01*
X140173456Y-70453216D01*
X140241376Y-70617188D01*
X140276000Y-70791259D01*
X140276000Y-70968741D01*
X140241376Y-71142812D01*
X140173456Y-71306784D01*
X140074853Y-71454354D01*
X139949354Y-71579853D01*
X139801784Y-71678456D01*
X139637812Y-71746376D01*
X139488512Y-71776073D01*
X139463742Y-71781000D01*
X139286258Y-71781000D01*
X139261488Y-71776073D01*
X139112188Y-71746376D01*
X138948216Y-71678456D01*
X138800646Y-71579853D01*
X138675147Y-71454354D01*
X138576544Y-71306784D01*
X138508624Y-71142812D01*
X138474000Y-70968741D01*
X138474000Y-70791259D01*
X138508624Y-70617188D01*
X138576544Y-70453216D01*
X138675147Y-70305646D01*
X138800646Y-70180147D01*
X138948216Y-70081544D01*
X139112188Y-70013624D01*
X139261488Y-69983927D01*
X139286258Y-69979000D01*
X139463742Y-69979000D01*
X139488512Y-69983927D01*
G37*
G36*
X142028512Y-69983927D02*
G01*
X142177812Y-70013624D01*
X142341784Y-70081544D01*
X142489354Y-70180147D01*
X142614853Y-70305646D01*
X142713456Y-70453216D01*
X142781376Y-70617188D01*
X142816000Y-70791259D01*
X142816000Y-70968741D01*
X142781376Y-71142812D01*
X142713456Y-71306784D01*
X142614853Y-71454354D01*
X142489354Y-71579853D01*
X142341784Y-71678456D01*
X142177812Y-71746376D01*
X142028512Y-71776073D01*
X142003742Y-71781000D01*
X141826258Y-71781000D01*
X141801488Y-71776073D01*
X141652188Y-71746376D01*
X141488216Y-71678456D01*
X141340646Y-71579853D01*
X141215147Y-71454354D01*
X141116544Y-71306784D01*
X141048624Y-71142812D01*
X141014000Y-70968741D01*
X141014000Y-70791259D01*
X141048624Y-70617188D01*
X141116544Y-70453216D01*
X141215147Y-70305646D01*
X141340646Y-70180147D01*
X141488216Y-70081544D01*
X141652188Y-70013624D01*
X141801488Y-69983927D01*
X141826258Y-69979000D01*
X142003742Y-69979000D01*
X142028512Y-69983927D01*
G37*
G36*
X117108512Y-69983927D02*
G01*
X117257812Y-70013624D01*
X117421784Y-70081544D01*
X117569354Y-70180147D01*
X117694853Y-70305646D01*
X117793456Y-70453216D01*
X117861376Y-70617188D01*
X117896000Y-70791259D01*
X117896000Y-70968741D01*
X117861376Y-71142812D01*
X117793456Y-71306784D01*
X117694853Y-71454354D01*
X117569354Y-71579853D01*
X117421784Y-71678456D01*
X117257812Y-71746376D01*
X117108512Y-71776073D01*
X117083742Y-71781000D01*
X116906258Y-71781000D01*
X116881488Y-71776073D01*
X116732188Y-71746376D01*
X116568216Y-71678456D01*
X116420646Y-71579853D01*
X116295147Y-71454354D01*
X116196544Y-71306784D01*
X116128624Y-71142812D01*
X116094000Y-70968741D01*
X116094000Y-70791259D01*
X116128624Y-70617188D01*
X116196544Y-70453216D01*
X116295147Y-70305646D01*
X116420646Y-70180147D01*
X116568216Y-70081544D01*
X116732188Y-70013624D01*
X116881488Y-69983927D01*
X116906258Y-69979000D01*
X117083742Y-69979000D01*
X117108512Y-69983927D01*
G37*
G36*
X144568512Y-69983927D02*
G01*
X144717812Y-70013624D01*
X144881784Y-70081544D01*
X145029354Y-70180147D01*
X145154853Y-70305646D01*
X145253456Y-70453216D01*
X145321376Y-70617188D01*
X145356000Y-70791259D01*
X145356000Y-70968741D01*
X145321376Y-71142812D01*
X145253456Y-71306784D01*
X145154853Y-71454354D01*
X145029354Y-71579853D01*
X144881784Y-71678456D01*
X144717812Y-71746376D01*
X144568512Y-71776073D01*
X144543742Y-71781000D01*
X144366258Y-71781000D01*
X144341488Y-71776073D01*
X144192188Y-71746376D01*
X144028216Y-71678456D01*
X143880646Y-71579853D01*
X143755147Y-71454354D01*
X143656544Y-71306784D01*
X143588624Y-71142812D01*
X143554000Y-70968741D01*
X143554000Y-70791259D01*
X143588624Y-70617188D01*
X143656544Y-70453216D01*
X143755147Y-70305646D01*
X143880646Y-70180147D01*
X144028216Y-70081544D01*
X144192188Y-70013624D01*
X144341488Y-69983927D01*
X144366258Y-69979000D01*
X144543742Y-69979000D01*
X144568512Y-69983927D01*
G37*
G36*
X114568512Y-69983927D02*
G01*
X114717812Y-70013624D01*
X114881784Y-70081544D01*
X115029354Y-70180147D01*
X115154853Y-70305646D01*
X115253456Y-70453216D01*
X115321376Y-70617188D01*
X115356000Y-70791259D01*
X115356000Y-70968741D01*
X115321376Y-71142812D01*
X115253456Y-71306784D01*
X115154853Y-71454354D01*
X115029354Y-71579853D01*
X114881784Y-71678456D01*
X114717812Y-71746376D01*
X114568512Y-71776073D01*
X114543742Y-71781000D01*
X114366258Y-71781000D01*
X114341488Y-71776073D01*
X114192188Y-71746376D01*
X114028216Y-71678456D01*
X113880646Y-71579853D01*
X113755147Y-71454354D01*
X113656544Y-71306784D01*
X113588624Y-71142812D01*
X113554000Y-70968741D01*
X113554000Y-70791259D01*
X113588624Y-70617188D01*
X113656544Y-70453216D01*
X113755147Y-70305646D01*
X113880646Y-70180147D01*
X114028216Y-70081544D01*
X114192188Y-70013624D01*
X114341488Y-69983927D01*
X114366258Y-69979000D01*
X114543742Y-69979000D01*
X114568512Y-69983927D01*
G37*
G36*
X147108512Y-69983927D02*
G01*
X147257812Y-70013624D01*
X147421784Y-70081544D01*
X147569354Y-70180147D01*
X147694853Y-70305646D01*
X147793456Y-70453216D01*
X147861376Y-70617188D01*
X147896000Y-70791259D01*
X147896000Y-70968741D01*
X147861376Y-71142812D01*
X147793456Y-71306784D01*
X147694853Y-71454354D01*
X147569354Y-71579853D01*
X147421784Y-71678456D01*
X147257812Y-71746376D01*
X147108512Y-71776073D01*
X147083742Y-71781000D01*
X146906258Y-71781000D01*
X146881488Y-71776073D01*
X146732188Y-71746376D01*
X146568216Y-71678456D01*
X146420646Y-71579853D01*
X146295147Y-71454354D01*
X146196544Y-71306784D01*
X146128624Y-71142812D01*
X146094000Y-70968741D01*
X146094000Y-70791259D01*
X146128624Y-70617188D01*
X146196544Y-70453216D01*
X146295147Y-70305646D01*
X146420646Y-70180147D01*
X146568216Y-70081544D01*
X146732188Y-70013624D01*
X146881488Y-69983927D01*
X146906258Y-69979000D01*
X147083742Y-69979000D01*
X147108512Y-69983927D01*
G37*
G36*
X109488512Y-69983927D02*
G01*
X109637812Y-70013624D01*
X109801784Y-70081544D01*
X109949354Y-70180147D01*
X110074853Y-70305646D01*
X110173456Y-70453216D01*
X110241376Y-70617188D01*
X110276000Y-70791259D01*
X110276000Y-70968741D01*
X110241376Y-71142812D01*
X110173456Y-71306784D01*
X110074853Y-71454354D01*
X109949354Y-71579853D01*
X109801784Y-71678456D01*
X109637812Y-71746376D01*
X109488512Y-71776073D01*
X109463742Y-71781000D01*
X109286258Y-71781000D01*
X109261488Y-71776073D01*
X109112188Y-71746376D01*
X108948216Y-71678456D01*
X108800646Y-71579853D01*
X108675147Y-71454354D01*
X108576544Y-71306784D01*
X108508624Y-71142812D01*
X108474000Y-70968741D01*
X108474000Y-70791259D01*
X108508624Y-70617188D01*
X108576544Y-70453216D01*
X108675147Y-70305646D01*
X108800646Y-70180147D01*
X108948216Y-70081544D01*
X109112188Y-70013624D01*
X109261488Y-69983927D01*
X109286258Y-69979000D01*
X109463742Y-69979000D01*
X109488512Y-69983927D01*
G37*
G36*
X137736000Y-71781000D02*
G01*
X135934000Y-71781000D01*
X135934000Y-69979000D01*
X137736000Y-69979000D01*
X137736000Y-71781000D01*
G37*
G36*
X107736000Y-71781000D02*
G01*
X105934000Y-71781000D01*
X105934000Y-69979000D01*
X107736000Y-69979000D01*
X107736000Y-71781000D01*
G37*
G36*
X87108512Y-69983927D02*
G01*
X87257812Y-70013624D01*
X87421784Y-70081544D01*
X87569354Y-70180147D01*
X87694853Y-70305646D01*
X87793456Y-70453216D01*
X87861376Y-70617188D01*
X87896000Y-70791259D01*
X87896000Y-70968741D01*
X87861376Y-71142812D01*
X87793456Y-71306784D01*
X87694853Y-71454354D01*
X87569354Y-71579853D01*
X87421784Y-71678456D01*
X87257812Y-71746376D01*
X87108512Y-71776073D01*
X87083742Y-71781000D01*
X86906258Y-71781000D01*
X86881488Y-71776073D01*
X86732188Y-71746376D01*
X86568216Y-71678456D01*
X86420646Y-71579853D01*
X86295147Y-71454354D01*
X86196544Y-71306784D01*
X86128624Y-71142812D01*
X86094000Y-70968741D01*
X86094000Y-70791259D01*
X86128624Y-70617188D01*
X86196544Y-70453216D01*
X86295147Y-70305646D01*
X86420646Y-70180147D01*
X86568216Y-70081544D01*
X86732188Y-70013624D01*
X86881488Y-69983927D01*
X86906258Y-69979000D01*
X87083742Y-69979000D01*
X87108512Y-69983927D01*
G37*
G36*
X84568512Y-69983927D02*
G01*
X84717812Y-70013624D01*
X84881784Y-70081544D01*
X85029354Y-70180147D01*
X85154853Y-70305646D01*
X85253456Y-70453216D01*
X85321376Y-70617188D01*
X85356000Y-70791259D01*
X85356000Y-70968741D01*
X85321376Y-71142812D01*
X85253456Y-71306784D01*
X85154853Y-71454354D01*
X85029354Y-71579853D01*
X84881784Y-71678456D01*
X84717812Y-71746376D01*
X84568512Y-71776073D01*
X84543742Y-71781000D01*
X84366258Y-71781000D01*
X84341488Y-71776073D01*
X84192188Y-71746376D01*
X84028216Y-71678456D01*
X83880646Y-71579853D01*
X83755147Y-71454354D01*
X83656544Y-71306784D01*
X83588624Y-71142812D01*
X83554000Y-70968741D01*
X83554000Y-70791259D01*
X83588624Y-70617188D01*
X83656544Y-70453216D01*
X83755147Y-70305646D01*
X83880646Y-70180147D01*
X84028216Y-70081544D01*
X84192188Y-70013624D01*
X84341488Y-69983927D01*
X84366258Y-69979000D01*
X84543742Y-69979000D01*
X84568512Y-69983927D01*
G37*
G36*
X82028512Y-69983927D02*
G01*
X82177812Y-70013624D01*
X82341784Y-70081544D01*
X82489354Y-70180147D01*
X82614853Y-70305646D01*
X82713456Y-70453216D01*
X82781376Y-70617188D01*
X82816000Y-70791259D01*
X82816000Y-70968741D01*
X82781376Y-71142812D01*
X82713456Y-71306784D01*
X82614853Y-71454354D01*
X82489354Y-71579853D01*
X82341784Y-71678456D01*
X82177812Y-71746376D01*
X82028512Y-71776073D01*
X82003742Y-71781000D01*
X81826258Y-71781000D01*
X81801488Y-71776073D01*
X81652188Y-71746376D01*
X81488216Y-71678456D01*
X81340646Y-71579853D01*
X81215147Y-71454354D01*
X81116544Y-71306784D01*
X81048624Y-71142812D01*
X81014000Y-70968741D01*
X81014000Y-70791259D01*
X81048624Y-70617188D01*
X81116544Y-70453216D01*
X81215147Y-70305646D01*
X81340646Y-70180147D01*
X81488216Y-70081544D01*
X81652188Y-70013624D01*
X81801488Y-69983927D01*
X81826258Y-69979000D01*
X82003742Y-69979000D01*
X82028512Y-69983927D01*
G37*
G36*
X79488512Y-69983927D02*
G01*
X79637812Y-70013624D01*
X79801784Y-70081544D01*
X79949354Y-70180147D01*
X80074853Y-70305646D01*
X80173456Y-70453216D01*
X80241376Y-70617188D01*
X80276000Y-70791259D01*
X80276000Y-70968741D01*
X80241376Y-71142812D01*
X80173456Y-71306784D01*
X80074853Y-71454354D01*
X79949354Y-71579853D01*
X79801784Y-71678456D01*
X79637812Y-71746376D01*
X79488512Y-71776073D01*
X79463742Y-71781000D01*
X79286258Y-71781000D01*
X79261488Y-71776073D01*
X79112188Y-71746376D01*
X78948216Y-71678456D01*
X78800646Y-71579853D01*
X78675147Y-71454354D01*
X78576544Y-71306784D01*
X78508624Y-71142812D01*
X78474000Y-70968741D01*
X78474000Y-70791259D01*
X78508624Y-70617188D01*
X78576544Y-70453216D01*
X78675147Y-70305646D01*
X78800646Y-70180147D01*
X78948216Y-70081544D01*
X79112188Y-70013624D01*
X79261488Y-69983927D01*
X79286258Y-69979000D01*
X79463742Y-69979000D01*
X79488512Y-69983927D01*
G37*
G36*
X77736000Y-71781000D02*
G01*
X75934000Y-71781000D01*
X75934000Y-69979000D01*
X77736000Y-69979000D01*
X77736000Y-71781000D01*
G37*
G36*
X87108512Y-67443927D02*
G01*
X87257812Y-67473624D01*
X87421784Y-67541544D01*
X87569354Y-67640147D01*
X87694853Y-67765646D01*
X87793456Y-67913216D01*
X87861376Y-68077188D01*
X87896000Y-68251259D01*
X87896000Y-68428741D01*
X87861376Y-68602812D01*
X87793456Y-68766784D01*
X87694853Y-68914354D01*
X87569354Y-69039853D01*
X87421784Y-69138456D01*
X87257812Y-69206376D01*
X87108512Y-69236073D01*
X87083742Y-69241000D01*
X86906258Y-69241000D01*
X86881488Y-69236073D01*
X86732188Y-69206376D01*
X86568216Y-69138456D01*
X86420646Y-69039853D01*
X86295147Y-68914354D01*
X86196544Y-68766784D01*
X86128624Y-68602812D01*
X86094000Y-68428741D01*
X86094000Y-68251259D01*
X86128624Y-68077188D01*
X86196544Y-67913216D01*
X86295147Y-67765646D01*
X86420646Y-67640147D01*
X86568216Y-67541544D01*
X86732188Y-67473624D01*
X86881488Y-67443927D01*
X86906258Y-67439000D01*
X87083742Y-67439000D01*
X87108512Y-67443927D01*
G37*
G36*
X106948512Y-67443927D02*
G01*
X107097812Y-67473624D01*
X107261784Y-67541544D01*
X107409354Y-67640147D01*
X107534853Y-67765646D01*
X107633456Y-67913216D01*
X107701376Y-68077188D01*
X107736000Y-68251259D01*
X107736000Y-68428741D01*
X107701376Y-68602812D01*
X107633456Y-68766784D01*
X107534853Y-68914354D01*
X107409354Y-69039853D01*
X107261784Y-69138456D01*
X107097812Y-69206376D01*
X106948512Y-69236073D01*
X106923742Y-69241000D01*
X106746258Y-69241000D01*
X106721488Y-69236073D01*
X106572188Y-69206376D01*
X106408216Y-69138456D01*
X106260646Y-69039853D01*
X106135147Y-68914354D01*
X106036544Y-68766784D01*
X105968624Y-68602812D01*
X105934000Y-68428741D01*
X105934000Y-68251259D01*
X105968624Y-68077188D01*
X106036544Y-67913216D01*
X106135147Y-67765646D01*
X106260646Y-67640147D01*
X106408216Y-67541544D01*
X106572188Y-67473624D01*
X106721488Y-67443927D01*
X106746258Y-67439000D01*
X106923742Y-67439000D01*
X106948512Y-67443927D01*
G37*
G36*
X136948512Y-67443927D02*
G01*
X137097812Y-67473624D01*
X137261784Y-67541544D01*
X137409354Y-67640147D01*
X137534853Y-67765646D01*
X137633456Y-67913216D01*
X137701376Y-68077188D01*
X137736000Y-68251259D01*
X137736000Y-68428741D01*
X137701376Y-68602812D01*
X137633456Y-68766784D01*
X137534853Y-68914354D01*
X137409354Y-69039853D01*
X137261784Y-69138456D01*
X137097812Y-69206376D01*
X136948512Y-69236073D01*
X136923742Y-69241000D01*
X136746258Y-69241000D01*
X136721488Y-69236073D01*
X136572188Y-69206376D01*
X136408216Y-69138456D01*
X136260646Y-69039853D01*
X136135147Y-68914354D01*
X136036544Y-68766784D01*
X135968624Y-68602812D01*
X135934000Y-68428741D01*
X135934000Y-68251259D01*
X135968624Y-68077188D01*
X136036544Y-67913216D01*
X136135147Y-67765646D01*
X136260646Y-67640147D01*
X136408216Y-67541544D01*
X136572188Y-67473624D01*
X136721488Y-67443927D01*
X136746258Y-67439000D01*
X136923742Y-67439000D01*
X136948512Y-67443927D01*
G37*
G36*
X117108512Y-67443927D02*
G01*
X117257812Y-67473624D01*
X117421784Y-67541544D01*
X117569354Y-67640147D01*
X117694853Y-67765646D01*
X117793456Y-67913216D01*
X117861376Y-68077188D01*
X117896000Y-68251259D01*
X117896000Y-68428741D01*
X117861376Y-68602812D01*
X117793456Y-68766784D01*
X117694853Y-68914354D01*
X117569354Y-69039853D01*
X117421784Y-69138456D01*
X117257812Y-69206376D01*
X117108512Y-69236073D01*
X117083742Y-69241000D01*
X116906258Y-69241000D01*
X116881488Y-69236073D01*
X116732188Y-69206376D01*
X116568216Y-69138456D01*
X116420646Y-69039853D01*
X116295147Y-68914354D01*
X116196544Y-68766784D01*
X116128624Y-68602812D01*
X116094000Y-68428741D01*
X116094000Y-68251259D01*
X116128624Y-68077188D01*
X116196544Y-67913216D01*
X116295147Y-67765646D01*
X116420646Y-67640147D01*
X116568216Y-67541544D01*
X116732188Y-67473624D01*
X116881488Y-67443927D01*
X116906258Y-67439000D01*
X117083742Y-67439000D01*
X117108512Y-67443927D01*
G37*
G36*
X109488512Y-67443927D02*
G01*
X109637812Y-67473624D01*
X109801784Y-67541544D01*
X109949354Y-67640147D01*
X110074853Y-67765646D01*
X110173456Y-67913216D01*
X110241376Y-68077188D01*
X110276000Y-68251259D01*
X110276000Y-68428741D01*
X110241376Y-68602812D01*
X110173456Y-68766784D01*
X110074853Y-68914354D01*
X109949354Y-69039853D01*
X109801784Y-69138456D01*
X109637812Y-69206376D01*
X109488512Y-69236073D01*
X109463742Y-69241000D01*
X109286258Y-69241000D01*
X109261488Y-69236073D01*
X109112188Y-69206376D01*
X108948216Y-69138456D01*
X108800646Y-69039853D01*
X108675147Y-68914354D01*
X108576544Y-68766784D01*
X108508624Y-68602812D01*
X108474000Y-68428741D01*
X108474000Y-68251259D01*
X108508624Y-68077188D01*
X108576544Y-67913216D01*
X108675147Y-67765646D01*
X108800646Y-67640147D01*
X108948216Y-67541544D01*
X109112188Y-67473624D01*
X109261488Y-67443927D01*
X109286258Y-67439000D01*
X109463742Y-67439000D01*
X109488512Y-67443927D01*
G37*
G36*
X112028512Y-67443927D02*
G01*
X112177812Y-67473624D01*
X112341784Y-67541544D01*
X112489354Y-67640147D01*
X112614853Y-67765646D01*
X112713456Y-67913216D01*
X112781376Y-68077188D01*
X112816000Y-68251259D01*
X112816000Y-68428741D01*
X112781376Y-68602812D01*
X112713456Y-68766784D01*
X112614853Y-68914354D01*
X112489354Y-69039853D01*
X112341784Y-69138456D01*
X112177812Y-69206376D01*
X112028512Y-69236073D01*
X112003742Y-69241000D01*
X111826258Y-69241000D01*
X111801488Y-69236073D01*
X111652188Y-69206376D01*
X111488216Y-69138456D01*
X111340646Y-69039853D01*
X111215147Y-68914354D01*
X111116544Y-68766784D01*
X111048624Y-68602812D01*
X111014000Y-68428741D01*
X111014000Y-68251259D01*
X111048624Y-68077188D01*
X111116544Y-67913216D01*
X111215147Y-67765646D01*
X111340646Y-67640147D01*
X111488216Y-67541544D01*
X111652188Y-67473624D01*
X111801488Y-67443927D01*
X111826258Y-67439000D01*
X112003742Y-67439000D01*
X112028512Y-67443927D01*
G37*
G36*
X147108512Y-67443927D02*
G01*
X147257812Y-67473624D01*
X147421784Y-67541544D01*
X147569354Y-67640147D01*
X147694853Y-67765646D01*
X147793456Y-67913216D01*
X147861376Y-68077188D01*
X147896000Y-68251259D01*
X147896000Y-68428741D01*
X147861376Y-68602812D01*
X147793456Y-68766784D01*
X147694853Y-68914354D01*
X147569354Y-69039853D01*
X147421784Y-69138456D01*
X147257812Y-69206376D01*
X147108512Y-69236073D01*
X147083742Y-69241000D01*
X146906258Y-69241000D01*
X146881488Y-69236073D01*
X146732188Y-69206376D01*
X146568216Y-69138456D01*
X146420646Y-69039853D01*
X146295147Y-68914354D01*
X146196544Y-68766784D01*
X146128624Y-68602812D01*
X146094000Y-68428741D01*
X146094000Y-68251259D01*
X146128624Y-68077188D01*
X146196544Y-67913216D01*
X146295147Y-67765646D01*
X146420646Y-67640147D01*
X146568216Y-67541544D01*
X146732188Y-67473624D01*
X146881488Y-67443927D01*
X146906258Y-67439000D01*
X147083742Y-67439000D01*
X147108512Y-67443927D01*
G37*
G36*
X82028512Y-67443927D02*
G01*
X82177812Y-67473624D01*
X82341784Y-67541544D01*
X82489354Y-67640147D01*
X82614853Y-67765646D01*
X82713456Y-67913216D01*
X82781376Y-68077188D01*
X82816000Y-68251259D01*
X82816000Y-68428741D01*
X82781376Y-68602812D01*
X82713456Y-68766784D01*
X82614853Y-68914354D01*
X82489354Y-69039853D01*
X82341784Y-69138456D01*
X82177812Y-69206376D01*
X82028512Y-69236073D01*
X82003742Y-69241000D01*
X81826258Y-69241000D01*
X81801488Y-69236073D01*
X81652188Y-69206376D01*
X81488216Y-69138456D01*
X81340646Y-69039853D01*
X81215147Y-68914354D01*
X81116544Y-68766784D01*
X81048624Y-68602812D01*
X81014000Y-68428741D01*
X81014000Y-68251259D01*
X81048624Y-68077188D01*
X81116544Y-67913216D01*
X81215147Y-67765646D01*
X81340646Y-67640147D01*
X81488216Y-67541544D01*
X81652188Y-67473624D01*
X81801488Y-67443927D01*
X81826258Y-67439000D01*
X82003742Y-67439000D01*
X82028512Y-67443927D01*
G37*
G36*
X139488512Y-67443927D02*
G01*
X139637812Y-67473624D01*
X139801784Y-67541544D01*
X139949354Y-67640147D01*
X140074853Y-67765646D01*
X140173456Y-67913216D01*
X140241376Y-68077188D01*
X140276000Y-68251259D01*
X140276000Y-68428741D01*
X140241376Y-68602812D01*
X140173456Y-68766784D01*
X140074853Y-68914354D01*
X139949354Y-69039853D01*
X139801784Y-69138456D01*
X139637812Y-69206376D01*
X139488512Y-69236073D01*
X139463742Y-69241000D01*
X139286258Y-69241000D01*
X139261488Y-69236073D01*
X139112188Y-69206376D01*
X138948216Y-69138456D01*
X138800646Y-69039853D01*
X138675147Y-68914354D01*
X138576544Y-68766784D01*
X138508624Y-68602812D01*
X138474000Y-68428741D01*
X138474000Y-68251259D01*
X138508624Y-68077188D01*
X138576544Y-67913216D01*
X138675147Y-67765646D01*
X138800646Y-67640147D01*
X138948216Y-67541544D01*
X139112188Y-67473624D01*
X139261488Y-67443927D01*
X139286258Y-67439000D01*
X139463742Y-67439000D01*
X139488512Y-67443927D01*
G37*
G36*
X79488512Y-67443927D02*
G01*
X79637812Y-67473624D01*
X79801784Y-67541544D01*
X79949354Y-67640147D01*
X80074853Y-67765646D01*
X80173456Y-67913216D01*
X80241376Y-68077188D01*
X80276000Y-68251259D01*
X80276000Y-68428741D01*
X80241376Y-68602812D01*
X80173456Y-68766784D01*
X80074853Y-68914354D01*
X79949354Y-69039853D01*
X79801784Y-69138456D01*
X79637812Y-69206376D01*
X79488512Y-69236073D01*
X79463742Y-69241000D01*
X79286258Y-69241000D01*
X79261488Y-69236073D01*
X79112188Y-69206376D01*
X78948216Y-69138456D01*
X78800646Y-69039853D01*
X78675147Y-68914354D01*
X78576544Y-68766784D01*
X78508624Y-68602812D01*
X78474000Y-68428741D01*
X78474000Y-68251259D01*
X78508624Y-68077188D01*
X78576544Y-67913216D01*
X78675147Y-67765646D01*
X78800646Y-67640147D01*
X78948216Y-67541544D01*
X79112188Y-67473624D01*
X79261488Y-67443927D01*
X79286258Y-67439000D01*
X79463742Y-67439000D01*
X79488512Y-67443927D01*
G37*
G36*
X76948512Y-67443927D02*
G01*
X77097812Y-67473624D01*
X77261784Y-67541544D01*
X77409354Y-67640147D01*
X77534853Y-67765646D01*
X77633456Y-67913216D01*
X77701376Y-68077188D01*
X77736000Y-68251259D01*
X77736000Y-68428741D01*
X77701376Y-68602812D01*
X77633456Y-68766784D01*
X77534853Y-68914354D01*
X77409354Y-69039853D01*
X77261784Y-69138456D01*
X77097812Y-69206376D01*
X76948512Y-69236073D01*
X76923742Y-69241000D01*
X76746258Y-69241000D01*
X76721488Y-69236073D01*
X76572188Y-69206376D01*
X76408216Y-69138456D01*
X76260646Y-69039853D01*
X76135147Y-68914354D01*
X76036544Y-68766784D01*
X75968624Y-68602812D01*
X75934000Y-68428741D01*
X75934000Y-68251259D01*
X75968624Y-68077188D01*
X76036544Y-67913216D01*
X76135147Y-67765646D01*
X76260646Y-67640147D01*
X76408216Y-67541544D01*
X76572188Y-67473624D01*
X76721488Y-67443927D01*
X76746258Y-67439000D01*
X76923742Y-67439000D01*
X76948512Y-67443927D01*
G37*
G36*
X142028512Y-67443927D02*
G01*
X142177812Y-67473624D01*
X142341784Y-67541544D01*
X142489354Y-67640147D01*
X142614853Y-67765646D01*
X142713456Y-67913216D01*
X142781376Y-68077188D01*
X142816000Y-68251259D01*
X142816000Y-68428741D01*
X142781376Y-68602812D01*
X142713456Y-68766784D01*
X142614853Y-68914354D01*
X142489354Y-69039853D01*
X142341784Y-69138456D01*
X142177812Y-69206376D01*
X142028512Y-69236073D01*
X142003742Y-69241000D01*
X141826258Y-69241000D01*
X141801488Y-69236073D01*
X141652188Y-69206376D01*
X141488216Y-69138456D01*
X141340646Y-69039853D01*
X141215147Y-68914354D01*
X141116544Y-68766784D01*
X141048624Y-68602812D01*
X141014000Y-68428741D01*
X141014000Y-68251259D01*
X141048624Y-68077188D01*
X141116544Y-67913216D01*
X141215147Y-67765646D01*
X141340646Y-67640147D01*
X141488216Y-67541544D01*
X141652188Y-67473624D01*
X141801488Y-67443927D01*
X141826258Y-67439000D01*
X142003742Y-67439000D01*
X142028512Y-67443927D01*
G37*
G36*
X144568512Y-67443927D02*
G01*
X144717812Y-67473624D01*
X144881784Y-67541544D01*
X145029354Y-67640147D01*
X145154853Y-67765646D01*
X145253456Y-67913216D01*
X145321376Y-68077188D01*
X145356000Y-68251259D01*
X145356000Y-68428741D01*
X145321376Y-68602812D01*
X145253456Y-68766784D01*
X145154853Y-68914354D01*
X145029354Y-69039853D01*
X144881784Y-69138456D01*
X144717812Y-69206376D01*
X144568512Y-69236073D01*
X144543742Y-69241000D01*
X144366258Y-69241000D01*
X144341488Y-69236073D01*
X144192188Y-69206376D01*
X144028216Y-69138456D01*
X143880646Y-69039853D01*
X143755147Y-68914354D01*
X143656544Y-68766784D01*
X143588624Y-68602812D01*
X143554000Y-68428741D01*
X143554000Y-68251259D01*
X143588624Y-68077188D01*
X143656544Y-67913216D01*
X143755147Y-67765646D01*
X143880646Y-67640147D01*
X144028216Y-67541544D01*
X144192188Y-67473624D01*
X144341488Y-67443927D01*
X144366258Y-67439000D01*
X144543742Y-67439000D01*
X144568512Y-67443927D01*
G37*
G36*
X84568512Y-67443927D02*
G01*
X84717812Y-67473624D01*
X84881784Y-67541544D01*
X85029354Y-67640147D01*
X85154853Y-67765646D01*
X85253456Y-67913216D01*
X85321376Y-68077188D01*
X85356000Y-68251259D01*
X85356000Y-68428741D01*
X85321376Y-68602812D01*
X85253456Y-68766784D01*
X85154853Y-68914354D01*
X85029354Y-69039853D01*
X84881784Y-69138456D01*
X84717812Y-69206376D01*
X84568512Y-69236073D01*
X84543742Y-69241000D01*
X84366258Y-69241000D01*
X84341488Y-69236073D01*
X84192188Y-69206376D01*
X84028216Y-69138456D01*
X83880646Y-69039853D01*
X83755147Y-68914354D01*
X83656544Y-68766784D01*
X83588624Y-68602812D01*
X83554000Y-68428741D01*
X83554000Y-68251259D01*
X83588624Y-68077188D01*
X83656544Y-67913216D01*
X83755147Y-67765646D01*
X83880646Y-67640147D01*
X84028216Y-67541544D01*
X84192188Y-67473624D01*
X84341488Y-67443927D01*
X84366258Y-67439000D01*
X84543742Y-67439000D01*
X84568512Y-67443927D01*
G37*
G36*
X114568512Y-67443927D02*
G01*
X114717812Y-67473624D01*
X114881784Y-67541544D01*
X115029354Y-67640147D01*
X115154853Y-67765646D01*
X115253456Y-67913216D01*
X115321376Y-68077188D01*
X115356000Y-68251259D01*
X115356000Y-68428741D01*
X115321376Y-68602812D01*
X115253456Y-68766784D01*
X115154853Y-68914354D01*
X115029354Y-69039853D01*
X114881784Y-69138456D01*
X114717812Y-69206376D01*
X114568512Y-69236073D01*
X114543742Y-69241000D01*
X114366258Y-69241000D01*
X114341488Y-69236073D01*
X114192188Y-69206376D01*
X114028216Y-69138456D01*
X113880646Y-69039853D01*
X113755147Y-68914354D01*
X113656544Y-68766784D01*
X113588624Y-68602812D01*
X113554000Y-68428741D01*
X113554000Y-68251259D01*
X113588624Y-68077188D01*
X113656544Y-67913216D01*
X113755147Y-67765646D01*
X113880646Y-67640147D01*
X114028216Y-67541544D01*
X114192188Y-67473624D01*
X114341488Y-67443927D01*
X114366258Y-67439000D01*
X114543742Y-67439000D01*
X114568512Y-67443927D01*
G37*
G36*
X156306000Y-68911000D02*
G01*
X155464000Y-68911000D01*
X155464000Y-66409000D01*
X156306000Y-66409000D01*
X156306000Y-68911000D01*
G37*
G36*
X96306000Y-68911000D02*
G01*
X95464000Y-68911000D01*
X95464000Y-66409000D01*
X96306000Y-66409000D01*
X96306000Y-68911000D01*
G37*
G36*
X95036000Y-68911000D02*
G01*
X94194000Y-68911000D01*
X94194000Y-66409000D01*
X95036000Y-66409000D01*
X95036000Y-68911000D01*
G37*
G36*
X97576000Y-68911000D02*
G01*
X96734000Y-68911000D01*
X96734000Y-66409000D01*
X97576000Y-66409000D01*
X97576000Y-68911000D01*
G37*
G36*
X160116000Y-68911000D02*
G01*
X159274000Y-68911000D01*
X159274000Y-66409000D01*
X160116000Y-66409000D01*
X160116000Y-68911000D01*
G37*
G36*
X158846000Y-68911000D02*
G01*
X158004000Y-68911000D01*
X158004000Y-66409000D01*
X158846000Y-66409000D01*
X158846000Y-68911000D01*
G37*
G36*
X157576000Y-68911000D02*
G01*
X156734000Y-68911000D01*
X156734000Y-66409000D01*
X157576000Y-66409000D01*
X157576000Y-68911000D01*
G37*
G36*
X155036000Y-68911000D02*
G01*
X154194000Y-68911000D01*
X154194000Y-66409000D01*
X155036000Y-66409000D01*
X155036000Y-68911000D01*
G37*
G36*
X130116000Y-68911000D02*
G01*
X129274000Y-68911000D01*
X129274000Y-66409000D01*
X130116000Y-66409000D01*
X130116000Y-68911000D01*
G37*
G36*
X128846000Y-68911000D02*
G01*
X128004000Y-68911000D01*
X128004000Y-66409000D01*
X128846000Y-66409000D01*
X128846000Y-68911000D01*
G37*
G36*
X127576000Y-68911000D02*
G01*
X126734000Y-68911000D01*
X126734000Y-66409000D01*
X127576000Y-66409000D01*
X127576000Y-68911000D01*
G37*
G36*
X126306000Y-68911000D02*
G01*
X125464000Y-68911000D01*
X125464000Y-66409000D01*
X126306000Y-66409000D01*
X126306000Y-68911000D01*
G37*
G36*
X125036000Y-68911000D02*
G01*
X124194000Y-68911000D01*
X124194000Y-66409000D01*
X125036000Y-66409000D01*
X125036000Y-68911000D01*
G37*
G36*
X100116000Y-68911000D02*
G01*
X99274000Y-68911000D01*
X99274000Y-66409000D01*
X100116000Y-66409000D01*
X100116000Y-68911000D01*
G37*
G36*
X98846000Y-68911000D02*
G01*
X98004000Y-68911000D01*
X98004000Y-66409000D01*
X98846000Y-66409000D01*
X98846000Y-68911000D01*
G37*
G36*
X125036000Y-57811000D02*
G01*
X124194000Y-57811000D01*
X124194000Y-55309000D01*
X125036000Y-55309000D01*
X125036000Y-57811000D01*
G37*
G36*
X100116000Y-57811000D02*
G01*
X99274000Y-57811000D01*
X99274000Y-55309000D01*
X100116000Y-55309000D01*
X100116000Y-57811000D01*
G37*
G36*
X95036000Y-57811000D02*
G01*
X94194000Y-57811000D01*
X94194000Y-55309000D01*
X95036000Y-55309000D01*
X95036000Y-57811000D01*
G37*
G36*
X96306000Y-57811000D02*
G01*
X95464000Y-57811000D01*
X95464000Y-55309000D01*
X96306000Y-55309000D01*
X96306000Y-57811000D01*
G37*
G36*
X97576000Y-57811000D02*
G01*
X96734000Y-57811000D01*
X96734000Y-55309000D01*
X97576000Y-55309000D01*
X97576000Y-57811000D01*
G37*
G36*
X98846000Y-57811000D02*
G01*
X98004000Y-57811000D01*
X98004000Y-55309000D01*
X98846000Y-55309000D01*
X98846000Y-57811000D01*
G37*
G36*
X160116000Y-57811000D02*
G01*
X159274000Y-57811000D01*
X159274000Y-55309000D01*
X160116000Y-55309000D01*
X160116000Y-57811000D01*
G37*
G36*
X126306000Y-57811000D02*
G01*
X125464000Y-57811000D01*
X125464000Y-55309000D01*
X126306000Y-55309000D01*
X126306000Y-57811000D01*
G37*
G36*
X158846000Y-57811000D02*
G01*
X158004000Y-57811000D01*
X158004000Y-55309000D01*
X158846000Y-55309000D01*
X158846000Y-57811000D01*
G37*
G36*
X127576000Y-57811000D02*
G01*
X126734000Y-57811000D01*
X126734000Y-55309000D01*
X127576000Y-55309000D01*
X127576000Y-57811000D01*
G37*
G36*
X157576000Y-57811000D02*
G01*
X156734000Y-57811000D01*
X156734000Y-55309000D01*
X157576000Y-55309000D01*
X157576000Y-57811000D01*
G37*
G36*
X128846000Y-57811000D02*
G01*
X128004000Y-57811000D01*
X128004000Y-55309000D01*
X128846000Y-55309000D01*
X128846000Y-57811000D01*
G37*
G36*
X156306000Y-57811000D02*
G01*
X155464000Y-57811000D01*
X155464000Y-55309000D01*
X156306000Y-55309000D01*
X156306000Y-57811000D01*
G37*
G36*
X130116000Y-57811000D02*
G01*
X129274000Y-57811000D01*
X129274000Y-55309000D01*
X130116000Y-55309000D01*
X130116000Y-57811000D01*
G37*
G36*
X155036000Y-57811000D02*
G01*
X154194000Y-57811000D01*
X154194000Y-55309000D01*
X155036000Y-55309000D01*
X155036000Y-57811000D01*
G37*
G36*
X114568512Y-54983927D02*
G01*
X114717812Y-55013624D01*
X114881784Y-55081544D01*
X115029354Y-55180147D01*
X115154853Y-55305646D01*
X115253456Y-55453216D01*
X115321376Y-55617188D01*
X115356000Y-55791259D01*
X115356000Y-55968741D01*
X115321376Y-56142812D01*
X115253456Y-56306784D01*
X115154853Y-56454354D01*
X115029354Y-56579853D01*
X114881784Y-56678456D01*
X114717812Y-56746376D01*
X114568512Y-56776073D01*
X114543742Y-56781000D01*
X114366258Y-56781000D01*
X114341488Y-56776073D01*
X114192188Y-56746376D01*
X114028216Y-56678456D01*
X113880646Y-56579853D01*
X113755147Y-56454354D01*
X113656544Y-56306784D01*
X113588624Y-56142812D01*
X113554000Y-55968741D01*
X113554000Y-55791259D01*
X113588624Y-55617188D01*
X113656544Y-55453216D01*
X113755147Y-55305646D01*
X113880646Y-55180147D01*
X114028216Y-55081544D01*
X114192188Y-55013624D01*
X114341488Y-54983927D01*
X114366258Y-54979000D01*
X114543742Y-54979000D01*
X114568512Y-54983927D01*
G37*
G36*
X112028512Y-54983927D02*
G01*
X112177812Y-55013624D01*
X112341784Y-55081544D01*
X112489354Y-55180147D01*
X112614853Y-55305646D01*
X112713456Y-55453216D01*
X112781376Y-55617188D01*
X112816000Y-55791259D01*
X112816000Y-55968741D01*
X112781376Y-56142812D01*
X112713456Y-56306784D01*
X112614853Y-56454354D01*
X112489354Y-56579853D01*
X112341784Y-56678456D01*
X112177812Y-56746376D01*
X112028512Y-56776073D01*
X112003742Y-56781000D01*
X111826258Y-56781000D01*
X111801488Y-56776073D01*
X111652188Y-56746376D01*
X111488216Y-56678456D01*
X111340646Y-56579853D01*
X111215147Y-56454354D01*
X111116544Y-56306784D01*
X111048624Y-56142812D01*
X111014000Y-55968741D01*
X111014000Y-55791259D01*
X111048624Y-55617188D01*
X111116544Y-55453216D01*
X111215147Y-55305646D01*
X111340646Y-55180147D01*
X111488216Y-55081544D01*
X111652188Y-55013624D01*
X111801488Y-54983927D01*
X111826258Y-54979000D01*
X112003742Y-54979000D01*
X112028512Y-54983927D01*
G37*
G36*
X109488512Y-54983927D02*
G01*
X109637812Y-55013624D01*
X109801784Y-55081544D01*
X109949354Y-55180147D01*
X110074853Y-55305646D01*
X110173456Y-55453216D01*
X110241376Y-55617188D01*
X110276000Y-55791259D01*
X110276000Y-55968741D01*
X110241376Y-56142812D01*
X110173456Y-56306784D01*
X110074853Y-56454354D01*
X109949354Y-56579853D01*
X109801784Y-56678456D01*
X109637812Y-56746376D01*
X109488512Y-56776073D01*
X109463742Y-56781000D01*
X109286258Y-56781000D01*
X109261488Y-56776073D01*
X109112188Y-56746376D01*
X108948216Y-56678456D01*
X108800646Y-56579853D01*
X108675147Y-56454354D01*
X108576544Y-56306784D01*
X108508624Y-56142812D01*
X108474000Y-55968741D01*
X108474000Y-55791259D01*
X108508624Y-55617188D01*
X108576544Y-55453216D01*
X108675147Y-55305646D01*
X108800646Y-55180147D01*
X108948216Y-55081544D01*
X109112188Y-55013624D01*
X109261488Y-54983927D01*
X109286258Y-54979000D01*
X109463742Y-54979000D01*
X109488512Y-54983927D01*
G37*
G36*
X107736000Y-56781000D02*
G01*
X105934000Y-56781000D01*
X105934000Y-54979000D01*
X107736000Y-54979000D01*
X107736000Y-56781000D01*
G37*
G36*
X84568512Y-54983927D02*
G01*
X84717812Y-55013624D01*
X84881784Y-55081544D01*
X85029354Y-55180147D01*
X85154853Y-55305646D01*
X85253456Y-55453216D01*
X85321376Y-55617188D01*
X85356000Y-55791259D01*
X85356000Y-55968741D01*
X85321376Y-56142812D01*
X85253456Y-56306784D01*
X85154853Y-56454354D01*
X85029354Y-56579853D01*
X84881784Y-56678456D01*
X84717812Y-56746376D01*
X84568512Y-56776073D01*
X84543742Y-56781000D01*
X84366258Y-56781000D01*
X84341488Y-56776073D01*
X84192188Y-56746376D01*
X84028216Y-56678456D01*
X83880646Y-56579853D01*
X83755147Y-56454354D01*
X83656544Y-56306784D01*
X83588624Y-56142812D01*
X83554000Y-55968741D01*
X83554000Y-55791259D01*
X83588624Y-55617188D01*
X83656544Y-55453216D01*
X83755147Y-55305646D01*
X83880646Y-55180147D01*
X84028216Y-55081544D01*
X84192188Y-55013624D01*
X84341488Y-54983927D01*
X84366258Y-54979000D01*
X84543742Y-54979000D01*
X84568512Y-54983927D01*
G37*
G36*
X147108512Y-54983927D02*
G01*
X147257812Y-55013624D01*
X147421784Y-55081544D01*
X147569354Y-55180147D01*
X147694853Y-55305646D01*
X147793456Y-55453216D01*
X147861376Y-55617188D01*
X147896000Y-55791259D01*
X147896000Y-55968741D01*
X147861376Y-56142812D01*
X147793456Y-56306784D01*
X147694853Y-56454354D01*
X147569354Y-56579853D01*
X147421784Y-56678456D01*
X147257812Y-56746376D01*
X147108512Y-56776073D01*
X147083742Y-56781000D01*
X146906258Y-56781000D01*
X146881488Y-56776073D01*
X146732188Y-56746376D01*
X146568216Y-56678456D01*
X146420646Y-56579853D01*
X146295147Y-56454354D01*
X146196544Y-56306784D01*
X146128624Y-56142812D01*
X146094000Y-55968741D01*
X146094000Y-55791259D01*
X146128624Y-55617188D01*
X146196544Y-55453216D01*
X146295147Y-55305646D01*
X146420646Y-55180147D01*
X146568216Y-55081544D01*
X146732188Y-55013624D01*
X146881488Y-54983927D01*
X146906258Y-54979000D01*
X147083742Y-54979000D01*
X147108512Y-54983927D01*
G37*
G36*
X144568512Y-54983927D02*
G01*
X144717812Y-55013624D01*
X144881784Y-55081544D01*
X145029354Y-55180147D01*
X145154853Y-55305646D01*
X145253456Y-55453216D01*
X145321376Y-55617188D01*
X145356000Y-55791259D01*
X145356000Y-55968741D01*
X145321376Y-56142812D01*
X145253456Y-56306784D01*
X145154853Y-56454354D01*
X145029354Y-56579853D01*
X144881784Y-56678456D01*
X144717812Y-56746376D01*
X144568512Y-56776073D01*
X144543742Y-56781000D01*
X144366258Y-56781000D01*
X144341488Y-56776073D01*
X144192188Y-56746376D01*
X144028216Y-56678456D01*
X143880646Y-56579853D01*
X143755147Y-56454354D01*
X143656544Y-56306784D01*
X143588624Y-56142812D01*
X143554000Y-55968741D01*
X143554000Y-55791259D01*
X143588624Y-55617188D01*
X143656544Y-55453216D01*
X143755147Y-55305646D01*
X143880646Y-55180147D01*
X144028216Y-55081544D01*
X144192188Y-55013624D01*
X144341488Y-54983927D01*
X144366258Y-54979000D01*
X144543742Y-54979000D01*
X144568512Y-54983927D01*
G37*
G36*
X142028512Y-54983927D02*
G01*
X142177812Y-55013624D01*
X142341784Y-55081544D01*
X142489354Y-55180147D01*
X142614853Y-55305646D01*
X142713456Y-55453216D01*
X142781376Y-55617188D01*
X142816000Y-55791259D01*
X142816000Y-55968741D01*
X142781376Y-56142812D01*
X142713456Y-56306784D01*
X142614853Y-56454354D01*
X142489354Y-56579853D01*
X142341784Y-56678456D01*
X142177812Y-56746376D01*
X142028512Y-56776073D01*
X142003742Y-56781000D01*
X141826258Y-56781000D01*
X141801488Y-56776073D01*
X141652188Y-56746376D01*
X141488216Y-56678456D01*
X141340646Y-56579853D01*
X141215147Y-56454354D01*
X141116544Y-56306784D01*
X141048624Y-56142812D01*
X141014000Y-55968741D01*
X141014000Y-55791259D01*
X141048624Y-55617188D01*
X141116544Y-55453216D01*
X141215147Y-55305646D01*
X141340646Y-55180147D01*
X141488216Y-55081544D01*
X141652188Y-55013624D01*
X141801488Y-54983927D01*
X141826258Y-54979000D01*
X142003742Y-54979000D01*
X142028512Y-54983927D01*
G37*
G36*
X137736000Y-56781000D02*
G01*
X135934000Y-56781000D01*
X135934000Y-54979000D01*
X137736000Y-54979000D01*
X137736000Y-56781000D01*
G37*
G36*
X87108512Y-54983927D02*
G01*
X87257812Y-55013624D01*
X87421784Y-55081544D01*
X87569354Y-55180147D01*
X87694853Y-55305646D01*
X87793456Y-55453216D01*
X87861376Y-55617188D01*
X87896000Y-55791259D01*
X87896000Y-55968741D01*
X87861376Y-56142812D01*
X87793456Y-56306784D01*
X87694853Y-56454354D01*
X87569354Y-56579853D01*
X87421784Y-56678456D01*
X87257812Y-56746376D01*
X87108512Y-56776073D01*
X87083742Y-56781000D01*
X86906258Y-56781000D01*
X86881488Y-56776073D01*
X86732188Y-56746376D01*
X86568216Y-56678456D01*
X86420646Y-56579853D01*
X86295147Y-56454354D01*
X86196544Y-56306784D01*
X86128624Y-56142812D01*
X86094000Y-55968741D01*
X86094000Y-55791259D01*
X86128624Y-55617188D01*
X86196544Y-55453216D01*
X86295147Y-55305646D01*
X86420646Y-55180147D01*
X86568216Y-55081544D01*
X86732188Y-55013624D01*
X86881488Y-54983927D01*
X86906258Y-54979000D01*
X87083742Y-54979000D01*
X87108512Y-54983927D01*
G37*
G36*
X117108512Y-54983927D02*
G01*
X117257812Y-55013624D01*
X117421784Y-55081544D01*
X117569354Y-55180147D01*
X117694853Y-55305646D01*
X117793456Y-55453216D01*
X117861376Y-55617188D01*
X117896000Y-55791259D01*
X117896000Y-55968741D01*
X117861376Y-56142812D01*
X117793456Y-56306784D01*
X117694853Y-56454354D01*
X117569354Y-56579853D01*
X117421784Y-56678456D01*
X117257812Y-56746376D01*
X117108512Y-56776073D01*
X117083742Y-56781000D01*
X116906258Y-56781000D01*
X116881488Y-56776073D01*
X116732188Y-56746376D01*
X116568216Y-56678456D01*
X116420646Y-56579853D01*
X116295147Y-56454354D01*
X116196544Y-56306784D01*
X116128624Y-56142812D01*
X116094000Y-55968741D01*
X116094000Y-55791259D01*
X116128624Y-55617188D01*
X116196544Y-55453216D01*
X116295147Y-55305646D01*
X116420646Y-55180147D01*
X116568216Y-55081544D01*
X116732188Y-55013624D01*
X116881488Y-54983927D01*
X116906258Y-54979000D01*
X117083742Y-54979000D01*
X117108512Y-54983927D01*
G37*
G36*
X79488512Y-54983927D02*
G01*
X79637812Y-55013624D01*
X79801784Y-55081544D01*
X79949354Y-55180147D01*
X80074853Y-55305646D01*
X80173456Y-55453216D01*
X80241376Y-55617188D01*
X80276000Y-55791259D01*
X80276000Y-55968741D01*
X80241376Y-56142812D01*
X80173456Y-56306784D01*
X80074853Y-56454354D01*
X79949354Y-56579853D01*
X79801784Y-56678456D01*
X79637812Y-56746376D01*
X79488512Y-56776073D01*
X79463742Y-56781000D01*
X79286258Y-56781000D01*
X79261488Y-56776073D01*
X79112188Y-56746376D01*
X78948216Y-56678456D01*
X78800646Y-56579853D01*
X78675147Y-56454354D01*
X78576544Y-56306784D01*
X78508624Y-56142812D01*
X78474000Y-55968741D01*
X78474000Y-55791259D01*
X78508624Y-55617188D01*
X78576544Y-55453216D01*
X78675147Y-55305646D01*
X78800646Y-55180147D01*
X78948216Y-55081544D01*
X79112188Y-55013624D01*
X79261488Y-54983927D01*
X79286258Y-54979000D01*
X79463742Y-54979000D01*
X79488512Y-54983927D01*
G37*
G36*
X77736000Y-56781000D02*
G01*
X75934000Y-56781000D01*
X75934000Y-54979000D01*
X77736000Y-54979000D01*
X77736000Y-56781000D01*
G37*
G36*
X82028512Y-54983927D02*
G01*
X82177812Y-55013624D01*
X82341784Y-55081544D01*
X82489354Y-55180147D01*
X82614853Y-55305646D01*
X82713456Y-55453216D01*
X82781376Y-55617188D01*
X82816000Y-55791259D01*
X82816000Y-55968741D01*
X82781376Y-56142812D01*
X82713456Y-56306784D01*
X82614853Y-56454354D01*
X82489354Y-56579853D01*
X82341784Y-56678456D01*
X82177812Y-56746376D01*
X82028512Y-56776073D01*
X82003742Y-56781000D01*
X81826258Y-56781000D01*
X81801488Y-56776073D01*
X81652188Y-56746376D01*
X81488216Y-56678456D01*
X81340646Y-56579853D01*
X81215147Y-56454354D01*
X81116544Y-56306784D01*
X81048624Y-56142812D01*
X81014000Y-55968741D01*
X81014000Y-55791259D01*
X81048624Y-55617188D01*
X81116544Y-55453216D01*
X81215147Y-55305646D01*
X81340646Y-55180147D01*
X81488216Y-55081544D01*
X81652188Y-55013624D01*
X81801488Y-54983927D01*
X81826258Y-54979000D01*
X82003742Y-54979000D01*
X82028512Y-54983927D01*
G37*
G36*
X139488512Y-54983927D02*
G01*
X139637812Y-55013624D01*
X139801784Y-55081544D01*
X139949354Y-55180147D01*
X140074853Y-55305646D01*
X140173456Y-55453216D01*
X140241376Y-55617188D01*
X140276000Y-55791259D01*
X140276000Y-55968741D01*
X140241376Y-56142812D01*
X140173456Y-56306784D01*
X140074853Y-56454354D01*
X139949354Y-56579853D01*
X139801784Y-56678456D01*
X139637812Y-56746376D01*
X139488512Y-56776073D01*
X139463742Y-56781000D01*
X139286258Y-56781000D01*
X139261488Y-56776073D01*
X139112188Y-56746376D01*
X138948216Y-56678456D01*
X138800646Y-56579853D01*
X138675147Y-56454354D01*
X138576544Y-56306784D01*
X138508624Y-56142812D01*
X138474000Y-55968741D01*
X138474000Y-55791259D01*
X138508624Y-55617188D01*
X138576544Y-55453216D01*
X138675147Y-55305646D01*
X138800646Y-55180147D01*
X138948216Y-55081544D01*
X139112188Y-55013624D01*
X139261488Y-54983927D01*
X139286258Y-54979000D01*
X139463742Y-54979000D01*
X139488512Y-54983927D01*
G37*
G36*
X114568512Y-52443927D02*
G01*
X114717812Y-52473624D01*
X114881784Y-52541544D01*
X115029354Y-52640147D01*
X115154853Y-52765646D01*
X115253456Y-52913216D01*
X115321376Y-53077188D01*
X115356000Y-53251259D01*
X115356000Y-53428741D01*
X115321376Y-53602812D01*
X115253456Y-53766784D01*
X115154853Y-53914354D01*
X115029354Y-54039853D01*
X114881784Y-54138456D01*
X114717812Y-54206376D01*
X114568512Y-54236073D01*
X114543742Y-54241000D01*
X114366258Y-54241000D01*
X114341488Y-54236073D01*
X114192188Y-54206376D01*
X114028216Y-54138456D01*
X113880646Y-54039853D01*
X113755147Y-53914354D01*
X113656544Y-53766784D01*
X113588624Y-53602812D01*
X113554000Y-53428741D01*
X113554000Y-53251259D01*
X113588624Y-53077188D01*
X113656544Y-52913216D01*
X113755147Y-52765646D01*
X113880646Y-52640147D01*
X114028216Y-52541544D01*
X114192188Y-52473624D01*
X114341488Y-52443927D01*
X114366258Y-52439000D01*
X114543742Y-52439000D01*
X114568512Y-52443927D01*
G37*
G36*
X84568512Y-52443927D02*
G01*
X84717812Y-52473624D01*
X84881784Y-52541544D01*
X85029354Y-52640147D01*
X85154853Y-52765646D01*
X85253456Y-52913216D01*
X85321376Y-53077188D01*
X85356000Y-53251259D01*
X85356000Y-53428741D01*
X85321376Y-53602812D01*
X85253456Y-53766784D01*
X85154853Y-53914354D01*
X85029354Y-54039853D01*
X84881784Y-54138456D01*
X84717812Y-54206376D01*
X84568512Y-54236073D01*
X84543742Y-54241000D01*
X84366258Y-54241000D01*
X84341488Y-54236073D01*
X84192188Y-54206376D01*
X84028216Y-54138456D01*
X83880646Y-54039853D01*
X83755147Y-53914354D01*
X83656544Y-53766784D01*
X83588624Y-53602812D01*
X83554000Y-53428741D01*
X83554000Y-53251259D01*
X83588624Y-53077188D01*
X83656544Y-52913216D01*
X83755147Y-52765646D01*
X83880646Y-52640147D01*
X84028216Y-52541544D01*
X84192188Y-52473624D01*
X84341488Y-52443927D01*
X84366258Y-52439000D01*
X84543742Y-52439000D01*
X84568512Y-52443927D01*
G37*
G36*
X82028512Y-52443927D02*
G01*
X82177812Y-52473624D01*
X82341784Y-52541544D01*
X82489354Y-52640147D01*
X82614853Y-52765646D01*
X82713456Y-52913216D01*
X82781376Y-53077188D01*
X82816000Y-53251259D01*
X82816000Y-53428741D01*
X82781376Y-53602812D01*
X82713456Y-53766784D01*
X82614853Y-53914354D01*
X82489354Y-54039853D01*
X82341784Y-54138456D01*
X82177812Y-54206376D01*
X82028512Y-54236073D01*
X82003742Y-54241000D01*
X81826258Y-54241000D01*
X81801488Y-54236073D01*
X81652188Y-54206376D01*
X81488216Y-54138456D01*
X81340646Y-54039853D01*
X81215147Y-53914354D01*
X81116544Y-53766784D01*
X81048624Y-53602812D01*
X81014000Y-53428741D01*
X81014000Y-53251259D01*
X81048624Y-53077188D01*
X81116544Y-52913216D01*
X81215147Y-52765646D01*
X81340646Y-52640147D01*
X81488216Y-52541544D01*
X81652188Y-52473624D01*
X81801488Y-52443927D01*
X81826258Y-52439000D01*
X82003742Y-52439000D01*
X82028512Y-52443927D01*
G37*
G36*
X117108512Y-52443927D02*
G01*
X117257812Y-52473624D01*
X117421784Y-52541544D01*
X117569354Y-52640147D01*
X117694853Y-52765646D01*
X117793456Y-52913216D01*
X117861376Y-53077188D01*
X117896000Y-53251259D01*
X117896000Y-53428741D01*
X117861376Y-53602812D01*
X117793456Y-53766784D01*
X117694853Y-53914354D01*
X117569354Y-54039853D01*
X117421784Y-54138456D01*
X117257812Y-54206376D01*
X117108512Y-54236073D01*
X117083742Y-54241000D01*
X116906258Y-54241000D01*
X116881488Y-54236073D01*
X116732188Y-54206376D01*
X116568216Y-54138456D01*
X116420646Y-54039853D01*
X116295147Y-53914354D01*
X116196544Y-53766784D01*
X116128624Y-53602812D01*
X116094000Y-53428741D01*
X116094000Y-53251259D01*
X116128624Y-53077188D01*
X116196544Y-52913216D01*
X116295147Y-52765646D01*
X116420646Y-52640147D01*
X116568216Y-52541544D01*
X116732188Y-52473624D01*
X116881488Y-52443927D01*
X116906258Y-52439000D01*
X117083742Y-52439000D01*
X117108512Y-52443927D01*
G37*
G36*
X79488512Y-52443927D02*
G01*
X79637812Y-52473624D01*
X79801784Y-52541544D01*
X79949354Y-52640147D01*
X80074853Y-52765646D01*
X80173456Y-52913216D01*
X80241376Y-53077188D01*
X80276000Y-53251259D01*
X80276000Y-53428741D01*
X80241376Y-53602812D01*
X80173456Y-53766784D01*
X80074853Y-53914354D01*
X79949354Y-54039853D01*
X79801784Y-54138456D01*
X79637812Y-54206376D01*
X79488512Y-54236073D01*
X79463742Y-54241000D01*
X79286258Y-54241000D01*
X79261488Y-54236073D01*
X79112188Y-54206376D01*
X78948216Y-54138456D01*
X78800646Y-54039853D01*
X78675147Y-53914354D01*
X78576544Y-53766784D01*
X78508624Y-53602812D01*
X78474000Y-53428741D01*
X78474000Y-53251259D01*
X78508624Y-53077188D01*
X78576544Y-52913216D01*
X78675147Y-52765646D01*
X78800646Y-52640147D01*
X78948216Y-52541544D01*
X79112188Y-52473624D01*
X79261488Y-52443927D01*
X79286258Y-52439000D01*
X79463742Y-52439000D01*
X79488512Y-52443927D01*
G37*
G36*
X112028512Y-52443927D02*
G01*
X112177812Y-52473624D01*
X112341784Y-52541544D01*
X112489354Y-52640147D01*
X112614853Y-52765646D01*
X112713456Y-52913216D01*
X112781376Y-53077188D01*
X112816000Y-53251259D01*
X112816000Y-53428741D01*
X112781376Y-53602812D01*
X112713456Y-53766784D01*
X112614853Y-53914354D01*
X112489354Y-54039853D01*
X112341784Y-54138456D01*
X112177812Y-54206376D01*
X112028512Y-54236073D01*
X112003742Y-54241000D01*
X111826258Y-54241000D01*
X111801488Y-54236073D01*
X111652188Y-54206376D01*
X111488216Y-54138456D01*
X111340646Y-54039853D01*
X111215147Y-53914354D01*
X111116544Y-53766784D01*
X111048624Y-53602812D01*
X111014000Y-53428741D01*
X111014000Y-53251259D01*
X111048624Y-53077188D01*
X111116544Y-52913216D01*
X111215147Y-52765646D01*
X111340646Y-52640147D01*
X111488216Y-52541544D01*
X111652188Y-52473624D01*
X111801488Y-52443927D01*
X111826258Y-52439000D01*
X112003742Y-52439000D01*
X112028512Y-52443927D01*
G37*
G36*
X109488512Y-52443927D02*
G01*
X109637812Y-52473624D01*
X109801784Y-52541544D01*
X109949354Y-52640147D01*
X110074853Y-52765646D01*
X110173456Y-52913216D01*
X110241376Y-53077188D01*
X110276000Y-53251259D01*
X110276000Y-53428741D01*
X110241376Y-53602812D01*
X110173456Y-53766784D01*
X110074853Y-53914354D01*
X109949354Y-54039853D01*
X109801784Y-54138456D01*
X109637812Y-54206376D01*
X109488512Y-54236073D01*
X109463742Y-54241000D01*
X109286258Y-54241000D01*
X109261488Y-54236073D01*
X109112188Y-54206376D01*
X108948216Y-54138456D01*
X108800646Y-54039853D01*
X108675147Y-53914354D01*
X108576544Y-53766784D01*
X108508624Y-53602812D01*
X108474000Y-53428741D01*
X108474000Y-53251259D01*
X108508624Y-53077188D01*
X108576544Y-52913216D01*
X108675147Y-52765646D01*
X108800646Y-52640147D01*
X108948216Y-52541544D01*
X109112188Y-52473624D01*
X109261488Y-52443927D01*
X109286258Y-52439000D01*
X109463742Y-52439000D01*
X109488512Y-52443927D01*
G37*
G36*
X106948512Y-52443927D02*
G01*
X107097812Y-52473624D01*
X107261784Y-52541544D01*
X107409354Y-52640147D01*
X107534853Y-52765646D01*
X107633456Y-52913216D01*
X107701376Y-53077188D01*
X107736000Y-53251259D01*
X107736000Y-53428741D01*
X107701376Y-53602812D01*
X107633456Y-53766784D01*
X107534853Y-53914354D01*
X107409354Y-54039853D01*
X107261784Y-54138456D01*
X107097812Y-54206376D01*
X106948512Y-54236073D01*
X106923742Y-54241000D01*
X106746258Y-54241000D01*
X106721488Y-54236073D01*
X106572188Y-54206376D01*
X106408216Y-54138456D01*
X106260646Y-54039853D01*
X106135147Y-53914354D01*
X106036544Y-53766784D01*
X105968624Y-53602812D01*
X105934000Y-53428741D01*
X105934000Y-53251259D01*
X105968624Y-53077188D01*
X106036544Y-52913216D01*
X106135147Y-52765646D01*
X106260646Y-52640147D01*
X106408216Y-52541544D01*
X106572188Y-52473624D01*
X106721488Y-52443927D01*
X106746258Y-52439000D01*
X106923742Y-52439000D01*
X106948512Y-52443927D01*
G37*
G36*
X147108512Y-52443927D02*
G01*
X147257812Y-52473624D01*
X147421784Y-52541544D01*
X147569354Y-52640147D01*
X147694853Y-52765646D01*
X147793456Y-52913216D01*
X147861376Y-53077188D01*
X147896000Y-53251259D01*
X147896000Y-53428741D01*
X147861376Y-53602812D01*
X147793456Y-53766784D01*
X147694853Y-53914354D01*
X147569354Y-54039853D01*
X147421784Y-54138456D01*
X147257812Y-54206376D01*
X147108512Y-54236073D01*
X147083742Y-54241000D01*
X146906258Y-54241000D01*
X146881488Y-54236073D01*
X146732188Y-54206376D01*
X146568216Y-54138456D01*
X146420646Y-54039853D01*
X146295147Y-53914354D01*
X146196544Y-53766784D01*
X146128624Y-53602812D01*
X146094000Y-53428741D01*
X146094000Y-53251259D01*
X146128624Y-53077188D01*
X146196544Y-52913216D01*
X146295147Y-52765646D01*
X146420646Y-52640147D01*
X146568216Y-52541544D01*
X146732188Y-52473624D01*
X146881488Y-52443927D01*
X146906258Y-52439000D01*
X147083742Y-52439000D01*
X147108512Y-52443927D01*
G37*
G36*
X144568512Y-52443927D02*
G01*
X144717812Y-52473624D01*
X144881784Y-52541544D01*
X145029354Y-52640147D01*
X145154853Y-52765646D01*
X145253456Y-52913216D01*
X145321376Y-53077188D01*
X145356000Y-53251259D01*
X145356000Y-53428741D01*
X145321376Y-53602812D01*
X145253456Y-53766784D01*
X145154853Y-53914354D01*
X145029354Y-54039853D01*
X144881784Y-54138456D01*
X144717812Y-54206376D01*
X144568512Y-54236073D01*
X144543742Y-54241000D01*
X144366258Y-54241000D01*
X144341488Y-54236073D01*
X144192188Y-54206376D01*
X144028216Y-54138456D01*
X143880646Y-54039853D01*
X143755147Y-53914354D01*
X143656544Y-53766784D01*
X143588624Y-53602812D01*
X143554000Y-53428741D01*
X143554000Y-53251259D01*
X143588624Y-53077188D01*
X143656544Y-52913216D01*
X143755147Y-52765646D01*
X143880646Y-52640147D01*
X144028216Y-52541544D01*
X144192188Y-52473624D01*
X144341488Y-52443927D01*
X144366258Y-52439000D01*
X144543742Y-52439000D01*
X144568512Y-52443927D01*
G37*
G36*
X142028512Y-52443927D02*
G01*
X142177812Y-52473624D01*
X142341784Y-52541544D01*
X142489354Y-52640147D01*
X142614853Y-52765646D01*
X142713456Y-52913216D01*
X142781376Y-53077188D01*
X142816000Y-53251259D01*
X142816000Y-53428741D01*
X142781376Y-53602812D01*
X142713456Y-53766784D01*
X142614853Y-53914354D01*
X142489354Y-54039853D01*
X142341784Y-54138456D01*
X142177812Y-54206376D01*
X142028512Y-54236073D01*
X142003742Y-54241000D01*
X141826258Y-54241000D01*
X141801488Y-54236073D01*
X141652188Y-54206376D01*
X141488216Y-54138456D01*
X141340646Y-54039853D01*
X141215147Y-53914354D01*
X141116544Y-53766784D01*
X141048624Y-53602812D01*
X141014000Y-53428741D01*
X141014000Y-53251259D01*
X141048624Y-53077188D01*
X141116544Y-52913216D01*
X141215147Y-52765646D01*
X141340646Y-52640147D01*
X141488216Y-52541544D01*
X141652188Y-52473624D01*
X141801488Y-52443927D01*
X141826258Y-52439000D01*
X142003742Y-52439000D01*
X142028512Y-52443927D01*
G37*
G36*
X139488512Y-52443927D02*
G01*
X139637812Y-52473624D01*
X139801784Y-52541544D01*
X139949354Y-52640147D01*
X140074853Y-52765646D01*
X140173456Y-52913216D01*
X140241376Y-53077188D01*
X140276000Y-53251259D01*
X140276000Y-53428741D01*
X140241376Y-53602812D01*
X140173456Y-53766784D01*
X140074853Y-53914354D01*
X139949354Y-54039853D01*
X139801784Y-54138456D01*
X139637812Y-54206376D01*
X139488512Y-54236073D01*
X139463742Y-54241000D01*
X139286258Y-54241000D01*
X139261488Y-54236073D01*
X139112188Y-54206376D01*
X138948216Y-54138456D01*
X138800646Y-54039853D01*
X138675147Y-53914354D01*
X138576544Y-53766784D01*
X138508624Y-53602812D01*
X138474000Y-53428741D01*
X138474000Y-53251259D01*
X138508624Y-53077188D01*
X138576544Y-52913216D01*
X138675147Y-52765646D01*
X138800646Y-52640147D01*
X138948216Y-52541544D01*
X139112188Y-52473624D01*
X139261488Y-52443927D01*
X139286258Y-52439000D01*
X139463742Y-52439000D01*
X139488512Y-52443927D01*
G37*
G36*
X87108512Y-52443927D02*
G01*
X87257812Y-52473624D01*
X87421784Y-52541544D01*
X87569354Y-52640147D01*
X87694853Y-52765646D01*
X87793456Y-52913216D01*
X87861376Y-53077188D01*
X87896000Y-53251259D01*
X87896000Y-53428741D01*
X87861376Y-53602812D01*
X87793456Y-53766784D01*
X87694853Y-53914354D01*
X87569354Y-54039853D01*
X87421784Y-54138456D01*
X87257812Y-54206376D01*
X87108512Y-54236073D01*
X87083742Y-54241000D01*
X86906258Y-54241000D01*
X86881488Y-54236073D01*
X86732188Y-54206376D01*
X86568216Y-54138456D01*
X86420646Y-54039853D01*
X86295147Y-53914354D01*
X86196544Y-53766784D01*
X86128624Y-53602812D01*
X86094000Y-53428741D01*
X86094000Y-53251259D01*
X86128624Y-53077188D01*
X86196544Y-52913216D01*
X86295147Y-52765646D01*
X86420646Y-52640147D01*
X86568216Y-52541544D01*
X86732188Y-52473624D01*
X86881488Y-52443927D01*
X86906258Y-52439000D01*
X87083742Y-52439000D01*
X87108512Y-52443927D01*
G37*
G36*
X136948512Y-52443927D02*
G01*
X137097812Y-52473624D01*
X137261784Y-52541544D01*
X137409354Y-52640147D01*
X137534853Y-52765646D01*
X137633456Y-52913216D01*
X137701376Y-53077188D01*
X137736000Y-53251259D01*
X137736000Y-53428741D01*
X137701376Y-53602812D01*
X137633456Y-53766784D01*
X137534853Y-53914354D01*
X137409354Y-54039853D01*
X137261784Y-54138456D01*
X137097812Y-54206376D01*
X136948512Y-54236073D01*
X136923742Y-54241000D01*
X136746258Y-54241000D01*
X136721488Y-54236073D01*
X136572188Y-54206376D01*
X136408216Y-54138456D01*
X136260646Y-54039853D01*
X136135147Y-53914354D01*
X136036544Y-53766784D01*
X135968624Y-53602812D01*
X135934000Y-53428741D01*
X135934000Y-53251259D01*
X135968624Y-53077188D01*
X136036544Y-52913216D01*
X136135147Y-52765646D01*
X136260646Y-52640147D01*
X136408216Y-52541544D01*
X136572188Y-52473624D01*
X136721488Y-52443927D01*
X136746258Y-52439000D01*
X136923742Y-52439000D01*
X136948512Y-52443927D01*
G37*
G36*
X76948512Y-52443927D02*
G01*
X77097812Y-52473624D01*
X77261784Y-52541544D01*
X77409354Y-52640147D01*
X77534853Y-52765646D01*
X77633456Y-52913216D01*
X77701376Y-53077188D01*
X77736000Y-53251259D01*
X77736000Y-53428741D01*
X77701376Y-53602812D01*
X77633456Y-53766784D01*
X77534853Y-53914354D01*
X77409354Y-54039853D01*
X77261784Y-54138456D01*
X77097812Y-54206376D01*
X76948512Y-54236073D01*
X76923742Y-54241000D01*
X76746258Y-54241000D01*
X76721488Y-54236073D01*
X76572188Y-54206376D01*
X76408216Y-54138456D01*
X76260646Y-54039853D01*
X76135147Y-53914354D01*
X76036544Y-53766784D01*
X75968624Y-53602812D01*
X75934000Y-53428741D01*
X75934000Y-53251259D01*
X75968624Y-53077188D01*
X76036544Y-52913216D01*
X76135147Y-52765646D01*
X76260646Y-52640147D01*
X76408216Y-52541544D01*
X76572188Y-52473624D01*
X76721488Y-52443927D01*
X76746258Y-52439000D01*
X76923742Y-52439000D01*
X76948512Y-52443927D01*
G37*
G36*
X98846000Y-53911000D02*
G01*
X98004000Y-53911000D01*
X98004000Y-51409000D01*
X98846000Y-51409000D01*
X98846000Y-53911000D01*
G37*
G36*
X160116000Y-53911000D02*
G01*
X159274000Y-53911000D01*
X159274000Y-51409000D01*
X160116000Y-51409000D01*
X160116000Y-53911000D01*
G37*
G36*
X97576000Y-53911000D02*
G01*
X96734000Y-53911000D01*
X96734000Y-51409000D01*
X97576000Y-51409000D01*
X97576000Y-53911000D01*
G37*
G36*
X125036000Y-53911000D02*
G01*
X124194000Y-53911000D01*
X124194000Y-51409000D01*
X125036000Y-51409000D01*
X125036000Y-53911000D01*
G37*
G36*
X158846000Y-53911000D02*
G01*
X158004000Y-53911000D01*
X158004000Y-51409000D01*
X158846000Y-51409000D01*
X158846000Y-53911000D01*
G37*
G36*
X126306000Y-53911000D02*
G01*
X125464000Y-53911000D01*
X125464000Y-51409000D01*
X126306000Y-51409000D01*
X126306000Y-53911000D01*
G37*
G36*
X127576000Y-53911000D02*
G01*
X126734000Y-53911000D01*
X126734000Y-51409000D01*
X127576000Y-51409000D01*
X127576000Y-53911000D01*
G37*
G36*
X128846000Y-53911000D02*
G01*
X128004000Y-53911000D01*
X128004000Y-51409000D01*
X128846000Y-51409000D01*
X128846000Y-53911000D01*
G37*
G36*
X130116000Y-53911000D02*
G01*
X129274000Y-53911000D01*
X129274000Y-51409000D01*
X130116000Y-51409000D01*
X130116000Y-53911000D01*
G37*
G36*
X155036000Y-53911000D02*
G01*
X154194000Y-53911000D01*
X154194000Y-51409000D01*
X155036000Y-51409000D01*
X155036000Y-53911000D01*
G37*
G36*
X156306000Y-53911000D02*
G01*
X155464000Y-53911000D01*
X155464000Y-51409000D01*
X156306000Y-51409000D01*
X156306000Y-53911000D01*
G37*
G36*
X95036000Y-53911000D02*
G01*
X94194000Y-53911000D01*
X94194000Y-51409000D01*
X95036000Y-51409000D01*
X95036000Y-53911000D01*
G37*
G36*
X157576000Y-53911000D02*
G01*
X156734000Y-53911000D01*
X156734000Y-51409000D01*
X157576000Y-51409000D01*
X157576000Y-53911000D01*
G37*
G36*
X100116000Y-53911000D02*
G01*
X99274000Y-53911000D01*
X99274000Y-51409000D01*
X100116000Y-51409000D01*
X100116000Y-53911000D01*
G37*
G36*
X96306000Y-53911000D02*
G01*
X95464000Y-53911000D01*
X95464000Y-51409000D01*
X96306000Y-51409000D01*
X96306000Y-53911000D01*
G37*
M02*
