G04 #@! TF.GenerationSoftware,KiCad,Pcbnew,5.1.5-52549c5~86~ubuntu18.04.1*
G04 #@! TF.CreationDate,2020-06-02T01:28:18-05:00*
G04 #@! TF.ProjectId,adap_127_254_panel,61646170-5f31-4323-975f-3235345f7061,rev?*
G04 #@! TF.SameCoordinates,Original*
G04 #@! TF.FileFunction,Legend,Bot*
G04 #@! TF.FilePolarity,Positive*
%FSLAX46Y46*%
G04 Gerber Fmt 4.6, Leading zero omitted, Abs format (unit mm)*
G04 Created by KiCad (PCBNEW 5.1.5-52549c5~86~ubuntu18.04.1) date 2020-06-02 01:28:18*
%MOMM*%
%LPD*%
G04 APERTURE LIST*
%ADD10C,0.150000*%
G04 APERTURE END LIST*
D10*
X144025714Y-136761666D02*
X143549523Y-136761666D01*
X144120952Y-137047380D02*
X143787619Y-136047380D01*
X143454285Y-137047380D01*
X143120952Y-137047380D02*
X143120952Y-136047380D01*
X142882857Y-136047380D01*
X142740000Y-136095000D01*
X142644761Y-136190238D01*
X142597142Y-136285476D01*
X142549523Y-136475952D01*
X142549523Y-136618809D01*
X142597142Y-136809285D01*
X142644761Y-136904523D01*
X142740000Y-136999761D01*
X142882857Y-137047380D01*
X143120952Y-137047380D01*
X142168571Y-136761666D02*
X141692380Y-136761666D01*
X142263809Y-137047380D02*
X141930476Y-136047380D01*
X141597142Y-137047380D01*
X141263809Y-137047380D02*
X141263809Y-136047380D01*
X140882857Y-136047380D01*
X140787619Y-136095000D01*
X140740000Y-136142619D01*
X140692380Y-136237857D01*
X140692380Y-136380714D01*
X140740000Y-136475952D01*
X140787619Y-136523571D01*
X140882857Y-136571190D01*
X141263809Y-136571190D01*
X140501904Y-137142619D02*
X139740000Y-137142619D01*
X138978095Y-137047380D02*
X139549523Y-137047380D01*
X139263809Y-137047380D02*
X139263809Y-136047380D01*
X139359047Y-136190238D01*
X139454285Y-136285476D01*
X139549523Y-136333095D01*
X138597142Y-136142619D02*
X138549523Y-136095000D01*
X138454285Y-136047380D01*
X138216190Y-136047380D01*
X138120952Y-136095000D01*
X138073333Y-136142619D01*
X138025714Y-136237857D01*
X138025714Y-136333095D01*
X138073333Y-136475952D01*
X138644761Y-137047380D01*
X138025714Y-137047380D01*
X137692380Y-136047380D02*
X137025714Y-136047380D01*
X137454285Y-137047380D01*
X136882857Y-137142619D02*
X136120952Y-137142619D01*
X135930476Y-136142619D02*
X135882857Y-136095000D01*
X135787619Y-136047380D01*
X135549523Y-136047380D01*
X135454285Y-136095000D01*
X135406666Y-136142619D01*
X135359047Y-136237857D01*
X135359047Y-136333095D01*
X135406666Y-136475952D01*
X135978095Y-137047380D01*
X135359047Y-137047380D01*
X134454285Y-136047380D02*
X134930476Y-136047380D01*
X134978095Y-136523571D01*
X134930476Y-136475952D01*
X134835238Y-136428333D01*
X134597142Y-136428333D01*
X134501904Y-136475952D01*
X134454285Y-136523571D01*
X134406666Y-136618809D01*
X134406666Y-136856904D01*
X134454285Y-136952142D01*
X134501904Y-136999761D01*
X134597142Y-137047380D01*
X134835238Y-137047380D01*
X134930476Y-136999761D01*
X134978095Y-136952142D01*
X133549523Y-136380714D02*
X133549523Y-137047380D01*
X133787619Y-135999761D02*
X134025714Y-136714047D01*
X133406666Y-136714047D01*
X114025714Y-136761666D02*
X113549523Y-136761666D01*
X114120952Y-137047380D02*
X113787619Y-136047380D01*
X113454285Y-137047380D01*
X113120952Y-137047380D02*
X113120952Y-136047380D01*
X112882857Y-136047380D01*
X112740000Y-136095000D01*
X112644761Y-136190238D01*
X112597142Y-136285476D01*
X112549523Y-136475952D01*
X112549523Y-136618809D01*
X112597142Y-136809285D01*
X112644761Y-136904523D01*
X112740000Y-136999761D01*
X112882857Y-137047380D01*
X113120952Y-137047380D01*
X112168571Y-136761666D02*
X111692380Y-136761666D01*
X112263809Y-137047380D02*
X111930476Y-136047380D01*
X111597142Y-137047380D01*
X111263809Y-137047380D02*
X111263809Y-136047380D01*
X110882857Y-136047380D01*
X110787619Y-136095000D01*
X110740000Y-136142619D01*
X110692380Y-136237857D01*
X110692380Y-136380714D01*
X110740000Y-136475952D01*
X110787619Y-136523571D01*
X110882857Y-136571190D01*
X111263809Y-136571190D01*
X110501904Y-137142619D02*
X109740000Y-137142619D01*
X108978095Y-137047380D02*
X109549523Y-137047380D01*
X109263809Y-137047380D02*
X109263809Y-136047380D01*
X109359047Y-136190238D01*
X109454285Y-136285476D01*
X109549523Y-136333095D01*
X108597142Y-136142619D02*
X108549523Y-136095000D01*
X108454285Y-136047380D01*
X108216190Y-136047380D01*
X108120952Y-136095000D01*
X108073333Y-136142619D01*
X108025714Y-136237857D01*
X108025714Y-136333095D01*
X108073333Y-136475952D01*
X108644761Y-137047380D01*
X108025714Y-137047380D01*
X107692380Y-136047380D02*
X107025714Y-136047380D01*
X107454285Y-137047380D01*
X106882857Y-137142619D02*
X106120952Y-137142619D01*
X105930476Y-136142619D02*
X105882857Y-136095000D01*
X105787619Y-136047380D01*
X105549523Y-136047380D01*
X105454285Y-136095000D01*
X105406666Y-136142619D01*
X105359047Y-136237857D01*
X105359047Y-136333095D01*
X105406666Y-136475952D01*
X105978095Y-137047380D01*
X105359047Y-137047380D01*
X104454285Y-136047380D02*
X104930476Y-136047380D01*
X104978095Y-136523571D01*
X104930476Y-136475952D01*
X104835238Y-136428333D01*
X104597142Y-136428333D01*
X104501904Y-136475952D01*
X104454285Y-136523571D01*
X104406666Y-136618809D01*
X104406666Y-136856904D01*
X104454285Y-136952142D01*
X104501904Y-136999761D01*
X104597142Y-137047380D01*
X104835238Y-137047380D01*
X104930476Y-136999761D01*
X104978095Y-136952142D01*
X103549523Y-136380714D02*
X103549523Y-137047380D01*
X103787619Y-135999761D02*
X104025714Y-136714047D01*
X103406666Y-136714047D01*
X84025714Y-136761666D02*
X83549523Y-136761666D01*
X84120952Y-137047380D02*
X83787619Y-136047380D01*
X83454285Y-137047380D01*
X83120952Y-137047380D02*
X83120952Y-136047380D01*
X82882857Y-136047380D01*
X82740000Y-136095000D01*
X82644761Y-136190238D01*
X82597142Y-136285476D01*
X82549523Y-136475952D01*
X82549523Y-136618809D01*
X82597142Y-136809285D01*
X82644761Y-136904523D01*
X82740000Y-136999761D01*
X82882857Y-137047380D01*
X83120952Y-137047380D01*
X82168571Y-136761666D02*
X81692380Y-136761666D01*
X82263809Y-137047380D02*
X81930476Y-136047380D01*
X81597142Y-137047380D01*
X81263809Y-137047380D02*
X81263809Y-136047380D01*
X80882857Y-136047380D01*
X80787619Y-136095000D01*
X80740000Y-136142619D01*
X80692380Y-136237857D01*
X80692380Y-136380714D01*
X80740000Y-136475952D01*
X80787619Y-136523571D01*
X80882857Y-136571190D01*
X81263809Y-136571190D01*
X80501904Y-137142619D02*
X79740000Y-137142619D01*
X78978095Y-137047380D02*
X79549523Y-137047380D01*
X79263809Y-137047380D02*
X79263809Y-136047380D01*
X79359047Y-136190238D01*
X79454285Y-136285476D01*
X79549523Y-136333095D01*
X78597142Y-136142619D02*
X78549523Y-136095000D01*
X78454285Y-136047380D01*
X78216190Y-136047380D01*
X78120952Y-136095000D01*
X78073333Y-136142619D01*
X78025714Y-136237857D01*
X78025714Y-136333095D01*
X78073333Y-136475952D01*
X78644761Y-137047380D01*
X78025714Y-137047380D01*
X77692380Y-136047380D02*
X77025714Y-136047380D01*
X77454285Y-137047380D01*
X76882857Y-137142619D02*
X76120952Y-137142619D01*
X75930476Y-136142619D02*
X75882857Y-136095000D01*
X75787619Y-136047380D01*
X75549523Y-136047380D01*
X75454285Y-136095000D01*
X75406666Y-136142619D01*
X75359047Y-136237857D01*
X75359047Y-136333095D01*
X75406666Y-136475952D01*
X75978095Y-137047380D01*
X75359047Y-137047380D01*
X74454285Y-136047380D02*
X74930476Y-136047380D01*
X74978095Y-136523571D01*
X74930476Y-136475952D01*
X74835238Y-136428333D01*
X74597142Y-136428333D01*
X74501904Y-136475952D01*
X74454285Y-136523571D01*
X74406666Y-136618809D01*
X74406666Y-136856904D01*
X74454285Y-136952142D01*
X74501904Y-136999761D01*
X74597142Y-137047380D01*
X74835238Y-137047380D01*
X74930476Y-136999761D01*
X74978095Y-136952142D01*
X73549523Y-136380714D02*
X73549523Y-137047380D01*
X73787619Y-135999761D02*
X74025714Y-136714047D01*
X73406666Y-136714047D01*
X144025714Y-121761666D02*
X143549523Y-121761666D01*
X144120952Y-122047380D02*
X143787619Y-121047380D01*
X143454285Y-122047380D01*
X143120952Y-122047380D02*
X143120952Y-121047380D01*
X142882857Y-121047380D01*
X142740000Y-121095000D01*
X142644761Y-121190238D01*
X142597142Y-121285476D01*
X142549523Y-121475952D01*
X142549523Y-121618809D01*
X142597142Y-121809285D01*
X142644761Y-121904523D01*
X142740000Y-121999761D01*
X142882857Y-122047380D01*
X143120952Y-122047380D01*
X142168571Y-121761666D02*
X141692380Y-121761666D01*
X142263809Y-122047380D02*
X141930476Y-121047380D01*
X141597142Y-122047380D01*
X141263809Y-122047380D02*
X141263809Y-121047380D01*
X140882857Y-121047380D01*
X140787619Y-121095000D01*
X140740000Y-121142619D01*
X140692380Y-121237857D01*
X140692380Y-121380714D01*
X140740000Y-121475952D01*
X140787619Y-121523571D01*
X140882857Y-121571190D01*
X141263809Y-121571190D01*
X140501904Y-122142619D02*
X139740000Y-122142619D01*
X138978095Y-122047380D02*
X139549523Y-122047380D01*
X139263809Y-122047380D02*
X139263809Y-121047380D01*
X139359047Y-121190238D01*
X139454285Y-121285476D01*
X139549523Y-121333095D01*
X138597142Y-121142619D02*
X138549523Y-121095000D01*
X138454285Y-121047380D01*
X138216190Y-121047380D01*
X138120952Y-121095000D01*
X138073333Y-121142619D01*
X138025714Y-121237857D01*
X138025714Y-121333095D01*
X138073333Y-121475952D01*
X138644761Y-122047380D01*
X138025714Y-122047380D01*
X137692380Y-121047380D02*
X137025714Y-121047380D01*
X137454285Y-122047380D01*
X136882857Y-122142619D02*
X136120952Y-122142619D01*
X135930476Y-121142619D02*
X135882857Y-121095000D01*
X135787619Y-121047380D01*
X135549523Y-121047380D01*
X135454285Y-121095000D01*
X135406666Y-121142619D01*
X135359047Y-121237857D01*
X135359047Y-121333095D01*
X135406666Y-121475952D01*
X135978095Y-122047380D01*
X135359047Y-122047380D01*
X134454285Y-121047380D02*
X134930476Y-121047380D01*
X134978095Y-121523571D01*
X134930476Y-121475952D01*
X134835238Y-121428333D01*
X134597142Y-121428333D01*
X134501904Y-121475952D01*
X134454285Y-121523571D01*
X134406666Y-121618809D01*
X134406666Y-121856904D01*
X134454285Y-121952142D01*
X134501904Y-121999761D01*
X134597142Y-122047380D01*
X134835238Y-122047380D01*
X134930476Y-121999761D01*
X134978095Y-121952142D01*
X133549523Y-121380714D02*
X133549523Y-122047380D01*
X133787619Y-120999761D02*
X134025714Y-121714047D01*
X133406666Y-121714047D01*
X114025714Y-121761666D02*
X113549523Y-121761666D01*
X114120952Y-122047380D02*
X113787619Y-121047380D01*
X113454285Y-122047380D01*
X113120952Y-122047380D02*
X113120952Y-121047380D01*
X112882857Y-121047380D01*
X112740000Y-121095000D01*
X112644761Y-121190238D01*
X112597142Y-121285476D01*
X112549523Y-121475952D01*
X112549523Y-121618809D01*
X112597142Y-121809285D01*
X112644761Y-121904523D01*
X112740000Y-121999761D01*
X112882857Y-122047380D01*
X113120952Y-122047380D01*
X112168571Y-121761666D02*
X111692380Y-121761666D01*
X112263809Y-122047380D02*
X111930476Y-121047380D01*
X111597142Y-122047380D01*
X111263809Y-122047380D02*
X111263809Y-121047380D01*
X110882857Y-121047380D01*
X110787619Y-121095000D01*
X110740000Y-121142619D01*
X110692380Y-121237857D01*
X110692380Y-121380714D01*
X110740000Y-121475952D01*
X110787619Y-121523571D01*
X110882857Y-121571190D01*
X111263809Y-121571190D01*
X110501904Y-122142619D02*
X109740000Y-122142619D01*
X108978095Y-122047380D02*
X109549523Y-122047380D01*
X109263809Y-122047380D02*
X109263809Y-121047380D01*
X109359047Y-121190238D01*
X109454285Y-121285476D01*
X109549523Y-121333095D01*
X108597142Y-121142619D02*
X108549523Y-121095000D01*
X108454285Y-121047380D01*
X108216190Y-121047380D01*
X108120952Y-121095000D01*
X108073333Y-121142619D01*
X108025714Y-121237857D01*
X108025714Y-121333095D01*
X108073333Y-121475952D01*
X108644761Y-122047380D01*
X108025714Y-122047380D01*
X107692380Y-121047380D02*
X107025714Y-121047380D01*
X107454285Y-122047380D01*
X106882857Y-122142619D02*
X106120952Y-122142619D01*
X105930476Y-121142619D02*
X105882857Y-121095000D01*
X105787619Y-121047380D01*
X105549523Y-121047380D01*
X105454285Y-121095000D01*
X105406666Y-121142619D01*
X105359047Y-121237857D01*
X105359047Y-121333095D01*
X105406666Y-121475952D01*
X105978095Y-122047380D01*
X105359047Y-122047380D01*
X104454285Y-121047380D02*
X104930476Y-121047380D01*
X104978095Y-121523571D01*
X104930476Y-121475952D01*
X104835238Y-121428333D01*
X104597142Y-121428333D01*
X104501904Y-121475952D01*
X104454285Y-121523571D01*
X104406666Y-121618809D01*
X104406666Y-121856904D01*
X104454285Y-121952142D01*
X104501904Y-121999761D01*
X104597142Y-122047380D01*
X104835238Y-122047380D01*
X104930476Y-121999761D01*
X104978095Y-121952142D01*
X103549523Y-121380714D02*
X103549523Y-122047380D01*
X103787619Y-120999761D02*
X104025714Y-121714047D01*
X103406666Y-121714047D01*
X84025714Y-121761666D02*
X83549523Y-121761666D01*
X84120952Y-122047380D02*
X83787619Y-121047380D01*
X83454285Y-122047380D01*
X83120952Y-122047380D02*
X83120952Y-121047380D01*
X82882857Y-121047380D01*
X82740000Y-121095000D01*
X82644761Y-121190238D01*
X82597142Y-121285476D01*
X82549523Y-121475952D01*
X82549523Y-121618809D01*
X82597142Y-121809285D01*
X82644761Y-121904523D01*
X82740000Y-121999761D01*
X82882857Y-122047380D01*
X83120952Y-122047380D01*
X82168571Y-121761666D02*
X81692380Y-121761666D01*
X82263809Y-122047380D02*
X81930476Y-121047380D01*
X81597142Y-122047380D01*
X81263809Y-122047380D02*
X81263809Y-121047380D01*
X80882857Y-121047380D01*
X80787619Y-121095000D01*
X80740000Y-121142619D01*
X80692380Y-121237857D01*
X80692380Y-121380714D01*
X80740000Y-121475952D01*
X80787619Y-121523571D01*
X80882857Y-121571190D01*
X81263809Y-121571190D01*
X80501904Y-122142619D02*
X79740000Y-122142619D01*
X78978095Y-122047380D02*
X79549523Y-122047380D01*
X79263809Y-122047380D02*
X79263809Y-121047380D01*
X79359047Y-121190238D01*
X79454285Y-121285476D01*
X79549523Y-121333095D01*
X78597142Y-121142619D02*
X78549523Y-121095000D01*
X78454285Y-121047380D01*
X78216190Y-121047380D01*
X78120952Y-121095000D01*
X78073333Y-121142619D01*
X78025714Y-121237857D01*
X78025714Y-121333095D01*
X78073333Y-121475952D01*
X78644761Y-122047380D01*
X78025714Y-122047380D01*
X77692380Y-121047380D02*
X77025714Y-121047380D01*
X77454285Y-122047380D01*
X76882857Y-122142619D02*
X76120952Y-122142619D01*
X75930476Y-121142619D02*
X75882857Y-121095000D01*
X75787619Y-121047380D01*
X75549523Y-121047380D01*
X75454285Y-121095000D01*
X75406666Y-121142619D01*
X75359047Y-121237857D01*
X75359047Y-121333095D01*
X75406666Y-121475952D01*
X75978095Y-122047380D01*
X75359047Y-122047380D01*
X74454285Y-121047380D02*
X74930476Y-121047380D01*
X74978095Y-121523571D01*
X74930476Y-121475952D01*
X74835238Y-121428333D01*
X74597142Y-121428333D01*
X74501904Y-121475952D01*
X74454285Y-121523571D01*
X74406666Y-121618809D01*
X74406666Y-121856904D01*
X74454285Y-121952142D01*
X74501904Y-121999761D01*
X74597142Y-122047380D01*
X74835238Y-122047380D01*
X74930476Y-121999761D01*
X74978095Y-121952142D01*
X73549523Y-121380714D02*
X73549523Y-122047380D01*
X73787619Y-120999761D02*
X74025714Y-121714047D01*
X73406666Y-121714047D01*
X144025714Y-106761666D02*
X143549523Y-106761666D01*
X144120952Y-107047380D02*
X143787619Y-106047380D01*
X143454285Y-107047380D01*
X143120952Y-107047380D02*
X143120952Y-106047380D01*
X142882857Y-106047380D01*
X142740000Y-106095000D01*
X142644761Y-106190238D01*
X142597142Y-106285476D01*
X142549523Y-106475952D01*
X142549523Y-106618809D01*
X142597142Y-106809285D01*
X142644761Y-106904523D01*
X142740000Y-106999761D01*
X142882857Y-107047380D01*
X143120952Y-107047380D01*
X142168571Y-106761666D02*
X141692380Y-106761666D01*
X142263809Y-107047380D02*
X141930476Y-106047380D01*
X141597142Y-107047380D01*
X141263809Y-107047380D02*
X141263809Y-106047380D01*
X140882857Y-106047380D01*
X140787619Y-106095000D01*
X140740000Y-106142619D01*
X140692380Y-106237857D01*
X140692380Y-106380714D01*
X140740000Y-106475952D01*
X140787619Y-106523571D01*
X140882857Y-106571190D01*
X141263809Y-106571190D01*
X140501904Y-107142619D02*
X139740000Y-107142619D01*
X138978095Y-107047380D02*
X139549523Y-107047380D01*
X139263809Y-107047380D02*
X139263809Y-106047380D01*
X139359047Y-106190238D01*
X139454285Y-106285476D01*
X139549523Y-106333095D01*
X138597142Y-106142619D02*
X138549523Y-106095000D01*
X138454285Y-106047380D01*
X138216190Y-106047380D01*
X138120952Y-106095000D01*
X138073333Y-106142619D01*
X138025714Y-106237857D01*
X138025714Y-106333095D01*
X138073333Y-106475952D01*
X138644761Y-107047380D01*
X138025714Y-107047380D01*
X137692380Y-106047380D02*
X137025714Y-106047380D01*
X137454285Y-107047380D01*
X136882857Y-107142619D02*
X136120952Y-107142619D01*
X135930476Y-106142619D02*
X135882857Y-106095000D01*
X135787619Y-106047380D01*
X135549523Y-106047380D01*
X135454285Y-106095000D01*
X135406666Y-106142619D01*
X135359047Y-106237857D01*
X135359047Y-106333095D01*
X135406666Y-106475952D01*
X135978095Y-107047380D01*
X135359047Y-107047380D01*
X134454285Y-106047380D02*
X134930476Y-106047380D01*
X134978095Y-106523571D01*
X134930476Y-106475952D01*
X134835238Y-106428333D01*
X134597142Y-106428333D01*
X134501904Y-106475952D01*
X134454285Y-106523571D01*
X134406666Y-106618809D01*
X134406666Y-106856904D01*
X134454285Y-106952142D01*
X134501904Y-106999761D01*
X134597142Y-107047380D01*
X134835238Y-107047380D01*
X134930476Y-106999761D01*
X134978095Y-106952142D01*
X133549523Y-106380714D02*
X133549523Y-107047380D01*
X133787619Y-105999761D02*
X134025714Y-106714047D01*
X133406666Y-106714047D01*
X114025714Y-106761666D02*
X113549523Y-106761666D01*
X114120952Y-107047380D02*
X113787619Y-106047380D01*
X113454285Y-107047380D01*
X113120952Y-107047380D02*
X113120952Y-106047380D01*
X112882857Y-106047380D01*
X112740000Y-106095000D01*
X112644761Y-106190238D01*
X112597142Y-106285476D01*
X112549523Y-106475952D01*
X112549523Y-106618809D01*
X112597142Y-106809285D01*
X112644761Y-106904523D01*
X112740000Y-106999761D01*
X112882857Y-107047380D01*
X113120952Y-107047380D01*
X112168571Y-106761666D02*
X111692380Y-106761666D01*
X112263809Y-107047380D02*
X111930476Y-106047380D01*
X111597142Y-107047380D01*
X111263809Y-107047380D02*
X111263809Y-106047380D01*
X110882857Y-106047380D01*
X110787619Y-106095000D01*
X110740000Y-106142619D01*
X110692380Y-106237857D01*
X110692380Y-106380714D01*
X110740000Y-106475952D01*
X110787619Y-106523571D01*
X110882857Y-106571190D01*
X111263809Y-106571190D01*
X110501904Y-107142619D02*
X109740000Y-107142619D01*
X108978095Y-107047380D02*
X109549523Y-107047380D01*
X109263809Y-107047380D02*
X109263809Y-106047380D01*
X109359047Y-106190238D01*
X109454285Y-106285476D01*
X109549523Y-106333095D01*
X108597142Y-106142619D02*
X108549523Y-106095000D01*
X108454285Y-106047380D01*
X108216190Y-106047380D01*
X108120952Y-106095000D01*
X108073333Y-106142619D01*
X108025714Y-106237857D01*
X108025714Y-106333095D01*
X108073333Y-106475952D01*
X108644761Y-107047380D01*
X108025714Y-107047380D01*
X107692380Y-106047380D02*
X107025714Y-106047380D01*
X107454285Y-107047380D01*
X106882857Y-107142619D02*
X106120952Y-107142619D01*
X105930476Y-106142619D02*
X105882857Y-106095000D01*
X105787619Y-106047380D01*
X105549523Y-106047380D01*
X105454285Y-106095000D01*
X105406666Y-106142619D01*
X105359047Y-106237857D01*
X105359047Y-106333095D01*
X105406666Y-106475952D01*
X105978095Y-107047380D01*
X105359047Y-107047380D01*
X104454285Y-106047380D02*
X104930476Y-106047380D01*
X104978095Y-106523571D01*
X104930476Y-106475952D01*
X104835238Y-106428333D01*
X104597142Y-106428333D01*
X104501904Y-106475952D01*
X104454285Y-106523571D01*
X104406666Y-106618809D01*
X104406666Y-106856904D01*
X104454285Y-106952142D01*
X104501904Y-106999761D01*
X104597142Y-107047380D01*
X104835238Y-107047380D01*
X104930476Y-106999761D01*
X104978095Y-106952142D01*
X103549523Y-106380714D02*
X103549523Y-107047380D01*
X103787619Y-105999761D02*
X104025714Y-106714047D01*
X103406666Y-106714047D01*
X84025714Y-106761666D02*
X83549523Y-106761666D01*
X84120952Y-107047380D02*
X83787619Y-106047380D01*
X83454285Y-107047380D01*
X83120952Y-107047380D02*
X83120952Y-106047380D01*
X82882857Y-106047380D01*
X82740000Y-106095000D01*
X82644761Y-106190238D01*
X82597142Y-106285476D01*
X82549523Y-106475952D01*
X82549523Y-106618809D01*
X82597142Y-106809285D01*
X82644761Y-106904523D01*
X82740000Y-106999761D01*
X82882857Y-107047380D01*
X83120952Y-107047380D01*
X82168571Y-106761666D02*
X81692380Y-106761666D01*
X82263809Y-107047380D02*
X81930476Y-106047380D01*
X81597142Y-107047380D01*
X81263809Y-107047380D02*
X81263809Y-106047380D01*
X80882857Y-106047380D01*
X80787619Y-106095000D01*
X80740000Y-106142619D01*
X80692380Y-106237857D01*
X80692380Y-106380714D01*
X80740000Y-106475952D01*
X80787619Y-106523571D01*
X80882857Y-106571190D01*
X81263809Y-106571190D01*
X80501904Y-107142619D02*
X79740000Y-107142619D01*
X78978095Y-107047380D02*
X79549523Y-107047380D01*
X79263809Y-107047380D02*
X79263809Y-106047380D01*
X79359047Y-106190238D01*
X79454285Y-106285476D01*
X79549523Y-106333095D01*
X78597142Y-106142619D02*
X78549523Y-106095000D01*
X78454285Y-106047380D01*
X78216190Y-106047380D01*
X78120952Y-106095000D01*
X78073333Y-106142619D01*
X78025714Y-106237857D01*
X78025714Y-106333095D01*
X78073333Y-106475952D01*
X78644761Y-107047380D01*
X78025714Y-107047380D01*
X77692380Y-106047380D02*
X77025714Y-106047380D01*
X77454285Y-107047380D01*
X76882857Y-107142619D02*
X76120952Y-107142619D01*
X75930476Y-106142619D02*
X75882857Y-106095000D01*
X75787619Y-106047380D01*
X75549523Y-106047380D01*
X75454285Y-106095000D01*
X75406666Y-106142619D01*
X75359047Y-106237857D01*
X75359047Y-106333095D01*
X75406666Y-106475952D01*
X75978095Y-107047380D01*
X75359047Y-107047380D01*
X74454285Y-106047380D02*
X74930476Y-106047380D01*
X74978095Y-106523571D01*
X74930476Y-106475952D01*
X74835238Y-106428333D01*
X74597142Y-106428333D01*
X74501904Y-106475952D01*
X74454285Y-106523571D01*
X74406666Y-106618809D01*
X74406666Y-106856904D01*
X74454285Y-106952142D01*
X74501904Y-106999761D01*
X74597142Y-107047380D01*
X74835238Y-107047380D01*
X74930476Y-106999761D01*
X74978095Y-106952142D01*
X73549523Y-106380714D02*
X73549523Y-107047380D01*
X73787619Y-105999761D02*
X74025714Y-106714047D01*
X73406666Y-106714047D01*
X144025714Y-91761666D02*
X143549523Y-91761666D01*
X144120952Y-92047380D02*
X143787619Y-91047380D01*
X143454285Y-92047380D01*
X143120952Y-92047380D02*
X143120952Y-91047380D01*
X142882857Y-91047380D01*
X142740000Y-91095000D01*
X142644761Y-91190238D01*
X142597142Y-91285476D01*
X142549523Y-91475952D01*
X142549523Y-91618809D01*
X142597142Y-91809285D01*
X142644761Y-91904523D01*
X142740000Y-91999761D01*
X142882857Y-92047380D01*
X143120952Y-92047380D01*
X142168571Y-91761666D02*
X141692380Y-91761666D01*
X142263809Y-92047380D02*
X141930476Y-91047380D01*
X141597142Y-92047380D01*
X141263809Y-92047380D02*
X141263809Y-91047380D01*
X140882857Y-91047380D01*
X140787619Y-91095000D01*
X140740000Y-91142619D01*
X140692380Y-91237857D01*
X140692380Y-91380714D01*
X140740000Y-91475952D01*
X140787619Y-91523571D01*
X140882857Y-91571190D01*
X141263809Y-91571190D01*
X140501904Y-92142619D02*
X139740000Y-92142619D01*
X138978095Y-92047380D02*
X139549523Y-92047380D01*
X139263809Y-92047380D02*
X139263809Y-91047380D01*
X139359047Y-91190238D01*
X139454285Y-91285476D01*
X139549523Y-91333095D01*
X138597142Y-91142619D02*
X138549523Y-91095000D01*
X138454285Y-91047380D01*
X138216190Y-91047380D01*
X138120952Y-91095000D01*
X138073333Y-91142619D01*
X138025714Y-91237857D01*
X138025714Y-91333095D01*
X138073333Y-91475952D01*
X138644761Y-92047380D01*
X138025714Y-92047380D01*
X137692380Y-91047380D02*
X137025714Y-91047380D01*
X137454285Y-92047380D01*
X136882857Y-92142619D02*
X136120952Y-92142619D01*
X135930476Y-91142619D02*
X135882857Y-91095000D01*
X135787619Y-91047380D01*
X135549523Y-91047380D01*
X135454285Y-91095000D01*
X135406666Y-91142619D01*
X135359047Y-91237857D01*
X135359047Y-91333095D01*
X135406666Y-91475952D01*
X135978095Y-92047380D01*
X135359047Y-92047380D01*
X134454285Y-91047380D02*
X134930476Y-91047380D01*
X134978095Y-91523571D01*
X134930476Y-91475952D01*
X134835238Y-91428333D01*
X134597142Y-91428333D01*
X134501904Y-91475952D01*
X134454285Y-91523571D01*
X134406666Y-91618809D01*
X134406666Y-91856904D01*
X134454285Y-91952142D01*
X134501904Y-91999761D01*
X134597142Y-92047380D01*
X134835238Y-92047380D01*
X134930476Y-91999761D01*
X134978095Y-91952142D01*
X133549523Y-91380714D02*
X133549523Y-92047380D01*
X133787619Y-90999761D02*
X134025714Y-91714047D01*
X133406666Y-91714047D01*
X114025714Y-91761666D02*
X113549523Y-91761666D01*
X114120952Y-92047380D02*
X113787619Y-91047380D01*
X113454285Y-92047380D01*
X113120952Y-92047380D02*
X113120952Y-91047380D01*
X112882857Y-91047380D01*
X112740000Y-91095000D01*
X112644761Y-91190238D01*
X112597142Y-91285476D01*
X112549523Y-91475952D01*
X112549523Y-91618809D01*
X112597142Y-91809285D01*
X112644761Y-91904523D01*
X112740000Y-91999761D01*
X112882857Y-92047380D01*
X113120952Y-92047380D01*
X112168571Y-91761666D02*
X111692380Y-91761666D01*
X112263809Y-92047380D02*
X111930476Y-91047380D01*
X111597142Y-92047380D01*
X111263809Y-92047380D02*
X111263809Y-91047380D01*
X110882857Y-91047380D01*
X110787619Y-91095000D01*
X110740000Y-91142619D01*
X110692380Y-91237857D01*
X110692380Y-91380714D01*
X110740000Y-91475952D01*
X110787619Y-91523571D01*
X110882857Y-91571190D01*
X111263809Y-91571190D01*
X110501904Y-92142619D02*
X109740000Y-92142619D01*
X108978095Y-92047380D02*
X109549523Y-92047380D01*
X109263809Y-92047380D02*
X109263809Y-91047380D01*
X109359047Y-91190238D01*
X109454285Y-91285476D01*
X109549523Y-91333095D01*
X108597142Y-91142619D02*
X108549523Y-91095000D01*
X108454285Y-91047380D01*
X108216190Y-91047380D01*
X108120952Y-91095000D01*
X108073333Y-91142619D01*
X108025714Y-91237857D01*
X108025714Y-91333095D01*
X108073333Y-91475952D01*
X108644761Y-92047380D01*
X108025714Y-92047380D01*
X107692380Y-91047380D02*
X107025714Y-91047380D01*
X107454285Y-92047380D01*
X106882857Y-92142619D02*
X106120952Y-92142619D01*
X105930476Y-91142619D02*
X105882857Y-91095000D01*
X105787619Y-91047380D01*
X105549523Y-91047380D01*
X105454285Y-91095000D01*
X105406666Y-91142619D01*
X105359047Y-91237857D01*
X105359047Y-91333095D01*
X105406666Y-91475952D01*
X105978095Y-92047380D01*
X105359047Y-92047380D01*
X104454285Y-91047380D02*
X104930476Y-91047380D01*
X104978095Y-91523571D01*
X104930476Y-91475952D01*
X104835238Y-91428333D01*
X104597142Y-91428333D01*
X104501904Y-91475952D01*
X104454285Y-91523571D01*
X104406666Y-91618809D01*
X104406666Y-91856904D01*
X104454285Y-91952142D01*
X104501904Y-91999761D01*
X104597142Y-92047380D01*
X104835238Y-92047380D01*
X104930476Y-91999761D01*
X104978095Y-91952142D01*
X103549523Y-91380714D02*
X103549523Y-92047380D01*
X103787619Y-90999761D02*
X104025714Y-91714047D01*
X103406666Y-91714047D01*
X84025714Y-91761666D02*
X83549523Y-91761666D01*
X84120952Y-92047380D02*
X83787619Y-91047380D01*
X83454285Y-92047380D01*
X83120952Y-92047380D02*
X83120952Y-91047380D01*
X82882857Y-91047380D01*
X82740000Y-91095000D01*
X82644761Y-91190238D01*
X82597142Y-91285476D01*
X82549523Y-91475952D01*
X82549523Y-91618809D01*
X82597142Y-91809285D01*
X82644761Y-91904523D01*
X82740000Y-91999761D01*
X82882857Y-92047380D01*
X83120952Y-92047380D01*
X82168571Y-91761666D02*
X81692380Y-91761666D01*
X82263809Y-92047380D02*
X81930476Y-91047380D01*
X81597142Y-92047380D01*
X81263809Y-92047380D02*
X81263809Y-91047380D01*
X80882857Y-91047380D01*
X80787619Y-91095000D01*
X80740000Y-91142619D01*
X80692380Y-91237857D01*
X80692380Y-91380714D01*
X80740000Y-91475952D01*
X80787619Y-91523571D01*
X80882857Y-91571190D01*
X81263809Y-91571190D01*
X80501904Y-92142619D02*
X79740000Y-92142619D01*
X78978095Y-92047380D02*
X79549523Y-92047380D01*
X79263809Y-92047380D02*
X79263809Y-91047380D01*
X79359047Y-91190238D01*
X79454285Y-91285476D01*
X79549523Y-91333095D01*
X78597142Y-91142619D02*
X78549523Y-91095000D01*
X78454285Y-91047380D01*
X78216190Y-91047380D01*
X78120952Y-91095000D01*
X78073333Y-91142619D01*
X78025714Y-91237857D01*
X78025714Y-91333095D01*
X78073333Y-91475952D01*
X78644761Y-92047380D01*
X78025714Y-92047380D01*
X77692380Y-91047380D02*
X77025714Y-91047380D01*
X77454285Y-92047380D01*
X76882857Y-92142619D02*
X76120952Y-92142619D01*
X75930476Y-91142619D02*
X75882857Y-91095000D01*
X75787619Y-91047380D01*
X75549523Y-91047380D01*
X75454285Y-91095000D01*
X75406666Y-91142619D01*
X75359047Y-91237857D01*
X75359047Y-91333095D01*
X75406666Y-91475952D01*
X75978095Y-92047380D01*
X75359047Y-92047380D01*
X74454285Y-91047380D02*
X74930476Y-91047380D01*
X74978095Y-91523571D01*
X74930476Y-91475952D01*
X74835238Y-91428333D01*
X74597142Y-91428333D01*
X74501904Y-91475952D01*
X74454285Y-91523571D01*
X74406666Y-91618809D01*
X74406666Y-91856904D01*
X74454285Y-91952142D01*
X74501904Y-91999761D01*
X74597142Y-92047380D01*
X74835238Y-92047380D01*
X74930476Y-91999761D01*
X74978095Y-91952142D01*
X73549523Y-91380714D02*
X73549523Y-92047380D01*
X73787619Y-90999761D02*
X74025714Y-91714047D01*
X73406666Y-91714047D01*
X144025714Y-76761666D02*
X143549523Y-76761666D01*
X144120952Y-77047380D02*
X143787619Y-76047380D01*
X143454285Y-77047380D01*
X143120952Y-77047380D02*
X143120952Y-76047380D01*
X142882857Y-76047380D01*
X142740000Y-76095000D01*
X142644761Y-76190238D01*
X142597142Y-76285476D01*
X142549523Y-76475952D01*
X142549523Y-76618809D01*
X142597142Y-76809285D01*
X142644761Y-76904523D01*
X142740000Y-76999761D01*
X142882857Y-77047380D01*
X143120952Y-77047380D01*
X142168571Y-76761666D02*
X141692380Y-76761666D01*
X142263809Y-77047380D02*
X141930476Y-76047380D01*
X141597142Y-77047380D01*
X141263809Y-77047380D02*
X141263809Y-76047380D01*
X140882857Y-76047380D01*
X140787619Y-76095000D01*
X140740000Y-76142619D01*
X140692380Y-76237857D01*
X140692380Y-76380714D01*
X140740000Y-76475952D01*
X140787619Y-76523571D01*
X140882857Y-76571190D01*
X141263809Y-76571190D01*
X140501904Y-77142619D02*
X139740000Y-77142619D01*
X138978095Y-77047380D02*
X139549523Y-77047380D01*
X139263809Y-77047380D02*
X139263809Y-76047380D01*
X139359047Y-76190238D01*
X139454285Y-76285476D01*
X139549523Y-76333095D01*
X138597142Y-76142619D02*
X138549523Y-76095000D01*
X138454285Y-76047380D01*
X138216190Y-76047380D01*
X138120952Y-76095000D01*
X138073333Y-76142619D01*
X138025714Y-76237857D01*
X138025714Y-76333095D01*
X138073333Y-76475952D01*
X138644761Y-77047380D01*
X138025714Y-77047380D01*
X137692380Y-76047380D02*
X137025714Y-76047380D01*
X137454285Y-77047380D01*
X136882857Y-77142619D02*
X136120952Y-77142619D01*
X135930476Y-76142619D02*
X135882857Y-76095000D01*
X135787619Y-76047380D01*
X135549523Y-76047380D01*
X135454285Y-76095000D01*
X135406666Y-76142619D01*
X135359047Y-76237857D01*
X135359047Y-76333095D01*
X135406666Y-76475952D01*
X135978095Y-77047380D01*
X135359047Y-77047380D01*
X134454285Y-76047380D02*
X134930476Y-76047380D01*
X134978095Y-76523571D01*
X134930476Y-76475952D01*
X134835238Y-76428333D01*
X134597142Y-76428333D01*
X134501904Y-76475952D01*
X134454285Y-76523571D01*
X134406666Y-76618809D01*
X134406666Y-76856904D01*
X134454285Y-76952142D01*
X134501904Y-76999761D01*
X134597142Y-77047380D01*
X134835238Y-77047380D01*
X134930476Y-76999761D01*
X134978095Y-76952142D01*
X133549523Y-76380714D02*
X133549523Y-77047380D01*
X133787619Y-75999761D02*
X134025714Y-76714047D01*
X133406666Y-76714047D01*
X114025714Y-76761666D02*
X113549523Y-76761666D01*
X114120952Y-77047380D02*
X113787619Y-76047380D01*
X113454285Y-77047380D01*
X113120952Y-77047380D02*
X113120952Y-76047380D01*
X112882857Y-76047380D01*
X112740000Y-76095000D01*
X112644761Y-76190238D01*
X112597142Y-76285476D01*
X112549523Y-76475952D01*
X112549523Y-76618809D01*
X112597142Y-76809285D01*
X112644761Y-76904523D01*
X112740000Y-76999761D01*
X112882857Y-77047380D01*
X113120952Y-77047380D01*
X112168571Y-76761666D02*
X111692380Y-76761666D01*
X112263809Y-77047380D02*
X111930476Y-76047380D01*
X111597142Y-77047380D01*
X111263809Y-77047380D02*
X111263809Y-76047380D01*
X110882857Y-76047380D01*
X110787619Y-76095000D01*
X110740000Y-76142619D01*
X110692380Y-76237857D01*
X110692380Y-76380714D01*
X110740000Y-76475952D01*
X110787619Y-76523571D01*
X110882857Y-76571190D01*
X111263809Y-76571190D01*
X110501904Y-77142619D02*
X109740000Y-77142619D01*
X108978095Y-77047380D02*
X109549523Y-77047380D01*
X109263809Y-77047380D02*
X109263809Y-76047380D01*
X109359047Y-76190238D01*
X109454285Y-76285476D01*
X109549523Y-76333095D01*
X108597142Y-76142619D02*
X108549523Y-76095000D01*
X108454285Y-76047380D01*
X108216190Y-76047380D01*
X108120952Y-76095000D01*
X108073333Y-76142619D01*
X108025714Y-76237857D01*
X108025714Y-76333095D01*
X108073333Y-76475952D01*
X108644761Y-77047380D01*
X108025714Y-77047380D01*
X107692380Y-76047380D02*
X107025714Y-76047380D01*
X107454285Y-77047380D01*
X106882857Y-77142619D02*
X106120952Y-77142619D01*
X105930476Y-76142619D02*
X105882857Y-76095000D01*
X105787619Y-76047380D01*
X105549523Y-76047380D01*
X105454285Y-76095000D01*
X105406666Y-76142619D01*
X105359047Y-76237857D01*
X105359047Y-76333095D01*
X105406666Y-76475952D01*
X105978095Y-77047380D01*
X105359047Y-77047380D01*
X104454285Y-76047380D02*
X104930476Y-76047380D01*
X104978095Y-76523571D01*
X104930476Y-76475952D01*
X104835238Y-76428333D01*
X104597142Y-76428333D01*
X104501904Y-76475952D01*
X104454285Y-76523571D01*
X104406666Y-76618809D01*
X104406666Y-76856904D01*
X104454285Y-76952142D01*
X104501904Y-76999761D01*
X104597142Y-77047380D01*
X104835238Y-77047380D01*
X104930476Y-76999761D01*
X104978095Y-76952142D01*
X103549523Y-76380714D02*
X103549523Y-77047380D01*
X103787619Y-75999761D02*
X104025714Y-76714047D01*
X103406666Y-76714047D01*
X84025714Y-76761666D02*
X83549523Y-76761666D01*
X84120952Y-77047380D02*
X83787619Y-76047380D01*
X83454285Y-77047380D01*
X83120952Y-77047380D02*
X83120952Y-76047380D01*
X82882857Y-76047380D01*
X82740000Y-76095000D01*
X82644761Y-76190238D01*
X82597142Y-76285476D01*
X82549523Y-76475952D01*
X82549523Y-76618809D01*
X82597142Y-76809285D01*
X82644761Y-76904523D01*
X82740000Y-76999761D01*
X82882857Y-77047380D01*
X83120952Y-77047380D01*
X82168571Y-76761666D02*
X81692380Y-76761666D01*
X82263809Y-77047380D02*
X81930476Y-76047380D01*
X81597142Y-77047380D01*
X81263809Y-77047380D02*
X81263809Y-76047380D01*
X80882857Y-76047380D01*
X80787619Y-76095000D01*
X80740000Y-76142619D01*
X80692380Y-76237857D01*
X80692380Y-76380714D01*
X80740000Y-76475952D01*
X80787619Y-76523571D01*
X80882857Y-76571190D01*
X81263809Y-76571190D01*
X80501904Y-77142619D02*
X79740000Y-77142619D01*
X78978095Y-77047380D02*
X79549523Y-77047380D01*
X79263809Y-77047380D02*
X79263809Y-76047380D01*
X79359047Y-76190238D01*
X79454285Y-76285476D01*
X79549523Y-76333095D01*
X78597142Y-76142619D02*
X78549523Y-76095000D01*
X78454285Y-76047380D01*
X78216190Y-76047380D01*
X78120952Y-76095000D01*
X78073333Y-76142619D01*
X78025714Y-76237857D01*
X78025714Y-76333095D01*
X78073333Y-76475952D01*
X78644761Y-77047380D01*
X78025714Y-77047380D01*
X77692380Y-76047380D02*
X77025714Y-76047380D01*
X77454285Y-77047380D01*
X76882857Y-77142619D02*
X76120952Y-77142619D01*
X75930476Y-76142619D02*
X75882857Y-76095000D01*
X75787619Y-76047380D01*
X75549523Y-76047380D01*
X75454285Y-76095000D01*
X75406666Y-76142619D01*
X75359047Y-76237857D01*
X75359047Y-76333095D01*
X75406666Y-76475952D01*
X75978095Y-77047380D01*
X75359047Y-77047380D01*
X74454285Y-76047380D02*
X74930476Y-76047380D01*
X74978095Y-76523571D01*
X74930476Y-76475952D01*
X74835238Y-76428333D01*
X74597142Y-76428333D01*
X74501904Y-76475952D01*
X74454285Y-76523571D01*
X74406666Y-76618809D01*
X74406666Y-76856904D01*
X74454285Y-76952142D01*
X74501904Y-76999761D01*
X74597142Y-77047380D01*
X74835238Y-77047380D01*
X74930476Y-76999761D01*
X74978095Y-76952142D01*
X73549523Y-76380714D02*
X73549523Y-77047380D01*
X73787619Y-75999761D02*
X74025714Y-76714047D01*
X73406666Y-76714047D01*
X144025714Y-61761666D02*
X143549523Y-61761666D01*
X144120952Y-62047380D02*
X143787619Y-61047380D01*
X143454285Y-62047380D01*
X143120952Y-62047380D02*
X143120952Y-61047380D01*
X142882857Y-61047380D01*
X142740000Y-61095000D01*
X142644761Y-61190238D01*
X142597142Y-61285476D01*
X142549523Y-61475952D01*
X142549523Y-61618809D01*
X142597142Y-61809285D01*
X142644761Y-61904523D01*
X142740000Y-61999761D01*
X142882857Y-62047380D01*
X143120952Y-62047380D01*
X142168571Y-61761666D02*
X141692380Y-61761666D01*
X142263809Y-62047380D02*
X141930476Y-61047380D01*
X141597142Y-62047380D01*
X141263809Y-62047380D02*
X141263809Y-61047380D01*
X140882857Y-61047380D01*
X140787619Y-61095000D01*
X140740000Y-61142619D01*
X140692380Y-61237857D01*
X140692380Y-61380714D01*
X140740000Y-61475952D01*
X140787619Y-61523571D01*
X140882857Y-61571190D01*
X141263809Y-61571190D01*
X140501904Y-62142619D02*
X139740000Y-62142619D01*
X138978095Y-62047380D02*
X139549523Y-62047380D01*
X139263809Y-62047380D02*
X139263809Y-61047380D01*
X139359047Y-61190238D01*
X139454285Y-61285476D01*
X139549523Y-61333095D01*
X138597142Y-61142619D02*
X138549523Y-61095000D01*
X138454285Y-61047380D01*
X138216190Y-61047380D01*
X138120952Y-61095000D01*
X138073333Y-61142619D01*
X138025714Y-61237857D01*
X138025714Y-61333095D01*
X138073333Y-61475952D01*
X138644761Y-62047380D01*
X138025714Y-62047380D01*
X137692380Y-61047380D02*
X137025714Y-61047380D01*
X137454285Y-62047380D01*
X136882857Y-62142619D02*
X136120952Y-62142619D01*
X135930476Y-61142619D02*
X135882857Y-61095000D01*
X135787619Y-61047380D01*
X135549523Y-61047380D01*
X135454285Y-61095000D01*
X135406666Y-61142619D01*
X135359047Y-61237857D01*
X135359047Y-61333095D01*
X135406666Y-61475952D01*
X135978095Y-62047380D01*
X135359047Y-62047380D01*
X134454285Y-61047380D02*
X134930476Y-61047380D01*
X134978095Y-61523571D01*
X134930476Y-61475952D01*
X134835238Y-61428333D01*
X134597142Y-61428333D01*
X134501904Y-61475952D01*
X134454285Y-61523571D01*
X134406666Y-61618809D01*
X134406666Y-61856904D01*
X134454285Y-61952142D01*
X134501904Y-61999761D01*
X134597142Y-62047380D01*
X134835238Y-62047380D01*
X134930476Y-61999761D01*
X134978095Y-61952142D01*
X133549523Y-61380714D02*
X133549523Y-62047380D01*
X133787619Y-60999761D02*
X134025714Y-61714047D01*
X133406666Y-61714047D01*
X114025714Y-61761666D02*
X113549523Y-61761666D01*
X114120952Y-62047380D02*
X113787619Y-61047380D01*
X113454285Y-62047380D01*
X113120952Y-62047380D02*
X113120952Y-61047380D01*
X112882857Y-61047380D01*
X112740000Y-61095000D01*
X112644761Y-61190238D01*
X112597142Y-61285476D01*
X112549523Y-61475952D01*
X112549523Y-61618809D01*
X112597142Y-61809285D01*
X112644761Y-61904523D01*
X112740000Y-61999761D01*
X112882857Y-62047380D01*
X113120952Y-62047380D01*
X112168571Y-61761666D02*
X111692380Y-61761666D01*
X112263809Y-62047380D02*
X111930476Y-61047380D01*
X111597142Y-62047380D01*
X111263809Y-62047380D02*
X111263809Y-61047380D01*
X110882857Y-61047380D01*
X110787619Y-61095000D01*
X110740000Y-61142619D01*
X110692380Y-61237857D01*
X110692380Y-61380714D01*
X110740000Y-61475952D01*
X110787619Y-61523571D01*
X110882857Y-61571190D01*
X111263809Y-61571190D01*
X110501904Y-62142619D02*
X109740000Y-62142619D01*
X108978095Y-62047380D02*
X109549523Y-62047380D01*
X109263809Y-62047380D02*
X109263809Y-61047380D01*
X109359047Y-61190238D01*
X109454285Y-61285476D01*
X109549523Y-61333095D01*
X108597142Y-61142619D02*
X108549523Y-61095000D01*
X108454285Y-61047380D01*
X108216190Y-61047380D01*
X108120952Y-61095000D01*
X108073333Y-61142619D01*
X108025714Y-61237857D01*
X108025714Y-61333095D01*
X108073333Y-61475952D01*
X108644761Y-62047380D01*
X108025714Y-62047380D01*
X107692380Y-61047380D02*
X107025714Y-61047380D01*
X107454285Y-62047380D01*
X106882857Y-62142619D02*
X106120952Y-62142619D01*
X105930476Y-61142619D02*
X105882857Y-61095000D01*
X105787619Y-61047380D01*
X105549523Y-61047380D01*
X105454285Y-61095000D01*
X105406666Y-61142619D01*
X105359047Y-61237857D01*
X105359047Y-61333095D01*
X105406666Y-61475952D01*
X105978095Y-62047380D01*
X105359047Y-62047380D01*
X104454285Y-61047380D02*
X104930476Y-61047380D01*
X104978095Y-61523571D01*
X104930476Y-61475952D01*
X104835238Y-61428333D01*
X104597142Y-61428333D01*
X104501904Y-61475952D01*
X104454285Y-61523571D01*
X104406666Y-61618809D01*
X104406666Y-61856904D01*
X104454285Y-61952142D01*
X104501904Y-61999761D01*
X104597142Y-62047380D01*
X104835238Y-62047380D01*
X104930476Y-61999761D01*
X104978095Y-61952142D01*
X103549523Y-61380714D02*
X103549523Y-62047380D01*
X103787619Y-60999761D02*
X104025714Y-61714047D01*
X103406666Y-61714047D01*
X84025714Y-61761666D02*
X83549523Y-61761666D01*
X84120952Y-62047380D02*
X83787619Y-61047380D01*
X83454285Y-62047380D01*
X83120952Y-62047380D02*
X83120952Y-61047380D01*
X82882857Y-61047380D01*
X82740000Y-61095000D01*
X82644761Y-61190238D01*
X82597142Y-61285476D01*
X82549523Y-61475952D01*
X82549523Y-61618809D01*
X82597142Y-61809285D01*
X82644761Y-61904523D01*
X82740000Y-61999761D01*
X82882857Y-62047380D01*
X83120952Y-62047380D01*
X82168571Y-61761666D02*
X81692380Y-61761666D01*
X82263809Y-62047380D02*
X81930476Y-61047380D01*
X81597142Y-62047380D01*
X81263809Y-62047380D02*
X81263809Y-61047380D01*
X80882857Y-61047380D01*
X80787619Y-61095000D01*
X80740000Y-61142619D01*
X80692380Y-61237857D01*
X80692380Y-61380714D01*
X80740000Y-61475952D01*
X80787619Y-61523571D01*
X80882857Y-61571190D01*
X81263809Y-61571190D01*
X80501904Y-62142619D02*
X79740000Y-62142619D01*
X78978095Y-62047380D02*
X79549523Y-62047380D01*
X79263809Y-62047380D02*
X79263809Y-61047380D01*
X79359047Y-61190238D01*
X79454285Y-61285476D01*
X79549523Y-61333095D01*
X78597142Y-61142619D02*
X78549523Y-61095000D01*
X78454285Y-61047380D01*
X78216190Y-61047380D01*
X78120952Y-61095000D01*
X78073333Y-61142619D01*
X78025714Y-61237857D01*
X78025714Y-61333095D01*
X78073333Y-61475952D01*
X78644761Y-62047380D01*
X78025714Y-62047380D01*
X77692380Y-61047380D02*
X77025714Y-61047380D01*
X77454285Y-62047380D01*
X76882857Y-62142619D02*
X76120952Y-62142619D01*
X75930476Y-61142619D02*
X75882857Y-61095000D01*
X75787619Y-61047380D01*
X75549523Y-61047380D01*
X75454285Y-61095000D01*
X75406666Y-61142619D01*
X75359047Y-61237857D01*
X75359047Y-61333095D01*
X75406666Y-61475952D01*
X75978095Y-62047380D01*
X75359047Y-62047380D01*
X74454285Y-61047380D02*
X74930476Y-61047380D01*
X74978095Y-61523571D01*
X74930476Y-61475952D01*
X74835238Y-61428333D01*
X74597142Y-61428333D01*
X74501904Y-61475952D01*
X74454285Y-61523571D01*
X74406666Y-61618809D01*
X74406666Y-61856904D01*
X74454285Y-61952142D01*
X74501904Y-61999761D01*
X74597142Y-62047380D01*
X74835238Y-62047380D01*
X74930476Y-61999761D01*
X74978095Y-61952142D01*
X73549523Y-61380714D02*
X73549523Y-62047380D01*
X73787619Y-60999761D02*
X74025714Y-61714047D01*
X73406666Y-61714047D01*
M02*
